G04 #@! TF.GenerationSoftware,KiCad,Pcbnew,10.0.0*
G04 #@! TF.CreationDate,2026-07-26T19:32:53-07:00*
G04 #@! TF.ProjectId,SSI Summer Balloons,53534920-5375-46d6-9d65-722042616c6c,rev?*
G04 #@! TF.SameCoordinates,Original*
G04 #@! TF.FileFunction,Copper,L4,Bot*
G04 #@! TF.FilePolarity,Positive*
%FSLAX46Y46*%
G04 Gerber Fmt 4.6, Leading zero omitted, Abs format (unit mm)*
G04 Created by KiCad (PCBNEW 10.0.0) date 2026-07-26 19:32:53*
%MOMM*%
%LPD*%
G01*
G04 APERTURE LIST*
G04 Aperture macros list*
%AMRoundRect*
0 Rectangle with rounded corners*
0 $1 Rounding radius*
0 $2 $3 $4 $5 $6 $7 $8 $9 X,Y pos of 4 corners*
0 Add a 4 corners polygon primitive as box body*
4,1,4,$2,$3,$4,$5,$6,$7,$8,$9,$2,$3,0*
0 Add four circle primitives for the rounded corners*
1,1,$1+$1,$2,$3*
1,1,$1+$1,$4,$5*
1,1,$1+$1,$6,$7*
1,1,$1+$1,$8,$9*
0 Add four rect primitives between the rounded corners*
20,1,$1+$1,$2,$3,$4,$5,0*
20,1,$1+$1,$4,$5,$6,$7,0*
20,1,$1+$1,$6,$7,$8,$9,0*
20,1,$1+$1,$8,$9,$2,$3,0*%
G04 Aperture macros list end*
G04 #@! TA.AperFunction,ComponentPad*
%ADD10R,1.700000X1.700000*%
G04 #@! TD*
G04 #@! TA.AperFunction,ComponentPad*
%ADD11RoundRect,0.250000X0.750000X-0.600000X0.750000X0.600000X-0.750000X0.600000X-0.750000X-0.600000X0*%
G04 #@! TD*
G04 #@! TA.AperFunction,ComponentPad*
%ADD12O,2.000000X1.700000*%
G04 #@! TD*
G04 #@! TA.AperFunction,ComponentPad*
%ADD13RoundRect,0.250000X-0.600000X-0.725000X0.600000X-0.725000X0.600000X0.725000X-0.600000X0.725000X0*%
G04 #@! TD*
G04 #@! TA.AperFunction,ComponentPad*
%ADD14O,1.700000X1.950000*%
G04 #@! TD*
G04 #@! TA.AperFunction,ComponentPad*
%ADD15RoundRect,0.250000X0.600000X0.725000X-0.600000X0.725000X-0.600000X-0.725000X0.600000X-0.725000X0*%
G04 #@! TD*
G04 #@! TA.AperFunction,ComponentPad*
%ADD16RoundRect,0.250000X0.350000X0.625000X-0.350000X0.625000X-0.350000X-0.625000X0.350000X-0.625000X0*%
G04 #@! TD*
G04 #@! TA.AperFunction,ComponentPad*
%ADD17O,1.200000X1.750000*%
G04 #@! TD*
G04 #@! TA.AperFunction,ComponentPad*
%ADD18C,1.700000*%
G04 #@! TD*
G04 #@! TA.AperFunction,ComponentPad*
%ADD19C,2.050000*%
G04 #@! TD*
G04 #@! TA.AperFunction,ComponentPad*
%ADD20C,2.250000*%
G04 #@! TD*
G04 #@! TA.AperFunction,ViaPad*
%ADD21C,0.600000*%
G04 #@! TD*
G04 #@! TA.AperFunction,ViaPad*
%ADD22C,0.550000*%
G04 #@! TD*
G04 #@! TA.AperFunction,ViaPad*
%ADD23C,1.000000*%
G04 #@! TD*
G04 #@! TA.AperFunction,Conductor*
%ADD24C,0.200000*%
G04 #@! TD*
G04 #@! TA.AperFunction,Conductor*
%ADD25C,1.000000*%
G04 #@! TD*
G04 #@! TA.AperFunction,Conductor*
%ADD26C,0.300000*%
G04 #@! TD*
G04 APERTURE END LIST*
D10*
G04 #@! TO.P,TP24,1,Pin_1_1*
G04 #@! TO.N,/MCU (STM)/microSD_CS*
X32250001Y51500000D03*
G04 #@! TD*
G04 #@! TO.P,TP15,1,Pin_1_1*
G04 #@! TO.N,/MCU (STM)/APRS_PTT*
X46000001Y6000000D03*
G04 #@! TD*
G04 #@! TO.P,TP10,1,Pin_1_1*
G04 #@! TO.N,/MCU (STM)/NRST*
X9500001Y24500000D03*
G04 #@! TD*
G04 #@! TO.P,TP25,1,Pin_1_1*
G04 #@! TO.N,/MCU (STM)/LoRa_RESET*
X69500001Y28000000D03*
G04 #@! TD*
G04 #@! TO.P,TP5,1,Pin_1_1*
G04 #@! TO.N,GND*
X49000001Y37000000D03*
G04 #@! TD*
G04 #@! TO.P,TP14,1,Pin_1_1*
G04 #@! TO.N,/MCU (STM)/APRS_PD*
X37500001Y6000000D03*
G04 #@! TD*
G04 #@! TO.P,TP6,1,Pin_1_1*
G04 #@! TO.N,/MCU (STM)/APRS_AUDIO*
X53000001Y6000000D03*
G04 #@! TD*
G04 #@! TO.P,TP2,1,Pin_1_1*
G04 #@! TO.N,VBAT_PROT*
X6500001Y31500000D03*
G04 #@! TD*
D11*
G04 #@! TO.P,J2,1,Pin_1_1*
G04 #@! TO.N,Net-(J2-Pin_1)*
X4975001Y36750000D03*
D12*
G04 #@! TO.P,J2,2,Pin_2_2*
G04 #@! TO.N,VBAT*
X4975001Y39250000D03*
G04 #@! TD*
D13*
G04 #@! TO.P,J10,1,Pin_1_1*
G04 #@! TO.N,+5V*
X11625001Y14125000D03*
D14*
G04 #@! TO.P,J10,2,Pin_2_2*
G04 #@! TO.N,GND*
X14125001Y14125000D03*
G04 #@! TO.P,J10,3,Pin_3_3*
X16625001Y14125000D03*
G04 #@! TO.P,J10,4,Pin_4_4*
G04 #@! TO.N,/MCU (STM)/APRS_AUDIO*
X19125001Y14125000D03*
G04 #@! TO.P,J10,5,Pin_5_5*
G04 #@! TO.N,/MCU (STM)/APRS_TX*
X21625001Y14125000D03*
G04 #@! TO.P,J10,6,Pin_6_6*
G04 #@! TO.N,/MCU (STM)/APRS_RX*
X24125001Y14125000D03*
G04 #@! TO.P,J10,7,Pin_7_7*
G04 #@! TO.N,/MCU (STM)/APRS_PTT*
X26625001Y14125000D03*
G04 #@! TO.P,J10,8,Pin_8_8*
G04 #@! TO.N,/MCU (STM)/APRS_PD*
X29125001Y14125000D03*
G04 #@! TD*
D11*
G04 #@! TO.P,J1,1,Pin_1_1*
G04 #@! TO.N,VBAT*
X4850001Y45475000D03*
D12*
G04 #@! TO.P,J1,2,Pin_2_2*
G04 #@! TO.N,GND*
X4850001Y47975000D03*
G04 #@! TD*
D10*
G04 #@! TO.P,TP20,1,Pin_1_1*
G04 #@! TO.N,/MCU (STM)/IMU_CS*
X40500001Y16000000D03*
G04 #@! TD*
G04 #@! TO.P,TP8,1,Pin_1_1*
G04 #@! TO.N,GND*
X49000001Y41000000D03*
G04 #@! TD*
G04 #@! TO.P,TP7,1,Pin_1_1*
G04 #@! TO.N,/MCU (STM)/APRS_PWM*
X28000001Y22500000D03*
G04 #@! TD*
D15*
G04 #@! TO.P,J9,1,Pin_1_1*
G04 #@! TO.N,/MCU (STM)/Cam_CS*
X34500001Y58000000D03*
D14*
G04 #@! TO.P,J9,2,Pin_2_2*
G04 #@! TO.N,/MCU (STM)/MOSI*
X32000001Y58000000D03*
G04 #@! TO.P,J9,3,Pin_3_3*
G04 #@! TO.N,/MCU (STM)/MISO*
X29500001Y58000000D03*
G04 #@! TO.P,J9,4,Pin_4_4*
G04 #@! TO.N,/MCU (STM)/SCK*
X27000001Y58000000D03*
G04 #@! TO.P,J9,5,Pin_5_5*
G04 #@! TO.N,GND*
X24500001Y58000000D03*
G04 #@! TO.P,J9,6,Pin_6_6*
G04 #@! TO.N,+5V*
X22000001Y58000000D03*
G04 #@! TO.P,J9,7,Pin_7_7*
G04 #@! TO.N,/MCU (STM)/SDA*
X19500001Y58000000D03*
G04 #@! TO.P,J9,8,Pin_8_8*
G04 #@! TO.N,/MCU (STM)/SCL*
X17000001Y58000000D03*
G04 #@! TD*
D10*
G04 #@! TO.P,TP11,1,Pin_1_1*
G04 #@! TO.N,/MCU (STM)/IMU_INT1*
X44500001Y19500000D03*
G04 #@! TD*
D16*
G04 #@! TO.P,J8,1,Pin_1_1*
G04 #@! TO.N,Net-(J8-Pin_1)*
X39125001Y10500000D03*
D17*
G04 #@! TO.P,J8,2,Pin_2_2*
G04 #@! TO.N,Net-(J8-Pin_2)*
X37125001Y10500000D03*
G04 #@! TO.P,J8,3,Pin_3_3*
G04 #@! TO.N,Net-(J8-Pin_3)*
X35125001Y10500000D03*
G04 #@! TD*
D10*
G04 #@! TO.P,TP22,1,Pin_1_1*
G04 #@! TO.N,/MCU (STM)/BARO_CS*
X48500001Y25000000D03*
G04 #@! TD*
G04 #@! TO.P,TP23,1,Pin_1_1*
G04 #@! TO.N,/MCU (STM)/LoRa_CS*
X69500001Y24000000D03*
G04 #@! TD*
G04 #@! TO.P,J4,1,Pin_1_1*
G04 #@! TO.N,/MCU (STM)/SCL*
X30000001Y47000000D03*
D18*
G04 #@! TO.P,J4,2,Pin_2_2*
G04 #@! TO.N,/MCU (STM)/SDA*
X32540001Y47000000D03*
G04 #@! TD*
D10*
G04 #@! TO.P,TP4,1,Pin_1_1*
G04 #@! TO.N,+3V3*
X8750001Y52750000D03*
G04 #@! TD*
G04 #@! TO.P,TP12,1,Pin_1_1*
G04 #@! TO.N,/MCU (STM)/LoRa_DIO0*
X56000001Y53000000D03*
G04 #@! TD*
G04 #@! TO.P,TP13,1,Pin_1_1*
G04 #@! TO.N,GND*
X43000001Y40000000D03*
G04 #@! TD*
G04 #@! TO.P,J11,1,Pin_1_1*
G04 #@! TO.N,/MCU (STM)/SCK*
X64330001Y58500000D03*
D18*
G04 #@! TO.P,J11,2,Pin_2_2*
G04 #@! TO.N,/MCU (STM)/MISO*
X61790001Y58500000D03*
G04 #@! TO.P,J11,3,Pin_3_3*
G04 #@! TO.N,/MCU (STM)/MOSI*
X59250001Y58500000D03*
G04 #@! TD*
D10*
G04 #@! TO.P,TP3,1,Pin_1_1*
G04 #@! TO.N,GND*
X39000001Y40000000D03*
G04 #@! TD*
G04 #@! TO.P,TP1,1,Pin_1_1*
G04 #@! TO.N,+5V*
X12500001Y52750000D03*
G04 #@! TD*
G04 #@! TO.P,J5,1,Pin_1_1*
G04 #@! TO.N,GND*
X4625001Y22625000D03*
D18*
G04 #@! TO.P,J5,2,Pin_2_2*
G04 #@! TO.N,/MCU (STM)/NRST*
X4625001Y20085000D03*
G04 #@! TO.P,J5,3,Pin_3_3*
G04 #@! TO.N,/MCU (STM)/SWCLK*
X4625001Y17545000D03*
G04 #@! TO.P,J5,4,Pin_4_4*
G04 #@! TO.N,/MCU (STM)/SWDIO*
X4625001Y15005000D03*
G04 #@! TO.P,J5,5,Pin_5_5*
G04 #@! TO.N,+3V3*
X4625001Y12465000D03*
G04 #@! TD*
D10*
G04 #@! TO.P,TP21,1,Pin_1_1*
G04 #@! TO.N,/MCU (STM)/Temp_CS*
X54000001Y10500000D03*
G04 #@! TD*
D19*
G04 #@! TO.P,J7,1,In_1*
G04 #@! TO.N,Net-(J7-In)*
X60000001Y4500000D03*
D20*
G04 #@! TO.P,J7,2,Ext_2*
G04 #@! TO.N,GND*
X62540001Y7040000D03*
X57460001Y7040000D03*
X62540001Y1960000D03*
X57460001Y1960000D03*
G04 #@! TD*
D19*
G04 #@! TO.P,J3,1,In_1*
G04 #@! TO.N,Net-(J3-In)*
X75460001Y48460000D03*
D20*
G04 #@! TO.P,J3,2,Ext_2*
G04 #@! TO.N,GND*
X78000001Y45920000D03*
X78000001Y51000000D03*
X72920001Y45920000D03*
X72920001Y51000000D03*
G04 #@! TD*
D21*
G04 #@! TO.N,+3V3*
X30625001Y38075000D03*
X28875001Y40625000D03*
D22*
X37375001Y17625000D03*
D21*
X59875001Y22500000D03*
D22*
X38625001Y17625000D03*
D21*
X28625001Y38125000D03*
X29380308Y30119693D03*
X28875001Y42375000D03*
X21625001Y23375000D03*
X58500001Y52000000D03*
X39500001Y27875000D03*
X64000001Y51725000D03*
X57175001Y22000000D03*
D22*
X46500001Y24000000D03*
X49375001Y27875000D03*
D21*
X24875001Y20375000D03*
X65000001Y23500000D03*
X50825001Y18000000D03*
X32875001Y17000000D03*
X39000001Y36500000D03*
X53000001Y55500000D03*
X19875001Y23625000D03*
D22*
X60625001Y30375000D03*
D21*
X38590499Y44794265D03*
X41155333Y17844668D03*
D22*
X12375001Y41875000D03*
D21*
X38000001Y55500000D03*
X19111092Y30638909D03*
X61175001Y22175000D03*
X46100001Y17600000D03*
D22*
X53875001Y16360000D03*
D21*
X35229991Y53196500D03*
D23*
G04 #@! TO.N,GND*
X10125001Y50125000D03*
X4500001Y50500000D03*
D22*
X29875001Y39875000D03*
X42875001Y36000000D03*
X27746233Y33753768D03*
X59875001Y54475000D03*
X24975001Y44625000D03*
D23*
X20532501Y40060000D03*
D21*
X53625001Y33625000D03*
D22*
X64500001Y26000000D03*
D21*
X55500001Y2000000D03*
D22*
X49375001Y20375000D03*
X34125001Y15375000D03*
D21*
X56500001Y8500000D03*
D23*
X23625001Y54210411D03*
D22*
X20505816Y47040704D03*
D21*
X24375001Y35875000D03*
D22*
X32875001Y32375000D03*
X58875001Y9125000D03*
X34375001Y33875000D03*
X50375001Y9875000D03*
X36651589Y28400000D03*
X25746233Y35753768D03*
D23*
X15375001Y16375000D03*
D22*
X29003769Y50996232D03*
X48000001Y14500000D03*
X48498200Y56008275D03*
D21*
X78000001Y44000000D03*
D22*
X12475001Y48125000D03*
D23*
X25000001Y56000000D03*
D22*
X35000001Y17500000D03*
X45875001Y26375000D03*
X59875001Y26125000D03*
X12440001Y40175000D03*
D21*
X35500001Y49500000D03*
D22*
X24000001Y27500000D03*
D23*
X6000001Y50500000D03*
X22032501Y54560000D03*
D22*
X49500001Y12500000D03*
D21*
X40500001Y20000000D03*
D22*
X35296814Y18647614D03*
D21*
X18875001Y32875000D03*
X24375001Y28375000D03*
D22*
X39875001Y26125000D03*
X52375001Y15500000D03*
X32875001Y33875000D03*
X66875001Y50875000D03*
D23*
X24032501Y40060000D03*
D21*
X71500001Y52000000D03*
D23*
X21032501Y55060000D03*
X22532501Y40060000D03*
D21*
X64500001Y2000000D03*
D22*
X35875001Y33875000D03*
X69875001Y30375000D03*
D23*
X19032501Y40060000D03*
D22*
X57875001Y26625000D03*
D23*
X17532501Y40560000D03*
D22*
X25500001Y37500000D03*
X49000001Y22500000D03*
X45875001Y25375000D03*
D23*
X21532501Y40560000D03*
X24032501Y53060000D03*
D22*
X48000001Y12500000D03*
D21*
X72000001Y44500000D03*
D22*
X47375001Y20375000D03*
X29496233Y31253768D03*
D21*
X12200001Y26875000D03*
D23*
X17875001Y16375000D03*
D22*
X48690001Y13575000D03*
X31375001Y40375000D03*
D21*
X78500001Y52500000D03*
D22*
X35875001Y32375000D03*
X49500001Y14500000D03*
X35625001Y15375000D03*
D21*
X64000001Y8000000D03*
D22*
X34375001Y30875000D03*
D23*
X18032501Y54560000D03*
X19532501Y54560000D03*
D22*
X32875001Y30875000D03*
D21*
X51500001Y58000000D03*
D22*
X50375001Y16875000D03*
X26000001Y26000000D03*
D23*
X10125001Y47375000D03*
D22*
X35875001Y30875000D03*
X61175001Y9125000D03*
D23*
X14250001Y50500000D03*
D22*
X27032501Y48060000D03*
X62375001Y54975000D03*
D23*
X16032501Y52560000D03*
D22*
X7375001Y22875000D03*
D21*
X35750001Y26250000D03*
X39500001Y58000000D03*
X38825001Y34427816D03*
D22*
X32875001Y37600000D03*
D21*
X40500001Y19000000D03*
X25625001Y28125000D03*
D22*
X67875001Y22000000D03*
X34375001Y32375000D03*
X43250001Y35125000D03*
X61875001Y26125000D03*
X26375001Y28900000D03*
D21*
G04 #@! TO.N,+5V*
X15375001Y34625000D03*
X10125001Y45375000D03*
D22*
G04 #@! TO.N,/MCU (STM)/NRST*
X25375001Y30375000D03*
X28000001Y30375000D03*
D21*
X21125001Y32625000D03*
D22*
G04 #@! TO.N,/MCU (STM)/APRS_PWM*
X29650001Y24375000D03*
X30875001Y24875000D03*
D21*
G04 #@! TO.N,/MCU (STM)/APRS_RX*
X30425001Y28625000D03*
G04 #@! TO.N,/MCU (STM)/Cam_CS*
X20513910Y28986091D03*
X23000001Y15500000D03*
G04 #@! TO.N,/MCU (STM)/SCK*
X32575001Y27625000D03*
X46795001Y50500000D03*
X37375001Y22625000D03*
X34625001Y22625000D03*
X55750001Y26250000D03*
G04 #@! TO.N,/MCU (STM)/MISO*
X52750001Y25500000D03*
X52500001Y14500000D03*
X39786502Y24740655D03*
X33125001Y25250000D03*
X54625001Y23625000D03*
X50338246Y52338245D03*
X55250001Y28000000D03*
G04 #@! TO.N,/MCU (STM)/MOSI*
X33675001Y23375000D03*
X57013910Y26736091D03*
X54625001Y26125000D03*
X56125001Y27625000D03*
X38375001Y23375000D03*
X44595001Y53500000D03*
G04 #@! TO.N,/MCU (STM)/IMU_CS*
X40950001Y21100000D03*
X38000001Y17027818D03*
D22*
G04 #@! TO.N,/MCU (STM)/LoRa_CS*
X65875001Y28875000D03*
X64850001Y29875000D03*
X63875001Y26875000D03*
D21*
X35250001Y27000000D03*
D22*
G04 #@! TO.N,/MCU (STM)/BARO_CS*
X38415902Y28436121D03*
X35375001Y27875000D03*
D21*
G04 #@! TO.N,/MCU (STM)/LoRa_DIO0*
X52000001Y35500000D03*
X47375001Y30875000D03*
G04 #@! TO.N,/MCU (STM)/LoRa_RESET*
X43625001Y29831309D03*
X58750001Y28472182D03*
G04 #@! TO.N,/MCU (STM)/APRS_PTT*
X26625001Y21125000D03*
X40125001Y30375000D03*
G04 #@! TO.N,/MCU (STM)/APRS_PD*
X29125001Y19125000D03*
X40875001Y31125000D03*
G04 #@! TO.N,/MCU (STM)/Temp_CS*
X52541217Y13393648D03*
G04 #@! TO.N,/GPS/GPS_RX*
X41125001Y32425000D03*
X65625001Y22125000D03*
G04 #@! TO.N,/GPS/GPS_TX*
X43375001Y32425000D03*
X66625001Y22125000D03*
G04 #@! TO.N,/MCU (STM)/SWDIO*
X39875001Y33325000D03*
G04 #@! TO.N,/MCU (STM)/SWCLK*
X38097525Y36433388D03*
G04 #@! TO.N,/MCU (STM)/IMU_INT1*
X32344669Y18155332D03*
X51375001Y20875000D03*
G04 #@! TO.N,/MCU (STM)/SDA*
X34075001Y40500000D03*
G04 #@! TO.N,/MCU (STM)/BOOT0*
X33525001Y37000000D03*
X22125001Y28875000D03*
G04 #@! TD*
G04 #@! TO.N,GND*
D24*
X14897183Y13875000D02*
X14875001Y13875000D01*
X14125001Y14125000D02*
X14902819Y14125000D01*
G04 #@! TO.N,+5V*
D25*
X10125001Y45375000D02*
X10125001Y39875000D01*
X10125001Y39875000D02*
X15375001Y34625000D01*
G04 #@! TO.N,/MCU (STM)/NRST*
D24*
X9500001Y24500000D02*
X10125001Y23875000D01*
X10500001Y23250000D02*
X7375001Y20125000D01*
X7375001Y20125000D02*
X4665001Y20125000D01*
X10125001Y23625000D02*
X9875001Y23875000D01*
X10125001Y23875000D02*
X10125001Y23625000D01*
X19875001Y32625000D02*
X10500001Y23250000D01*
X21125001Y32625000D02*
X19875001Y32625000D01*
X4665001Y20125000D02*
X4625001Y20085000D01*
X10500001Y23250000D02*
X10125001Y23625000D01*
X28000001Y30375000D02*
X25375001Y30375000D01*
G04 #@! TO.N,/MCU (STM)/APRS_PWM*
X30150001Y24875000D02*
X29650001Y24375000D01*
X30875001Y24875000D02*
X30150001Y24875000D01*
G04 #@! TO.N,/MCU (STM)/APRS_RX*
X24125001Y22325000D02*
X24125001Y14125000D01*
X30425001Y28625000D02*
X24125001Y22325000D01*
G04 #@! TO.N,/MCU (STM)/Cam_CS*
X20513910Y17986091D02*
X20513910Y28986091D01*
X23000001Y15500000D02*
X20513910Y17986091D01*
G04 #@! TO.N,/MCU (STM)/SCK*
X29875001Y56500000D02*
X28500001Y56500000D01*
X49512439Y21775000D02*
X49362438Y21625000D01*
X32575001Y23175000D02*
X32575001Y27625000D01*
X50769975Y21775000D02*
X49512439Y21775000D01*
D26*
X27000001Y58000000D02*
X27275001Y57725000D01*
D24*
X37375001Y22625000D02*
X34625001Y22625000D01*
D26*
X27275001Y57725000D02*
X27275001Y57685000D01*
D24*
X37500001Y22000000D02*
X37375001Y22125000D01*
X63552819Y50500000D02*
X65250001Y52197182D01*
X37375001Y22125000D02*
X37375001Y22625000D01*
X38755027Y22000000D02*
X37500001Y22000000D01*
X65250001Y57580000D02*
X64330001Y58500000D01*
X27275001Y57685000D02*
X26960001Y58000000D01*
X65250001Y52197182D02*
X65250001Y57580000D01*
X48637564Y21625000D02*
X48612564Y21650000D01*
X34625001Y22625000D02*
X33125001Y22625000D01*
X50994975Y22000000D02*
X50769975Y21775000D01*
X28500001Y56500000D02*
X27000001Y58000000D01*
X51500001Y22000000D02*
X50994975Y22000000D01*
X35875001Y50500000D02*
X29875001Y56500000D01*
X55750001Y26250000D02*
X51500001Y22000000D01*
X39105027Y21650000D02*
X38755027Y22000000D01*
X48612564Y21650000D02*
X39105027Y21650000D01*
X46795001Y50500000D02*
X35875001Y50500000D01*
X49362438Y21625000D02*
X48637564Y21625000D01*
X46795001Y50500000D02*
X63552819Y50500000D01*
X33125001Y22625000D02*
X32575001Y23175000D01*
G04 #@! TO.N,/MCU (STM)/MISO*
X50250001Y23000000D02*
X49242464Y23000000D01*
X50338246Y52338245D02*
X50311756Y52338245D01*
X50338246Y52338245D02*
X52088246Y52338245D01*
X54875001Y15625000D02*
X53750001Y14500000D01*
X50200001Y52450000D02*
X35050001Y52450000D01*
X54875001Y23375000D02*
X54625001Y23625000D01*
X53750001Y14500000D02*
X52500001Y14500000D01*
X35050001Y52450000D02*
X29500001Y58000000D01*
X34125001Y24125000D02*
X39125001Y24125000D01*
X55960001Y56210000D02*
X59500001Y56210000D01*
X33125001Y25125000D02*
X34125001Y24125000D01*
X55250001Y28000000D02*
X52750001Y25500000D01*
X49242464Y23000000D02*
X49217464Y23025000D01*
X40500001Y23000000D02*
X39740656Y23759345D01*
X39740656Y24694809D02*
X39786502Y24740655D01*
X39125001Y24125000D02*
X39740656Y24740655D01*
X54875001Y15625000D02*
X54875001Y23375000D01*
X48757538Y23000000D02*
X40500001Y23000000D01*
X59500001Y56210000D02*
X61790001Y58500000D01*
X52088246Y52338245D02*
X55960001Y56210000D01*
X50311756Y52338245D02*
X50200001Y52450000D01*
X49217464Y23025000D02*
X48782538Y23025000D01*
X39740656Y23759345D02*
X39740656Y24694809D01*
X52750001Y25500000D02*
X50250001Y23000000D01*
X39740656Y24740655D02*
X39786502Y24740655D01*
X48782538Y23025000D02*
X48757538Y23000000D01*
X33125001Y25250000D02*
X33125001Y25125000D01*
G04 #@! TO.N,/MCU (STM)/MOSI*
X50625001Y22125000D02*
X49367464Y22125000D01*
X49367464Y22125000D02*
X49217464Y21975000D01*
X56125001Y27625000D02*
X54625001Y26125000D01*
X39250001Y22000000D02*
X38375001Y22875000D01*
X32040001Y57164308D02*
X32040001Y58000000D01*
X44595001Y53500000D02*
X52000001Y53500000D01*
X49217464Y21975000D02*
X48782538Y21975000D01*
X57013910Y26736091D02*
X56125001Y27625000D01*
X35704309Y53500000D02*
X32040001Y57164308D01*
X44595001Y53500000D02*
X35704309Y53500000D01*
X54625001Y26125000D02*
X50625001Y22125000D01*
X48757538Y22000000D02*
X39250001Y22000000D01*
X48782538Y21975000D02*
X48757538Y22000000D01*
X52000001Y53500000D02*
X57000001Y58500000D01*
X38375001Y22875000D02*
X38375001Y23375000D01*
X57000001Y58500000D02*
X59250001Y58500000D01*
X38375001Y23375000D02*
X33675001Y23375000D01*
G04 #@! TO.N,/MCU (STM)/IMU_CS*
X39275001Y21100000D02*
X40950001Y21100000D01*
X38000001Y17027818D02*
X38000001Y19825000D01*
X38000001Y19825000D02*
X39275001Y21100000D01*
G04 #@! TO.N,/MCU (STM)/LoRa_CS*
X40500001Y27000000D02*
X42050001Y28550000D01*
X35250001Y27000000D02*
X40500001Y27000000D01*
X42050001Y28550000D02*
X57205027Y28550000D01*
X65875001Y28875000D02*
X65850001Y28875000D01*
X65850001Y28875000D02*
X64850001Y29875000D01*
X58880027Y26875000D02*
X63875001Y26875000D01*
X57205027Y28550000D02*
X58880027Y26875000D01*
G04 #@! TO.N,/MCU (STM)/BARO_CS*
X38415902Y28436121D02*
X38425001Y28427022D01*
X37875001Y27875000D02*
X35375001Y27875000D01*
X38425001Y28425000D02*
X37875001Y27875000D01*
X38425001Y28427022D02*
X38425001Y28425000D01*
G04 #@! TO.N,/MCU (STM)/LoRa_DIO0*
X47375001Y30875000D02*
X52000001Y35500000D01*
G04 #@! TO.N,/MCU (STM)/LoRa_RESET*
X43625001Y29831309D02*
X43831310Y29625000D01*
X57597183Y29625000D02*
X58750001Y28472182D01*
X43831310Y29625000D02*
X57597183Y29625000D01*
G04 #@! TO.N,/MCU (STM)/APRS_PTT*
X40125001Y30375000D02*
X39625001Y29875000D01*
X32875001Y29875000D02*
X26625001Y23625000D01*
X26625001Y23625000D02*
X26625001Y21125000D01*
X39625001Y29875000D02*
X32875001Y29875000D01*
X26625001Y21125000D02*
X26625001Y14125000D01*
G04 #@! TO.N,/MCU (STM)/APRS_PD*
X41375001Y30625000D02*
X40875001Y31125000D01*
X41375001Y29461121D02*
X41375001Y30625000D01*
X29125001Y19125000D02*
X29125001Y14125000D01*
X32961122Y28961121D02*
X40875001Y28961121D01*
X40875001Y28961121D02*
X41375001Y29461121D01*
X29125001Y25125000D02*
X32961122Y28961121D01*
X29125001Y19125000D02*
X29125001Y25125000D01*
G04 #@! TO.N,/MCU (STM)/Temp_CS*
X54000001Y11934864D02*
X54000001Y10500000D01*
X52541217Y13393648D02*
X54000001Y11934864D01*
G04 #@! TO.N,/GPS/GPS_RX*
X65625001Y26375000D02*
X65625001Y22125000D01*
X42375001Y31375000D02*
X42375001Y29625000D01*
X41325001Y32425000D02*
X42375001Y31375000D01*
X42375001Y29625000D02*
X42875001Y29125000D01*
X58625001Y27625000D02*
X64375001Y27625000D01*
X41125001Y32425000D02*
X41325001Y32425000D01*
X42875001Y29125000D02*
X57125001Y29125000D01*
X57125001Y29125000D02*
X58625001Y27625000D01*
X64375001Y27625000D02*
X65625001Y26375000D01*
G04 #@! TO.N,/GPS/GPS_TX*
X59375001Y28625000D02*
X64875001Y28625000D01*
X43375001Y32125000D02*
X45375001Y30125000D01*
X45375001Y30125000D02*
X57875001Y30125000D01*
X57875001Y30125000D02*
X59375001Y28625000D01*
X64875001Y28625000D02*
X66625001Y26875000D01*
X43375001Y32425000D02*
X43375001Y32125000D01*
X66625001Y26875000D02*
X66625001Y22125000D01*
G04 #@! TO.N,/MCU (STM)/SWDIO*
X31875001Y38125000D02*
X31125001Y37375000D01*
X39375001Y34875000D02*
X38875001Y35375000D01*
X31125001Y37375000D02*
X28125001Y37375000D01*
X39375001Y33825000D02*
X39375001Y34875000D01*
X38875001Y35375000D02*
X37875001Y35375000D01*
X36625001Y38125000D02*
X31875001Y38125000D01*
X5755001Y15005000D02*
X4625001Y15005000D01*
X39875001Y33325000D02*
X39375001Y33825000D01*
X37875001Y35375000D02*
X37375001Y35875000D01*
X37375001Y35875000D02*
X37375001Y37375000D01*
X37375001Y37375000D02*
X36625001Y38125000D01*
X28125001Y37375000D02*
X5755001Y15005000D01*
G04 #@! TO.N,/MCU (STM)/SWCLK*
X24575001Y35325000D02*
X21675001Y32425000D01*
X28075001Y38825000D02*
X24925001Y35675000D01*
X6795001Y17545000D02*
X4625001Y17545000D01*
X21325001Y32075000D02*
X6795001Y17545000D01*
X21675001Y32397182D02*
X21352819Y32075000D01*
X24925001Y35675000D02*
X24925001Y35647182D01*
X37175001Y38825000D02*
X28075001Y38825000D01*
X38097525Y36433388D02*
X38097525Y37902476D01*
X21675001Y32425000D02*
X21675001Y32397182D01*
X24925001Y35647182D02*
X24602819Y35325000D01*
X24602819Y35325000D02*
X24575001Y35325000D01*
X38097525Y37902476D02*
X37175001Y38825000D01*
X21352819Y32075000D02*
X21325001Y32075000D01*
G04 #@! TO.N,/MCU (STM)/IMU_INT1*
X40927515Y17294668D02*
X41383151Y17294668D01*
X46650001Y17372182D02*
X46650001Y17500000D01*
X51375001Y17132537D02*
X51375001Y20875000D01*
X45872183Y17050000D02*
X46327819Y17050000D01*
X45550001Y17500000D02*
X45550001Y17372182D01*
X40722183Y17500000D02*
X40927515Y17294668D01*
X44500001Y18000000D02*
X44500001Y19500000D01*
X32325001Y18135664D02*
X32325001Y15675000D01*
X46327819Y17050000D02*
X46650001Y17372182D01*
X39250001Y17500000D02*
X40722183Y17500000D01*
X41588483Y17500000D02*
X44000001Y17500000D01*
X49900001Y16350000D02*
X50592464Y16350000D01*
X33150001Y14850000D02*
X36600001Y14850000D01*
X45550001Y17372182D02*
X45872183Y17050000D01*
X37750001Y16000000D02*
X39250001Y17500000D01*
X36600001Y14850000D02*
X37750001Y16000000D01*
X46650001Y17500000D02*
X48750001Y17500000D01*
X32325001Y15675000D02*
X33150001Y14850000D01*
X48750001Y17500000D02*
X49900001Y16350000D01*
X44000001Y17500000D02*
X44500001Y18000000D01*
X44000001Y17500000D02*
X45550001Y17500000D01*
X50592464Y16350000D02*
X51375001Y17132537D01*
X32344669Y18155332D02*
X32325001Y18135664D01*
X41383151Y17294668D02*
X41588483Y17500000D01*
G04 #@! TO.N,/MCU (STM)/SCL*
X16800001Y54050000D02*
X16800001Y58000000D01*
X27500001Y49500000D02*
X21250001Y49500000D01*
X21250001Y49500000D02*
X16750001Y54000000D01*
X30000001Y47000000D02*
X27500001Y49500000D01*
X16750001Y54000000D02*
X16800001Y54050000D01*
G04 #@! TO.N,/MCU (STM)/SDA*
X30000001Y49540000D02*
X30000001Y52250000D01*
X20250001Y58000000D02*
X19340001Y58000000D01*
X27250001Y55000000D02*
X23250001Y55000000D01*
X19625001Y57875000D02*
X19500001Y58000000D01*
X20375001Y57875000D02*
X19625001Y57875000D01*
X34075001Y45465000D02*
X32540001Y47000000D01*
X32540001Y47000000D02*
X30000001Y49540000D01*
X30000001Y52250000D02*
X27250001Y55000000D01*
X34075001Y40500000D02*
X34075001Y45465000D01*
X23250001Y55000000D02*
X20375001Y57875000D01*
X20375001Y57875000D02*
X20250001Y58000000D01*
G04 #@! TO.N,/MCU (STM)/BOOT0*
X22125001Y28875000D02*
X30125001Y36875000D01*
X30125001Y36875000D02*
X33400001Y36875000D01*
X33400001Y36875000D02*
X33525001Y37000000D01*
G04 #@! TD*
M02*
