G04 #@! TF.GenerationSoftware,KiCad,Pcbnew,10.0.0*
G04 #@! TF.CreationDate,2026-07-26T19:32:53-07:00*
G04 #@! TF.ProjectId,SSI Summer Balloons,53534920-5375-46d6-9d65-722042616c6c,rev?*
G04 #@! TF.SameCoordinates,Original*
G04 #@! TF.FileFunction,Copper,L1,Top*
G04 #@! TF.FilePolarity,Positive*
%FSLAX46Y46*%
G04 Gerber Fmt 4.6, Leading zero omitted, Abs format (unit mm)*
G04 Created by KiCad (PCBNEW 10.0.0) date 2026-07-26 19:32:53*
%MOMM*%
%LPD*%
G01*
G04 APERTURE LIST*
G04 Aperture macros list*
%AMRoundRect*
0 Rectangle with rounded corners*
0 $1 Rounding radius*
0 $2 $3 $4 $5 $6 $7 $8 $9 X,Y pos of 4 corners*
0 Add a 4 corners polygon primitive as box body*
4,1,4,$2,$3,$4,$5,$6,$7,$8,$9,$2,$3,0*
0 Add four circle primitives for the rounded corners*
1,1,$1+$1,$2,$3*
1,1,$1+$1,$4,$5*
1,1,$1+$1,$6,$7*
1,1,$1+$1,$8,$9*
0 Add four rect primitives between the rounded corners*
20,1,$1+$1,$2,$3,$4,$5,0*
20,1,$1+$1,$4,$5,$6,$7,0*
20,1,$1+$1,$6,$7,$8,$9,0*
20,1,$1+$1,$8,$9,$2,$3,0*%
G04 Aperture macros list end*
G04 #@! TA.AperFunction,SMDPad,CuDef*
%ADD10RoundRect,0.225000X0.225000X0.250000X-0.225000X0.250000X-0.225000X-0.250000X0.225000X-0.250000X0*%
G04 #@! TD*
G04 #@! TA.AperFunction,SMDPad,CuDef*
%ADD11RoundRect,0.200000X-0.200000X-0.275000X0.200000X-0.275000X0.200000X0.275000X-0.200000X0.275000X0*%
G04 #@! TD*
G04 #@! TA.AperFunction,ComponentPad*
%ADD12R,1.700000X1.700000*%
G04 #@! TD*
G04 #@! TA.AperFunction,SMDPad,CuDef*
%ADD13RoundRect,0.200000X0.275000X-0.200000X0.275000X0.200000X-0.275000X0.200000X-0.275000X-0.200000X0*%
G04 #@! TD*
G04 #@! TA.AperFunction,SMDPad,CuDef*
%ADD14RoundRect,0.225000X-0.375000X0.225000X-0.375000X-0.225000X0.375000X-0.225000X0.375000X0.225000X0*%
G04 #@! TD*
G04 #@! TA.AperFunction,SMDPad,CuDef*
%ADD15RoundRect,0.225000X0.250000X-0.225000X0.250000X0.225000X-0.250000X0.225000X-0.250000X-0.225000X0*%
G04 #@! TD*
G04 #@! TA.AperFunction,SMDPad,CuDef*
%ADD16RoundRect,0.045000X-0.255000X0.630000X-0.255000X-0.630000X0.255000X-0.630000X0.255000X0.630000X0*%
G04 #@! TD*
G04 #@! TA.AperFunction,SMDPad,CuDef*
%ADD17RoundRect,0.062500X-0.375000X-0.062500X0.375000X-0.062500X0.375000X0.062500X-0.375000X0.062500X0*%
G04 #@! TD*
G04 #@! TA.AperFunction,SMDPad,CuDef*
%ADD18RoundRect,0.062500X-0.062500X-0.375000X0.062500X-0.375000X0.062500X0.375000X-0.062500X0.375000X0*%
G04 #@! TD*
G04 #@! TA.AperFunction,HeatsinkPad*
%ADD19R,5.600000X5.600000*%
G04 #@! TD*
G04 #@! TA.AperFunction,SMDPad,CuDef*
%ADD20RoundRect,0.225000X-0.250000X0.225000X-0.250000X-0.225000X0.250000X-0.225000X0.250000X0.225000X0*%
G04 #@! TD*
G04 #@! TA.AperFunction,SMDPad,CuDef*
%ADD21RoundRect,0.200000X-0.275000X0.200000X-0.275000X-0.200000X0.275000X-0.200000X0.275000X0.200000X0*%
G04 #@! TD*
G04 #@! TA.AperFunction,SMDPad,CuDef*
%ADD22RoundRect,0.250000X-0.475000X0.250000X-0.475000X-0.250000X0.475000X-0.250000X0.475000X0.250000X0*%
G04 #@! TD*
G04 #@! TA.AperFunction,SMDPad,CuDef*
%ADD23R,1.400000X3.000000*%
G04 #@! TD*
G04 #@! TA.AperFunction,SMDPad,CuDef*
%ADD24R,0.700000X1.800000*%
G04 #@! TD*
G04 #@! TA.AperFunction,SMDPad,CuDef*
%ADD25R,0.800000X1.800000*%
G04 #@! TD*
G04 #@! TA.AperFunction,SMDPad,CuDef*
%ADD26RoundRect,0.076250X-0.228750X0.513750X-0.228750X-0.513750X0.228750X-0.513750X0.228750X0.513750X0*%
G04 #@! TD*
G04 #@! TA.AperFunction,ComponentPad*
%ADD27RoundRect,0.250000X0.750000X-0.600000X0.750000X0.600000X-0.750000X0.600000X-0.750000X-0.600000X0*%
G04 #@! TD*
G04 #@! TA.AperFunction,ComponentPad*
%ADD28O,2.000000X1.700000*%
G04 #@! TD*
G04 #@! TA.AperFunction,SMDPad,CuDef*
%ADD29RoundRect,0.187500X0.187500X0.712500X-0.187500X0.712500X-0.187500X-0.712500X0.187500X-0.712500X0*%
G04 #@! TD*
G04 #@! TA.AperFunction,SMDPad,CuDef*
%ADD30RoundRect,0.150000X0.150000X0.750000X-0.150000X0.750000X-0.150000X-0.750000X0.150000X-0.750000X0*%
G04 #@! TD*
G04 #@! TA.AperFunction,SMDPad,CuDef*
%ADD31RoundRect,0.225000X0.425000X0.225000X-0.425000X0.225000X-0.425000X-0.225000X0.425000X-0.225000X0*%
G04 #@! TD*
G04 #@! TA.AperFunction,ComponentPad*
%ADD32RoundRect,0.250000X-0.600000X-0.725000X0.600000X-0.725000X0.600000X0.725000X-0.600000X0.725000X0*%
G04 #@! TD*
G04 #@! TA.AperFunction,ComponentPad*
%ADD33O,1.700000X1.950000*%
G04 #@! TD*
G04 #@! TA.AperFunction,SMDPad,CuDef*
%ADD34RoundRect,0.200000X0.200000X0.275000X-0.200000X0.275000X-0.200000X-0.275000X0.200000X-0.275000X0*%
G04 #@! TD*
G04 #@! TA.AperFunction,SMDPad,CuDef*
%ADD35RoundRect,0.225000X-0.225000X-0.250000X0.225000X-0.250000X0.225000X0.250000X-0.225000X0.250000X0*%
G04 #@! TD*
G04 #@! TA.AperFunction,SMDPad,CuDef*
%ADD36R,3.200000X1.500000*%
G04 #@! TD*
G04 #@! TA.AperFunction,SMDPad,CuDef*
%ADD37RoundRect,0.132500X0.522500X0.132500X-0.522500X0.132500X-0.522500X-0.132500X0.522500X-0.132500X0*%
G04 #@! TD*
G04 #@! TA.AperFunction,SMDPad,CuDef*
%ADD38RoundRect,0.250000X0.475000X-0.250000X0.475000X0.250000X-0.475000X0.250000X-0.475000X-0.250000X0*%
G04 #@! TD*
G04 #@! TA.AperFunction,ComponentPad*
%ADD39RoundRect,0.250000X0.600000X0.725000X-0.600000X0.725000X-0.600000X-0.725000X0.600000X-0.725000X0*%
G04 #@! TD*
G04 #@! TA.AperFunction,SMDPad,CuDef*
%ADD40R,0.812800X1.143000*%
G04 #@! TD*
G04 #@! TA.AperFunction,SMDPad,CuDef*
%ADD41R,1.244600X1.041400*%
G04 #@! TD*
G04 #@! TA.AperFunction,SMDPad,CuDef*
%ADD42R,1.600200X1.397000*%
G04 #@! TD*
G04 #@! TA.AperFunction,SMDPad,CuDef*
%ADD43R,1.219200X1.854200*%
G04 #@! TD*
G04 #@! TA.AperFunction,SMDPad,CuDef*
%ADD44R,1.955800X1.397000*%
G04 #@! TD*
G04 #@! TA.AperFunction,ComponentPad*
%ADD45RoundRect,0.250000X0.350000X0.625000X-0.350000X0.625000X-0.350000X-0.625000X0.350000X-0.625000X0*%
G04 #@! TD*
G04 #@! TA.AperFunction,ComponentPad*
%ADD46O,1.200000X1.750000*%
G04 #@! TD*
G04 #@! TA.AperFunction,SMDPad,CuDef*
%ADD47RoundRect,0.040000X-0.380000X-0.120000X0.380000X-0.120000X0.380000X0.120000X-0.380000X0.120000X0*%
G04 #@! TD*
G04 #@! TA.AperFunction,SMDPad,CuDef*
%ADD48RoundRect,0.040000X-0.120000X-0.380000X0.120000X-0.380000X0.120000X0.380000X-0.120000X0.380000X0*%
G04 #@! TD*
G04 #@! TA.AperFunction,SMDPad,CuDef*
%ADD49R,3.250000X3.250000*%
G04 #@! TD*
G04 #@! TA.AperFunction,SMDPad,CuDef*
%ADD50RoundRect,0.250000X0.450000X0.350000X-0.450000X0.350000X-0.450000X-0.350000X0.450000X-0.350000X0*%
G04 #@! TD*
G04 #@! TA.AperFunction,ComponentPad*
%ADD51C,1.700000*%
G04 #@! TD*
G04 #@! TA.AperFunction,SMDPad,CuDef*
%ADD52RoundRect,0.087500X-0.207500X-0.087500X0.207500X-0.087500X0.207500X0.087500X-0.207500X0.087500X0*%
G04 #@! TD*
G04 #@! TA.AperFunction,SMDPad,CuDef*
%ADD53RoundRect,0.087500X-0.087500X-0.207500X0.087500X-0.207500X0.087500X0.207500X-0.087500X0.207500X0*%
G04 #@! TD*
G04 #@! TA.AperFunction,SMDPad,CuDef*
%ADD54RoundRect,0.250000X-0.250000X-0.475000X0.250000X-0.475000X0.250000X0.475000X-0.250000X0.475000X0*%
G04 #@! TD*
G04 #@! TA.AperFunction,SMDPad,CuDef*
%ADD55RoundRect,0.243750X-0.456250X0.243750X-0.456250X-0.243750X0.456250X-0.243750X0.456250X0.243750X0*%
G04 #@! TD*
G04 #@! TA.AperFunction,SMDPad,CuDef*
%ADD56R,3.400000X0.980000*%
G04 #@! TD*
G04 #@! TA.AperFunction,SMDPad,CuDef*
%ADD57RoundRect,0.031250X0.268750X0.093750X-0.268750X0.093750X-0.268750X-0.093750X0.268750X-0.093750X0*%
G04 #@! TD*
G04 #@! TA.AperFunction,SMDPad,CuDef*
%ADD58RoundRect,0.031250X0.093750X0.268750X-0.093750X0.268750X-0.093750X-0.268750X0.093750X-0.268750X0*%
G04 #@! TD*
G04 #@! TA.AperFunction,SMDPad,CuDef*
%ADD59RoundRect,0.087500X0.337500X0.262500X-0.337500X0.262500X-0.337500X-0.262500X0.337500X-0.262500X0*%
G04 #@! TD*
G04 #@! TA.AperFunction,SMDPad,CuDef*
%ADD60RoundRect,0.043750X0.681250X0.131250X-0.681250X0.131250X-0.681250X-0.131250X0.681250X-0.131250X0*%
G04 #@! TD*
G04 #@! TA.AperFunction,SMDPad,CuDef*
%ADD61RoundRect,0.043750X0.856250X0.131250X-0.856250X0.131250X-0.856250X-0.131250X0.856250X-0.131250X0*%
G04 #@! TD*
G04 #@! TA.AperFunction,ComponentPad*
%ADD62C,2.050000*%
G04 #@! TD*
G04 #@! TA.AperFunction,ComponentPad*
%ADD63C,2.250000*%
G04 #@! TD*
G04 #@! TA.AperFunction,ViaPad*
%ADD64C,0.600000*%
G04 #@! TD*
G04 #@! TA.AperFunction,ViaPad*
%ADD65C,0.550000*%
G04 #@! TD*
G04 #@! TA.AperFunction,ViaPad*
%ADD66C,1.000000*%
G04 #@! TD*
G04 #@! TA.AperFunction,Conductor*
%ADD67C,0.300000*%
G04 #@! TD*
G04 #@! TA.AperFunction,Conductor*
%ADD68C,0.200000*%
G04 #@! TD*
G04 #@! TA.AperFunction,Conductor*
%ADD69C,0.500000*%
G04 #@! TD*
G04 #@! TA.AperFunction,Conductor*
%ADD70C,0.380000*%
G04 #@! TD*
G04 #@! TA.AperFunction,Conductor*
%ADD71C,1.000000*%
G04 #@! TD*
G04 #@! TA.AperFunction,Conductor*
%ADD72C,1.200000*%
G04 #@! TD*
G04 #@! TA.AperFunction,Conductor*
%ADD73C,0.250000*%
G04 #@! TD*
G04 #@! TA.AperFunction,Conductor*
%ADD74C,0.800000*%
G04 #@! TD*
G04 APERTURE END LIST*
D10*
G04 #@! TO.P,C30,1*
G04 #@! TO.N,+3V3*
X28400001Y27625000D03*
G04 #@! TO.P,C30,2*
G04 #@! TO.N,GND*
X26850001Y27625000D03*
G04 #@! TD*
D11*
G04 #@! TO.P,R5,1*
G04 #@! TO.N,Net-(U11-FB)*
X26300001Y50690000D03*
G04 #@! TO.P,R5,2*
G04 #@! TO.N,GND*
X27950001Y50690000D03*
G04 #@! TD*
D12*
G04 #@! TO.P,TP24,1,Pin_1_1*
G04 #@! TO.N,/MCU (STM)/microSD_CS*
X32250001Y51500000D03*
G04 #@! TD*
D13*
G04 #@! TO.P,R18,1*
G04 #@! TO.N,Net-(U7-PB5)*
X36825001Y44350000D03*
G04 #@! TO.P,R18,2*
G04 #@! TO.N,Net-(D1-A)*
X36825001Y46000000D03*
G04 #@! TD*
D14*
G04 #@! TO.P,D2,1,K_1*
G04 #@! TO.N,VBAT_PROT*
X10875001Y35525000D03*
G04 #@! TO.P,D2,2,A_2*
G04 #@! TO.N,Net-(D2-A)*
X10875001Y32225000D03*
G04 #@! TD*
D13*
G04 #@! TO.P,R2,1*
G04 #@! TO.N,VBAT_PROT*
X27125001Y43365000D03*
G04 #@! TO.P,R2,2*
G04 #@! TO.N,Net-(U11-EN)*
X27125001Y45015000D03*
G04 #@! TD*
D15*
G04 #@! TO.P,C24,1*
G04 #@! TO.N,+3V3*
X29675001Y37300000D03*
G04 #@! TO.P,C24,2*
G04 #@! TO.N,GND*
X29675001Y38850000D03*
G04 #@! TD*
D16*
G04 #@! TO.P,U3,1,VIN_1*
G04 #@! TO.N,+5V*
X13532501Y46430000D03*
G04 #@! TO.P,U3,2,GND_2*
G04 #@! TO.N,GND*
X12582501Y46430000D03*
G04 #@! TO.P,U3,3,EN_3*
G04 #@! TO.N,+5V*
X11632501Y46430000D03*
G04 #@! TO.P,U3,4*
G04 #@! TO.N,N/C*
X11632501Y44060000D03*
G04 #@! TO.P,U3,5,VOUT_5*
G04 #@! TO.N,+3V3*
X13532501Y44060000D03*
G04 #@! TD*
D17*
G04 #@! TO.P,U7,1,VBAT_1*
G04 #@! TO.N,+3V3*
X30937501Y35225000D03*
G04 #@! TO.P,U7,2,PC13_2*
G04 #@! TO.N,unconnected-(U7-PC13-Pad2)*
X30937501Y34725000D03*
G04 #@! TO.P,U7,3,PC14_3*
G04 #@! TO.N,unconnected-(U7-PC14-Pad3)*
X30937501Y34225000D03*
G04 #@! TO.P,U7,4,PC15_4*
G04 #@! TO.N,unconnected-(U7-PC15-Pad4)*
X30937501Y33725000D03*
G04 #@! TO.P,U7,5,RCC_OSC_IN_5*
G04 #@! TO.N,/MCU (STM)/OSC_IN*
X30937501Y33225000D03*
G04 #@! TO.P,U7,6,RCC_OSC_OUT_6*
G04 #@! TO.N,/MCU (STM)/OSC_OUT*
X30937501Y32725000D03*
G04 #@! TO.P,U7,7,NRST_7*
G04 #@! TO.N,/MCU (STM)/NRST*
X30937501Y32225000D03*
G04 #@! TO.P,U7,8,VSSA_8*
G04 #@! TO.N,GND*
X30937501Y31725000D03*
G04 #@! TO.P,U7,9,VDDA_9*
G04 #@! TO.N,+3V3*
X30937501Y31225000D03*
G04 #@! TO.P,U7,10,PA0_10*
G04 #@! TO.N,/MCU (STM)/APRS_PWM*
X30937501Y30725000D03*
G04 #@! TO.P,U7,11,PA1_11*
G04 #@! TO.N,unconnected-(U7-PA1-Pad11)*
X30937501Y30225000D03*
G04 #@! TO.P,U7,12,USART2_TX_12*
G04 #@! TO.N,/MCU (STM)/APRS_RX*
X30937501Y29725000D03*
D18*
G04 #@! TO.P,U7,13,USART2_RX_13*
G04 #@! TO.N,/MCU (STM)/APRS_TX*
X31625001Y29037500D03*
G04 #@! TO.P,U7,14,PA4_14*
G04 #@! TO.N,/MCU (STM)/Cam_CS*
X32125001Y29037500D03*
G04 #@! TO.P,U7,15,SPI1_SCK_15*
G04 #@! TO.N,/MCU (STM)/SCK*
X32625001Y29037500D03*
G04 #@! TO.P,U7,16,SPI1_MISO_16*
G04 #@! TO.N,/MCU (STM)/MISO*
X33125001Y29037500D03*
G04 #@! TO.P,U7,17,SPI1_MOSI_17*
G04 #@! TO.N,/MCU (STM)/MOSI*
X33625001Y29037500D03*
G04 #@! TO.P,U7,18,PB0_18*
G04 #@! TO.N,/MCU (STM)/IMU_CS*
X34125001Y29037500D03*
G04 #@! TO.P,U7,19,PB1_19*
G04 #@! TO.N,/MCU (STM)/LoRa_CS*
X34625001Y29037500D03*
G04 #@! TO.P,U7,20,PB2_20*
G04 #@! TO.N,/MCU (STM)/BARO_CS*
X35125001Y29037500D03*
G04 #@! TO.P,U7,21,PB10_21*
G04 #@! TO.N,unconnected-(U7-PB10-Pad21)*
X35625001Y29037500D03*
G04 #@! TO.P,U7,22,VCAP1_22*
G04 #@! TO.N,Net-(U7-VCAP1)*
X36125001Y29037500D03*
G04 #@! TO.P,U7,23,VSS_23*
G04 #@! TO.N,GND*
X36625001Y29037500D03*
G04 #@! TO.P,U7,24,VDD_24*
G04 #@! TO.N,+3V3*
X37125001Y29037500D03*
D17*
G04 #@! TO.P,U7,25,PB12_25*
G04 #@! TO.N,/MCU (STM)/LoRa_DIO0*
X37812501Y29725000D03*
G04 #@! TO.P,U7,26,PB13_26*
G04 #@! TO.N,/MCU (STM)/LoRa_RESET*
X37812501Y30225000D03*
G04 #@! TO.P,U7,27,PB14_27*
G04 #@! TO.N,/MCU (STM)/APRS_PTT*
X37812501Y30725000D03*
G04 #@! TO.P,U7,28,PB15_28*
G04 #@! TO.N,/MCU (STM)/APRS_PD*
X37812501Y31225000D03*
G04 #@! TO.P,U7,29,PA8_29*
G04 #@! TO.N,/MCU (STM)/Temp_CS*
X37812501Y31725000D03*
G04 #@! TO.P,U7,30,USART1_TX_30*
G04 #@! TO.N,/GPS/GPS_RX*
X37812501Y32225000D03*
G04 #@! TO.P,U7,31,USART1_RX_31*
G04 #@! TO.N,/GPS/GPS_TX*
X37812501Y32725000D03*
G04 #@! TO.P,U7,32,PA11_32*
G04 #@! TO.N,unconnected-(U7-PA11-Pad32)*
X37812501Y33225000D03*
G04 #@! TO.P,U7,33,PA12_33*
G04 #@! TO.N,unconnected-(U7-PA12-Pad33)*
X37812501Y33725000D03*
G04 #@! TO.P,U7,34,SYS_JTMS-SWDIO_34*
G04 #@! TO.N,/MCU (STM)/SWDIO*
X37812501Y34225000D03*
G04 #@! TO.P,U7,35,VSS_35*
G04 #@! TO.N,GND*
X37812501Y34725000D03*
G04 #@! TO.P,U7,36,VDD_36*
G04 #@! TO.N,+3V3*
X37812501Y35225000D03*
D18*
G04 #@! TO.P,U7,37,SYS_JTCK-SWCLK_37*
G04 #@! TO.N,/MCU (STM)/SWCLK*
X37125001Y35912500D03*
G04 #@! TO.P,U7,38,PA15_38*
G04 #@! TO.N,/MCU (STM)/IMU_INT1*
X36625001Y35912500D03*
G04 #@! TO.P,U7,39,PB3_39*
G04 #@! TO.N,/MCU (STM)/microSD_CS*
X36125001Y35912500D03*
G04 #@! TO.P,U7,40,PB4_40*
G04 #@! TO.N,/MCU (STM)/microSD_detect*
X35625001Y35912500D03*
G04 #@! TO.P,U7,41,PB5_41*
G04 #@! TO.N,Net-(U7-PB5)*
X35125001Y35912500D03*
G04 #@! TO.P,U7,42,I2C1_SCL_42*
G04 #@! TO.N,/MCU (STM)/SCL*
X34625001Y35912500D03*
G04 #@! TO.P,U7,43,I2C1_SDA_43*
G04 #@! TO.N,/MCU (STM)/SDA*
X34125001Y35912500D03*
G04 #@! TO.P,U7,44,BOOT0_44*
G04 #@! TO.N,/MCU (STM)/BOOT0*
X33625001Y35912500D03*
G04 #@! TO.P,U7,45,PB8_45*
G04 #@! TO.N,unconnected-(U7-PB8-Pad45)*
X33125001Y35912500D03*
G04 #@! TO.P,U7,46,PB9_46*
G04 #@! TO.N,unconnected-(U7-PB9-Pad46)*
X32625001Y35912500D03*
G04 #@! TO.P,U7,47,VSS_47*
G04 #@! TO.N,GND*
X32125001Y35912500D03*
G04 #@! TO.P,U7,48,VDD_48*
G04 #@! TO.N,+3V3*
X31625001Y35912500D03*
D19*
G04 #@! TO.P,U7,49,VSS_49*
G04 #@! TO.N,GND*
X34375001Y32475000D03*
G04 #@! TD*
D20*
G04 #@! TO.P,C25,1*
G04 #@! TO.N,+3V3*
X38875001Y26650000D03*
G04 #@! TO.P,C25,2*
G04 #@! TO.N,GND*
X38875001Y25100000D03*
G04 #@! TD*
D12*
G04 #@! TO.P,TP15,1,Pin_1_1*
G04 #@! TO.N,/MCU (STM)/APRS_PTT*
X46000001Y6000000D03*
G04 #@! TD*
G04 #@! TO.P,TP10,1,Pin_1_1*
G04 #@! TO.N,/MCU (STM)/NRST*
X9500001Y24500000D03*
G04 #@! TD*
D11*
G04 #@! TO.P,R3,1*
G04 #@! TO.N,+5V*
X25800001Y52875000D03*
G04 #@! TO.P,R3,2*
G04 #@! TO.N,Net-(U11-FB)*
X27450001Y52875000D03*
G04 #@! TD*
D21*
G04 #@! TO.P,R27,1*
G04 #@! TO.N,/MCU (STM)/Cam_CS*
X13000001Y59825000D03*
G04 #@! TO.P,R27,2*
G04 #@! TO.N,+5V*
X13000001Y58175000D03*
G04 #@! TD*
D22*
G04 #@! TO.P,C27,1*
G04 #@! TO.N,Net-(U7-VCAP1)*
X36825001Y27125000D03*
G04 #@! TO.P,C27,2*
G04 #@! TO.N,GND*
X36825001Y25225000D03*
G04 #@! TD*
D23*
G04 #@! TO.P,U1,1,GND_1*
G04 #@! TO.N,GND*
X55375001Y32975000D03*
G04 #@! TO.P,U1,2,MISO_2*
G04 #@! TO.N,/MCU (STM)/MISO*
X57375001Y32975000D03*
G04 #@! TO.P,U1,3,MOSI_3*
G04 #@! TO.N,/MCU (STM)/MOSI*
X59375001Y32975000D03*
G04 #@! TO.P,U1,4,SCK_4*
G04 #@! TO.N,/MCU (STM)/SCK*
X61375001Y32975000D03*
G04 #@! TO.P,U1,5,NSS_5*
G04 #@! TO.N,/MCU (STM)/LoRa_CS*
X63375001Y32975000D03*
G04 #@! TO.P,U1,6,RESET_6*
G04 #@! TO.N,/MCU (STM)/LoRa_RESET*
X65375001Y32975000D03*
G04 #@! TO.P,U1,7,DIO5_7*
G04 #@! TO.N,unconnected-(U1-DIO5-Pad7)*
X67375001Y32975000D03*
G04 #@! TO.P,U1,8,GND_8*
G04 #@! TO.N,GND*
X69375001Y32975000D03*
G04 #@! TO.P,U1,9,ANT_9*
G04 #@! TO.N,Net-(J3-In)*
X69375001Y48375000D03*
G04 #@! TO.P,U1,10,GND_10*
G04 #@! TO.N,GND*
X67375001Y48375000D03*
G04 #@! TO.P,U1,11,DIO3_11*
G04 #@! TO.N,unconnected-(U1-DIO3-Pad11)*
X65375001Y48375000D03*
G04 #@! TO.P,U1,12,DIO4_12*
G04 #@! TO.N,unconnected-(U1-DIO4-Pad12)*
X63375001Y48375000D03*
G04 #@! TO.P,U1,13,3.3V_13*
G04 #@! TO.N,+3V3*
X61375001Y48375000D03*
G04 #@! TO.P,U1,14,DIO0_14*
G04 #@! TO.N,/MCU (STM)/LoRa_DIO0*
X59375001Y48375000D03*
G04 #@! TO.P,U1,15,DIO1_15*
G04 #@! TO.N,unconnected-(U1-DIO1-Pad15)*
X57375001Y48375000D03*
G04 #@! TO.P,U1,16,DIO2_16*
G04 #@! TO.N,unconnected-(U1-DIO2-Pad16)*
X55375001Y48375000D03*
G04 #@! TD*
D13*
G04 #@! TO.P,R21,1*
G04 #@! TO.N,Net-(U9-ISENSOR)*
X44125001Y13315000D03*
G04 #@! TO.P,R21,2*
G04 #@! TO.N,/Sensor/BIAS*
X44125001Y14965000D03*
G04 #@! TD*
D22*
G04 #@! TO.P,C3,1*
G04 #@! TO.N,GND*
X19125001Y53140000D03*
G04 #@! TO.P,C3,2*
G04 #@! TO.N,+5V*
X19125001Y51240000D03*
G04 #@! TD*
D24*
G04 #@! TO.P,U8,1,GND_1*
G04 #@! TO.N,GND*
X67775001Y20125000D03*
D25*
G04 #@! TO.P,U8,2,TXD_2*
G04 #@! TO.N,/GPS/GPS_TX*
X66675001Y20125000D03*
G04 #@! TO.P,U8,3,RXD_3*
G04 #@! TO.N,/GPS/GPS_RX*
X65575001Y20125000D03*
G04 #@! TO.P,U8,4,TIMEPULSE_4*
G04 #@! TO.N,unconnected-(U8-TIMEPULSE-Pad4)*
X64475001Y20125000D03*
G04 #@! TO.P,U8,5,EXTINT_5*
G04 #@! TO.N,unconnected-(U8-EXTINT-Pad5)*
X63375001Y20125000D03*
G04 #@! TO.P,U8,6,V_BCKP_6*
G04 #@! TO.N,+3V3*
X62275001Y20125000D03*
G04 #@! TO.P,U8,7,V_IO_7*
X61175001Y20125000D03*
G04 #@! TO.P,U8,8,VCC_8*
X60075001Y20125000D03*
D24*
G04 #@! TO.P,U8,9,~{RESET}_9*
G04 #@! TO.N,unconnected-(U8-~{RESET}-Pad9)*
X58975001Y20125000D03*
G04 #@! TO.P,U8,10,GND_10*
G04 #@! TO.N,GND*
X58975001Y10625000D03*
D25*
G04 #@! TO.P,U8,11,RF_IN_11*
G04 #@! TO.N,Net-(J7-In)*
X60075001Y10625000D03*
G04 #@! TO.P,U8,12,GND_12*
G04 #@! TO.N,GND*
X61175001Y10625000D03*
G04 #@! TO.P,U8,13,LNA_EN_13*
G04 #@! TO.N,unconnected-(U8-LNA_EN-Pad13)*
X62275001Y10625000D03*
G04 #@! TO.P,U8,14,VCC_RF_14*
G04 #@! TO.N,unconnected-(U8-VCC_RF-Pad14)*
X63375001Y10625000D03*
G04 #@! TO.P,U8,15,VIO_SEL_15*
G04 #@! TO.N,unconnected-(U8-VIO_SEL-Pad15)*
X64475001Y10625000D03*
G04 #@! TO.P,U8,16,SDA_16*
G04 #@! TO.N,unconnected-(U8-SDA-Pad16)*
X65575001Y10625000D03*
G04 #@! TO.P,U8,17,SCL_17*
G04 #@! TO.N,unconnected-(U8-SCL-Pad17)*
X66675001Y10625000D03*
D24*
G04 #@! TO.P,U8,18,~{SAFEBOOT}_18*
G04 #@! TO.N,unconnected-(U8-~{SAFEBOOT}-Pad18)*
X67775001Y10625000D03*
G04 #@! TD*
D10*
G04 #@! TO.P,C47,1*
G04 #@! TO.N,/MCU (STM)/APRS_AUDIO*
X28375001Y25625000D03*
G04 #@! TO.P,C47,2*
G04 #@! TO.N,GND*
X26825001Y25625000D03*
G04 #@! TD*
D26*
G04 #@! TO.P,Q2,1*
G04 #@! TO.N,Net-(D2-A)*
X10790001Y29375000D03*
G04 #@! TO.P,Q2,2*
G04 #@! TO.N,VBAT_PROT*
X8960001Y29375000D03*
G04 #@! TO.P,Q2,3*
G04 #@! TO.N,Net-(F1-Pad2)*
X9875001Y27325000D03*
G04 #@! TD*
D12*
G04 #@! TO.P,TP25,1,Pin_1_1*
G04 #@! TO.N,/MCU (STM)/LoRa_RESET*
X69500001Y28000000D03*
G04 #@! TD*
G04 #@! TO.P,TP5,1,Pin_1_1*
G04 #@! TO.N,GND*
X49000001Y37000000D03*
G04 #@! TD*
G04 #@! TO.P,TP14,1,Pin_1_1*
G04 #@! TO.N,/MCU (STM)/APRS_PD*
X37500001Y6000000D03*
G04 #@! TD*
D22*
G04 #@! TO.P,C39,1*
G04 #@! TO.N,GND*
X57875001Y25275000D03*
G04 #@! TO.P,C39,2*
G04 #@! TO.N,+3V3*
X57875001Y23375000D03*
G04 #@! TD*
D12*
G04 #@! TO.P,TP6,1,Pin_1_1*
G04 #@! TO.N,/MCU (STM)/APRS_AUDIO*
X53000001Y6000000D03*
G04 #@! TD*
G04 #@! TO.P,TP2,1,Pin_1_1*
G04 #@! TO.N,VBAT_PROT*
X6500001Y31500000D03*
G04 #@! TD*
D15*
G04 #@! TO.P,C43,1*
G04 #@! TO.N,+3V3*
X49375001Y17600000D03*
G04 #@! TO.P,C43,2*
G04 #@! TO.N,GND*
X49375001Y19150000D03*
G04 #@! TD*
D27*
G04 #@! TO.P,J2,1,Pin_1_1*
G04 #@! TO.N,Net-(J2-Pin_1)*
X4975001Y36750000D03*
D28*
G04 #@! TO.P,J2,2,Pin_2_2*
G04 #@! TO.N,VBAT*
X4975001Y39250000D03*
G04 #@! TD*
D29*
G04 #@! TO.P,SW1,1,A_1*
G04 #@! TO.N,GND*
X21550001Y34475000D03*
X19100001Y34475000D03*
D30*
G04 #@! TO.P,SW1,2,B_2*
G04 #@! TO.N,/MCU (STM)/NRST*
X20325001Y34475000D03*
D31*
G04 #@! TO.P,SW1,MP*
G04 #@! TO.N,N/C*
X22175001Y36425000D03*
X18475001Y36425000D03*
G04 #@! TD*
D11*
G04 #@! TO.P,R13,1*
G04 #@! TO.N,Net-(C32-Pad2)*
X26375001Y31425000D03*
G04 #@! TO.P,R13,2*
G04 #@! TO.N,/MCU (STM)/OSC_OUT*
X28025001Y31425000D03*
G04 #@! TD*
D15*
G04 #@! TO.P,C44,1*
G04 #@! TO.N,+3V3*
X47375001Y17600000D03*
G04 #@! TO.P,C44,2*
G04 #@! TO.N,GND*
X47375001Y19150000D03*
G04 #@! TD*
G04 #@! TO.P,C34,1*
G04 #@! TO.N,+3V3*
X38500001Y56725000D03*
G04 #@! TO.P,C34,2*
G04 #@! TO.N,GND*
X38500001Y58275000D03*
G04 #@! TD*
D32*
G04 #@! TO.P,J10,1,Pin_1_1*
G04 #@! TO.N,+5V*
X11625001Y14125000D03*
D33*
G04 #@! TO.P,J10,2,Pin_2_2*
G04 #@! TO.N,GND*
X14125001Y14125000D03*
G04 #@! TO.P,J10,3,Pin_3_3*
X16625001Y14125000D03*
G04 #@! TO.P,J10,4,Pin_4_4*
G04 #@! TO.N,/MCU (STM)/APRS_AUDIO*
X19125001Y14125000D03*
G04 #@! TO.P,J10,5,Pin_5_5*
G04 #@! TO.N,/MCU (STM)/APRS_TX*
X21625001Y14125000D03*
G04 #@! TO.P,J10,6,Pin_6_6*
G04 #@! TO.N,/MCU (STM)/APRS_RX*
X24125001Y14125000D03*
G04 #@! TO.P,J10,7,Pin_7_7*
G04 #@! TO.N,/MCU (STM)/APRS_PTT*
X26625001Y14125000D03*
G04 #@! TO.P,J10,8,Pin_8_8*
G04 #@! TO.N,/MCU (STM)/APRS_PD*
X29125001Y14125000D03*
G04 #@! TD*
D27*
G04 #@! TO.P,J1,1,Pin_1_1*
G04 #@! TO.N,VBAT*
X4850001Y45475000D03*
D28*
G04 #@! TO.P,J1,2,Pin_2_2*
G04 #@! TO.N,GND*
X4850001Y47975000D03*
G04 #@! TD*
D12*
G04 #@! TO.P,TP20,1,Pin_1_1*
G04 #@! TO.N,/MCU (STM)/IMU_CS*
X40500001Y16000000D03*
G04 #@! TD*
D34*
G04 #@! TO.P,R6,1*
G04 #@! TO.N,/MCU (STM)/LoRa_CS*
X63200001Y29975000D03*
G04 #@! TO.P,R6,2*
G04 #@! TO.N,+3V3*
X61550001Y29975000D03*
G04 #@! TD*
D35*
G04 #@! TO.P,C9,1*
G04 #@! TO.N,GND*
X9882501Y48680000D03*
G04 #@! TO.P,C9,2*
G04 #@! TO.N,+5V*
X11432501Y48680000D03*
G04 #@! TD*
D36*
G04 #@! TO.P,F1,1*
G04 #@! TO.N,Net-(J2-Pin_1)*
X2500001Y31475000D03*
G04 #@! TO.P,F1,2*
G04 #@! TO.N,Net-(F1-Pad2)*
X2500001Y27275000D03*
G04 #@! TD*
D37*
G04 #@! TO.P,U10,1,VDD_1*
G04 #@! TO.N,+3V3*
X44575001Y24000000D03*
G04 #@! TO.P,U10,2,PS_2*
G04 #@! TO.N,GND*
X44575001Y25250000D03*
G04 #@! TO.P,U10,3,GND_3*
X44575001Y26500000D03*
G04 #@! TO.P,U10,4,CSB_4*
G04 #@! TO.N,/MCU (STM)/BARO_CS*
X44575001Y27750000D03*
G04 #@! TO.P,U10,5,CSB_5*
X42175001Y27750000D03*
G04 #@! TO.P,U10,6,SDO_6*
G04 #@! TO.N,/MCU (STM)/MISO*
X42175001Y26500000D03*
G04 #@! TO.P,U10,7,SDI/SDA_7*
G04 #@! TO.N,/MCU (STM)/MOSI*
X42175001Y25250000D03*
G04 #@! TO.P,U10,8,SCLK_8*
G04 #@! TO.N,/MCU (STM)/SCK*
X42175001Y24000000D03*
G04 #@! TD*
D38*
G04 #@! TO.P,C8,1*
G04 #@! TO.N,GND*
X23125001Y41425000D03*
G04 #@! TO.P,C8,2*
G04 #@! TO.N,VBAT_PROT*
X23125001Y43325000D03*
G04 #@! TD*
D12*
G04 #@! TO.P,TP8,1,Pin_1_1*
G04 #@! TO.N,GND*
X49000001Y41000000D03*
G04 #@! TD*
D20*
G04 #@! TO.P,C40,1*
G04 #@! TO.N,GND*
X61875001Y25150000D03*
G04 #@! TO.P,C40,2*
G04 #@! TO.N,+3V3*
X61875001Y23600000D03*
G04 #@! TD*
D12*
G04 #@! TO.P,TP7,1,Pin_1_1*
G04 #@! TO.N,/MCU (STM)/APRS_PWM*
X28000001Y22500000D03*
G04 #@! TD*
D13*
G04 #@! TO.P,R15,1*
G04 #@! TO.N,/MCU (STM)/BOOT0*
X24375001Y25050000D03*
G04 #@! TO.P,R15,2*
G04 #@! TO.N,GND*
X24375001Y26700000D03*
G04 #@! TD*
D22*
G04 #@! TO.P,C4,1*
G04 #@! TO.N,GND*
X21625001Y53140000D03*
G04 #@! TO.P,C4,2*
G04 #@! TO.N,+5V*
X21625001Y51240000D03*
G04 #@! TD*
D20*
G04 #@! TO.P,C5,1*
G04 #@! TO.N,GND*
X23625001Y51965000D03*
G04 #@! TO.P,C5,2*
G04 #@! TO.N,+5V*
X23625001Y50415000D03*
G04 #@! TD*
D39*
G04 #@! TO.P,J9,1,Pin_1_1*
G04 #@! TO.N,/MCU (STM)/Cam_CS*
X34500001Y58000000D03*
D33*
G04 #@! TO.P,J9,2,Pin_2_2*
G04 #@! TO.N,/MCU (STM)/MOSI*
X32000001Y58000000D03*
G04 #@! TO.P,J9,3,Pin_3_3*
G04 #@! TO.N,/MCU (STM)/MISO*
X29500001Y58000000D03*
G04 #@! TO.P,J9,4,Pin_4_4*
G04 #@! TO.N,/MCU (STM)/SCK*
X27000001Y58000000D03*
G04 #@! TO.P,J9,5,Pin_5_5*
G04 #@! TO.N,GND*
X24500001Y58000000D03*
G04 #@! TO.P,J9,6,Pin_6_6*
G04 #@! TO.N,+5V*
X22000001Y58000000D03*
G04 #@! TO.P,J9,7,Pin_7_7*
G04 #@! TO.N,/MCU (STM)/SDA*
X19500001Y58000000D03*
G04 #@! TO.P,J9,8,Pin_8_8*
G04 #@! TO.N,/MCU (STM)/SCL*
X17000001Y58000000D03*
G04 #@! TD*
D40*
G04 #@! TO.P,J6,1,DAT2_1*
G04 #@! TO.N,unconnected-(J6-DAT2-Pad1)*
X42395001Y55021500D03*
G04 #@! TO.P,J6,2,CD/DAT3_2*
G04 #@! TO.N,/MCU (STM)/microSD_CS*
X43495001Y55021500D03*
G04 #@! TO.P,J6,3,CMD_3*
G04 #@! TO.N,/MCU (STM)/MOSI*
X44595001Y55021500D03*
G04 #@! TO.P,J6,4,VDD_4*
G04 #@! TO.N,+3V3*
X45695001Y55021500D03*
G04 #@! TO.P,J6,5,CLK_5*
G04 #@! TO.N,/MCU (STM)/SCK*
X46795001Y55021500D03*
G04 #@! TO.P,J6,6,VSS_6*
G04 #@! TO.N,GND*
X47895001Y55021500D03*
G04 #@! TO.P,J6,7,DAT0_7*
G04 #@! TO.N,/MCU (STM)/MISO*
X48995001Y55021500D03*
G04 #@! TO.P,J6,8,DAT1_8*
G04 #@! TO.N,unconnected-(J6-DAT1-Pad8)*
X50095001Y55021500D03*
D41*
G04 #@! TO.P,J6,9,SW_DETECT_2_9*
G04 #@! TO.N,/MCU (STM)/microSD_detect*
X39760001Y48871500D03*
G04 #@! TO.P,J6,10,SW_DETECT_10*
G04 #@! TO.N,+3V3*
X39760001Y45171500D03*
D42*
G04 #@! TO.P,J6,11*
G04 #@! TO.N,N/C*
X39935001Y54896500D03*
D43*
G04 #@! TO.P,J6,12*
X51255001Y54671500D03*
D44*
G04 #@! TO.P,J6,13*
X49229991Y44196500D03*
G04 #@! TO.P,J6,14*
X43259991Y44196500D03*
G04 #@! TD*
D20*
G04 #@! TO.P,C13,1*
G04 #@! TO.N,GND*
X59875001Y53450000D03*
G04 #@! TO.P,C13,2*
G04 #@! TO.N,+3V3*
X59875001Y51900000D03*
G04 #@! TD*
D35*
G04 #@! TO.P,C26,1*
G04 #@! TO.N,+3V3*
X40375001Y36575000D03*
G04 #@! TO.P,C26,2*
G04 #@! TO.N,GND*
X41925001Y36575000D03*
G04 #@! TD*
D12*
G04 #@! TO.P,TP11,1,Pin_1_1*
G04 #@! TO.N,/MCU (STM)/IMU_INT1*
X44500001Y19500000D03*
G04 #@! TD*
D15*
G04 #@! TO.P,C12,1*
G04 #@! TO.N,GND*
X36125001Y16350000D03*
G04 #@! TO.P,C12,2*
G04 #@! TO.N,+3V3*
X36125001Y17900000D03*
G04 #@! TD*
D10*
G04 #@! TO.P,C11,1*
G04 #@! TO.N,GND*
X39400001Y18875000D03*
G04 #@! TO.P,C11,2*
G04 #@! TO.N,+3V3*
X37850001Y18875000D03*
G04 #@! TD*
D20*
G04 #@! TO.P,C33,1*
G04 #@! TO.N,/MCU (STM)/NRST*
X24175001Y31350000D03*
G04 #@! TO.P,C33,2*
G04 #@! TO.N,GND*
X24175001Y29800000D03*
G04 #@! TD*
D35*
G04 #@! TO.P,C31,1*
G04 #@! TO.N,GND*
X26500001Y36925000D03*
G04 #@! TO.P,C31,2*
G04 #@! TO.N,/MCU (STM)/OSC_IN*
X28050001Y36925000D03*
G04 #@! TD*
D45*
G04 #@! TO.P,J8,1,Pin_1_1*
G04 #@! TO.N,Net-(J8-Pin_1)*
X39125001Y10500000D03*
D46*
G04 #@! TO.P,J8,2,Pin_2_2*
G04 #@! TO.N,Net-(J8-Pin_2)*
X37125001Y10500000D03*
G04 #@! TO.P,J8,3,Pin_3_3*
G04 #@! TO.N,Net-(J8-Pin_3)*
X35125001Y10500000D03*
G04 #@! TD*
D15*
G04 #@! TO.P,C6,1*
G04 #@! TO.N,GND*
X21125001Y41915000D03*
G04 #@! TO.P,C6,2*
G04 #@! TO.N,VBAT_PROT*
X21125001Y43465000D03*
G04 #@! TD*
D20*
G04 #@! TO.P,C42,1*
G04 #@! TO.N,+3V3*
X33875001Y17900000D03*
G04 #@! TO.P,C42,2*
G04 #@! TO.N,GND*
X33875001Y16350000D03*
G04 #@! TD*
D34*
G04 #@! TO.P,R25,1*
G04 #@! TO.N,+3V3*
X48200001Y27875000D03*
G04 #@! TO.P,R25,2*
G04 #@! TO.N,/MCU (STM)/BARO_CS*
X46550001Y27875000D03*
G04 #@! TD*
D12*
G04 #@! TO.P,TP22,1,Pin_1_1*
G04 #@! TO.N,/MCU (STM)/BARO_CS*
X48500001Y25000000D03*
G04 #@! TD*
D13*
G04 #@! TO.P,R22,1*
G04 #@! TO.N,Net-(J8-Pin_2)*
X44090001Y9815000D03*
G04 #@! TO.P,R22,2*
G04 #@! TO.N,/Sensor/BIAS*
X44090001Y11465000D03*
G04 #@! TD*
D34*
G04 #@! TO.P,R26,1*
G04 #@! TO.N,/MCU (STM)/microSD_CS*
X38129991Y52696500D03*
G04 #@! TO.P,R26,2*
G04 #@! TO.N,+3V3*
X36479991Y52696500D03*
G04 #@! TD*
D47*
G04 #@! TO.P,U9,1,BIAS_1*
G04 #@! TO.N,/Sensor/BIAS*
X46255001Y14875000D03*
G04 #@! TO.P,U9,2,REFIN+_2*
X46255001Y14225000D03*
G04 #@! TO.P,U9,3,REFIN-_3*
G04 #@! TO.N,Net-(U9-ISENSOR)*
X46255001Y13575000D03*
G04 #@! TO.P,U9,4,ISENSOR_4*
X46255001Y12925000D03*
G04 #@! TO.P,U9,5,FORCE+_5*
G04 #@! TO.N,Net-(J8-Pin_1)*
X46255001Y12275000D03*
D48*
G04 #@! TO.P,U9,6,FORCE2_6*
X47390001Y11140000D03*
G04 #@! TO.P,U9,7,RTDIN+_7*
G04 #@! TO.N,Net-(J8-Pin_2)*
X48040001Y11140000D03*
G04 #@! TO.P,U9,8,RTDIN-_8*
G04 #@! TO.N,Net-(J8-Pin_3)*
X48690001Y11140000D03*
G04 #@! TO.P,U9,9,FORCE-_9*
X49340001Y11140000D03*
G04 #@! TO.P,U9,10,GND2_10*
G04 #@! TO.N,GND*
X49990001Y11140000D03*
D47*
G04 #@! TO.P,U9,11,SDI_11*
G04 #@! TO.N,/MCU (STM)/MOSI*
X51125001Y12275000D03*
G04 #@! TO.P,U9,12,SCLK_12*
G04 #@! TO.N,/MCU (STM)/SCK*
X51125001Y12925000D03*
G04 #@! TO.P,U9,13,~{CS}_13*
G04 #@! TO.N,/MCU (STM)/Temp_CS*
X51125001Y13575000D03*
G04 #@! TO.P,U9,14,SDO_14*
G04 #@! TO.N,/MCU (STM)/MISO*
X51125001Y14225000D03*
G04 #@! TO.P,U9,15,DGND_15*
G04 #@! TO.N,GND*
X51125001Y14875000D03*
D48*
G04 #@! TO.P,U9,16,GND1_16*
X49990001Y16010000D03*
G04 #@! TO.P,U9,17,NC_17*
G04 #@! TO.N,unconnected-(U9-NC-Pad17)*
X49340001Y16010000D03*
G04 #@! TO.P,U9,18,~{DRDY}_18*
G04 #@! TO.N,unconnected-(U9-~{DRDY}-Pad18)*
X48690001Y16010000D03*
G04 #@! TO.P,U9,19,DVDD_19*
G04 #@! TO.N,+3V3*
X48040001Y16010000D03*
G04 #@! TO.P,U9,20,VDD_20*
X47390001Y16010000D03*
D49*
G04 #@! TO.P,U9,21,EP_21*
G04 #@! TO.N,GND*
X48690001Y13575000D03*
G04 #@! TD*
D50*
G04 #@! TO.P,Y1,1*
G04 #@! TO.N,/MCU (STM)/OSC_IN*
X28775001Y34925000D03*
G04 #@! TO.P,Y1,2,GND_2*
G04 #@! TO.N,GND*
X26575001Y34925000D03*
G04 #@! TO.P,Y1,3*
G04 #@! TO.N,Net-(C32-Pad2)*
X26575001Y33225000D03*
G04 #@! TO.P,Y1,4,GND_4*
G04 #@! TO.N,GND*
X28775001Y33225000D03*
G04 #@! TD*
D13*
G04 #@! TO.P,R1,1*
G04 #@! TO.N,GND*
X13375001Y28050000D03*
G04 #@! TO.P,R1,2*
G04 #@! TO.N,Net-(D2-A)*
X13375001Y29700000D03*
G04 #@! TD*
D20*
G04 #@! TO.P,C38,1*
G04 #@! TO.N,GND*
X59875001Y25150000D03*
G04 #@! TO.P,C38,2*
G04 #@! TO.N,+3V3*
X59875001Y23600000D03*
G04 #@! TD*
D38*
G04 #@! TO.P,C7,1*
G04 #@! TO.N,GND*
X19125001Y41740000D03*
G04 #@! TO.P,C7,2*
G04 #@! TO.N,VBAT_PROT*
X19125001Y43640000D03*
G04 #@! TD*
D22*
G04 #@! TO.P,C14,1*
G04 #@! TO.N,GND*
X62375001Y53625000D03*
G04 #@! TO.P,C14,2*
G04 #@! TO.N,+3V3*
X62375001Y51725000D03*
G04 #@! TD*
D12*
G04 #@! TO.P,TP23,1,Pin_1_1*
G04 #@! TO.N,/MCU (STM)/LoRa_CS*
X69500001Y24000000D03*
G04 #@! TD*
D34*
G04 #@! TO.P,R11,1*
G04 #@! TO.N,/MCU (STM)/APRS_PTT*
X24700001Y22875000D03*
G04 #@! TO.P,R11,2*
G04 #@! TO.N,+3V3*
X23050001Y22875000D03*
G04 #@! TD*
D12*
G04 #@! TO.P,J4,1,Pin_1_1*
G04 #@! TO.N,/MCU (STM)/SCL*
X30000001Y47000000D03*
D51*
G04 #@! TO.P,J4,2,Pin_2_2*
G04 #@! TO.N,/MCU (STM)/SDA*
X32540001Y47000000D03*
G04 #@! TD*
D52*
G04 #@! TO.P,U4,1,AP_SDO/AP_AD0_1*
G04 #@! TO.N,/MCU (STM)/MISO*
X33960001Y21125000D03*
G04 #@! TO.P,U4,2,RESV_2_2*
G04 #@! TO.N,unconnected-(U4-RESV_2-Pad2)*
X33960001Y20625000D03*
G04 #@! TO.P,U4,3,RESV_3_3*
G04 #@! TO.N,unconnected-(U4-RESV_3-Pad3)*
X33960001Y20125000D03*
G04 #@! TO.P,U4,4,INT1/INT_4*
G04 #@! TO.N,/MCU (STM)/IMU_INT1*
X33960001Y19625000D03*
D53*
G04 #@! TO.P,U4,5,VDDIO_5*
G04 #@! TO.N,+3V3*
X34625001Y19460000D03*
G04 #@! TO.P,U4,6,GND_6*
G04 #@! TO.N,GND*
X35125001Y19460000D03*
G04 #@! TO.P,U4,7,RESV_7_7*
X35625001Y19460000D03*
D52*
G04 #@! TO.P,U4,8,VDD_8*
G04 #@! TO.N,+3V3*
X36290001Y19625000D03*
G04 #@! TO.P,U4,9,INT2/FSYNC/CLKIN_9*
G04 #@! TO.N,Net-(U4-INT2{slash}FSYNC{slash}CLKIN)*
X36290001Y20125000D03*
G04 #@! TO.P,U4,10,RESV_10_10*
G04 #@! TO.N,unconnected-(U4-RESV_10-Pad10)*
X36290001Y20625000D03*
G04 #@! TO.P,U4,11,RESV_11_11*
G04 #@! TO.N,unconnected-(U4-RESV_11-Pad11)*
X36290001Y21125000D03*
D53*
G04 #@! TO.P,U4,12,AP_CS_12*
G04 #@! TO.N,/MCU (STM)/IMU_CS*
X35625001Y21290000D03*
G04 #@! TO.P,U4,13,AP_SCL/AP_SCLK_13*
G04 #@! TO.N,/MCU (STM)/SCK*
X35125001Y21290000D03*
G04 #@! TO.P,U4,14,AP_SDA/AP_SDIO/AP_SDI_14*
G04 #@! TO.N,/MCU (STM)/MOSI*
X34625001Y21290000D03*
G04 #@! TD*
D21*
G04 #@! TO.P,R30,1*
G04 #@! TO.N,/MCU (STM)/APRS_PWM*
X30175001Y27725000D03*
G04 #@! TO.P,R30,2*
G04 #@! TO.N,/MCU (STM)/APRS_AUDIO*
X30175001Y26075000D03*
G04 #@! TD*
D20*
G04 #@! TO.P,C32,1*
G04 #@! TO.N,GND*
X24275001Y34850000D03*
G04 #@! TO.P,C32,2*
G04 #@! TO.N,Net-(C32-Pad2)*
X24275001Y33300000D03*
G04 #@! TD*
D15*
G04 #@! TO.P,C29,1*
G04 #@! TO.N,+3V3*
X31675001Y37800000D03*
G04 #@! TO.P,C29,2*
G04 #@! TO.N,GND*
X31675001Y39350000D03*
G04 #@! TD*
D10*
G04 #@! TO.P,C46,1*
G04 #@! TO.N,GND*
X47775001Y22500000D03*
G04 #@! TO.P,C46,2*
G04 #@! TO.N,+3V3*
X46225001Y22500000D03*
G04 #@! TD*
D15*
G04 #@! TO.P,C10,1*
G04 #@! TO.N,GND*
X13625001Y40600000D03*
G04 #@! TO.P,C10,2*
G04 #@! TO.N,+3V3*
X13625001Y42150000D03*
G04 #@! TD*
D11*
G04 #@! TO.P,R14,1*
G04 #@! TO.N,+3V3*
X20525001Y31575000D03*
G04 #@! TO.P,R14,2*
G04 #@! TO.N,/MCU (STM)/NRST*
X22175001Y31575000D03*
G04 #@! TD*
D12*
G04 #@! TO.P,TP4,1,Pin_1_1*
G04 #@! TO.N,+3V3*
X8750001Y52750000D03*
G04 #@! TD*
D20*
G04 #@! TO.P,C41,1*
G04 #@! TO.N,GND*
X63875001Y24925000D03*
G04 #@! TO.P,C41,2*
G04 #@! TO.N,+3V3*
X63875001Y23375000D03*
G04 #@! TD*
D15*
G04 #@! TO.P,C1,1*
G04 #@! TO.N,Net-(U11-VAUX)*
X25625001Y46690000D03*
G04 #@! TO.P,C1,2*
G04 #@! TO.N,GND*
X25625001Y48240000D03*
G04 #@! TD*
D54*
G04 #@! TO.P,C2,1*
G04 #@! TO.N,GND*
X15225001Y50690000D03*
G04 #@! TO.P,C2,2*
G04 #@! TO.N,+5V*
X17125001Y50690000D03*
G04 #@! TD*
D35*
G04 #@! TO.P,C45,1*
G04 #@! TO.N,Net-(J8-Pin_2)*
X47840001Y8640000D03*
G04 #@! TO.P,C45,2*
G04 #@! TO.N,Net-(J8-Pin_3)*
X49390001Y8640000D03*
G04 #@! TD*
D12*
G04 #@! TO.P,TP12,1,Pin_1_1*
G04 #@! TO.N,/MCU (STM)/LoRa_DIO0*
X56000001Y53000000D03*
G04 #@! TD*
G04 #@! TO.P,TP13,1,Pin_1_1*
G04 #@! TO.N,GND*
X43000001Y40000000D03*
G04 #@! TD*
D11*
G04 #@! TO.P,R28,1*
G04 #@! TO.N,+3V3*
X30050001Y43125000D03*
G04 #@! TO.P,R28,2*
G04 #@! TO.N,/MCU (STM)/SCL*
X31700001Y43125000D03*
G04 #@! TD*
D55*
G04 #@! TO.P,D1,1,K_1*
G04 #@! TO.N,GND*
X37000001Y49612500D03*
G04 #@! TO.P,D1,2,A_2*
G04 #@! TO.N,Net-(D1-A)*
X37000001Y47737500D03*
G04 #@! TD*
D10*
G04 #@! TO.P,C49,1*
G04 #@! TO.N,+3V3*
X28875001Y29375000D03*
G04 #@! TO.P,C49,2*
G04 #@! TO.N,GND*
X27325001Y29375000D03*
G04 #@! TD*
D12*
G04 #@! TO.P,J11,1,Pin_1_1*
G04 #@! TO.N,/MCU (STM)/SCK*
X64330001Y58500000D03*
D51*
G04 #@! TO.P,J11,2,Pin_2_2*
G04 #@! TO.N,/MCU (STM)/MISO*
X61790001Y58500000D03*
G04 #@! TO.P,J11,3,Pin_3_3*
G04 #@! TO.N,/MCU (STM)/MOSI*
X59250001Y58500000D03*
G04 #@! TD*
D34*
G04 #@! TO.P,R12,1*
G04 #@! TO.N,/MCU (STM)/APRS_PD*
X27700001Y19625000D03*
G04 #@! TO.P,R12,2*
G04 #@! TO.N,+3V3*
X26050001Y19625000D03*
G04 #@! TD*
D12*
G04 #@! TO.P,TP3,1,Pin_1_1*
G04 #@! TO.N,GND*
X39000001Y40000000D03*
G04 #@! TD*
G04 #@! TO.P,TP1,1,Pin_1_1*
G04 #@! TO.N,+5V*
X12500001Y52750000D03*
G04 #@! TD*
G04 #@! TO.P,J5,1,Pin_1_1*
G04 #@! TO.N,GND*
X4625001Y22625000D03*
D51*
G04 #@! TO.P,J5,2,Pin_2_2*
G04 #@! TO.N,/MCU (STM)/NRST*
X4625001Y20085000D03*
G04 #@! TO.P,J5,3,Pin_3_3*
G04 #@! TO.N,/MCU (STM)/SWCLK*
X4625001Y17545000D03*
G04 #@! TO.P,J5,4,Pin_4_4*
G04 #@! TO.N,/MCU (STM)/SWDIO*
X4625001Y15005000D03*
G04 #@! TO.P,J5,5,Pin_5_5*
G04 #@! TO.N,+3V3*
X4625001Y12465000D03*
G04 #@! TD*
D29*
G04 #@! TO.P,SW2,1,A_1*
G04 #@! TO.N,/MCU (STM)/BOOT0*
X21600001Y25225000D03*
X19150001Y25225000D03*
D30*
G04 #@! TO.P,SW2,2,B_2*
G04 #@! TO.N,+3V3*
X20375001Y25225000D03*
D31*
G04 #@! TO.P,SW2,MP*
G04 #@! TO.N,N/C*
X22225001Y27175000D03*
X18525001Y27175000D03*
G04 #@! TD*
D21*
G04 #@! TO.P,R23,1*
G04 #@! TO.N,+3V3*
X53875001Y15200000D03*
G04 #@! TO.P,R23,2*
G04 #@! TO.N,/MCU (STM)/Temp_CS*
X53875001Y13550000D03*
G04 #@! TD*
D54*
G04 #@! TO.P,C28,1*
G04 #@! TO.N,+3V3*
X40350001Y34625000D03*
G04 #@! TO.P,C28,2*
G04 #@! TO.N,GND*
X42250001Y34625000D03*
G04 #@! TD*
D15*
G04 #@! TO.P,C35,1*
G04 #@! TO.N,+3V3*
X52500001Y56725000D03*
G04 #@! TO.P,C35,2*
G04 #@! TO.N,GND*
X52500001Y58275000D03*
G04 #@! TD*
D11*
G04 #@! TO.P,R29,1*
G04 #@! TO.N,+3V3*
X30050001Y41375000D03*
G04 #@! TO.P,R29,2*
G04 #@! TO.N,/MCU (STM)/SDA*
X31700001Y41375000D03*
G04 #@! TD*
D13*
G04 #@! TO.P,R24,1*
G04 #@! TO.N,+3V3*
X42000001Y18800000D03*
G04 #@! TO.P,R24,2*
G04 #@! TO.N,/MCU (STM)/IMU_CS*
X42000001Y20450000D03*
G04 #@! TD*
D56*
G04 #@! TO.P,L1,1,1_1*
G04 #@! TO.N,Net-(U11-L1)*
X17625001Y45690000D03*
G04 #@! TO.P,L1,2,2_2*
G04 #@! TO.N,Net-(U11-L2)*
X17625001Y48060000D03*
G04 #@! TD*
D12*
G04 #@! TO.P,TP21,1,Pin_1_1*
G04 #@! TO.N,/MCU (STM)/Temp_CS*
X54000001Y10500000D03*
G04 #@! TD*
D34*
G04 #@! TO.P,R31,1*
G04 #@! TO.N,GND*
X39825001Y20500000D03*
G04 #@! TO.P,R31,2*
G04 #@! TO.N,Net-(U4-INT2{slash}FSYNC{slash}CLKIN)*
X38175001Y20500000D03*
G04 #@! TD*
D57*
G04 #@! TO.P,U11,1,PS/SYNC_1*
G04 #@! TO.N,Net-(U11-EN)*
X24000001Y45875000D03*
G04 #@! TO.P,U11,2,PG_2*
G04 #@! TO.N,unconnected-(U11-PG-Pad2)*
X24000001Y46375000D03*
G04 #@! TO.P,U11,3,VAUX_3*
G04 #@! TO.N,Net-(U11-VAUX)*
X24000001Y46875000D03*
G04 #@! TO.P,U11,4,GND_4*
G04 #@! TO.N,GND*
X24000001Y47375000D03*
D58*
G04 #@! TO.P,U11,5,FB_5*
G04 #@! TO.N,Net-(U11-FB)*
X23575001Y48025000D03*
G04 #@! TO.P,U11,6,FB2_6*
G04 #@! TO.N,unconnected-(U11-FB2-Pad6)*
X23075001Y48025000D03*
D59*
G04 #@! TO.P,U11,7_8,VOUT_7_8*
G04 #@! TO.N,+5V*
X22325001Y48025000D03*
D60*
G04 #@! TO.P,U11,9,L2_9*
G04 #@! TO.N,Net-(U11-L2)*
X22075001Y47125000D03*
D61*
G04 #@! TO.P,U11,10,PGND_10*
G04 #@! TO.N,GND*
X22250001Y46625000D03*
D60*
G04 #@! TO.P,U11,11,L1_11*
G04 #@! TO.N,Net-(U11-L1)*
X22075001Y46125000D03*
D59*
G04 #@! TO.P,U11,12_13,VIN_12_13*
G04 #@! TO.N,VBAT_PROT*
X22325001Y45225000D03*
D58*
G04 #@! TO.P,U11,14,EN_14*
G04 #@! TO.N,Net-(U11-EN)*
X23075001Y45225000D03*
G04 #@! TO.P,U11,15,VSEL_15*
G04 #@! TO.N,GND*
X23575001Y45225000D03*
G04 #@! TD*
D62*
G04 #@! TO.P,J7,1,In_1*
G04 #@! TO.N,Net-(J7-In)*
X60000001Y4500000D03*
D63*
G04 #@! TO.P,J7,2,Ext_2*
G04 #@! TO.N,GND*
X62540001Y7040000D03*
X57460001Y7040000D03*
X62540001Y1960000D03*
X57460001Y1960000D03*
G04 #@! TD*
D62*
G04 #@! TO.P,J3,1,In_1*
G04 #@! TO.N,Net-(J3-In)*
X75460001Y48460000D03*
D63*
G04 #@! TO.P,J3,2,Ext_2*
G04 #@! TO.N,GND*
X78000001Y45920000D03*
X78000001Y51000000D03*
X72920001Y45920000D03*
X72920001Y51000000D03*
G04 #@! TD*
D64*
G04 #@! TO.N,+3V3*
X30625001Y38075000D03*
X28875001Y40625000D03*
D65*
X37375001Y17625000D03*
D64*
X59875001Y22500000D03*
D65*
X38625001Y17625000D03*
D64*
X28625001Y38125000D03*
X29380308Y30119693D03*
X28875001Y42375000D03*
X21625001Y23375000D03*
X58500001Y52000000D03*
X39500001Y27875000D03*
X64000001Y51725000D03*
X57175001Y22000000D03*
D65*
X46500001Y24000000D03*
X49375001Y27875000D03*
D64*
X24875001Y20375000D03*
X65000001Y23500000D03*
X50825001Y18000000D03*
X32875001Y17000000D03*
X39000001Y36500000D03*
X53000001Y55500000D03*
X19875001Y23625000D03*
D65*
X60625001Y30375000D03*
D64*
X38590499Y44794265D03*
X41155333Y17844668D03*
D65*
X12375001Y41875000D03*
D64*
X38000001Y55500000D03*
X19111092Y30638909D03*
X61175001Y22175000D03*
X46100001Y17600000D03*
D65*
X53875001Y16360000D03*
D64*
X35229991Y53196500D03*
D66*
G04 #@! TO.N,GND*
X10125001Y50125000D03*
X4500001Y50500000D03*
D65*
X29875001Y39875000D03*
X42875001Y36000000D03*
X27746233Y33753768D03*
X59875001Y54475000D03*
X24975001Y44625000D03*
D66*
X20532501Y40060000D03*
D64*
X53625001Y33625000D03*
D65*
X64500001Y26000000D03*
D64*
X55500001Y2000000D03*
D65*
X49375001Y20375000D03*
X34125001Y15375000D03*
D64*
X56500001Y8500000D03*
D66*
X23625001Y54210411D03*
D65*
X20505816Y47040704D03*
D64*
X24375001Y35875000D03*
D65*
X32875001Y32375000D03*
X58875001Y9125000D03*
X34375001Y33875000D03*
X50375001Y9875000D03*
X36651589Y28400000D03*
X25746233Y35753768D03*
D66*
X15375001Y16375000D03*
D65*
X29003769Y50996232D03*
X48000001Y14500000D03*
X48498200Y56008275D03*
D64*
X78000001Y44000000D03*
D65*
X12475001Y48125000D03*
D66*
X25000001Y56000000D03*
D65*
X35000001Y17500000D03*
X45875001Y26375000D03*
X59875001Y26125000D03*
X12440001Y40175000D03*
D64*
X35500001Y49500000D03*
D65*
X24000001Y27500000D03*
D66*
X6000001Y50500000D03*
X22032501Y54560000D03*
D65*
X49500001Y12500000D03*
D64*
X40500001Y20000000D03*
D65*
X35296814Y18647614D03*
D64*
X18875001Y32875000D03*
X24375001Y28375000D03*
D65*
X39875001Y26125000D03*
X52375001Y15500000D03*
X32875001Y33875000D03*
X66875001Y50875000D03*
D66*
X24032501Y40060000D03*
D64*
X71500001Y52000000D03*
D66*
X21032501Y55060000D03*
X22532501Y40060000D03*
D64*
X64500001Y2000000D03*
D65*
X35875001Y33875000D03*
X69875001Y30375000D03*
D66*
X19032501Y40060000D03*
D65*
X57875001Y26625000D03*
D66*
X17532501Y40560000D03*
D65*
X25500001Y37500000D03*
X49000001Y22500000D03*
X45875001Y25375000D03*
D66*
X21532501Y40560000D03*
X24032501Y53060000D03*
D65*
X48000001Y12500000D03*
D64*
X72000001Y44500000D03*
D65*
X47375001Y20375000D03*
X29496233Y31253768D03*
D64*
X12200001Y26875000D03*
D66*
X17875001Y16375000D03*
D65*
X48690001Y13575000D03*
X31375001Y40375000D03*
D64*
X78500001Y52500000D03*
D65*
X35875001Y32375000D03*
X49500001Y14500000D03*
X35625001Y15375000D03*
D64*
X64000001Y8000000D03*
D65*
X34375001Y30875000D03*
D66*
X18032501Y54560000D03*
X19532501Y54560000D03*
D65*
X32875001Y30875000D03*
D64*
X51500001Y58000000D03*
D65*
X50375001Y16875000D03*
X26000001Y26000000D03*
D66*
X10125001Y47375000D03*
D65*
X35875001Y30875000D03*
X61175001Y9125000D03*
D66*
X14250001Y50500000D03*
D65*
X27032501Y48060000D03*
X62375001Y54975000D03*
D66*
X16032501Y52560000D03*
D65*
X7375001Y22875000D03*
D64*
X35750001Y26250000D03*
X39500001Y58000000D03*
X38825001Y34427816D03*
D65*
X32875001Y37600000D03*
D64*
X40500001Y19000000D03*
X25625001Y28125000D03*
D65*
X67875001Y22000000D03*
X34375001Y32375000D03*
X43250001Y35125000D03*
X61875001Y26125000D03*
X26375001Y28900000D03*
D64*
G04 #@! TO.N,+5V*
X15375001Y34625000D03*
X10125001Y45375000D03*
D65*
G04 #@! TO.N,/MCU (STM)/NRST*
X25375001Y30375000D03*
X28000001Y30375000D03*
D64*
X21125001Y32625000D03*
D65*
G04 #@! TO.N,/MCU (STM)/APRS_PWM*
X29650001Y24375000D03*
X30875001Y24875000D03*
D64*
G04 #@! TO.N,/MCU (STM)/APRS_RX*
X30425001Y28625000D03*
G04 #@! TO.N,/MCU (STM)/Cam_CS*
X20513910Y28986091D03*
X23000001Y15500000D03*
G04 #@! TO.N,/MCU (STM)/SCK*
X32575001Y27625000D03*
X46795001Y50500000D03*
X37375001Y22625000D03*
X34625001Y22625000D03*
X55750001Y26250000D03*
G04 #@! TO.N,/MCU (STM)/MISO*
X52750001Y25500000D03*
X52500001Y14500000D03*
X39786502Y24740655D03*
X33125001Y25250000D03*
X54625001Y23625000D03*
X50338246Y52338245D03*
X55250001Y28000000D03*
G04 #@! TO.N,/MCU (STM)/MOSI*
X33675001Y23375000D03*
X57013910Y26736091D03*
X54625001Y26125000D03*
X56125001Y27625000D03*
X38375001Y23375000D03*
X44595001Y53500000D03*
G04 #@! TO.N,/MCU (STM)/IMU_CS*
X40950001Y21100000D03*
X38000001Y17027818D03*
D65*
G04 #@! TO.N,/MCU (STM)/LoRa_CS*
X65875001Y28875000D03*
X64850001Y29875000D03*
X63875001Y26875000D03*
D64*
X35250001Y27000000D03*
D65*
G04 #@! TO.N,/MCU (STM)/BARO_CS*
X38415902Y28436121D03*
X35375001Y27875000D03*
D64*
G04 #@! TO.N,/MCU (STM)/LoRa_DIO0*
X52000001Y35500000D03*
X47375001Y30875000D03*
G04 #@! TO.N,/MCU (STM)/LoRa_RESET*
X43625001Y29831309D03*
X58750001Y28472182D03*
G04 #@! TO.N,/MCU (STM)/APRS_PTT*
X26625001Y21125000D03*
X40125001Y30375000D03*
G04 #@! TO.N,/MCU (STM)/APRS_PD*
X29125001Y19125000D03*
X40875001Y31125000D03*
G04 #@! TO.N,/MCU (STM)/Temp_CS*
X52541217Y13393648D03*
G04 #@! TO.N,/GPS/GPS_RX*
X41125001Y32425000D03*
X65625001Y22125000D03*
G04 #@! TO.N,/GPS/GPS_TX*
X43375001Y32425000D03*
X66625001Y22125000D03*
G04 #@! TO.N,/MCU (STM)/SWDIO*
X39875001Y33325000D03*
G04 #@! TO.N,/MCU (STM)/SWCLK*
X38097525Y36433388D03*
G04 #@! TO.N,/MCU (STM)/IMU_INT1*
X32344669Y18155332D03*
X51375001Y20875000D03*
G04 #@! TO.N,/MCU (STM)/SDA*
X34075001Y40500000D03*
G04 #@! TO.N,/MCU (STM)/BOOT0*
X33525001Y37000000D03*
X22125001Y28875000D03*
G04 #@! TD*
G04 #@! TO.N,+3V3*
D67*
X46225001Y22500000D02*
X46075001Y22500000D01*
X37850001Y18400000D02*
X37850001Y18875000D01*
X64000001Y51725000D02*
X62375001Y51725000D01*
X45695001Y55499400D02*
X46920601Y56725000D01*
X46920601Y56725000D02*
X51500001Y56725000D01*
X61375001Y50725000D02*
X62375001Y51725000D01*
X29625001Y41375000D02*
X28875001Y40625000D01*
X38875001Y27012500D02*
X38875001Y26650000D01*
D68*
X23050001Y22875000D02*
X22125001Y22875000D01*
D67*
X13625001Y43967500D02*
X13532501Y44060000D01*
X39850001Y35225000D02*
X40375001Y35750000D01*
X61175001Y22175000D02*
X61175001Y20125000D01*
X52500001Y56725000D02*
X52500001Y56000000D01*
X29380308Y30119693D02*
X29380308Y29880307D01*
X58600001Y51900000D02*
X58500001Y52000000D01*
X33150001Y17900000D02*
X33875001Y17900000D01*
X45479991Y55236510D02*
X45695001Y55021500D01*
X57875001Y23375000D02*
X60075001Y21175000D01*
X38437501Y35225000D02*
X39750001Y35225000D01*
X59875001Y23600000D02*
X59875001Y20325000D01*
D69*
X31400001Y38075000D02*
X31675001Y37800000D01*
D67*
X20375001Y24125000D02*
X19875001Y23625000D01*
X35729991Y52696500D02*
X35229991Y53196500D01*
X12650001Y42150000D02*
X12375001Y41875000D01*
D69*
X19111092Y30861091D02*
X19875001Y31625000D01*
D67*
X29380308Y29880307D02*
X28875001Y29375000D01*
X37812501Y35225000D02*
X39225001Y35225000D01*
X51500001Y56725000D02*
X52275001Y56725000D01*
X40375001Y35750000D02*
X40375001Y36575000D01*
X25625001Y19625000D02*
X24875001Y20375000D01*
X57875001Y22700000D02*
X57175001Y22000000D01*
X34625001Y19460000D02*
X34625001Y18650000D01*
X39500001Y27875000D02*
X38875001Y27250000D01*
X63875001Y23375000D02*
X64875001Y23375000D01*
X30937501Y31225000D02*
X30485615Y31225000D01*
X39075001Y36575000D02*
X39000001Y36500000D01*
X30050001Y41375000D02*
X29625001Y41375000D01*
X37125001Y28762500D02*
X38875001Y27012500D01*
D69*
X30625001Y38075000D02*
X31400001Y38075000D01*
D67*
X42000001Y18689336D02*
X41155333Y17844668D01*
X52500001Y56000000D02*
X53000001Y55500000D01*
X46225001Y23725000D02*
X46500001Y24000000D01*
X47375001Y17600000D02*
X46100001Y17600000D01*
X36290001Y18065000D02*
X36125001Y17900000D01*
X46075001Y22500000D02*
X44575001Y24000000D01*
X40375001Y36575000D02*
X39075001Y36575000D01*
X61875001Y22875000D02*
X61175001Y22175000D01*
X26050001Y19625000D02*
X25625001Y19625000D01*
D69*
X19111092Y30638909D02*
X19111092Y30861091D01*
D67*
X49210001Y17600000D02*
X49375001Y17600000D01*
X49375001Y17600000D02*
X50425001Y17600000D01*
X36125001Y17900000D02*
X37100001Y17900000D01*
X59875001Y20325000D02*
X60075001Y20125000D01*
X50425001Y17600000D02*
X50825001Y18000000D01*
X20375001Y25225000D02*
X20375001Y24125000D01*
D69*
X20475001Y31625000D02*
X20525001Y31575000D01*
D67*
X30937501Y35225000D02*
X30937501Y36037500D01*
X28400001Y27625000D02*
X28875001Y28100000D01*
X30485615Y31225000D02*
X29380308Y30119693D01*
X31625001Y35912500D02*
X31625001Y37750000D01*
X38500001Y56725000D02*
X38500001Y56000000D01*
X32875001Y17625000D02*
X33150001Y17900000D01*
X46000001Y17500000D02*
X46100001Y17600000D01*
X59875001Y51900000D02*
X58600001Y51900000D01*
X37100001Y17900000D02*
X37375001Y17625000D01*
X28875001Y29375000D02*
X28875001Y29614386D01*
X61375001Y50400000D02*
X61375001Y48375000D01*
X30050001Y43125000D02*
X29625001Y43125000D01*
D68*
X53875001Y16360000D02*
X53875001Y15200000D01*
D67*
X13625001Y42150000D02*
X12650001Y42150000D01*
X46225001Y22500000D02*
X46225001Y23725000D01*
X38875001Y27250000D02*
X38875001Y26650000D01*
X57875001Y23375000D02*
X57875001Y22700000D01*
D68*
X61550001Y29650000D02*
X60825001Y30375000D01*
D67*
X36479991Y52696500D02*
X35729991Y52696500D01*
X34625001Y18650000D02*
X33875001Y17900000D01*
X48040001Y16430000D02*
X49210001Y17600000D01*
D69*
X29675001Y37300000D02*
X29450001Y37300000D01*
D67*
X48200001Y27875000D02*
X49375001Y27875000D01*
D68*
X22125001Y22875000D02*
X21625001Y23375000D01*
D67*
X38500001Y56000000D02*
X38000001Y55500000D01*
X59875001Y51900000D02*
X61375001Y50400000D01*
X44469401Y56725000D02*
X38500001Y56725000D01*
D69*
X19875001Y31625000D02*
X20475001Y31625000D01*
D67*
X13625001Y42150000D02*
X13625001Y43967500D01*
X48040001Y16010000D02*
X48040001Y16430000D01*
X38661210Y44794265D02*
X39038445Y45171500D01*
X45695001Y55021500D02*
X45695001Y55499400D01*
X63875001Y23375000D02*
X62275001Y21775000D01*
X28875001Y28100000D02*
X28875001Y29375000D01*
X47375001Y17600000D02*
X47375001Y16025000D01*
X45695001Y55499400D02*
X44469401Y56725000D01*
X61875001Y23600000D02*
X61875001Y22875000D01*
X29380308Y30119693D02*
X29380308Y30224774D01*
X60075001Y21175000D02*
X60075001Y20125000D01*
X29625001Y43125000D02*
X28875001Y42375000D01*
X36290001Y19625000D02*
X37100001Y19625000D01*
D69*
X29450001Y37300000D02*
X28625001Y38125000D01*
D67*
X64875001Y23375000D02*
X65000001Y23500000D01*
X32875001Y17000000D02*
X32875001Y17625000D01*
X42000001Y18800000D02*
X42000001Y18689336D01*
X61375001Y48375000D02*
X61375001Y50725000D01*
X38625001Y17625000D02*
X37850001Y18400000D01*
X39750001Y35225000D02*
X40350001Y34625000D01*
X13900001Y42175000D02*
X13625001Y41900000D01*
D68*
X60825001Y30375000D02*
X60625001Y30375000D01*
D67*
X37125001Y29037500D02*
X37125001Y28762500D01*
X62275001Y21775000D02*
X62275001Y20125000D01*
X36290001Y19625000D02*
X36290001Y18065000D01*
X30937501Y36037500D02*
X29675001Y37300000D01*
X37100001Y19625000D02*
X37850001Y18875000D01*
X31625001Y37750000D02*
X31675001Y37800000D01*
G04 #@! TO.N,GND*
X69375001Y32975000D02*
X69375001Y30875000D01*
X57875001Y25275000D02*
X57875001Y26625000D01*
D68*
X35625001Y18975801D02*
X35296814Y18647614D01*
D70*
X64460001Y1960000D02*
X64500001Y2000000D01*
D67*
X41675001Y36575000D02*
X41712501Y36537500D01*
D68*
X28775001Y33225000D02*
X28275001Y33225000D01*
D71*
X24500001Y56500000D02*
X25000001Y56000000D01*
D67*
X52500001Y58275000D02*
X51775001Y58275000D01*
D68*
X55375001Y32975000D02*
X54275001Y32975000D01*
X26375001Y25625000D02*
X26000001Y26000000D01*
D70*
X57460001Y7540000D02*
X56500001Y8500000D01*
D68*
X35612501Y49612500D02*
X35500001Y49500000D01*
X48690001Y13575000D02*
X48690001Y13190000D01*
X49990001Y16490000D02*
X50375001Y16875000D01*
D70*
X57460001Y7040000D02*
X57460001Y7540000D01*
D67*
X31675001Y40075000D02*
X31375001Y40375000D01*
D72*
X23125001Y41425000D02*
X23125001Y40967500D01*
D70*
X57460001Y1960000D02*
X55540001Y1960000D01*
D67*
X41712501Y36537500D02*
X41887501Y36537500D01*
D68*
X28747537Y50740000D02*
X28000001Y50740000D01*
D67*
X41962501Y34587500D02*
X41925001Y34625000D01*
D68*
X51125001Y14875000D02*
X49990001Y16010000D01*
D71*
X10125001Y48437500D02*
X9882501Y48680000D01*
D67*
X7125001Y22625000D02*
X7375001Y22875000D01*
D68*
X36875001Y25375000D02*
X37025001Y25225000D01*
X61175001Y9125000D02*
X61175001Y10625000D01*
X37000001Y49612500D02*
X35612501Y49612500D01*
D71*
X21625001Y54467500D02*
X21032501Y55060000D01*
D67*
X36775001Y25225000D02*
X36825001Y25225000D01*
D68*
X20935661Y46625000D02*
X20519957Y47040704D01*
X26852501Y48240000D02*
X27032501Y48060000D01*
X67875001Y22000000D02*
X67875001Y21625000D01*
D73*
X24175001Y29800000D02*
X24175001Y28575000D01*
D71*
X19125001Y53140000D02*
X19125001Y54152500D01*
D68*
X52375001Y15500000D02*
X51750001Y14875000D01*
X48690001Y13575000D02*
X48690001Y13310000D01*
D67*
X32125001Y36850000D02*
X32875001Y37600000D01*
D68*
X67775001Y21525000D02*
X67775001Y20125000D01*
D67*
X26850001Y27625000D02*
X26125001Y27625000D01*
D71*
X14125001Y15125000D02*
X15375001Y16375000D01*
D67*
X29675001Y39675000D02*
X29875001Y39875000D01*
D70*
X62540001Y7040000D02*
X63040001Y7040000D01*
D72*
X23125001Y41425000D02*
X23125001Y40652500D01*
D67*
X63875001Y24925000D02*
X63875001Y25375000D01*
D73*
X19375001Y35875000D02*
X21361659Y35875000D01*
D71*
X19125001Y53140000D02*
X19125001Y53467500D01*
D67*
X42087501Y34587500D02*
X41962501Y34587500D01*
D68*
X25625001Y48240000D02*
X26852501Y48240000D01*
D70*
X78000001Y45920000D02*
X78000001Y44000000D01*
D67*
X12475001Y47340000D02*
X12582501Y47232500D01*
D71*
X23625001Y54210411D02*
X23625001Y51965000D01*
D68*
X45750001Y25250000D02*
X45875001Y25375000D01*
D67*
X35625001Y15375000D02*
X36125001Y15875000D01*
X67375001Y48375000D02*
X67375001Y50375000D01*
D71*
X21625001Y53140000D02*
X21625001Y54152500D01*
D68*
X48498200Y56008275D02*
X48298276Y56008275D01*
D71*
X19125001Y53467500D02*
X18032501Y54560000D01*
D70*
X63040001Y7040000D02*
X64000001Y8000000D01*
D67*
X38500001Y58275000D02*
X39225001Y58275000D01*
D68*
X36625001Y25375000D02*
X36875001Y25375000D01*
D71*
X15035001Y50500000D02*
X15225001Y50690000D01*
D70*
X78000001Y52000000D02*
X78500001Y52500000D01*
D72*
X21125001Y40967500D02*
X21532501Y40560000D01*
X4850001Y49350000D02*
X6000001Y50500000D01*
X19125001Y41740000D02*
X19125001Y40152500D01*
D71*
X21625001Y54152500D02*
X22032501Y54560000D01*
X21625001Y53140000D02*
X21625001Y54467500D01*
X16625001Y14125000D02*
X16625001Y15125000D01*
D67*
X63875001Y25375000D02*
X64500001Y26000000D01*
D68*
X26575001Y34925000D02*
X25746233Y35753768D01*
X44575001Y26500000D02*
X45750001Y26500000D01*
D71*
X15225001Y51752500D02*
X16032501Y52560000D01*
D68*
X34475001Y32475000D02*
X35875001Y33875000D01*
D67*
X38750001Y25225000D02*
X38875001Y25100000D01*
D68*
X26500001Y36925000D02*
X26075001Y36925000D01*
X48298276Y56008275D02*
X47895001Y55605000D01*
D67*
X12582501Y47232500D02*
X12582501Y46430000D01*
D68*
X35000001Y17500000D02*
X35000001Y18211826D01*
X22250001Y46625000D02*
X20935661Y46625000D01*
D67*
X35750001Y26250000D02*
X36775001Y25225000D01*
D68*
X40500001Y19000000D02*
X40250001Y19000000D01*
D67*
X47775001Y22500000D02*
X49000001Y22500000D01*
D73*
X19100001Y33100000D02*
X18875001Y32875000D01*
D67*
X26125001Y27625000D02*
X25625001Y28125000D01*
D68*
X48690001Y13190000D02*
X48000001Y12500000D01*
D69*
X12615001Y40350000D02*
X12440001Y40175000D01*
D70*
X62540001Y1960000D02*
X64460001Y1960000D01*
D67*
X39875001Y26125000D02*
X38875001Y25125000D01*
D69*
X13625001Y40350000D02*
X12615001Y40350000D01*
D73*
X21361659Y35875000D02*
X21550001Y35686658D01*
D68*
X23575001Y45225000D02*
X24375001Y45225000D01*
D72*
X21125001Y41915000D02*
X21125001Y40652500D01*
D71*
X9882501Y48710000D02*
X9882501Y48680000D01*
D73*
X24175001Y28575000D02*
X24375001Y28375000D01*
D67*
X26375001Y28900000D02*
X26630001Y29155000D01*
D70*
X55540001Y1960000D02*
X55500001Y2000000D01*
D68*
X24760001Y47375000D02*
X25625001Y48240000D01*
D67*
X42125001Y34625000D02*
X42087501Y34587500D01*
D70*
X78000001Y51000000D02*
X78000001Y52000000D01*
D68*
X58875001Y9125000D02*
X58975001Y9225000D01*
D67*
X36825001Y25225000D02*
X37025001Y25225000D01*
D71*
X24032501Y53060000D02*
X23625001Y52652500D01*
X10125001Y47375000D02*
X10125001Y48437500D01*
D67*
X59875001Y53450000D02*
X59875001Y54475000D01*
X49990001Y16010000D02*
X49990001Y16490000D01*
D70*
X72500001Y51000000D02*
X71500001Y52000000D01*
D68*
X24375001Y45225000D02*
X24975001Y44625000D01*
X49990001Y11140000D02*
X49990001Y10260000D01*
D72*
X4850001Y47975000D02*
X4850001Y50150000D01*
X23125001Y40967500D02*
X24032501Y40060000D01*
D68*
X30937501Y31725000D02*
X30219976Y31725000D01*
X34375001Y32475000D02*
X34375001Y32375000D01*
D72*
X23125001Y40652500D02*
X22532501Y40060000D01*
D67*
X39225001Y58275000D02*
X39500001Y58000000D01*
D68*
X45750001Y26500000D02*
X45875001Y26375000D01*
X32975001Y32475000D02*
X32875001Y32375000D01*
X47895001Y55605000D02*
X47895001Y55021500D01*
D70*
X72920001Y51000000D02*
X72500001Y51000000D01*
D68*
X35000001Y18211826D02*
X35125001Y18336826D01*
D70*
X72920001Y45420000D02*
X72000001Y44500000D01*
D68*
X28000001Y50740000D02*
X27950001Y50690000D01*
X34375001Y32475000D02*
X34475001Y32475000D01*
D67*
X26630001Y29155000D02*
X27325001Y29155000D01*
D68*
X40250001Y19000000D02*
X40125001Y18875000D01*
D67*
X61875001Y25150000D02*
X61875001Y26125000D01*
D73*
X21550001Y35686658D02*
X21550001Y34475000D01*
D67*
X12475001Y48125000D02*
X12475001Y47340000D01*
D71*
X15225001Y50690000D02*
X15225001Y51752500D01*
D67*
X38875001Y25125000D02*
X38875001Y25100000D01*
D70*
X72920001Y45920000D02*
X72920001Y45420000D01*
D68*
X40000001Y20500000D02*
X40500001Y20000000D01*
D67*
X36125001Y15875000D02*
X36125001Y16350000D01*
D68*
X48690001Y13310000D02*
X49500001Y12500000D01*
D67*
X42300001Y36575000D02*
X42875001Y36000000D01*
D68*
X34375001Y32375000D02*
X35875001Y30875000D01*
X51750001Y14875000D02*
X51125001Y14875000D01*
X26075001Y36925000D02*
X25500001Y37500000D01*
D67*
X32125001Y35912500D02*
X32125001Y36850000D01*
D68*
X34375001Y32475000D02*
X34275001Y32475000D01*
X29003769Y50996232D02*
X28747537Y50740000D01*
D72*
X19125001Y40152500D02*
X19032501Y40060000D01*
D68*
X36625001Y29037500D02*
X36625001Y28426588D01*
D72*
X21125001Y41915000D02*
X21125001Y40967500D01*
D68*
X54275001Y32975000D02*
X53625001Y33625000D01*
X29748744Y31253768D02*
X29496233Y31253768D01*
D67*
X41887501Y36537500D02*
X41925001Y36575000D01*
D73*
X19100001Y34475000D02*
X19100001Y33100000D01*
D72*
X4850001Y47975000D02*
X4850001Y49350000D01*
D68*
X49990001Y10260000D02*
X50375001Y9875000D01*
D72*
X19125001Y41740000D02*
X18712501Y41740000D01*
D73*
X19100001Y34475000D02*
X19100001Y35600000D01*
D68*
X35625001Y19460000D02*
X35625001Y18975801D01*
X34375001Y32475000D02*
X35775001Y32475000D01*
X48690001Y13575000D02*
X48690001Y13690000D01*
D71*
X19125001Y54152500D02*
X19532501Y54560000D01*
D68*
X28275001Y33225000D02*
X27746233Y33753768D01*
X26825001Y25625000D02*
X26375001Y25625000D01*
D71*
X10125001Y50125000D02*
X10125001Y48952500D01*
D67*
X34125001Y15375000D02*
X33875001Y15625000D01*
D68*
X36625001Y28426588D02*
X36651589Y28400000D01*
D67*
X47375001Y19150000D02*
X47375001Y20375000D01*
D71*
X16625001Y15125000D02*
X17875001Y16375000D01*
D72*
X18712501Y41740000D02*
X17532501Y40560000D01*
D67*
X29675001Y38850000D02*
X29675001Y39675000D01*
D73*
X19100001Y35600000D02*
X19375001Y35875000D01*
D67*
X67375001Y50375000D02*
X66875001Y50875000D01*
X33875001Y15625000D02*
X33875001Y16350000D01*
X49375001Y19150000D02*
X49375001Y20375000D01*
D71*
X23625001Y52652500D02*
X23625001Y51965000D01*
D73*
X24275001Y35775000D02*
X24375001Y35875000D01*
D68*
X34275001Y32475000D02*
X32875001Y33875000D01*
D71*
X24500001Y58000000D02*
X24500001Y56500000D01*
X14125001Y14125000D02*
X14125001Y15125000D01*
D68*
X44575001Y25250000D02*
X45750001Y25250000D01*
X58975001Y9225000D02*
X58975001Y10625000D01*
D67*
X59875001Y25150000D02*
X59875001Y26125000D01*
X4625001Y22625000D02*
X7125001Y22625000D01*
D68*
X35775001Y32475000D02*
X35875001Y32375000D01*
X34375001Y32475000D02*
X34375001Y33875000D01*
D67*
X62375001Y53625000D02*
X62375001Y54975000D01*
D72*
X4850001Y50150000D02*
X4500001Y50500000D01*
D71*
X14250001Y50500000D02*
X15035001Y50500000D01*
D68*
X34375001Y32475000D02*
X32975001Y32475000D01*
X38527817Y34725000D02*
X38825001Y34427816D01*
D72*
X21125001Y40652500D02*
X20532501Y40060000D01*
D67*
X42750001Y34625000D02*
X43250001Y35125000D01*
X51775001Y58275000D02*
X51500001Y58000000D01*
D71*
X10125001Y48952500D02*
X9882501Y48710000D01*
D68*
X24000001Y47375000D02*
X24760001Y47375000D01*
X34375001Y32475000D02*
X34375001Y30875000D01*
D67*
X69375001Y30875000D02*
X69875001Y30375000D01*
D72*
X12200001Y26875000D02*
X13375001Y28050000D01*
D68*
X37812501Y34725000D02*
X38527817Y34725000D01*
D67*
X31675001Y39350000D02*
X31675001Y40075000D01*
D68*
X67875001Y21625000D02*
X67775001Y21525000D01*
X34375001Y32375000D02*
X32875001Y30875000D01*
D73*
X24275001Y34850000D02*
X24275001Y35775000D01*
D68*
X30219976Y31725000D02*
X29748744Y31253768D01*
X20519957Y47040704D02*
X20505816Y47040704D01*
X48690001Y13690000D02*
X49500001Y14500000D01*
X40125001Y18875000D02*
X39400001Y18875000D01*
X35125001Y18336826D02*
X35125001Y19460000D01*
X24375001Y27125000D02*
X24000001Y27500000D01*
X39825001Y20500000D02*
X40000001Y20500000D01*
X24375001Y26700000D02*
X24375001Y27125000D01*
X48690001Y13810000D02*
X48000001Y14500000D01*
X48690001Y13575000D02*
X48690001Y13810000D01*
G04 #@! TO.N,Net-(U11-FB)*
X26300001Y50690000D02*
X26240001Y50690000D01*
X27450001Y52875000D02*
X27450001Y51840000D01*
X27450001Y51840000D02*
X26300001Y50690000D01*
X26240001Y50690000D02*
X23575001Y48025000D01*
G04 #@! TO.N,/MCU (STM)/microSD_CS*
X42000001Y45768500D02*
X42000001Y52755000D01*
X37000001Y51750000D02*
X37946501Y52696500D01*
X42000001Y52755000D02*
X43495001Y54250000D01*
X36125001Y35912500D02*
X36125001Y39893500D01*
X36125001Y39893500D02*
X42000001Y45768500D01*
X38129991Y52696500D02*
X41941501Y52696500D01*
X37946501Y52696500D02*
X38129991Y52696500D01*
X32250001Y51000000D02*
X33000001Y51750000D01*
X43495001Y54250000D02*
X43495001Y55021500D01*
X33000001Y51750000D02*
X37000001Y51750000D01*
X41941501Y52696500D02*
X42000001Y52755000D01*
G04 #@! TO.N,Net-(U7-PB5)*
X35125001Y35912500D02*
X35087501Y35912500D01*
X35125001Y35912500D02*
X35125001Y40625000D01*
X36825001Y42325000D02*
X36825001Y44350000D01*
X35125001Y40625000D02*
X36825001Y42325000D01*
G04 #@! TO.N,Net-(D1-A)*
X36825001Y46000000D02*
X36825001Y47562500D01*
X37000001Y47562500D02*
X37175001Y47737500D01*
G04 #@! TO.N,VBAT_PROT*
D72*
X21125001Y43465000D02*
X21500001Y43465000D01*
D68*
X23165001Y43365000D02*
X23125001Y43325000D01*
D72*
X19125001Y43375000D02*
X20625001Y44875000D01*
X8960001Y33610000D02*
X10875001Y35525000D01*
X21500001Y43465000D02*
X22200001Y44165000D01*
D68*
X27125001Y43365000D02*
X23165001Y43365000D01*
D72*
X10875001Y35875000D02*
X12375001Y37375000D01*
D71*
X27085001Y43325000D02*
X27125001Y43365000D01*
D72*
X19125001Y43640000D02*
X19125001Y43375000D01*
X23175001Y43190000D02*
X22200001Y44165000D01*
X22200001Y44165000D02*
X22200001Y44875000D01*
X7000001Y31000000D02*
X6500001Y31500000D01*
X8960001Y31500000D02*
X8960001Y33610000D01*
X10875001Y35525000D02*
X10875001Y35875000D01*
X8960001Y31000000D02*
X7000001Y31000000D01*
X8960001Y29375000D02*
X8960001Y31000000D01*
X12375001Y37375000D02*
X18640001Y43640000D01*
X18640001Y43640000D02*
X19125001Y43640000D01*
X8960001Y31000000D02*
X8960001Y31500000D01*
X20625001Y44875000D02*
X22200001Y44875000D01*
G04 #@! TO.N,Net-(D2-A)*
X10790001Y29375000D02*
X10790001Y32140000D01*
X10790001Y32140000D02*
X10875001Y32225000D01*
X13050001Y29375000D02*
X13375001Y29700000D01*
X10790001Y29375000D02*
X13050001Y29375000D01*
G04 #@! TO.N,Net-(U11-EN)*
D68*
X25325001Y44075000D02*
X25875001Y44625000D01*
X23625001Y44075000D02*
X25325001Y44075000D01*
X25875001Y44625000D02*
X26265001Y45015000D01*
X26265001Y45015000D02*
X27125001Y45015000D01*
X24000001Y45875000D02*
X24625001Y45875000D01*
X23075001Y44625000D02*
X23625001Y44075000D01*
X23075001Y45225000D02*
X23075001Y44625000D01*
X24625001Y45875000D02*
X25875001Y44625000D01*
G04 #@! TO.N,+5V*
D71*
X17624939Y53341216D02*
X16133847Y54832308D01*
X11180001Y46430000D02*
X10125001Y45375000D01*
X22253673Y48875000D02*
X23625001Y50246328D01*
X12500001Y49747500D02*
X12500001Y52750000D01*
X20310001Y50690000D02*
X17125001Y50690000D01*
D68*
X25800001Y52590000D02*
X23625001Y50415000D01*
D71*
X23625001Y50246328D02*
X23625001Y50415000D01*
X17125001Y50690000D02*
X17624939Y51189938D01*
X16133847Y54832308D02*
X16133847Y55666154D01*
X16133847Y55666154D02*
X16467693Y56000000D01*
X15854721Y49315000D02*
X13475001Y49315000D01*
X16467693Y56000000D02*
X19750001Y56000000D01*
X13532501Y46430000D02*
X13532501Y49257500D01*
X17125001Y50585280D02*
X15854721Y49315000D01*
X21750001Y58000000D02*
X21880001Y58000000D01*
X11625001Y15375000D02*
X11625001Y14125000D01*
X22125001Y48875000D02*
X22125001Y50740000D01*
D68*
X25800001Y52875000D02*
X25800001Y52590000D01*
D74*
X22325001Y48025000D02*
X22325001Y48675000D01*
D71*
X15375001Y34625000D02*
X15375001Y19125000D01*
X15375001Y19125000D02*
X11625001Y15375000D01*
X12067501Y49315000D02*
X12500001Y49747500D01*
D74*
X21490001Y48875000D02*
X19125001Y51240000D01*
X22125001Y48875000D02*
X21490001Y48875000D01*
D71*
X13532501Y49257500D02*
X13475001Y49315000D01*
X22125001Y50740000D02*
X21625001Y51240000D01*
X19750001Y56000000D02*
X21750001Y58000000D01*
D67*
X13900001Y57900000D02*
X15300001Y56500000D01*
D71*
X13475001Y49315000D02*
X12067501Y49315000D01*
X22125001Y48875000D02*
X20310001Y50690000D01*
D67*
X13900001Y57900000D02*
X13275001Y57900000D01*
D71*
X17125001Y50690000D02*
X17125001Y50585280D01*
X15300001Y56500000D02*
X16133847Y55666154D01*
X22125001Y48875000D02*
X22253673Y48875000D01*
D67*
X13275001Y57900000D02*
X13000001Y58175000D01*
D71*
X17624939Y51189938D02*
X17624939Y53341216D01*
X12067501Y49315000D02*
X11432501Y48680000D01*
X11632501Y46430000D02*
X11180001Y46430000D01*
X11432501Y46630000D02*
X11632501Y46430000D01*
X11432501Y48680000D02*
X11432501Y46630000D01*
D74*
X22325001Y48675000D02*
X22125001Y48875000D01*
G04 #@! TO.N,/MCU (STM)/OSC_IN*
D68*
X28775001Y36200000D02*
X28050001Y36925000D01*
X30475001Y33225000D02*
X28775001Y34925000D01*
X28775001Y34925000D02*
X28775001Y36200000D01*
X30937501Y33225000D02*
X30475001Y33225000D01*
G04 #@! TO.N,/MCU (STM)/OSC_OUT*
X29975001Y32725000D02*
X30937501Y32725000D01*
X28875001Y32375000D02*
X28025001Y31525000D01*
X29975001Y32725000D02*
X29625001Y32375000D01*
X28025001Y31525000D02*
X28025001Y31425000D01*
X29625001Y32375000D02*
X28875001Y32375000D01*
G04 #@! TO.N,/MCU (STM)/NRST*
X23950001Y31575000D02*
X24175001Y31350000D01*
X21125001Y32625000D02*
X22175001Y31575000D01*
X22175001Y31575000D02*
X23950001Y31575000D01*
X30225001Y32225000D02*
X30937501Y32225000D01*
X28875001Y30632536D02*
X28875001Y31375000D01*
X25150001Y30375000D02*
X24175001Y31350000D01*
X20325001Y33425000D02*
X21125001Y32625000D01*
X25375001Y30375000D02*
X25150001Y30375000D01*
X20325001Y34475000D02*
X20325001Y33425000D01*
X29875001Y31875000D02*
X30225001Y32225000D01*
X29375001Y31875000D02*
X29875001Y31875000D01*
X28000001Y30375000D02*
X28617465Y30375000D01*
X28617465Y30375000D02*
X28875001Y30632536D01*
X28875001Y31375000D02*
X29375001Y31875000D01*
G04 #@! TO.N,/MCU (STM)/APRS_PWM*
X28375001Y23100000D02*
X28375001Y22375000D01*
X30250001Y30037500D02*
X29875001Y29662500D01*
X29650001Y24375000D02*
X28375001Y23100000D01*
X30812501Y30600000D02*
X30431327Y30600000D01*
X30900001Y27000000D02*
X30900001Y24900000D01*
X29875001Y28025000D02*
X30175001Y27725000D01*
X30431327Y30600000D02*
X30250001Y30418674D01*
X30900001Y24900000D02*
X30875001Y24875000D01*
X30250001Y30418674D02*
X30250001Y30037500D01*
X30175001Y27725000D02*
X30900001Y27000000D01*
X29875001Y29662500D02*
X29875001Y28025000D01*
X30937501Y30725000D02*
X30812501Y30600000D01*
G04 #@! TO.N,/MCU (STM)/APRS_RX*
X31070044Y29592457D02*
X31070044Y29270043D01*
X31070044Y29270043D02*
X30425001Y28625000D01*
X30937501Y29725000D02*
X31070044Y29592457D01*
G04 #@! TO.N,/MCU (STM)/APRS_TX*
X22375001Y16375000D02*
X28875001Y16375000D01*
X21625001Y14125000D02*
X21625001Y15625000D01*
X31000001Y23994975D02*
X31500001Y24494975D01*
X28875001Y16375000D02*
X31000001Y18500000D01*
X31000001Y18500000D02*
X31000001Y23994975D01*
X21625001Y15625000D02*
X22375001Y16375000D01*
X31500001Y24494975D02*
X31500001Y28912500D01*
X31500001Y28912500D02*
X31625001Y29037500D01*
X21625001Y14125000D02*
X21725001Y14125000D01*
G04 #@! TO.N,/MCU (STM)/Cam_CS*
X34580001Y58000000D02*
X34500001Y57920000D01*
X31500001Y17755026D02*
X29244975Y15500000D01*
X31500001Y24000000D02*
X32000001Y24500000D01*
X17000001Y31972182D02*
X19986092Y28986091D01*
X19986092Y28986091D02*
X20513910Y28986091D01*
X32125001Y28000000D02*
X32125001Y27952818D01*
X29528769Y50778769D02*
X29221232Y50471232D01*
X32125001Y29037500D02*
X32125001Y28000000D01*
D67*
X13000001Y59825000D02*
X14039647Y60864646D01*
D68*
X28892511Y50390000D02*
X28890001Y50390000D01*
X29244975Y15500000D02*
X23000001Y15500000D01*
X18500001Y38000000D02*
X17000001Y36500000D01*
X32000001Y24500000D02*
X32000001Y27875000D01*
X34500001Y57920000D02*
X34500001Y56000000D01*
X34500001Y56000000D02*
X29528769Y51028768D01*
X31500001Y24000000D02*
X31500001Y17755026D01*
D67*
X14039647Y60864646D02*
X31644645Y60864646D01*
D68*
X17000001Y36500000D02*
X17000001Y31972182D01*
X28500001Y50000000D02*
X28500001Y43000000D01*
X32000001Y27875000D02*
X32125001Y28000000D01*
X31680000Y60900001D02*
X34580001Y58000000D01*
X23500001Y38000000D02*
X18500001Y38000000D01*
X29528769Y51028768D02*
X29528769Y50778769D01*
X28500001Y43000000D02*
X23500001Y38000000D01*
X29221232Y50471232D02*
X28973744Y50471232D01*
X28890001Y50390000D02*
X28500001Y50000000D01*
X28973744Y50471232D02*
X28892511Y50390000D01*
G04 #@! TO.N,/MCU (STM)/SCK*
X46795001Y50500000D02*
X46795001Y35455000D01*
X37375001Y22625000D02*
X39625001Y22625000D01*
X34625001Y22625000D02*
X35125001Y22125000D01*
X35125001Y22125000D02*
X35125001Y21290000D01*
X55750001Y26250000D02*
X61375001Y31875000D01*
X46795001Y35455000D02*
X55750001Y26500000D01*
X55750001Y26250000D02*
X55750001Y14000000D01*
X39625001Y22625000D02*
X41125001Y24125000D01*
X54515001Y12765000D02*
X51285001Y12765000D01*
X41125001Y24125000D02*
X42050001Y24125000D01*
X42050001Y24125000D02*
X42175001Y24000000D01*
X55750001Y26500000D02*
X55750001Y26250000D01*
X55750001Y14000000D02*
X54515001Y12765000D01*
X32625001Y27675000D02*
X32575001Y27625000D01*
X61375001Y31875000D02*
X61375001Y32975000D01*
X32625001Y29037500D02*
X32625001Y27675000D01*
X51285001Y12765000D02*
X51125001Y12925000D01*
X46795001Y50500000D02*
X46795001Y55021500D01*
G04 #@! TO.N,/MCU (STM)/MISO*
X39786502Y24786501D02*
X41500001Y26500000D01*
X50875001Y38591510D02*
X50875001Y33375000D01*
X50338246Y52338245D02*
X51479991Y51196500D01*
X52225001Y14225000D02*
X51125001Y14225000D01*
X55500001Y28750000D02*
X55500001Y28250000D01*
X50875001Y33375000D02*
X55500001Y28750000D01*
X50338246Y52338245D02*
X48995001Y53681490D01*
X48995001Y55021500D02*
X49004991Y55031490D01*
X39786502Y24740655D02*
X39786502Y24786501D01*
X41500001Y26500000D02*
X42175001Y26500000D01*
X33125001Y21960000D02*
X33960001Y21125000D01*
X55250001Y28000000D02*
X57375001Y30125000D01*
X52500001Y14500000D02*
X52225001Y14225000D01*
X57375001Y30125000D02*
X57375001Y32975000D01*
X33125001Y25250000D02*
X33125001Y21960000D01*
X54625001Y23625000D02*
X52750001Y25500000D01*
X33125001Y29037500D02*
X33125001Y25250000D01*
X55500001Y28250000D02*
X55250001Y28000000D01*
X48995001Y53681490D02*
X48995001Y55021500D01*
X51479991Y51196500D02*
X51479991Y39196500D01*
X51479991Y39196500D02*
X50875001Y38591510D01*
G04 #@! TO.N,/MCU (STM)/MOSI*
X56100001Y25822182D02*
X57013910Y26736091D01*
X33675001Y23375000D02*
X33625001Y23425000D01*
X54519975Y12275000D02*
X56100001Y13855025D01*
X59375001Y30875000D02*
X59375001Y32975000D01*
X34000001Y24250000D02*
X34000001Y25625000D01*
X56125001Y27625000D02*
X59375001Y30875000D01*
X44595001Y36655000D02*
X54619975Y26630026D01*
X38375001Y23375000D02*
X39375001Y23375000D01*
X33625001Y23325000D02*
X33675001Y23375000D01*
X33625001Y26000000D02*
X33625001Y29037500D01*
X54619975Y26130026D02*
X54625001Y26125000D01*
X33625001Y22290000D02*
X34625001Y21290000D01*
X51125001Y12275000D02*
X54519975Y12275000D01*
X54619975Y26630026D02*
X54619975Y26130026D01*
X44595001Y53500000D02*
X44595001Y36655000D01*
X44595001Y55021500D02*
X44595001Y53500000D01*
X56100001Y13855025D02*
X56100001Y25822182D01*
X33625001Y23875000D02*
X34000001Y24250000D01*
X39375001Y23375000D02*
X41250001Y25250000D01*
X41250001Y25250000D02*
X42175001Y25250000D01*
X33625001Y23425000D02*
X33625001Y23875000D01*
X34000001Y25625000D02*
X33625001Y26000000D01*
X33625001Y22290000D02*
X33625001Y23325000D01*
G04 #@! TO.N,/MCU (STM)/IMU_CS*
X34125001Y26875000D02*
X35625001Y25375000D01*
X35985001Y21650000D02*
X36600001Y21650000D01*
X35625001Y25375000D02*
X35625001Y21290000D01*
X40950001Y21500000D02*
X40975001Y21475000D01*
X35625001Y21290000D02*
X35985001Y21650000D01*
X34125001Y29037500D02*
X34125001Y26875000D01*
X39027819Y16000000D02*
X40500001Y16000000D01*
X40975001Y21475000D02*
X40950001Y21450000D01*
X41475001Y20975000D02*
X42000001Y20450000D01*
X40950001Y21450000D02*
X40950001Y21100000D01*
X40975001Y21475000D02*
X41475001Y20975000D01*
X38000001Y17027818D02*
X39027819Y16000000D01*
X36750001Y21500000D02*
X40950001Y21500000D01*
X36600001Y21650000D02*
X36750001Y21500000D01*
G04 #@! TO.N,/MCU (STM)/LoRa_CS*
X69500001Y25250000D02*
X69500001Y24000000D01*
X63875001Y26875000D02*
X65875001Y28875000D01*
X65875001Y28875000D02*
X69500001Y25250000D01*
X64850001Y29875000D02*
X63300001Y29875000D01*
X63300001Y29875000D02*
X63200001Y29975000D01*
X34625001Y27625000D02*
X35250001Y27000000D01*
X34625001Y29037500D02*
X34625001Y27625000D01*
X63200001Y29975000D02*
X63200001Y32800000D01*
G04 #@! TO.N,/MCU (STM)/BARO_CS*
D67*
X46425001Y27750000D02*
X46550001Y27875000D01*
X44575001Y27750000D02*
X46425001Y27750000D01*
D68*
X43825001Y28500000D02*
X44575001Y27750000D01*
X35125001Y29037500D02*
X35125001Y28125000D01*
X38415902Y28436121D02*
X40313880Y28436121D01*
X46550001Y26950000D02*
X46550001Y27875000D01*
X40313880Y28436121D02*
X41000001Y27750000D01*
X35125001Y28125000D02*
X35375001Y27875000D01*
X42175001Y27750000D02*
X42925001Y28500000D01*
X41000001Y27750000D02*
X42175001Y27750000D01*
X42925001Y28500000D02*
X43825001Y28500000D01*
X48500001Y25000000D02*
X46550001Y26950000D01*
G04 #@! TO.N,Net-(U7-VCAP1)*
X36825001Y27125000D02*
X36125001Y27825000D01*
X36125001Y27825000D02*
X36125001Y29037500D01*
X36175001Y28987500D02*
X36125001Y29037500D01*
G04 #@! TO.N,/MCU (STM)/LoRa_DIO0*
X55875001Y50875000D02*
X58625001Y50875000D01*
X38125001Y29125000D02*
X37812501Y29437500D01*
X37812501Y29437500D02*
X37812501Y29725000D01*
X53125001Y36625000D02*
X53125001Y49625000D01*
X47375001Y30875000D02*
X45625001Y29125000D01*
X52000001Y35500000D02*
X53125001Y36625000D01*
X45625001Y29125000D02*
X38125001Y29125000D01*
X55875001Y50875000D02*
X55875001Y52875000D01*
X53125001Y49625000D02*
X54375001Y50875000D01*
X59375001Y50125000D02*
X59375001Y48375000D01*
X54375001Y50875000D02*
X55875001Y50875000D01*
X58625001Y50875000D02*
X59375001Y50125000D01*
G04 #@! TO.N,/MCU (STM)/LoRa_RESET*
X43625001Y29831309D02*
X42372748Y29831309D01*
X65375001Y30875000D02*
X65375001Y29375000D01*
X38647183Y29825000D02*
X38247183Y30225000D01*
X68375001Y27875000D02*
X69375001Y27875000D01*
X42366439Y29825000D02*
X38647183Y29825000D01*
X59097183Y28125000D02*
X58750001Y28472182D01*
X42372748Y29831309D02*
X42366439Y29825000D01*
X38247183Y30225000D02*
X37812501Y30225000D01*
X65375001Y29375000D02*
X64125001Y28125000D01*
X65375001Y32975000D02*
X65375001Y30875000D01*
X64125001Y28125000D02*
X59097183Y28125000D01*
X65375001Y30875000D02*
X68375001Y27875000D01*
G04 #@! TO.N,/MCU (STM)/APRS_PTT*
X26625001Y12625000D02*
X35750001Y3500000D01*
X24700001Y21800000D02*
X25375001Y21125000D01*
X40125001Y30375000D02*
X39775001Y30725000D01*
X42500001Y3500000D02*
X44875001Y5875000D01*
X44875001Y5875000D02*
X45750001Y5875000D01*
X45750001Y5875000D02*
X45875001Y5750000D01*
X24700001Y22875000D02*
X24700001Y21800000D01*
X35750001Y3500000D02*
X42500001Y3500000D01*
X25375001Y21125000D02*
X26625001Y21125000D01*
X26625001Y14125000D02*
X26625001Y12625000D01*
X39775001Y30725000D02*
X37812501Y30725000D01*
G04 #@! TO.N,/MCU (STM)/APRS_PD*
X36125001Y7375000D02*
X37750001Y5750000D01*
X35875001Y7375000D02*
X36125001Y7375000D01*
X28625001Y19625000D02*
X29125001Y19125000D01*
X27700001Y19625000D02*
X28625001Y19625000D01*
X40875001Y31125000D02*
X37912501Y31125000D01*
X29125001Y14125000D02*
X35875001Y7375000D01*
X37912501Y31125000D02*
X37812501Y31225000D01*
G04 #@! TO.N,/MCU (STM)/Temp_CS*
X51125001Y13575000D02*
X52500001Y13575000D01*
X53150001Y14275000D02*
X53875001Y13550000D01*
X38193675Y31725000D02*
X38343675Y31875000D01*
X37812501Y31725000D02*
X38193675Y31725000D01*
X50125001Y29250000D02*
X50125001Y20875000D01*
X52500001Y13575000D02*
X53925001Y13575000D01*
X53150001Y17850000D02*
X53150001Y14275000D01*
X52500001Y13434864D02*
X52541217Y13393648D01*
X53925001Y13575000D02*
X53975001Y13625000D01*
X47500001Y31875000D02*
X50125001Y29250000D01*
X52500001Y13575000D02*
X52500001Y13434864D01*
X50125001Y20875000D02*
X53150001Y17850000D01*
X38343675Y31875000D02*
X47500001Y31875000D01*
G04 #@! TO.N,/GPS/GPS_RX*
X65575001Y20125000D02*
X65625001Y20175000D01*
X41125001Y32425000D02*
X38925001Y32425000D01*
X65625001Y20175000D02*
X65625001Y22125000D01*
X38925001Y32425000D02*
X38725001Y32225000D01*
X38725001Y32225000D02*
X37812501Y32225000D01*
G04 #@! TO.N,/GPS/GPS_TX*
X43375001Y32425000D02*
X43325001Y32425000D01*
X40897183Y32975000D02*
X42825001Y32975000D01*
X40697183Y32775000D02*
X40897183Y32975000D01*
X42825001Y32975000D02*
X43375001Y32425000D01*
X66675001Y22075000D02*
X66625001Y22125000D01*
X37862501Y32775000D02*
X40697183Y32775000D01*
X37812501Y32725000D02*
X37862501Y32775000D01*
X66675001Y20125000D02*
X66675001Y22075000D01*
G04 #@! TO.N,/MCU (STM)/SWDIO*
X39875001Y33325000D02*
X39825001Y33375000D01*
X38500001Y33375000D02*
X38500001Y33974999D01*
X39825001Y33375000D02*
X38500001Y33375000D01*
X38500001Y33974999D02*
X38250000Y34225000D01*
X38250000Y34225000D02*
X37812501Y34225000D01*
G04 #@! TO.N,/MCU (STM)/SWCLK*
X38097525Y36433388D02*
X38097525Y36347524D01*
X37625001Y35875000D02*
X37162501Y35875000D01*
X38097525Y36347524D02*
X37625001Y35875000D01*
X37162501Y35875000D02*
X37125001Y35912500D01*
G04 #@! TO.N,/MCU (STM)/IMU_INT1*
X33960001Y19625000D02*
X32875001Y19625000D01*
X51375001Y29125000D02*
X51375001Y20875000D01*
X43125001Y37375000D02*
X51375001Y29125000D01*
X36625001Y36349999D02*
X37650002Y37375000D01*
X36625001Y35912500D02*
X36625001Y36349999D01*
X37650002Y37375000D02*
X43125001Y37375000D01*
X32875001Y19625000D02*
X32344669Y19094668D01*
X32344669Y19094668D02*
X32344669Y18155332D01*
G04 #@! TO.N,/MCU (STM)/microSD_detect*
X38000001Y46891510D02*
X39760001Y48651510D01*
X38000001Y42500000D02*
X38000001Y46891510D01*
X35625001Y35912500D02*
X35625001Y40125000D01*
X39760001Y48651510D02*
X39760001Y48871500D01*
X35625001Y40125000D02*
X38000001Y42500000D01*
G04 #@! TO.N,/MCU (STM)/SCL*
X31700001Y43300000D02*
X30000001Y45000000D01*
X30000001Y45000000D02*
X30000001Y47000000D01*
X31700001Y43125000D02*
X31700001Y43300000D01*
X33375001Y43125000D02*
X34625001Y41875000D01*
X31700001Y43125000D02*
X33375001Y43125000D01*
X34625001Y41875000D02*
X34625001Y35912500D01*
X17300001Y57500000D02*
X16800001Y58000000D01*
G04 #@! TO.N,/MCU (STM)/SDA*
X34075001Y40675000D02*
X34075001Y35962500D01*
X31700001Y41375000D02*
X33375001Y41375000D01*
X33375001Y41375000D02*
X34075001Y40675000D01*
X34075001Y35962500D02*
X34125001Y35912500D01*
G04 #@! TO.N,/MCU (STM)/BOOT0*
X33525001Y36475000D02*
X33525001Y37000000D01*
X33625001Y36375000D02*
X33525001Y36475000D01*
X21600001Y25225000D02*
X22450001Y24375000D01*
X20375001Y27125000D02*
X22125001Y28875000D01*
X21600001Y25225000D02*
X21600001Y25900000D01*
X19150001Y25900000D02*
X19150001Y25225000D01*
X21600001Y25900000D02*
X20875001Y26625000D01*
X19875001Y26625000D02*
X19150001Y25900000D01*
X20375001Y26625000D02*
X19875001Y26625000D01*
X23700001Y24375000D02*
X24375001Y25050000D01*
X20875001Y26625000D02*
X20375001Y26625000D01*
X22450001Y24375000D02*
X23700001Y24375000D01*
X33625001Y36375000D02*
X33625001Y35912500D01*
X20375001Y26625000D02*
X20375001Y27125000D01*
G04 #@! TO.N,Net-(J3-In)*
D70*
X75460001Y48460000D02*
X69460001Y48460000D01*
X69460001Y48460000D02*
X69375001Y48375000D01*
G04 #@! TO.N,Net-(U9-ISENSOR)*
D68*
X46255001Y13575000D02*
X45995001Y13315000D01*
D67*
X43890001Y13315000D02*
X44340001Y13315000D01*
D68*
X46255001Y12925000D02*
X45875001Y13305000D01*
X45875001Y13305000D02*
X45875001Y13315000D01*
X45995001Y13315000D02*
X45875001Y13315000D01*
X44340001Y13315000D02*
X45875001Y13315000D01*
G04 #@! TO.N,/Sensor/BIAS*
X43415001Y14965000D02*
X43890001Y14965000D01*
X42590001Y11890000D02*
X42590001Y14140000D01*
X42590001Y14140000D02*
X43415001Y14965000D01*
X44090001Y11465000D02*
X43015001Y11465000D01*
D67*
X45835001Y14225000D02*
X46255001Y14225000D01*
X44090001Y11465000D02*
X44090001Y11640000D01*
D68*
X45515001Y14965000D02*
X46165001Y14965000D01*
X46255001Y14225000D02*
X45515001Y14965000D01*
X43890001Y14965000D02*
X45515001Y14965000D01*
X43015001Y11465000D02*
X42590001Y11890000D01*
G04 #@! TO.N,Net-(J7-In)*
D70*
X60000001Y4500000D02*
X60000001Y10550000D01*
D67*
X60250001Y10450000D02*
X60075001Y10625000D01*
D70*
X60000001Y10550000D02*
X60075001Y10625000D01*
G04 #@! TO.N,/MCU (STM)/APRS_AUDIO*
D68*
X19125001Y14125000D02*
X30500001Y2750000D01*
X30175001Y26075000D02*
X30175001Y19075000D01*
X50250001Y2750000D02*
X53250001Y5750000D01*
X28475001Y17375000D02*
X21875001Y17375000D01*
X28375001Y25625000D02*
X29725001Y25625000D01*
X21875001Y17375000D02*
X19125001Y14625000D01*
X30175001Y19075000D02*
X28475001Y17375000D01*
X30500001Y2750000D02*
X50250001Y2750000D01*
X29725001Y25625000D02*
X30175001Y26075000D01*
X19125001Y14625000D02*
X19125001Y14125000D01*
G04 #@! TO.N,Net-(F1-Pad2)*
D72*
X9875001Y27325000D02*
X9825001Y27275000D01*
X9825001Y27275000D02*
X2000001Y27275000D01*
G04 #@! TO.N,Net-(J2-Pin_1)*
X2000001Y33000000D02*
X5375001Y36375000D01*
X2000001Y31475000D02*
X2000001Y33000000D01*
X4975001Y36750000D02*
X5000001Y36750000D01*
X5000001Y36750000D02*
X5375001Y36375000D01*
G04 #@! TO.N,VBAT*
X4850001Y45475000D02*
X4850001Y39375000D01*
X4850001Y39375000D02*
X4975001Y39250000D01*
G04 #@! TO.N,Net-(C32-Pad2)*
D68*
X26575001Y33225000D02*
X26575001Y31475000D01*
X24275001Y33300000D02*
X26500001Y33300000D01*
X26575001Y31475000D02*
X26625001Y31425000D01*
X26500001Y33300000D02*
X26575001Y33225000D01*
G04 #@! TO.N,Net-(J8-Pin_1)*
X47125001Y10875000D02*
X47390001Y11140000D01*
X39725001Y10525000D02*
X45275001Y10525000D01*
X45275001Y10525000D02*
X45625001Y10875000D01*
X45625001Y10875000D02*
X47125001Y10875000D01*
X45625001Y10875000D02*
X45625001Y11645000D01*
X45625001Y11645000D02*
X46255001Y12275000D01*
X39125001Y11125000D02*
X39725001Y10525000D01*
G04 #@! TO.N,Net-(J8-Pin_2)*
X38985001Y8640000D02*
X45265001Y8640000D01*
D67*
X47840001Y8640000D02*
X48040001Y8840000D01*
D68*
X45265001Y8640000D02*
X47840001Y8640000D01*
X37125001Y11125000D02*
X37125001Y10500000D01*
X37125001Y10500000D02*
X38985001Y8640000D01*
X48040001Y8840000D02*
X48040001Y11140000D01*
X44090001Y9815000D02*
X45265001Y8640000D01*
G04 #@! TO.N,Net-(J8-Pin_3)*
X49390001Y8640000D02*
X49390001Y11090000D01*
X35125001Y11125000D02*
X35125001Y10500000D01*
X48690001Y9340000D02*
X49390001Y8640000D01*
X48615001Y7865000D02*
X49390001Y8640000D01*
X48690001Y11140000D02*
X48690001Y9340000D01*
D67*
X49390001Y11090000D02*
X49340001Y11140000D01*
D68*
X37760001Y7865000D02*
X48615001Y7865000D01*
X35125001Y10500000D02*
X37760001Y7865000D01*
G04 #@! TO.N,Net-(U4-INT2{slash}FSYNC{slash}CLKIN)*
X36290001Y20125000D02*
X37800001Y20125000D01*
X37800001Y20125000D02*
X38175001Y20500000D01*
G04 #@! TO.N,Net-(U11-VAUX)*
X25440001Y46875000D02*
X25625001Y46690000D01*
X24000001Y46875000D02*
X25440001Y46875000D01*
G04 #@! TO.N,Net-(U11-L1)*
D67*
X20375001Y46125000D02*
X22075001Y46125000D01*
D71*
X17875001Y46125000D02*
X20375001Y46125000D01*
X17625001Y45690000D02*
X17625001Y45875000D01*
X17625001Y45875000D02*
X17875001Y46125000D01*
G04 #@! TO.N,Net-(U11-L2)*
D67*
X20750001Y48000000D02*
X21000001Y48000000D01*
D71*
X19540001Y48060000D02*
X17810001Y48060000D01*
D67*
X21875001Y47125000D02*
X22075001Y47125000D01*
D71*
X17625001Y47875000D02*
X17625001Y48060000D01*
D67*
X21000001Y48000000D02*
X21875001Y47125000D01*
D71*
X17810001Y48060000D02*
X17625001Y47875000D01*
X20750001Y48000000D02*
X19600001Y48000000D01*
X19600001Y48000000D02*
X19540001Y48060000D01*
G04 #@! TD*
M02*
