G04 #@! TF.GenerationSoftware,KiCad,Pcbnew,10.0.0*
G04 #@! TF.CreationDate,2026-07-26T19:32:53-07:00*
G04 #@! TF.ProjectId,SSI Summer Balloons,53534920-5375-46d6-9d65-722042616c6c,rev?*
G04 #@! TF.SameCoordinates,Original*
G04 #@! TF.FileFunction,Legend,Bot*
G04 #@! TF.FilePolarity,Positive*
%FSLAX46Y46*%
G04 Gerber Fmt 4.6, Leading zero omitted, Abs format (unit mm)*
G04 Created by KiCad (PCBNEW 10.0.0) date 2026-07-26 19:32:53*
%MOMM*%
%LPD*%
G01*
G04 APERTURE LIST*
G04 Aperture macros list*
%AMRoundRect*
0 Rectangle with rounded corners*
0 $1 Rounding radius*
0 $2 $3 $4 $5 $6 $7 $8 $9 X,Y pos of 4 corners*
0 Add a 4 corners polygon primitive as box body*
4,1,4,$2,$3,$4,$5,$6,$7,$8,$9,$2,$3,0*
0 Add four circle primitives for the rounded corners*
1,1,$1+$1,$2,$3*
1,1,$1+$1,$4,$5*
1,1,$1+$1,$6,$7*
1,1,$1+$1,$8,$9*
0 Add four rect primitives between the rounded corners*
20,1,$1+$1,$2,$3,$4,$5,0*
20,1,$1+$1,$4,$5,$6,$7,0*
20,1,$1+$1,$6,$7,$8,$9,0*
20,1,$1+$1,$8,$9,$2,$3,0*%
G04 Aperture macros list end*
%ADD10C,0.150000*%
%ADD11C,0.120000*%
%ADD12R,1.700000X1.700000*%
%ADD13C,3.200000*%
%ADD14RoundRect,0.250000X0.750000X-0.600000X0.750000X0.600000X-0.750000X0.600000X-0.750000X-0.600000X0*%
%ADD15O,2.000000X1.700000*%
%ADD16C,0.900000*%
%ADD17RoundRect,0.250000X-0.600000X-0.725000X0.600000X-0.725000X0.600000X0.725000X-0.600000X0.725000X0*%
%ADD18O,1.700000X1.950000*%
%ADD19RoundRect,0.250000X0.600000X0.725000X-0.600000X0.725000X-0.600000X-0.725000X0.600000X-0.725000X0*%
%ADD20RoundRect,0.250000X0.350000X0.625000X-0.350000X0.625000X-0.350000X-0.625000X0.350000X-0.625000X0*%
%ADD21O,1.200000X1.750000*%
%ADD22C,1.700000*%
%ADD23C,2.050000*%
%ADD24C,2.250000*%
G04 APERTURE END LIST*
D10*
X54704820Y4833334D02*
X55419105Y4833334D01*
X55419105Y4833334D02*
X55561962Y4880953D01*
X55561962Y4880953D02*
X55657201Y4976191D01*
X55657201Y4976191D02*
X55704820Y5119048D01*
X55704820Y5119048D02*
X55704820Y5214286D01*
X54704820Y4452381D02*
X54704820Y3785715D01*
X54704820Y3785715D02*
X55704820Y4214286D01*
X75793334Y53755181D02*
X75793334Y53040896D01*
X75793334Y53040896D02*
X75840953Y52898039D01*
X75840953Y52898039D02*
X75936191Y52802800D01*
X75936191Y52802800D02*
X76079048Y52755181D01*
X76079048Y52755181D02*
X76174286Y52755181D01*
X75412381Y53755181D02*
X74793334Y53755181D01*
X74793334Y53755181D02*
X75126667Y53374229D01*
X75126667Y53374229D02*
X74983810Y53374229D01*
X74983810Y53374229D02*
X74888572Y53326610D01*
X74888572Y53326610D02*
X74840953Y53278991D01*
X74840953Y53278991D02*
X74793334Y53183753D01*
X74793334Y53183753D02*
X74793334Y52945658D01*
X74793334Y52945658D02*
X74840953Y52850420D01*
X74840953Y52850420D02*
X74888572Y52802800D01*
X74888572Y52802800D02*
X74983810Y52755181D01*
X74983810Y52755181D02*
X75269524Y52755181D01*
X75269524Y52755181D02*
X75364762Y52802800D01*
X75364762Y52802800D02*
X75412381Y52850420D01*
G04 #@! TO.C,J7*
D11*
X56645001Y5950000D02*
X56645001Y3050000D01*
X58550001Y7855000D02*
X61450001Y7855000D01*
X58550001Y1145000D02*
X61450001Y1145000D01*
X63355001Y5950000D02*
X63355001Y3050000D01*
G04 #@! TO.C,J3*
X72105001Y49910000D02*
X72105001Y47010000D01*
X76910001Y51815000D02*
X74010001Y51815000D01*
X76910001Y45105000D02*
X74010001Y45105000D01*
X78815001Y49910000D02*
X78815001Y47010000D01*
G04 #@! TD*
%LPC*%
D12*
G04 #@! TO.C,TP24*
X32250001Y51500000D03*
G04 #@! TD*
D13*
G04 #@! TO.C,M1*
X4504690Y58000000D03*
G04 #@! TD*
D12*
G04 #@! TO.C,TP15*
X46000001Y6000000D03*
G04 #@! TD*
G04 #@! TO.C,TP10*
X9500001Y24500000D03*
G04 #@! TD*
G04 #@! TO.C,TP25*
X69500001Y28000000D03*
G04 #@! TD*
G04 #@! TO.C,TP5*
X49000001Y37000000D03*
G04 #@! TD*
G04 #@! TO.C,TP14*
X37500001Y6000000D03*
G04 #@! TD*
G04 #@! TO.C,TP6*
X53000001Y6000000D03*
G04 #@! TD*
G04 #@! TO.C,TP2*
X6500001Y31500000D03*
G04 #@! TD*
D14*
G04 #@! TO.C,J2*
X4975001Y36750000D03*
D15*
X4975001Y39250000D03*
G04 #@! TD*
D16*
G04 #@! TO.C,SW1*
X22450001Y35375000D03*
X18200001Y35375000D03*
G04 #@! TD*
D17*
G04 #@! TO.C,J10*
X11625001Y14125000D03*
D18*
X14125001Y14125000D03*
X16625001Y14125000D03*
X19125001Y14125000D03*
X21625001Y14125000D03*
X24125001Y14125000D03*
X26625001Y14125000D03*
X29125001Y14125000D03*
G04 #@! TD*
D14*
G04 #@! TO.C,J1*
X4850001Y45475000D03*
D15*
X4850001Y47975000D03*
G04 #@! TD*
D12*
G04 #@! TO.C,TP20*
X40500001Y16000000D03*
G04 #@! TD*
G04 #@! TO.C,TP8*
X49000001Y41000000D03*
G04 #@! TD*
G04 #@! TO.C,TP7*
X28000001Y22500000D03*
G04 #@! TD*
D19*
G04 #@! TO.C,J9*
X34500001Y58000000D03*
D18*
X32000001Y58000000D03*
X29500001Y58000000D03*
X27000001Y58000000D03*
X24500001Y58000000D03*
X22000001Y58000000D03*
X19500001Y58000000D03*
X17000001Y58000000D03*
G04 #@! TD*
D12*
G04 #@! TO.C,TP11*
X44500001Y19500000D03*
G04 #@! TD*
D13*
G04 #@! TO.C,M3*
X4004690Y4500000D03*
G04 #@! TD*
D20*
G04 #@! TO.C,J8*
X39125001Y10500000D03*
D21*
X37125001Y10500000D03*
X35125001Y10500000D03*
G04 #@! TD*
D12*
G04 #@! TO.C,TP22*
X48500001Y25000000D03*
G04 #@! TD*
G04 #@! TO.C,TP23*
X69500001Y24000000D03*
G04 #@! TD*
G04 #@! TO.C,J4*
X30000001Y47000000D03*
D22*
X32540001Y47000000D03*
G04 #@! TD*
D12*
G04 #@! TO.C,TP4*
X8750001Y52750000D03*
G04 #@! TD*
D13*
G04 #@! TO.C,M4*
X76004690Y4500000D03*
G04 #@! TD*
D12*
G04 #@! TO.C,TP12*
X56000001Y53000000D03*
G04 #@! TD*
G04 #@! TO.C,TP13*
X43000001Y40000000D03*
G04 #@! TD*
D13*
G04 #@! TO.C,M2*
X75504690Y58000000D03*
G04 #@! TD*
D12*
G04 #@! TO.C,J11*
X64330001Y58500000D03*
D22*
X61790001Y58500000D03*
X59250001Y58500000D03*
G04 #@! TD*
D12*
G04 #@! TO.C,TP3*
X39000001Y40000000D03*
G04 #@! TD*
G04 #@! TO.C,TP1*
X12500001Y52750000D03*
G04 #@! TD*
G04 #@! TO.C,J5*
X4625001Y22625000D03*
D22*
X4625001Y20085000D03*
X4625001Y17545000D03*
X4625001Y15005000D03*
X4625001Y12465000D03*
G04 #@! TD*
D16*
G04 #@! TO.C,SW2*
X22500001Y26125000D03*
X18250001Y26125000D03*
G04 #@! TD*
D12*
G04 #@! TO.C,TP21*
X54000001Y10500000D03*
G04 #@! TD*
D23*
G04 #@! TO.C,J7*
X60000001Y4500000D03*
D24*
X62540001Y7040000D03*
X57460001Y7040000D03*
X62540001Y1960000D03*
X57460001Y1960000D03*
G04 #@! TD*
D23*
G04 #@! TO.C,J3*
X75460001Y48460000D03*
D24*
X78000001Y45920000D03*
X78000001Y51000000D03*
X72920001Y45920000D03*
X72920001Y51000000D03*
G04 #@! TD*
%LPD*%
M02*
