G04 #@! TF.GenerationSoftware,KiCad,Pcbnew,10.0.0*
G04 #@! TF.CreationDate,2026-07-26T19:32:53-07:00*
G04 #@! TF.ProjectId,SSI Summer Balloons,53534920-5375-46d6-9d65-722042616c6c,rev?*
G04 #@! TF.SameCoordinates,Original*
G04 #@! TF.FileFunction,Soldermask,Top*
G04 #@! TF.FilePolarity,Negative*
%FSLAX46Y46*%
G04 Gerber Fmt 4.6, Leading zero omitted, Abs format (unit mm)*
G04 Created by KiCad (PCBNEW 10.0.0) date 2026-07-26 19:32:53*
%MOMM*%
%LPD*%
G01*
G04 APERTURE LIST*
G04 Aperture macros list*
%AMRoundRect*
0 Rectangle with rounded corners*
0 $1 Rounding radius*
0 $2 $3 $4 $5 $6 $7 $8 $9 X,Y pos of 4 corners*
0 Add a 4 corners polygon primitive as box body*
4,1,4,$2,$3,$4,$5,$6,$7,$8,$9,$2,$3,0*
0 Add four circle primitives for the rounded corners*
1,1,$1+$1,$2,$3*
1,1,$1+$1,$4,$5*
1,1,$1+$1,$6,$7*
1,1,$1+$1,$8,$9*
0 Add four rect primitives between the rounded corners*
20,1,$1+$1,$2,$3,$4,$5,0*
20,1,$1+$1,$4,$5,$6,$7,0*
20,1,$1+$1,$6,$7,$8,$9,0*
20,1,$1+$1,$8,$9,$2,$3,0*%
G04 Aperture macros list end*
%ADD10C,0.010000*%
%ADD11RoundRect,0.225000X0.225000X0.250000X-0.225000X0.250000X-0.225000X-0.250000X0.225000X-0.250000X0*%
%ADD12RoundRect,0.200000X-0.200000X-0.275000X0.200000X-0.275000X0.200000X0.275000X-0.200000X0.275000X0*%
%ADD13R,1.700000X1.700000*%
%ADD14RoundRect,0.200000X0.275000X-0.200000X0.275000X0.200000X-0.275000X0.200000X-0.275000X-0.200000X0*%
%ADD15RoundRect,0.225000X-0.375000X0.225000X-0.375000X-0.225000X0.375000X-0.225000X0.375000X0.225000X0*%
%ADD16RoundRect,0.225000X0.250000X-0.225000X0.250000X0.225000X-0.250000X0.225000X-0.250000X-0.225000X0*%
%ADD17RoundRect,0.060300X-0.341700X0.716700X-0.341700X-0.716700X0.341700X-0.716700X0.341700X0.716700X0*%
%ADD18C,3.200000*%
%ADD19RoundRect,0.062500X-0.375000X-0.062500X0.375000X-0.062500X0.375000X0.062500X-0.375000X0.062500X0*%
%ADD20RoundRect,0.062500X-0.062500X-0.375000X0.062500X-0.375000X0.062500X0.375000X-0.062500X0.375000X0*%
%ADD21R,5.600000X5.600000*%
%ADD22RoundRect,0.225000X-0.250000X0.225000X-0.250000X-0.225000X0.250000X-0.225000X0.250000X0.225000X0*%
%ADD23RoundRect,0.200000X-0.275000X0.200000X-0.275000X-0.200000X0.275000X-0.200000X0.275000X0.200000X0*%
%ADD24RoundRect,0.250000X-0.475000X0.250000X-0.475000X-0.250000X0.475000X-0.250000X0.475000X0.250000X0*%
%ADD25RoundRect,0.102000X0.700000X-1.500000X0.700000X1.500000X-0.700000X1.500000X-0.700000X-1.500000X0*%
%ADD26RoundRect,0.102000X-0.350000X0.900000X-0.350000X-0.900000X0.350000X-0.900000X0.350000X0.900000X0*%
%ADD27RoundRect,0.102000X-0.400000X0.900000X-0.400000X-0.900000X0.400000X-0.900000X0.400000X0.900000X0*%
%ADD28RoundRect,0.101750X-0.305250X0.590250X-0.305250X-0.590250X0.305250X-0.590250X0.305250X0.590250X0*%
%ADD29RoundRect,0.250000X0.750000X-0.600000X0.750000X0.600000X-0.750000X0.600000X-0.750000X-0.600000X0*%
%ADD30O,2.000000X1.700000*%
%ADD31C,0.900000*%
%ADD32RoundRect,0.187500X0.187500X0.712500X-0.187500X0.712500X-0.187500X-0.712500X0.187500X-0.712500X0*%
%ADD33RoundRect,0.150000X0.150000X0.750000X-0.150000X0.750000X-0.150000X-0.750000X0.150000X-0.750000X0*%
%ADD34RoundRect,0.225000X0.425000X0.225000X-0.425000X0.225000X-0.425000X-0.225000X0.425000X-0.225000X0*%
%ADD35RoundRect,0.250000X-0.600000X-0.725000X0.600000X-0.725000X0.600000X0.725000X-0.600000X0.725000X0*%
%ADD36O,1.700000X1.950000*%
%ADD37RoundRect,0.200000X0.200000X0.275000X-0.200000X0.275000X-0.200000X-0.275000X0.200000X-0.275000X0*%
%ADD38RoundRect,0.225000X-0.225000X-0.250000X0.225000X-0.250000X0.225000X0.250000X-0.225000X0.250000X0*%
%ADD39RoundRect,0.102000X-1.600000X0.750000X-1.600000X-0.750000X1.600000X-0.750000X1.600000X0.750000X0*%
%ADD40RoundRect,0.183500X0.573500X0.183500X-0.573500X0.183500X-0.573500X-0.183500X0.573500X-0.183500X0*%
%ADD41RoundRect,0.250000X0.475000X-0.250000X0.475000X0.250000X-0.475000X0.250000X-0.475000X-0.250000X0*%
%ADD42RoundRect,0.250000X0.600000X0.725000X-0.600000X0.725000X-0.600000X-0.725000X0.600000X-0.725000X0*%
%ADD43RoundRect,0.102000X0.406400X0.571500X-0.406400X0.571500X-0.406400X-0.571500X0.406400X-0.571500X0*%
%ADD44RoundRect,0.102000X0.622300X0.520700X-0.622300X0.520700X-0.622300X-0.520700X0.622300X-0.520700X0*%
%ADD45RoundRect,0.102000X0.800100X0.698500X-0.800100X0.698500X-0.800100X-0.698500X0.800100X-0.698500X0*%
%ADD46RoundRect,0.102000X0.609600X0.927100X-0.609600X0.927100X-0.609600X-0.927100X0.609600X-0.927100X0*%
%ADD47RoundRect,0.102000X0.977900X0.698500X-0.977900X0.698500X-0.977900X-0.698500X0.977900X-0.698500X0*%
%ADD48RoundRect,0.250000X0.350000X0.625000X-0.350000X0.625000X-0.350000X-0.625000X0.350000X-0.625000X0*%
%ADD49O,1.200000X1.750000*%
%ADD50RoundRect,0.065500X-0.456500X-0.196500X0.456500X-0.196500X0.456500X0.196500X-0.456500X0.196500X0*%
%ADD51RoundRect,0.065500X-0.196500X-0.456500X0.196500X-0.456500X0.196500X0.456500X-0.196500X0.456500X0*%
%ADD52RoundRect,0.102000X-1.625000X-1.625000X1.625000X-1.625000X1.625000X1.625000X-1.625000X1.625000X0*%
%ADD53RoundRect,0.250000X0.450000X0.350000X-0.450000X0.350000X-0.450000X-0.350000X0.450000X-0.350000X0*%
%ADD54C,1.700000*%
%ADD55RoundRect,0.250000X-0.250000X-0.475000X0.250000X-0.475000X0.250000X0.475000X-0.250000X0.475000X0*%
%ADD56RoundRect,0.243750X-0.456250X0.243750X-0.456250X-0.243750X0.456250X-0.243750X0.456250X0.243750X0*%
%ADD57R,3.400000X0.980000*%
%ADD58C,2.050000*%
%ADD59C,2.250000*%
G04 APERTURE END LIST*
D10*
G04 #@! TO.C,U4*
X34193001Y21349000D02*
X34200001Y21348000D01*
X34206001Y21347000D01*
X34212001Y21346000D01*
X34219001Y21344000D01*
X34225001Y21342000D01*
X34231001Y21339000D01*
X34237001Y21336000D01*
X34243001Y21333000D01*
X34248001Y21330000D01*
X34253001Y21326000D01*
X34259001Y21322000D01*
X34264001Y21318000D01*
X34268001Y21313000D01*
X34273001Y21309000D01*
X34277001Y21304000D01*
X34281001Y21298000D01*
X34285001Y21293000D01*
X34288001Y21287000D01*
X34291001Y21282000D01*
X34294001Y21276000D01*
X34297001Y21270000D01*
X34299001Y21264000D01*
X34301001Y21257000D01*
X34302001Y21251000D01*
X34303001Y21245000D01*
X34304001Y21238000D01*
X34305001Y21232000D01*
X34305001Y21225000D01*
X34305001Y21025000D01*
X34305001Y21018000D01*
X34304001Y21012000D01*
X34303001Y21005000D01*
X34302001Y20999000D01*
X34301001Y20993000D01*
X34299001Y20986000D01*
X34297001Y20980000D01*
X34294001Y20974000D01*
X34291001Y20968000D01*
X34288001Y20963000D01*
X34285001Y20957000D01*
X34281001Y20952000D01*
X34277001Y20946000D01*
X34273001Y20941000D01*
X34268001Y20937000D01*
X34264001Y20932000D01*
X34259001Y20928000D01*
X34253001Y20924000D01*
X34248001Y20920000D01*
X34243001Y20917000D01*
X34237001Y20914000D01*
X34231001Y20911000D01*
X34225001Y20908000D01*
X34219001Y20906000D01*
X34212001Y20904000D01*
X34206001Y20903000D01*
X34200001Y20902000D01*
X34193001Y20901000D01*
X34187001Y20900000D01*
X34180001Y20900000D01*
X33740001Y20900000D01*
X33733001Y20900000D01*
X33727001Y20901000D01*
X33720001Y20902000D01*
X33714001Y20903000D01*
X33708001Y20904000D01*
X33701001Y20906000D01*
X33695001Y20908000D01*
X33689001Y20911000D01*
X33683001Y20914000D01*
X33677001Y20917000D01*
X33672001Y20920000D01*
X33667001Y20924000D01*
X33661001Y20928000D01*
X33656001Y20932000D01*
X33652001Y20937000D01*
X33647001Y20941000D01*
X33643001Y20946000D01*
X33639001Y20952000D01*
X33635001Y20957000D01*
X33632001Y20963000D01*
X33629001Y20968000D01*
X33626001Y20974000D01*
X33623001Y20980000D01*
X33621001Y20986000D01*
X33619001Y20993000D01*
X33618001Y20999000D01*
X33617001Y21005000D01*
X33616001Y21012000D01*
X33615001Y21018000D01*
X33615001Y21025000D01*
X33615001Y21225000D01*
X33615001Y21232000D01*
X33616001Y21238000D01*
X33617001Y21245000D01*
X33618001Y21251000D01*
X33619001Y21257000D01*
X33621001Y21264000D01*
X33623001Y21270000D01*
X33626001Y21276000D01*
X33629001Y21282000D01*
X33632001Y21287000D01*
X33635001Y21293000D01*
X33639001Y21298000D01*
X33643001Y21304000D01*
X33647001Y21309000D01*
X33652001Y21313000D01*
X33656001Y21318000D01*
X33661001Y21322000D01*
X33667001Y21326000D01*
X33672001Y21330000D01*
X33677001Y21333000D01*
X33683001Y21336000D01*
X33689001Y21339000D01*
X33695001Y21342000D01*
X33701001Y21344000D01*
X33708001Y21346000D01*
X33714001Y21347000D01*
X33720001Y21348000D01*
X33727001Y21349000D01*
X33733001Y21350000D01*
X33740001Y21350000D01*
X34180001Y21350000D01*
X34187001Y21350000D01*
X34193001Y21349000D01*
G36*
X34193001Y21349000D02*
G01*
X34200001Y21348000D01*
X34206001Y21347000D01*
X34212001Y21346000D01*
X34219001Y21344000D01*
X34225001Y21342000D01*
X34231001Y21339000D01*
X34237001Y21336000D01*
X34243001Y21333000D01*
X34248001Y21330000D01*
X34253001Y21326000D01*
X34259001Y21322000D01*
X34264001Y21318000D01*
X34268001Y21313000D01*
X34273001Y21309000D01*
X34277001Y21304000D01*
X34281001Y21298000D01*
X34285001Y21293000D01*
X34288001Y21287000D01*
X34291001Y21282000D01*
X34294001Y21276000D01*
X34297001Y21270000D01*
X34299001Y21264000D01*
X34301001Y21257000D01*
X34302001Y21251000D01*
X34303001Y21245000D01*
X34304001Y21238000D01*
X34305001Y21232000D01*
X34305001Y21225000D01*
X34305001Y21025000D01*
X34305001Y21018000D01*
X34304001Y21012000D01*
X34303001Y21005000D01*
X34302001Y20999000D01*
X34301001Y20993000D01*
X34299001Y20986000D01*
X34297001Y20980000D01*
X34294001Y20974000D01*
X34291001Y20968000D01*
X34288001Y20963000D01*
X34285001Y20957000D01*
X34281001Y20952000D01*
X34277001Y20946000D01*
X34273001Y20941000D01*
X34268001Y20937000D01*
X34264001Y20932000D01*
X34259001Y20928000D01*
X34253001Y20924000D01*
X34248001Y20920000D01*
X34243001Y20917000D01*
X34237001Y20914000D01*
X34231001Y20911000D01*
X34225001Y20908000D01*
X34219001Y20906000D01*
X34212001Y20904000D01*
X34206001Y20903000D01*
X34200001Y20902000D01*
X34193001Y20901000D01*
X34187001Y20900000D01*
X34180001Y20900000D01*
X33740001Y20900000D01*
X33733001Y20900000D01*
X33727001Y20901000D01*
X33720001Y20902000D01*
X33714001Y20903000D01*
X33708001Y20904000D01*
X33701001Y20906000D01*
X33695001Y20908000D01*
X33689001Y20911000D01*
X33683001Y20914000D01*
X33677001Y20917000D01*
X33672001Y20920000D01*
X33667001Y20924000D01*
X33661001Y20928000D01*
X33656001Y20932000D01*
X33652001Y20937000D01*
X33647001Y20941000D01*
X33643001Y20946000D01*
X33639001Y20952000D01*
X33635001Y20957000D01*
X33632001Y20963000D01*
X33629001Y20968000D01*
X33626001Y20974000D01*
X33623001Y20980000D01*
X33621001Y20986000D01*
X33619001Y20993000D01*
X33618001Y20999000D01*
X33617001Y21005000D01*
X33616001Y21012000D01*
X33615001Y21018000D01*
X33615001Y21025000D01*
X33615001Y21225000D01*
X33615001Y21232000D01*
X33616001Y21238000D01*
X33617001Y21245000D01*
X33618001Y21251000D01*
X33619001Y21257000D01*
X33621001Y21264000D01*
X33623001Y21270000D01*
X33626001Y21276000D01*
X33629001Y21282000D01*
X33632001Y21287000D01*
X33635001Y21293000D01*
X33639001Y21298000D01*
X33643001Y21304000D01*
X33647001Y21309000D01*
X33652001Y21313000D01*
X33656001Y21318000D01*
X33661001Y21322000D01*
X33667001Y21326000D01*
X33672001Y21330000D01*
X33677001Y21333000D01*
X33683001Y21336000D01*
X33689001Y21339000D01*
X33695001Y21342000D01*
X33701001Y21344000D01*
X33708001Y21346000D01*
X33714001Y21347000D01*
X33720001Y21348000D01*
X33727001Y21349000D01*
X33733001Y21350000D01*
X33740001Y21350000D01*
X34180001Y21350000D01*
X34187001Y21350000D01*
X34193001Y21349000D01*
G37*
X34193001Y20849000D02*
X34200001Y20848000D01*
X34206001Y20847000D01*
X34212001Y20846000D01*
X34219001Y20844000D01*
X34225001Y20842000D01*
X34231001Y20839000D01*
X34237001Y20836000D01*
X34243001Y20833000D01*
X34248001Y20830000D01*
X34253001Y20826000D01*
X34259001Y20822000D01*
X34264001Y20818000D01*
X34268001Y20813000D01*
X34273001Y20809000D01*
X34277001Y20804000D01*
X34281001Y20798000D01*
X34285001Y20793000D01*
X34288001Y20787000D01*
X34291001Y20782000D01*
X34294001Y20776000D01*
X34297001Y20770000D01*
X34299001Y20764000D01*
X34301001Y20757000D01*
X34302001Y20751000D01*
X34303001Y20745000D01*
X34304001Y20738000D01*
X34305001Y20732000D01*
X34305001Y20725000D01*
X34305001Y20525000D01*
X34305001Y20518000D01*
X34304001Y20512000D01*
X34303001Y20505000D01*
X34302001Y20499000D01*
X34301001Y20493000D01*
X34299001Y20486000D01*
X34297001Y20480000D01*
X34294001Y20474000D01*
X34291001Y20468000D01*
X34288001Y20463000D01*
X34285001Y20457000D01*
X34281001Y20452000D01*
X34277001Y20446000D01*
X34273001Y20441000D01*
X34268001Y20437000D01*
X34264001Y20432000D01*
X34259001Y20428000D01*
X34253001Y20424000D01*
X34248001Y20420000D01*
X34243001Y20417000D01*
X34237001Y20414000D01*
X34231001Y20411000D01*
X34225001Y20408000D01*
X34219001Y20406000D01*
X34212001Y20404000D01*
X34206001Y20403000D01*
X34200001Y20402000D01*
X34193001Y20401000D01*
X34187001Y20400000D01*
X34180001Y20400000D01*
X33740001Y20400000D01*
X33733001Y20400000D01*
X33727001Y20401000D01*
X33720001Y20402000D01*
X33714001Y20403000D01*
X33708001Y20404000D01*
X33701001Y20406000D01*
X33695001Y20408000D01*
X33689001Y20411000D01*
X33683001Y20414000D01*
X33677001Y20417000D01*
X33672001Y20420000D01*
X33667001Y20424000D01*
X33661001Y20428000D01*
X33656001Y20432000D01*
X33652001Y20437000D01*
X33647001Y20441000D01*
X33643001Y20446000D01*
X33639001Y20452000D01*
X33635001Y20457000D01*
X33632001Y20463000D01*
X33629001Y20468000D01*
X33626001Y20474000D01*
X33623001Y20480000D01*
X33621001Y20486000D01*
X33619001Y20493000D01*
X33618001Y20499000D01*
X33617001Y20505000D01*
X33616001Y20512000D01*
X33615001Y20518000D01*
X33615001Y20525000D01*
X33615001Y20725000D01*
X33615001Y20732000D01*
X33616001Y20738000D01*
X33617001Y20745000D01*
X33618001Y20751000D01*
X33619001Y20757000D01*
X33621001Y20764000D01*
X33623001Y20770000D01*
X33626001Y20776000D01*
X33629001Y20782000D01*
X33632001Y20787000D01*
X33635001Y20793000D01*
X33639001Y20798000D01*
X33643001Y20804000D01*
X33647001Y20809000D01*
X33652001Y20813000D01*
X33656001Y20818000D01*
X33661001Y20822000D01*
X33667001Y20826000D01*
X33672001Y20830000D01*
X33677001Y20833000D01*
X33683001Y20836000D01*
X33689001Y20839000D01*
X33695001Y20842000D01*
X33701001Y20844000D01*
X33708001Y20846000D01*
X33714001Y20847000D01*
X33720001Y20848000D01*
X33727001Y20849000D01*
X33733001Y20850000D01*
X33740001Y20850000D01*
X34180001Y20850000D01*
X34187001Y20850000D01*
X34193001Y20849000D01*
G36*
X34193001Y20849000D02*
G01*
X34200001Y20848000D01*
X34206001Y20847000D01*
X34212001Y20846000D01*
X34219001Y20844000D01*
X34225001Y20842000D01*
X34231001Y20839000D01*
X34237001Y20836000D01*
X34243001Y20833000D01*
X34248001Y20830000D01*
X34253001Y20826000D01*
X34259001Y20822000D01*
X34264001Y20818000D01*
X34268001Y20813000D01*
X34273001Y20809000D01*
X34277001Y20804000D01*
X34281001Y20798000D01*
X34285001Y20793000D01*
X34288001Y20787000D01*
X34291001Y20782000D01*
X34294001Y20776000D01*
X34297001Y20770000D01*
X34299001Y20764000D01*
X34301001Y20757000D01*
X34302001Y20751000D01*
X34303001Y20745000D01*
X34304001Y20738000D01*
X34305001Y20732000D01*
X34305001Y20725000D01*
X34305001Y20525000D01*
X34305001Y20518000D01*
X34304001Y20512000D01*
X34303001Y20505000D01*
X34302001Y20499000D01*
X34301001Y20493000D01*
X34299001Y20486000D01*
X34297001Y20480000D01*
X34294001Y20474000D01*
X34291001Y20468000D01*
X34288001Y20463000D01*
X34285001Y20457000D01*
X34281001Y20452000D01*
X34277001Y20446000D01*
X34273001Y20441000D01*
X34268001Y20437000D01*
X34264001Y20432000D01*
X34259001Y20428000D01*
X34253001Y20424000D01*
X34248001Y20420000D01*
X34243001Y20417000D01*
X34237001Y20414000D01*
X34231001Y20411000D01*
X34225001Y20408000D01*
X34219001Y20406000D01*
X34212001Y20404000D01*
X34206001Y20403000D01*
X34200001Y20402000D01*
X34193001Y20401000D01*
X34187001Y20400000D01*
X34180001Y20400000D01*
X33740001Y20400000D01*
X33733001Y20400000D01*
X33727001Y20401000D01*
X33720001Y20402000D01*
X33714001Y20403000D01*
X33708001Y20404000D01*
X33701001Y20406000D01*
X33695001Y20408000D01*
X33689001Y20411000D01*
X33683001Y20414000D01*
X33677001Y20417000D01*
X33672001Y20420000D01*
X33667001Y20424000D01*
X33661001Y20428000D01*
X33656001Y20432000D01*
X33652001Y20437000D01*
X33647001Y20441000D01*
X33643001Y20446000D01*
X33639001Y20452000D01*
X33635001Y20457000D01*
X33632001Y20463000D01*
X33629001Y20468000D01*
X33626001Y20474000D01*
X33623001Y20480000D01*
X33621001Y20486000D01*
X33619001Y20493000D01*
X33618001Y20499000D01*
X33617001Y20505000D01*
X33616001Y20512000D01*
X33615001Y20518000D01*
X33615001Y20525000D01*
X33615001Y20725000D01*
X33615001Y20732000D01*
X33616001Y20738000D01*
X33617001Y20745000D01*
X33618001Y20751000D01*
X33619001Y20757000D01*
X33621001Y20764000D01*
X33623001Y20770000D01*
X33626001Y20776000D01*
X33629001Y20782000D01*
X33632001Y20787000D01*
X33635001Y20793000D01*
X33639001Y20798000D01*
X33643001Y20804000D01*
X33647001Y20809000D01*
X33652001Y20813000D01*
X33656001Y20818000D01*
X33661001Y20822000D01*
X33667001Y20826000D01*
X33672001Y20830000D01*
X33677001Y20833000D01*
X33683001Y20836000D01*
X33689001Y20839000D01*
X33695001Y20842000D01*
X33701001Y20844000D01*
X33708001Y20846000D01*
X33714001Y20847000D01*
X33720001Y20848000D01*
X33727001Y20849000D01*
X33733001Y20850000D01*
X33740001Y20850000D01*
X34180001Y20850000D01*
X34187001Y20850000D01*
X34193001Y20849000D01*
G37*
X34193001Y20349000D02*
X34200001Y20348000D01*
X34206001Y20347000D01*
X34212001Y20346000D01*
X34219001Y20344000D01*
X34225001Y20342000D01*
X34231001Y20339000D01*
X34237001Y20336000D01*
X34243001Y20333000D01*
X34248001Y20330000D01*
X34253001Y20326000D01*
X34259001Y20322000D01*
X34264001Y20318000D01*
X34268001Y20313000D01*
X34273001Y20309000D01*
X34277001Y20304000D01*
X34281001Y20298000D01*
X34285001Y20293000D01*
X34288001Y20287000D01*
X34291001Y20282000D01*
X34294001Y20276000D01*
X34297001Y20270000D01*
X34299001Y20264000D01*
X34301001Y20257000D01*
X34302001Y20251000D01*
X34303001Y20245000D01*
X34304001Y20238000D01*
X34305001Y20232000D01*
X34305001Y20225000D01*
X34305001Y20025000D01*
X34305001Y20018000D01*
X34304001Y20012000D01*
X34303001Y20005000D01*
X34302001Y19999000D01*
X34301001Y19993000D01*
X34299001Y19986000D01*
X34297001Y19980000D01*
X34294001Y19974000D01*
X34291001Y19968000D01*
X34288001Y19963000D01*
X34285001Y19957000D01*
X34281001Y19952000D01*
X34277001Y19946000D01*
X34273001Y19941000D01*
X34268001Y19937000D01*
X34264001Y19932000D01*
X34259001Y19928000D01*
X34253001Y19924000D01*
X34248001Y19920000D01*
X34243001Y19917000D01*
X34237001Y19914000D01*
X34231001Y19911000D01*
X34225001Y19908000D01*
X34219001Y19906000D01*
X34212001Y19904000D01*
X34206001Y19903000D01*
X34200001Y19902000D01*
X34193001Y19901000D01*
X34187001Y19900000D01*
X34180001Y19900000D01*
X33740001Y19900000D01*
X33733001Y19900000D01*
X33727001Y19901000D01*
X33720001Y19902000D01*
X33714001Y19903000D01*
X33708001Y19904000D01*
X33701001Y19906000D01*
X33695001Y19908000D01*
X33689001Y19911000D01*
X33683001Y19914000D01*
X33677001Y19917000D01*
X33672001Y19920000D01*
X33667001Y19924000D01*
X33661001Y19928000D01*
X33656001Y19932000D01*
X33652001Y19937000D01*
X33647001Y19941000D01*
X33643001Y19946000D01*
X33639001Y19952000D01*
X33635001Y19957000D01*
X33632001Y19963000D01*
X33629001Y19968000D01*
X33626001Y19974000D01*
X33623001Y19980000D01*
X33621001Y19986000D01*
X33619001Y19993000D01*
X33618001Y19999000D01*
X33617001Y20005000D01*
X33616001Y20012000D01*
X33615001Y20018000D01*
X33615001Y20025000D01*
X33615001Y20225000D01*
X33615001Y20232000D01*
X33616001Y20238000D01*
X33617001Y20245000D01*
X33618001Y20251000D01*
X33619001Y20257000D01*
X33621001Y20264000D01*
X33623001Y20270000D01*
X33626001Y20276000D01*
X33629001Y20282000D01*
X33632001Y20287000D01*
X33635001Y20293000D01*
X33639001Y20298000D01*
X33643001Y20304000D01*
X33647001Y20309000D01*
X33652001Y20313000D01*
X33656001Y20318000D01*
X33661001Y20322000D01*
X33667001Y20326000D01*
X33672001Y20330000D01*
X33677001Y20333000D01*
X33683001Y20336000D01*
X33689001Y20339000D01*
X33695001Y20342000D01*
X33701001Y20344000D01*
X33708001Y20346000D01*
X33714001Y20347000D01*
X33720001Y20348000D01*
X33727001Y20349000D01*
X33733001Y20350000D01*
X33740001Y20350000D01*
X34180001Y20350000D01*
X34187001Y20350000D01*
X34193001Y20349000D01*
G36*
X34193001Y20349000D02*
G01*
X34200001Y20348000D01*
X34206001Y20347000D01*
X34212001Y20346000D01*
X34219001Y20344000D01*
X34225001Y20342000D01*
X34231001Y20339000D01*
X34237001Y20336000D01*
X34243001Y20333000D01*
X34248001Y20330000D01*
X34253001Y20326000D01*
X34259001Y20322000D01*
X34264001Y20318000D01*
X34268001Y20313000D01*
X34273001Y20309000D01*
X34277001Y20304000D01*
X34281001Y20298000D01*
X34285001Y20293000D01*
X34288001Y20287000D01*
X34291001Y20282000D01*
X34294001Y20276000D01*
X34297001Y20270000D01*
X34299001Y20264000D01*
X34301001Y20257000D01*
X34302001Y20251000D01*
X34303001Y20245000D01*
X34304001Y20238000D01*
X34305001Y20232000D01*
X34305001Y20225000D01*
X34305001Y20025000D01*
X34305001Y20018000D01*
X34304001Y20012000D01*
X34303001Y20005000D01*
X34302001Y19999000D01*
X34301001Y19993000D01*
X34299001Y19986000D01*
X34297001Y19980000D01*
X34294001Y19974000D01*
X34291001Y19968000D01*
X34288001Y19963000D01*
X34285001Y19957000D01*
X34281001Y19952000D01*
X34277001Y19946000D01*
X34273001Y19941000D01*
X34268001Y19937000D01*
X34264001Y19932000D01*
X34259001Y19928000D01*
X34253001Y19924000D01*
X34248001Y19920000D01*
X34243001Y19917000D01*
X34237001Y19914000D01*
X34231001Y19911000D01*
X34225001Y19908000D01*
X34219001Y19906000D01*
X34212001Y19904000D01*
X34206001Y19903000D01*
X34200001Y19902000D01*
X34193001Y19901000D01*
X34187001Y19900000D01*
X34180001Y19900000D01*
X33740001Y19900000D01*
X33733001Y19900000D01*
X33727001Y19901000D01*
X33720001Y19902000D01*
X33714001Y19903000D01*
X33708001Y19904000D01*
X33701001Y19906000D01*
X33695001Y19908000D01*
X33689001Y19911000D01*
X33683001Y19914000D01*
X33677001Y19917000D01*
X33672001Y19920000D01*
X33667001Y19924000D01*
X33661001Y19928000D01*
X33656001Y19932000D01*
X33652001Y19937000D01*
X33647001Y19941000D01*
X33643001Y19946000D01*
X33639001Y19952000D01*
X33635001Y19957000D01*
X33632001Y19963000D01*
X33629001Y19968000D01*
X33626001Y19974000D01*
X33623001Y19980000D01*
X33621001Y19986000D01*
X33619001Y19993000D01*
X33618001Y19999000D01*
X33617001Y20005000D01*
X33616001Y20012000D01*
X33615001Y20018000D01*
X33615001Y20025000D01*
X33615001Y20225000D01*
X33615001Y20232000D01*
X33616001Y20238000D01*
X33617001Y20245000D01*
X33618001Y20251000D01*
X33619001Y20257000D01*
X33621001Y20264000D01*
X33623001Y20270000D01*
X33626001Y20276000D01*
X33629001Y20282000D01*
X33632001Y20287000D01*
X33635001Y20293000D01*
X33639001Y20298000D01*
X33643001Y20304000D01*
X33647001Y20309000D01*
X33652001Y20313000D01*
X33656001Y20318000D01*
X33661001Y20322000D01*
X33667001Y20326000D01*
X33672001Y20330000D01*
X33677001Y20333000D01*
X33683001Y20336000D01*
X33689001Y20339000D01*
X33695001Y20342000D01*
X33701001Y20344000D01*
X33708001Y20346000D01*
X33714001Y20347000D01*
X33720001Y20348000D01*
X33727001Y20349000D01*
X33733001Y20350000D01*
X33740001Y20350000D01*
X34180001Y20350000D01*
X34187001Y20350000D01*
X34193001Y20349000D01*
G37*
X34193001Y19849000D02*
X34200001Y19848000D01*
X34206001Y19847000D01*
X34212001Y19846000D01*
X34219001Y19844000D01*
X34225001Y19842000D01*
X34231001Y19839000D01*
X34237001Y19836000D01*
X34243001Y19833000D01*
X34248001Y19830000D01*
X34253001Y19826000D01*
X34259001Y19822000D01*
X34264001Y19818000D01*
X34268001Y19813000D01*
X34273001Y19809000D01*
X34277001Y19804000D01*
X34281001Y19798000D01*
X34285001Y19793000D01*
X34288001Y19787000D01*
X34291001Y19782000D01*
X34294001Y19776000D01*
X34297001Y19770000D01*
X34299001Y19764000D01*
X34301001Y19757000D01*
X34302001Y19751000D01*
X34303001Y19745000D01*
X34304001Y19738000D01*
X34305001Y19732000D01*
X34305001Y19725000D01*
X34305001Y19525000D01*
X34305001Y19518000D01*
X34304001Y19512000D01*
X34303001Y19505000D01*
X34302001Y19499000D01*
X34301001Y19493000D01*
X34299001Y19486000D01*
X34297001Y19480000D01*
X34294001Y19474000D01*
X34291001Y19468000D01*
X34288001Y19463000D01*
X34285001Y19457000D01*
X34281001Y19452000D01*
X34277001Y19446000D01*
X34273001Y19441000D01*
X34268001Y19437000D01*
X34264001Y19432000D01*
X34259001Y19428000D01*
X34253001Y19424000D01*
X34248001Y19420000D01*
X34243001Y19417000D01*
X34237001Y19414000D01*
X34231001Y19411000D01*
X34225001Y19408000D01*
X34219001Y19406000D01*
X34212001Y19404000D01*
X34206001Y19403000D01*
X34200001Y19402000D01*
X34193001Y19401000D01*
X34187001Y19400000D01*
X34180001Y19400000D01*
X33740001Y19400000D01*
X33733001Y19400000D01*
X33727001Y19401000D01*
X33720001Y19402000D01*
X33714001Y19403000D01*
X33708001Y19404000D01*
X33701001Y19406000D01*
X33695001Y19408000D01*
X33689001Y19411000D01*
X33683001Y19414000D01*
X33677001Y19417000D01*
X33672001Y19420000D01*
X33667001Y19424000D01*
X33661001Y19428000D01*
X33656001Y19432000D01*
X33652001Y19437000D01*
X33647001Y19441000D01*
X33643001Y19446000D01*
X33639001Y19452000D01*
X33635001Y19457000D01*
X33632001Y19463000D01*
X33629001Y19468000D01*
X33626001Y19474000D01*
X33623001Y19480000D01*
X33621001Y19486000D01*
X33619001Y19493000D01*
X33618001Y19499000D01*
X33617001Y19505000D01*
X33616001Y19512000D01*
X33615001Y19518000D01*
X33615001Y19525000D01*
X33615001Y19725000D01*
X33615001Y19732000D01*
X33616001Y19738000D01*
X33617001Y19745000D01*
X33618001Y19751000D01*
X33619001Y19757000D01*
X33621001Y19764000D01*
X33623001Y19770000D01*
X33626001Y19776000D01*
X33629001Y19782000D01*
X33632001Y19787000D01*
X33635001Y19793000D01*
X33639001Y19798000D01*
X33643001Y19804000D01*
X33647001Y19809000D01*
X33652001Y19813000D01*
X33656001Y19818000D01*
X33661001Y19822000D01*
X33667001Y19826000D01*
X33672001Y19830000D01*
X33677001Y19833000D01*
X33683001Y19836000D01*
X33689001Y19839000D01*
X33695001Y19842000D01*
X33701001Y19844000D01*
X33708001Y19846000D01*
X33714001Y19847000D01*
X33720001Y19848000D01*
X33727001Y19849000D01*
X33733001Y19850000D01*
X33740001Y19850000D01*
X34180001Y19850000D01*
X34187001Y19850000D01*
X34193001Y19849000D01*
G36*
X34193001Y19849000D02*
G01*
X34200001Y19848000D01*
X34206001Y19847000D01*
X34212001Y19846000D01*
X34219001Y19844000D01*
X34225001Y19842000D01*
X34231001Y19839000D01*
X34237001Y19836000D01*
X34243001Y19833000D01*
X34248001Y19830000D01*
X34253001Y19826000D01*
X34259001Y19822000D01*
X34264001Y19818000D01*
X34268001Y19813000D01*
X34273001Y19809000D01*
X34277001Y19804000D01*
X34281001Y19798000D01*
X34285001Y19793000D01*
X34288001Y19787000D01*
X34291001Y19782000D01*
X34294001Y19776000D01*
X34297001Y19770000D01*
X34299001Y19764000D01*
X34301001Y19757000D01*
X34302001Y19751000D01*
X34303001Y19745000D01*
X34304001Y19738000D01*
X34305001Y19732000D01*
X34305001Y19725000D01*
X34305001Y19525000D01*
X34305001Y19518000D01*
X34304001Y19512000D01*
X34303001Y19505000D01*
X34302001Y19499000D01*
X34301001Y19493000D01*
X34299001Y19486000D01*
X34297001Y19480000D01*
X34294001Y19474000D01*
X34291001Y19468000D01*
X34288001Y19463000D01*
X34285001Y19457000D01*
X34281001Y19452000D01*
X34277001Y19446000D01*
X34273001Y19441000D01*
X34268001Y19437000D01*
X34264001Y19432000D01*
X34259001Y19428000D01*
X34253001Y19424000D01*
X34248001Y19420000D01*
X34243001Y19417000D01*
X34237001Y19414000D01*
X34231001Y19411000D01*
X34225001Y19408000D01*
X34219001Y19406000D01*
X34212001Y19404000D01*
X34206001Y19403000D01*
X34200001Y19402000D01*
X34193001Y19401000D01*
X34187001Y19400000D01*
X34180001Y19400000D01*
X33740001Y19400000D01*
X33733001Y19400000D01*
X33727001Y19401000D01*
X33720001Y19402000D01*
X33714001Y19403000D01*
X33708001Y19404000D01*
X33701001Y19406000D01*
X33695001Y19408000D01*
X33689001Y19411000D01*
X33683001Y19414000D01*
X33677001Y19417000D01*
X33672001Y19420000D01*
X33667001Y19424000D01*
X33661001Y19428000D01*
X33656001Y19432000D01*
X33652001Y19437000D01*
X33647001Y19441000D01*
X33643001Y19446000D01*
X33639001Y19452000D01*
X33635001Y19457000D01*
X33632001Y19463000D01*
X33629001Y19468000D01*
X33626001Y19474000D01*
X33623001Y19480000D01*
X33621001Y19486000D01*
X33619001Y19493000D01*
X33618001Y19499000D01*
X33617001Y19505000D01*
X33616001Y19512000D01*
X33615001Y19518000D01*
X33615001Y19525000D01*
X33615001Y19725000D01*
X33615001Y19732000D01*
X33616001Y19738000D01*
X33617001Y19745000D01*
X33618001Y19751000D01*
X33619001Y19757000D01*
X33621001Y19764000D01*
X33623001Y19770000D01*
X33626001Y19776000D01*
X33629001Y19782000D01*
X33632001Y19787000D01*
X33635001Y19793000D01*
X33639001Y19798000D01*
X33643001Y19804000D01*
X33647001Y19809000D01*
X33652001Y19813000D01*
X33656001Y19818000D01*
X33661001Y19822000D01*
X33667001Y19826000D01*
X33672001Y19830000D01*
X33677001Y19833000D01*
X33683001Y19836000D01*
X33689001Y19839000D01*
X33695001Y19842000D01*
X33701001Y19844000D01*
X33708001Y19846000D01*
X33714001Y19847000D01*
X33720001Y19848000D01*
X33727001Y19849000D01*
X33733001Y19850000D01*
X33740001Y19850000D01*
X34180001Y19850000D01*
X34187001Y19850000D01*
X34193001Y19849000D01*
G37*
X34738001Y21634000D02*
X34745001Y21633000D01*
X34751001Y21632000D01*
X34757001Y21631000D01*
X34764001Y21629000D01*
X34770001Y21627000D01*
X34776001Y21624000D01*
X34782001Y21621000D01*
X34787001Y21618000D01*
X34793001Y21615000D01*
X34798001Y21611000D01*
X34804001Y21607000D01*
X34809001Y21603000D01*
X34813001Y21598000D01*
X34818001Y21594000D01*
X34822001Y21589000D01*
X34826001Y21583000D01*
X34830001Y21578000D01*
X34833001Y21573000D01*
X34836001Y21567000D01*
X34839001Y21561000D01*
X34842001Y21555000D01*
X34844001Y21549000D01*
X34846001Y21542000D01*
X34847001Y21536000D01*
X34848001Y21530000D01*
X34849001Y21523000D01*
X34850001Y21517000D01*
X34850001Y21510000D01*
X34850001Y21070000D01*
X34850001Y21063000D01*
X34849001Y21057000D01*
X34848001Y21050000D01*
X34847001Y21044000D01*
X34846001Y21038000D01*
X34844001Y21031000D01*
X34842001Y21025000D01*
X34839001Y21019000D01*
X34836001Y21013000D01*
X34833001Y21007000D01*
X34830001Y21002000D01*
X34826001Y20997000D01*
X34822001Y20991000D01*
X34818001Y20986000D01*
X34813001Y20982000D01*
X34809001Y20977000D01*
X34804001Y20973000D01*
X34798001Y20969000D01*
X34793001Y20965000D01*
X34787001Y20962000D01*
X34782001Y20959000D01*
X34776001Y20956000D01*
X34770001Y20953000D01*
X34764001Y20951000D01*
X34757001Y20949000D01*
X34751001Y20948000D01*
X34745001Y20947000D01*
X34738001Y20946000D01*
X34732001Y20945000D01*
X34725001Y20945000D01*
X34525001Y20945000D01*
X34518001Y20945000D01*
X34512001Y20946000D01*
X34505001Y20947000D01*
X34499001Y20948000D01*
X34493001Y20949000D01*
X34486001Y20951000D01*
X34480001Y20953000D01*
X34474001Y20956000D01*
X34468001Y20959000D01*
X34462001Y20962000D01*
X34457001Y20965000D01*
X34452001Y20969000D01*
X34446001Y20973000D01*
X34441001Y20977000D01*
X34437001Y20982000D01*
X34432001Y20986000D01*
X34428001Y20991000D01*
X34424001Y20997000D01*
X34420001Y21002000D01*
X34417001Y21007000D01*
X34414001Y21013000D01*
X34411001Y21019000D01*
X34408001Y21025000D01*
X34406001Y21031000D01*
X34404001Y21038000D01*
X34403001Y21044000D01*
X34402001Y21050000D01*
X34401001Y21057000D01*
X34400001Y21063000D01*
X34400001Y21070000D01*
X34400001Y21510000D01*
X34400001Y21517000D01*
X34401001Y21523000D01*
X34402001Y21530000D01*
X34403001Y21536000D01*
X34404001Y21542000D01*
X34406001Y21549000D01*
X34408001Y21555000D01*
X34411001Y21561000D01*
X34414001Y21567000D01*
X34417001Y21573000D01*
X34420001Y21578000D01*
X34424001Y21583000D01*
X34428001Y21589000D01*
X34432001Y21594000D01*
X34437001Y21598000D01*
X34441001Y21603000D01*
X34446001Y21607000D01*
X34452001Y21611000D01*
X34457001Y21615000D01*
X34463001Y21618000D01*
X34468001Y21621000D01*
X34474001Y21624000D01*
X34480001Y21627000D01*
X34486001Y21629000D01*
X34493001Y21631000D01*
X34499001Y21632000D01*
X34505001Y21633000D01*
X34512001Y21634000D01*
X34518001Y21635000D01*
X34525001Y21635000D01*
X34725001Y21635000D01*
X34732001Y21635000D01*
X34738001Y21634000D01*
G36*
X34738001Y21634000D02*
G01*
X34745001Y21633000D01*
X34751001Y21632000D01*
X34757001Y21631000D01*
X34764001Y21629000D01*
X34770001Y21627000D01*
X34776001Y21624000D01*
X34782001Y21621000D01*
X34787001Y21618000D01*
X34793001Y21615000D01*
X34798001Y21611000D01*
X34804001Y21607000D01*
X34809001Y21603000D01*
X34813001Y21598000D01*
X34818001Y21594000D01*
X34822001Y21589000D01*
X34826001Y21583000D01*
X34830001Y21578000D01*
X34833001Y21573000D01*
X34836001Y21567000D01*
X34839001Y21561000D01*
X34842001Y21555000D01*
X34844001Y21549000D01*
X34846001Y21542000D01*
X34847001Y21536000D01*
X34848001Y21530000D01*
X34849001Y21523000D01*
X34850001Y21517000D01*
X34850001Y21510000D01*
X34850001Y21070000D01*
X34850001Y21063000D01*
X34849001Y21057000D01*
X34848001Y21050000D01*
X34847001Y21044000D01*
X34846001Y21038000D01*
X34844001Y21031000D01*
X34842001Y21025000D01*
X34839001Y21019000D01*
X34836001Y21013000D01*
X34833001Y21007000D01*
X34830001Y21002000D01*
X34826001Y20997000D01*
X34822001Y20991000D01*
X34818001Y20986000D01*
X34813001Y20982000D01*
X34809001Y20977000D01*
X34804001Y20973000D01*
X34798001Y20969000D01*
X34793001Y20965000D01*
X34787001Y20962000D01*
X34782001Y20959000D01*
X34776001Y20956000D01*
X34770001Y20953000D01*
X34764001Y20951000D01*
X34757001Y20949000D01*
X34751001Y20948000D01*
X34745001Y20947000D01*
X34738001Y20946000D01*
X34732001Y20945000D01*
X34725001Y20945000D01*
X34525001Y20945000D01*
X34518001Y20945000D01*
X34512001Y20946000D01*
X34505001Y20947000D01*
X34499001Y20948000D01*
X34493001Y20949000D01*
X34486001Y20951000D01*
X34480001Y20953000D01*
X34474001Y20956000D01*
X34468001Y20959000D01*
X34462001Y20962000D01*
X34457001Y20965000D01*
X34452001Y20969000D01*
X34446001Y20973000D01*
X34441001Y20977000D01*
X34437001Y20982000D01*
X34432001Y20986000D01*
X34428001Y20991000D01*
X34424001Y20997000D01*
X34420001Y21002000D01*
X34417001Y21007000D01*
X34414001Y21013000D01*
X34411001Y21019000D01*
X34408001Y21025000D01*
X34406001Y21031000D01*
X34404001Y21038000D01*
X34403001Y21044000D01*
X34402001Y21050000D01*
X34401001Y21057000D01*
X34400001Y21063000D01*
X34400001Y21070000D01*
X34400001Y21510000D01*
X34400001Y21517000D01*
X34401001Y21523000D01*
X34402001Y21530000D01*
X34403001Y21536000D01*
X34404001Y21542000D01*
X34406001Y21549000D01*
X34408001Y21555000D01*
X34411001Y21561000D01*
X34414001Y21567000D01*
X34417001Y21573000D01*
X34420001Y21578000D01*
X34424001Y21583000D01*
X34428001Y21589000D01*
X34432001Y21594000D01*
X34437001Y21598000D01*
X34441001Y21603000D01*
X34446001Y21607000D01*
X34452001Y21611000D01*
X34457001Y21615000D01*
X34463001Y21618000D01*
X34468001Y21621000D01*
X34474001Y21624000D01*
X34480001Y21627000D01*
X34486001Y21629000D01*
X34493001Y21631000D01*
X34499001Y21632000D01*
X34505001Y21633000D01*
X34512001Y21634000D01*
X34518001Y21635000D01*
X34525001Y21635000D01*
X34725001Y21635000D01*
X34732001Y21635000D01*
X34738001Y21634000D01*
G37*
X34738001Y19804000D02*
X34745001Y19803000D01*
X34751001Y19802000D01*
X34757001Y19801000D01*
X34764001Y19799000D01*
X34770001Y19797000D01*
X34776001Y19794000D01*
X34782001Y19791000D01*
X34787001Y19788000D01*
X34793001Y19785000D01*
X34798001Y19781000D01*
X34804001Y19777000D01*
X34809001Y19773000D01*
X34813001Y19768000D01*
X34818001Y19764000D01*
X34822001Y19759000D01*
X34826001Y19753000D01*
X34830001Y19748000D01*
X34833001Y19743000D01*
X34836001Y19737000D01*
X34839001Y19731000D01*
X34842001Y19725000D01*
X34844001Y19719000D01*
X34846001Y19712000D01*
X34847001Y19706000D01*
X34848001Y19700000D01*
X34849001Y19693000D01*
X34850001Y19687000D01*
X34850001Y19680000D01*
X34850001Y19240000D01*
X34850001Y19233000D01*
X34849001Y19227000D01*
X34848001Y19220000D01*
X34847001Y19214000D01*
X34846001Y19208000D01*
X34844001Y19201000D01*
X34842001Y19195000D01*
X34839001Y19189000D01*
X34836001Y19183000D01*
X34833001Y19177000D01*
X34830001Y19172000D01*
X34826001Y19167000D01*
X34822001Y19161000D01*
X34818001Y19156000D01*
X34813001Y19152000D01*
X34809001Y19147000D01*
X34804001Y19143000D01*
X34798001Y19139000D01*
X34793001Y19135000D01*
X34787001Y19132000D01*
X34782001Y19129000D01*
X34776001Y19126000D01*
X34770001Y19123000D01*
X34764001Y19121000D01*
X34757001Y19119000D01*
X34751001Y19118000D01*
X34745001Y19117000D01*
X34738001Y19116000D01*
X34732001Y19115000D01*
X34725001Y19115000D01*
X34525001Y19115000D01*
X34518001Y19115000D01*
X34512001Y19116000D01*
X34505001Y19117000D01*
X34499001Y19118000D01*
X34493001Y19119000D01*
X34486001Y19121000D01*
X34480001Y19123000D01*
X34474001Y19126000D01*
X34468001Y19129000D01*
X34462001Y19132000D01*
X34457001Y19135000D01*
X34452001Y19139000D01*
X34446001Y19143000D01*
X34441001Y19147000D01*
X34437001Y19152000D01*
X34432001Y19156000D01*
X34428001Y19161000D01*
X34424001Y19167000D01*
X34420001Y19172000D01*
X34417001Y19177000D01*
X34414001Y19183000D01*
X34411001Y19189000D01*
X34408001Y19195000D01*
X34406001Y19201000D01*
X34404001Y19208000D01*
X34403001Y19214000D01*
X34402001Y19220000D01*
X34401001Y19227000D01*
X34400001Y19233000D01*
X34400001Y19240000D01*
X34400001Y19680000D01*
X34400001Y19687000D01*
X34401001Y19693000D01*
X34402001Y19700000D01*
X34403001Y19706000D01*
X34404001Y19712000D01*
X34406001Y19719000D01*
X34408001Y19725000D01*
X34411001Y19731000D01*
X34414001Y19737000D01*
X34417001Y19743000D01*
X34420001Y19748000D01*
X34424001Y19753000D01*
X34428001Y19759000D01*
X34432001Y19764000D01*
X34437001Y19768000D01*
X34441001Y19773000D01*
X34446001Y19777000D01*
X34452001Y19781000D01*
X34457001Y19785000D01*
X34463001Y19788000D01*
X34468001Y19791000D01*
X34474001Y19794000D01*
X34480001Y19797000D01*
X34486001Y19799000D01*
X34493001Y19801000D01*
X34499001Y19802000D01*
X34505001Y19803000D01*
X34512001Y19804000D01*
X34518001Y19805000D01*
X34525001Y19805000D01*
X34725001Y19805000D01*
X34732001Y19805000D01*
X34738001Y19804000D01*
G36*
X34738001Y19804000D02*
G01*
X34745001Y19803000D01*
X34751001Y19802000D01*
X34757001Y19801000D01*
X34764001Y19799000D01*
X34770001Y19797000D01*
X34776001Y19794000D01*
X34782001Y19791000D01*
X34787001Y19788000D01*
X34793001Y19785000D01*
X34798001Y19781000D01*
X34804001Y19777000D01*
X34809001Y19773000D01*
X34813001Y19768000D01*
X34818001Y19764000D01*
X34822001Y19759000D01*
X34826001Y19753000D01*
X34830001Y19748000D01*
X34833001Y19743000D01*
X34836001Y19737000D01*
X34839001Y19731000D01*
X34842001Y19725000D01*
X34844001Y19719000D01*
X34846001Y19712000D01*
X34847001Y19706000D01*
X34848001Y19700000D01*
X34849001Y19693000D01*
X34850001Y19687000D01*
X34850001Y19680000D01*
X34850001Y19240000D01*
X34850001Y19233000D01*
X34849001Y19227000D01*
X34848001Y19220000D01*
X34847001Y19214000D01*
X34846001Y19208000D01*
X34844001Y19201000D01*
X34842001Y19195000D01*
X34839001Y19189000D01*
X34836001Y19183000D01*
X34833001Y19177000D01*
X34830001Y19172000D01*
X34826001Y19167000D01*
X34822001Y19161000D01*
X34818001Y19156000D01*
X34813001Y19152000D01*
X34809001Y19147000D01*
X34804001Y19143000D01*
X34798001Y19139000D01*
X34793001Y19135000D01*
X34787001Y19132000D01*
X34782001Y19129000D01*
X34776001Y19126000D01*
X34770001Y19123000D01*
X34764001Y19121000D01*
X34757001Y19119000D01*
X34751001Y19118000D01*
X34745001Y19117000D01*
X34738001Y19116000D01*
X34732001Y19115000D01*
X34725001Y19115000D01*
X34525001Y19115000D01*
X34518001Y19115000D01*
X34512001Y19116000D01*
X34505001Y19117000D01*
X34499001Y19118000D01*
X34493001Y19119000D01*
X34486001Y19121000D01*
X34480001Y19123000D01*
X34474001Y19126000D01*
X34468001Y19129000D01*
X34462001Y19132000D01*
X34457001Y19135000D01*
X34452001Y19139000D01*
X34446001Y19143000D01*
X34441001Y19147000D01*
X34437001Y19152000D01*
X34432001Y19156000D01*
X34428001Y19161000D01*
X34424001Y19167000D01*
X34420001Y19172000D01*
X34417001Y19177000D01*
X34414001Y19183000D01*
X34411001Y19189000D01*
X34408001Y19195000D01*
X34406001Y19201000D01*
X34404001Y19208000D01*
X34403001Y19214000D01*
X34402001Y19220000D01*
X34401001Y19227000D01*
X34400001Y19233000D01*
X34400001Y19240000D01*
X34400001Y19680000D01*
X34400001Y19687000D01*
X34401001Y19693000D01*
X34402001Y19700000D01*
X34403001Y19706000D01*
X34404001Y19712000D01*
X34406001Y19719000D01*
X34408001Y19725000D01*
X34411001Y19731000D01*
X34414001Y19737000D01*
X34417001Y19743000D01*
X34420001Y19748000D01*
X34424001Y19753000D01*
X34428001Y19759000D01*
X34432001Y19764000D01*
X34437001Y19768000D01*
X34441001Y19773000D01*
X34446001Y19777000D01*
X34452001Y19781000D01*
X34457001Y19785000D01*
X34463001Y19788000D01*
X34468001Y19791000D01*
X34474001Y19794000D01*
X34480001Y19797000D01*
X34486001Y19799000D01*
X34493001Y19801000D01*
X34499001Y19802000D01*
X34505001Y19803000D01*
X34512001Y19804000D01*
X34518001Y19805000D01*
X34525001Y19805000D01*
X34725001Y19805000D01*
X34732001Y19805000D01*
X34738001Y19804000D01*
G37*
X35238001Y21634000D02*
X35245001Y21633000D01*
X35251001Y21632000D01*
X35257001Y21631000D01*
X35264001Y21629000D01*
X35270001Y21627000D01*
X35276001Y21624000D01*
X35282001Y21621000D01*
X35288001Y21618000D01*
X35293001Y21615000D01*
X35298001Y21611000D01*
X35304001Y21607000D01*
X35309001Y21603000D01*
X35313001Y21598000D01*
X35318001Y21594000D01*
X35322001Y21589000D01*
X35326001Y21583000D01*
X35330001Y21578000D01*
X35333001Y21573000D01*
X35336001Y21567000D01*
X35339001Y21561000D01*
X35342001Y21555000D01*
X35344001Y21549000D01*
X35346001Y21542000D01*
X35347001Y21536000D01*
X35348001Y21530000D01*
X35349001Y21523000D01*
X35350001Y21517000D01*
X35350001Y21510000D01*
X35350001Y21070000D01*
X35350001Y21063000D01*
X35349001Y21057000D01*
X35348001Y21050000D01*
X35347001Y21044000D01*
X35346001Y21038000D01*
X35344001Y21031000D01*
X35342001Y21025000D01*
X35339001Y21019000D01*
X35336001Y21013000D01*
X35333001Y21007000D01*
X35330001Y21002000D01*
X35326001Y20997000D01*
X35322001Y20991000D01*
X35318001Y20986000D01*
X35313001Y20982000D01*
X35309001Y20977000D01*
X35304001Y20973000D01*
X35298001Y20969000D01*
X35293001Y20965000D01*
X35288001Y20962000D01*
X35282001Y20959000D01*
X35276001Y20956000D01*
X35270001Y20953000D01*
X35264001Y20951000D01*
X35257001Y20949000D01*
X35251001Y20948000D01*
X35245001Y20947000D01*
X35238001Y20946000D01*
X35232001Y20945000D01*
X35225001Y20945000D01*
X35025001Y20945000D01*
X35018001Y20945000D01*
X35012001Y20946000D01*
X35005001Y20947000D01*
X34999001Y20948000D01*
X34993001Y20949000D01*
X34986001Y20951000D01*
X34980001Y20953000D01*
X34974001Y20956000D01*
X34968001Y20959000D01*
X34962001Y20962000D01*
X34957001Y20965000D01*
X34952001Y20969000D01*
X34946001Y20973000D01*
X34941001Y20977000D01*
X34937001Y20982000D01*
X34932001Y20986000D01*
X34928001Y20991000D01*
X34924001Y20997000D01*
X34920001Y21002000D01*
X34917001Y21007000D01*
X34914001Y21013000D01*
X34911001Y21019000D01*
X34908001Y21025000D01*
X34906001Y21031000D01*
X34904001Y21038000D01*
X34903001Y21044000D01*
X34902001Y21050000D01*
X34901001Y21057000D01*
X34900001Y21063000D01*
X34900001Y21070000D01*
X34900001Y21510000D01*
X34900001Y21517000D01*
X34901001Y21523000D01*
X34902001Y21530000D01*
X34903001Y21536000D01*
X34904001Y21542000D01*
X34906001Y21549000D01*
X34908001Y21555000D01*
X34911001Y21561000D01*
X34914001Y21567000D01*
X34917001Y21573000D01*
X34920001Y21578000D01*
X34924001Y21583000D01*
X34928001Y21589000D01*
X34932001Y21594000D01*
X34937001Y21598000D01*
X34941001Y21603000D01*
X34946001Y21607000D01*
X34952001Y21611000D01*
X34957001Y21615000D01*
X34963001Y21618000D01*
X34968001Y21621000D01*
X34974001Y21624000D01*
X34980001Y21627000D01*
X34986001Y21629000D01*
X34993001Y21631000D01*
X34999001Y21632000D01*
X35005001Y21633000D01*
X35012001Y21634000D01*
X35018001Y21635000D01*
X35025001Y21635000D01*
X35225001Y21635000D01*
X35232001Y21635000D01*
X35238001Y21634000D01*
G36*
X35238001Y21634000D02*
G01*
X35245001Y21633000D01*
X35251001Y21632000D01*
X35257001Y21631000D01*
X35264001Y21629000D01*
X35270001Y21627000D01*
X35276001Y21624000D01*
X35282001Y21621000D01*
X35288001Y21618000D01*
X35293001Y21615000D01*
X35298001Y21611000D01*
X35304001Y21607000D01*
X35309001Y21603000D01*
X35313001Y21598000D01*
X35318001Y21594000D01*
X35322001Y21589000D01*
X35326001Y21583000D01*
X35330001Y21578000D01*
X35333001Y21573000D01*
X35336001Y21567000D01*
X35339001Y21561000D01*
X35342001Y21555000D01*
X35344001Y21549000D01*
X35346001Y21542000D01*
X35347001Y21536000D01*
X35348001Y21530000D01*
X35349001Y21523000D01*
X35350001Y21517000D01*
X35350001Y21510000D01*
X35350001Y21070000D01*
X35350001Y21063000D01*
X35349001Y21057000D01*
X35348001Y21050000D01*
X35347001Y21044000D01*
X35346001Y21038000D01*
X35344001Y21031000D01*
X35342001Y21025000D01*
X35339001Y21019000D01*
X35336001Y21013000D01*
X35333001Y21007000D01*
X35330001Y21002000D01*
X35326001Y20997000D01*
X35322001Y20991000D01*
X35318001Y20986000D01*
X35313001Y20982000D01*
X35309001Y20977000D01*
X35304001Y20973000D01*
X35298001Y20969000D01*
X35293001Y20965000D01*
X35288001Y20962000D01*
X35282001Y20959000D01*
X35276001Y20956000D01*
X35270001Y20953000D01*
X35264001Y20951000D01*
X35257001Y20949000D01*
X35251001Y20948000D01*
X35245001Y20947000D01*
X35238001Y20946000D01*
X35232001Y20945000D01*
X35225001Y20945000D01*
X35025001Y20945000D01*
X35018001Y20945000D01*
X35012001Y20946000D01*
X35005001Y20947000D01*
X34999001Y20948000D01*
X34993001Y20949000D01*
X34986001Y20951000D01*
X34980001Y20953000D01*
X34974001Y20956000D01*
X34968001Y20959000D01*
X34962001Y20962000D01*
X34957001Y20965000D01*
X34952001Y20969000D01*
X34946001Y20973000D01*
X34941001Y20977000D01*
X34937001Y20982000D01*
X34932001Y20986000D01*
X34928001Y20991000D01*
X34924001Y20997000D01*
X34920001Y21002000D01*
X34917001Y21007000D01*
X34914001Y21013000D01*
X34911001Y21019000D01*
X34908001Y21025000D01*
X34906001Y21031000D01*
X34904001Y21038000D01*
X34903001Y21044000D01*
X34902001Y21050000D01*
X34901001Y21057000D01*
X34900001Y21063000D01*
X34900001Y21070000D01*
X34900001Y21510000D01*
X34900001Y21517000D01*
X34901001Y21523000D01*
X34902001Y21530000D01*
X34903001Y21536000D01*
X34904001Y21542000D01*
X34906001Y21549000D01*
X34908001Y21555000D01*
X34911001Y21561000D01*
X34914001Y21567000D01*
X34917001Y21573000D01*
X34920001Y21578000D01*
X34924001Y21583000D01*
X34928001Y21589000D01*
X34932001Y21594000D01*
X34937001Y21598000D01*
X34941001Y21603000D01*
X34946001Y21607000D01*
X34952001Y21611000D01*
X34957001Y21615000D01*
X34963001Y21618000D01*
X34968001Y21621000D01*
X34974001Y21624000D01*
X34980001Y21627000D01*
X34986001Y21629000D01*
X34993001Y21631000D01*
X34999001Y21632000D01*
X35005001Y21633000D01*
X35012001Y21634000D01*
X35018001Y21635000D01*
X35025001Y21635000D01*
X35225001Y21635000D01*
X35232001Y21635000D01*
X35238001Y21634000D01*
G37*
X35238001Y19804000D02*
X35245001Y19803000D01*
X35251001Y19802000D01*
X35257001Y19801000D01*
X35264001Y19799000D01*
X35270001Y19797000D01*
X35276001Y19794000D01*
X35282001Y19791000D01*
X35288001Y19788000D01*
X35293001Y19785000D01*
X35298001Y19781000D01*
X35304001Y19777000D01*
X35309001Y19773000D01*
X35313001Y19768000D01*
X35318001Y19764000D01*
X35322001Y19759000D01*
X35326001Y19753000D01*
X35330001Y19748000D01*
X35333001Y19743000D01*
X35336001Y19737000D01*
X35339001Y19731000D01*
X35342001Y19725000D01*
X35344001Y19719000D01*
X35346001Y19712000D01*
X35347001Y19706000D01*
X35348001Y19700000D01*
X35349001Y19693000D01*
X35350001Y19687000D01*
X35350001Y19680000D01*
X35350001Y19240000D01*
X35350001Y19233000D01*
X35349001Y19227000D01*
X35348001Y19220000D01*
X35347001Y19214000D01*
X35346001Y19208000D01*
X35344001Y19201000D01*
X35342001Y19195000D01*
X35339001Y19189000D01*
X35336001Y19183000D01*
X35333001Y19177000D01*
X35330001Y19172000D01*
X35326001Y19167000D01*
X35322001Y19161000D01*
X35318001Y19156000D01*
X35313001Y19152000D01*
X35309001Y19147000D01*
X35304001Y19143000D01*
X35298001Y19139000D01*
X35293001Y19135000D01*
X35288001Y19132000D01*
X35282001Y19129000D01*
X35276001Y19126000D01*
X35270001Y19123000D01*
X35264001Y19121000D01*
X35257001Y19119000D01*
X35251001Y19118000D01*
X35245001Y19117000D01*
X35238001Y19116000D01*
X35232001Y19115000D01*
X35225001Y19115000D01*
X35025001Y19115000D01*
X35018001Y19115000D01*
X35012001Y19116000D01*
X35005001Y19117000D01*
X34999001Y19118000D01*
X34993001Y19119000D01*
X34986001Y19121000D01*
X34980001Y19123000D01*
X34974001Y19126000D01*
X34968001Y19129000D01*
X34962001Y19132000D01*
X34957001Y19135000D01*
X34952001Y19139000D01*
X34946001Y19143000D01*
X34941001Y19147000D01*
X34937001Y19152000D01*
X34932001Y19156000D01*
X34928001Y19161000D01*
X34924001Y19167000D01*
X34920001Y19172000D01*
X34917001Y19177000D01*
X34914001Y19183000D01*
X34911001Y19189000D01*
X34908001Y19195000D01*
X34906001Y19201000D01*
X34904001Y19208000D01*
X34903001Y19214000D01*
X34902001Y19220000D01*
X34901001Y19227000D01*
X34900001Y19233000D01*
X34900001Y19240000D01*
X34900001Y19680000D01*
X34900001Y19687000D01*
X34901001Y19693000D01*
X34902001Y19700000D01*
X34903001Y19706000D01*
X34904001Y19712000D01*
X34906001Y19719000D01*
X34908001Y19725000D01*
X34911001Y19731000D01*
X34914001Y19737000D01*
X34917001Y19743000D01*
X34920001Y19748000D01*
X34924001Y19753000D01*
X34928001Y19759000D01*
X34932001Y19764000D01*
X34937001Y19768000D01*
X34941001Y19773000D01*
X34946001Y19777000D01*
X34952001Y19781000D01*
X34957001Y19785000D01*
X34963001Y19788000D01*
X34968001Y19791000D01*
X34974001Y19794000D01*
X34980001Y19797000D01*
X34986001Y19799000D01*
X34993001Y19801000D01*
X34999001Y19802000D01*
X35005001Y19803000D01*
X35012001Y19804000D01*
X35018001Y19805000D01*
X35025001Y19805000D01*
X35225001Y19805000D01*
X35232001Y19805000D01*
X35238001Y19804000D01*
G36*
X35238001Y19804000D02*
G01*
X35245001Y19803000D01*
X35251001Y19802000D01*
X35257001Y19801000D01*
X35264001Y19799000D01*
X35270001Y19797000D01*
X35276001Y19794000D01*
X35282001Y19791000D01*
X35288001Y19788000D01*
X35293001Y19785000D01*
X35298001Y19781000D01*
X35304001Y19777000D01*
X35309001Y19773000D01*
X35313001Y19768000D01*
X35318001Y19764000D01*
X35322001Y19759000D01*
X35326001Y19753000D01*
X35330001Y19748000D01*
X35333001Y19743000D01*
X35336001Y19737000D01*
X35339001Y19731000D01*
X35342001Y19725000D01*
X35344001Y19719000D01*
X35346001Y19712000D01*
X35347001Y19706000D01*
X35348001Y19700000D01*
X35349001Y19693000D01*
X35350001Y19687000D01*
X35350001Y19680000D01*
X35350001Y19240000D01*
X35350001Y19233000D01*
X35349001Y19227000D01*
X35348001Y19220000D01*
X35347001Y19214000D01*
X35346001Y19208000D01*
X35344001Y19201000D01*
X35342001Y19195000D01*
X35339001Y19189000D01*
X35336001Y19183000D01*
X35333001Y19177000D01*
X35330001Y19172000D01*
X35326001Y19167000D01*
X35322001Y19161000D01*
X35318001Y19156000D01*
X35313001Y19152000D01*
X35309001Y19147000D01*
X35304001Y19143000D01*
X35298001Y19139000D01*
X35293001Y19135000D01*
X35288001Y19132000D01*
X35282001Y19129000D01*
X35276001Y19126000D01*
X35270001Y19123000D01*
X35264001Y19121000D01*
X35257001Y19119000D01*
X35251001Y19118000D01*
X35245001Y19117000D01*
X35238001Y19116000D01*
X35232001Y19115000D01*
X35225001Y19115000D01*
X35025001Y19115000D01*
X35018001Y19115000D01*
X35012001Y19116000D01*
X35005001Y19117000D01*
X34999001Y19118000D01*
X34993001Y19119000D01*
X34986001Y19121000D01*
X34980001Y19123000D01*
X34974001Y19126000D01*
X34968001Y19129000D01*
X34962001Y19132000D01*
X34957001Y19135000D01*
X34952001Y19139000D01*
X34946001Y19143000D01*
X34941001Y19147000D01*
X34937001Y19152000D01*
X34932001Y19156000D01*
X34928001Y19161000D01*
X34924001Y19167000D01*
X34920001Y19172000D01*
X34917001Y19177000D01*
X34914001Y19183000D01*
X34911001Y19189000D01*
X34908001Y19195000D01*
X34906001Y19201000D01*
X34904001Y19208000D01*
X34903001Y19214000D01*
X34902001Y19220000D01*
X34901001Y19227000D01*
X34900001Y19233000D01*
X34900001Y19240000D01*
X34900001Y19680000D01*
X34900001Y19687000D01*
X34901001Y19693000D01*
X34902001Y19700000D01*
X34903001Y19706000D01*
X34904001Y19712000D01*
X34906001Y19719000D01*
X34908001Y19725000D01*
X34911001Y19731000D01*
X34914001Y19737000D01*
X34917001Y19743000D01*
X34920001Y19748000D01*
X34924001Y19753000D01*
X34928001Y19759000D01*
X34932001Y19764000D01*
X34937001Y19768000D01*
X34941001Y19773000D01*
X34946001Y19777000D01*
X34952001Y19781000D01*
X34957001Y19785000D01*
X34963001Y19788000D01*
X34968001Y19791000D01*
X34974001Y19794000D01*
X34980001Y19797000D01*
X34986001Y19799000D01*
X34993001Y19801000D01*
X34999001Y19802000D01*
X35005001Y19803000D01*
X35012001Y19804000D01*
X35018001Y19805000D01*
X35025001Y19805000D01*
X35225001Y19805000D01*
X35232001Y19805000D01*
X35238001Y19804000D01*
G37*
X35738001Y21634000D02*
X35745001Y21633000D01*
X35751001Y21632000D01*
X35757001Y21631000D01*
X35764001Y21629000D01*
X35770001Y21627000D01*
X35776001Y21624000D01*
X35782001Y21621000D01*
X35787001Y21618000D01*
X35793001Y21615000D01*
X35798001Y21611000D01*
X35804001Y21607000D01*
X35809001Y21603000D01*
X35813001Y21598000D01*
X35818001Y21594000D01*
X35822001Y21589000D01*
X35826001Y21583000D01*
X35830001Y21578000D01*
X35833001Y21573000D01*
X35836001Y21567000D01*
X35839001Y21561000D01*
X35842001Y21555000D01*
X35844001Y21549000D01*
X35846001Y21542000D01*
X35847001Y21536000D01*
X35848001Y21530000D01*
X35849001Y21523000D01*
X35850001Y21517000D01*
X35850001Y21510000D01*
X35850001Y21070000D01*
X35850001Y21063000D01*
X35849001Y21057000D01*
X35848001Y21050000D01*
X35847001Y21044000D01*
X35846001Y21038000D01*
X35844001Y21031000D01*
X35842001Y21025000D01*
X35839001Y21019000D01*
X35836001Y21013000D01*
X35833001Y21007000D01*
X35830001Y21002000D01*
X35826001Y20997000D01*
X35822001Y20991000D01*
X35818001Y20986000D01*
X35813001Y20982000D01*
X35809001Y20977000D01*
X35804001Y20973000D01*
X35798001Y20969000D01*
X35793001Y20965000D01*
X35787001Y20962000D01*
X35782001Y20959000D01*
X35776001Y20956000D01*
X35770001Y20953000D01*
X35764001Y20951000D01*
X35757001Y20949000D01*
X35751001Y20948000D01*
X35745001Y20947000D01*
X35738001Y20946000D01*
X35732001Y20945000D01*
X35725001Y20945000D01*
X35525001Y20945000D01*
X35518001Y20945000D01*
X35512001Y20946000D01*
X35505001Y20947000D01*
X35499001Y20948000D01*
X35493001Y20949000D01*
X35486001Y20951000D01*
X35480001Y20953000D01*
X35474001Y20956000D01*
X35468001Y20959000D01*
X35462001Y20962000D01*
X35457001Y20965000D01*
X35452001Y20969000D01*
X35446001Y20973000D01*
X35441001Y20977000D01*
X35437001Y20982000D01*
X35432001Y20986000D01*
X35428001Y20991000D01*
X35424001Y20997000D01*
X35420001Y21002000D01*
X35417001Y21007000D01*
X35414001Y21013000D01*
X35411001Y21019000D01*
X35408001Y21025000D01*
X35406001Y21031000D01*
X35404001Y21038000D01*
X35403001Y21044000D01*
X35402001Y21050000D01*
X35401001Y21057000D01*
X35400001Y21063000D01*
X35400001Y21070000D01*
X35400001Y21510000D01*
X35400001Y21517000D01*
X35401001Y21523000D01*
X35402001Y21530000D01*
X35403001Y21536000D01*
X35404001Y21542000D01*
X35406001Y21549000D01*
X35408001Y21555000D01*
X35411001Y21561000D01*
X35414001Y21567000D01*
X35417001Y21573000D01*
X35420001Y21578000D01*
X35424001Y21583000D01*
X35428001Y21589000D01*
X35432001Y21594000D01*
X35437001Y21598000D01*
X35441001Y21603000D01*
X35446001Y21607000D01*
X35452001Y21611000D01*
X35457001Y21615000D01*
X35463001Y21618000D01*
X35468001Y21621000D01*
X35474001Y21624000D01*
X35480001Y21627000D01*
X35486001Y21629000D01*
X35493001Y21631000D01*
X35499001Y21632000D01*
X35505001Y21633000D01*
X35512001Y21634000D01*
X35518001Y21635000D01*
X35525001Y21635000D01*
X35725001Y21635000D01*
X35732001Y21635000D01*
X35738001Y21634000D01*
G36*
X35738001Y21634000D02*
G01*
X35745001Y21633000D01*
X35751001Y21632000D01*
X35757001Y21631000D01*
X35764001Y21629000D01*
X35770001Y21627000D01*
X35776001Y21624000D01*
X35782001Y21621000D01*
X35787001Y21618000D01*
X35793001Y21615000D01*
X35798001Y21611000D01*
X35804001Y21607000D01*
X35809001Y21603000D01*
X35813001Y21598000D01*
X35818001Y21594000D01*
X35822001Y21589000D01*
X35826001Y21583000D01*
X35830001Y21578000D01*
X35833001Y21573000D01*
X35836001Y21567000D01*
X35839001Y21561000D01*
X35842001Y21555000D01*
X35844001Y21549000D01*
X35846001Y21542000D01*
X35847001Y21536000D01*
X35848001Y21530000D01*
X35849001Y21523000D01*
X35850001Y21517000D01*
X35850001Y21510000D01*
X35850001Y21070000D01*
X35850001Y21063000D01*
X35849001Y21057000D01*
X35848001Y21050000D01*
X35847001Y21044000D01*
X35846001Y21038000D01*
X35844001Y21031000D01*
X35842001Y21025000D01*
X35839001Y21019000D01*
X35836001Y21013000D01*
X35833001Y21007000D01*
X35830001Y21002000D01*
X35826001Y20997000D01*
X35822001Y20991000D01*
X35818001Y20986000D01*
X35813001Y20982000D01*
X35809001Y20977000D01*
X35804001Y20973000D01*
X35798001Y20969000D01*
X35793001Y20965000D01*
X35787001Y20962000D01*
X35782001Y20959000D01*
X35776001Y20956000D01*
X35770001Y20953000D01*
X35764001Y20951000D01*
X35757001Y20949000D01*
X35751001Y20948000D01*
X35745001Y20947000D01*
X35738001Y20946000D01*
X35732001Y20945000D01*
X35725001Y20945000D01*
X35525001Y20945000D01*
X35518001Y20945000D01*
X35512001Y20946000D01*
X35505001Y20947000D01*
X35499001Y20948000D01*
X35493001Y20949000D01*
X35486001Y20951000D01*
X35480001Y20953000D01*
X35474001Y20956000D01*
X35468001Y20959000D01*
X35462001Y20962000D01*
X35457001Y20965000D01*
X35452001Y20969000D01*
X35446001Y20973000D01*
X35441001Y20977000D01*
X35437001Y20982000D01*
X35432001Y20986000D01*
X35428001Y20991000D01*
X35424001Y20997000D01*
X35420001Y21002000D01*
X35417001Y21007000D01*
X35414001Y21013000D01*
X35411001Y21019000D01*
X35408001Y21025000D01*
X35406001Y21031000D01*
X35404001Y21038000D01*
X35403001Y21044000D01*
X35402001Y21050000D01*
X35401001Y21057000D01*
X35400001Y21063000D01*
X35400001Y21070000D01*
X35400001Y21510000D01*
X35400001Y21517000D01*
X35401001Y21523000D01*
X35402001Y21530000D01*
X35403001Y21536000D01*
X35404001Y21542000D01*
X35406001Y21549000D01*
X35408001Y21555000D01*
X35411001Y21561000D01*
X35414001Y21567000D01*
X35417001Y21573000D01*
X35420001Y21578000D01*
X35424001Y21583000D01*
X35428001Y21589000D01*
X35432001Y21594000D01*
X35437001Y21598000D01*
X35441001Y21603000D01*
X35446001Y21607000D01*
X35452001Y21611000D01*
X35457001Y21615000D01*
X35463001Y21618000D01*
X35468001Y21621000D01*
X35474001Y21624000D01*
X35480001Y21627000D01*
X35486001Y21629000D01*
X35493001Y21631000D01*
X35499001Y21632000D01*
X35505001Y21633000D01*
X35512001Y21634000D01*
X35518001Y21635000D01*
X35525001Y21635000D01*
X35725001Y21635000D01*
X35732001Y21635000D01*
X35738001Y21634000D01*
G37*
X35738001Y19804000D02*
X35745001Y19803000D01*
X35751001Y19802000D01*
X35757001Y19801000D01*
X35764001Y19799000D01*
X35770001Y19797000D01*
X35776001Y19794000D01*
X35782001Y19791000D01*
X35787001Y19788000D01*
X35793001Y19785000D01*
X35798001Y19781000D01*
X35804001Y19777000D01*
X35809001Y19773000D01*
X35813001Y19768000D01*
X35818001Y19764000D01*
X35822001Y19759000D01*
X35826001Y19753000D01*
X35830001Y19748000D01*
X35833001Y19743000D01*
X35836001Y19737000D01*
X35839001Y19731000D01*
X35842001Y19725000D01*
X35844001Y19719000D01*
X35846001Y19712000D01*
X35847001Y19706000D01*
X35848001Y19700000D01*
X35849001Y19693000D01*
X35850001Y19687000D01*
X35850001Y19680000D01*
X35850001Y19240000D01*
X35850001Y19233000D01*
X35849001Y19227000D01*
X35848001Y19220000D01*
X35847001Y19214000D01*
X35846001Y19208000D01*
X35844001Y19201000D01*
X35842001Y19195000D01*
X35839001Y19189000D01*
X35836001Y19183000D01*
X35833001Y19177000D01*
X35830001Y19172000D01*
X35826001Y19167000D01*
X35822001Y19161000D01*
X35818001Y19156000D01*
X35813001Y19152000D01*
X35809001Y19147000D01*
X35804001Y19143000D01*
X35798001Y19139000D01*
X35793001Y19135000D01*
X35787001Y19132000D01*
X35782001Y19129000D01*
X35776001Y19126000D01*
X35770001Y19123000D01*
X35764001Y19121000D01*
X35757001Y19119000D01*
X35751001Y19118000D01*
X35745001Y19117000D01*
X35738001Y19116000D01*
X35732001Y19115000D01*
X35725001Y19115000D01*
X35525001Y19115000D01*
X35518001Y19115000D01*
X35512001Y19116000D01*
X35505001Y19117000D01*
X35499001Y19118000D01*
X35493001Y19119000D01*
X35486001Y19121000D01*
X35480001Y19123000D01*
X35474001Y19126000D01*
X35468001Y19129000D01*
X35462001Y19132000D01*
X35457001Y19135000D01*
X35452001Y19139000D01*
X35446001Y19143000D01*
X35441001Y19147000D01*
X35437001Y19152000D01*
X35432001Y19156000D01*
X35428001Y19161000D01*
X35424001Y19167000D01*
X35420001Y19172000D01*
X35417001Y19177000D01*
X35414001Y19183000D01*
X35411001Y19189000D01*
X35408001Y19195000D01*
X35406001Y19201000D01*
X35404001Y19208000D01*
X35403001Y19214000D01*
X35402001Y19220000D01*
X35401001Y19227000D01*
X35400001Y19233000D01*
X35400001Y19240000D01*
X35400001Y19680000D01*
X35400001Y19687000D01*
X35401001Y19693000D01*
X35402001Y19700000D01*
X35403001Y19706000D01*
X35404001Y19712000D01*
X35406001Y19719000D01*
X35408001Y19725000D01*
X35411001Y19731000D01*
X35414001Y19737000D01*
X35417001Y19743000D01*
X35420001Y19748000D01*
X35424001Y19753000D01*
X35428001Y19759000D01*
X35432001Y19764000D01*
X35437001Y19768000D01*
X35441001Y19773000D01*
X35446001Y19777000D01*
X35452001Y19781000D01*
X35457001Y19785000D01*
X35463001Y19788000D01*
X35468001Y19791000D01*
X35474001Y19794000D01*
X35480001Y19797000D01*
X35486001Y19799000D01*
X35493001Y19801000D01*
X35499001Y19802000D01*
X35505001Y19803000D01*
X35512001Y19804000D01*
X35518001Y19805000D01*
X35525001Y19805000D01*
X35725001Y19805000D01*
X35732001Y19805000D01*
X35738001Y19804000D01*
G36*
X35738001Y19804000D02*
G01*
X35745001Y19803000D01*
X35751001Y19802000D01*
X35757001Y19801000D01*
X35764001Y19799000D01*
X35770001Y19797000D01*
X35776001Y19794000D01*
X35782001Y19791000D01*
X35787001Y19788000D01*
X35793001Y19785000D01*
X35798001Y19781000D01*
X35804001Y19777000D01*
X35809001Y19773000D01*
X35813001Y19768000D01*
X35818001Y19764000D01*
X35822001Y19759000D01*
X35826001Y19753000D01*
X35830001Y19748000D01*
X35833001Y19743000D01*
X35836001Y19737000D01*
X35839001Y19731000D01*
X35842001Y19725000D01*
X35844001Y19719000D01*
X35846001Y19712000D01*
X35847001Y19706000D01*
X35848001Y19700000D01*
X35849001Y19693000D01*
X35850001Y19687000D01*
X35850001Y19680000D01*
X35850001Y19240000D01*
X35850001Y19233000D01*
X35849001Y19227000D01*
X35848001Y19220000D01*
X35847001Y19214000D01*
X35846001Y19208000D01*
X35844001Y19201000D01*
X35842001Y19195000D01*
X35839001Y19189000D01*
X35836001Y19183000D01*
X35833001Y19177000D01*
X35830001Y19172000D01*
X35826001Y19167000D01*
X35822001Y19161000D01*
X35818001Y19156000D01*
X35813001Y19152000D01*
X35809001Y19147000D01*
X35804001Y19143000D01*
X35798001Y19139000D01*
X35793001Y19135000D01*
X35787001Y19132000D01*
X35782001Y19129000D01*
X35776001Y19126000D01*
X35770001Y19123000D01*
X35764001Y19121000D01*
X35757001Y19119000D01*
X35751001Y19118000D01*
X35745001Y19117000D01*
X35738001Y19116000D01*
X35732001Y19115000D01*
X35725001Y19115000D01*
X35525001Y19115000D01*
X35518001Y19115000D01*
X35512001Y19116000D01*
X35505001Y19117000D01*
X35499001Y19118000D01*
X35493001Y19119000D01*
X35486001Y19121000D01*
X35480001Y19123000D01*
X35474001Y19126000D01*
X35468001Y19129000D01*
X35462001Y19132000D01*
X35457001Y19135000D01*
X35452001Y19139000D01*
X35446001Y19143000D01*
X35441001Y19147000D01*
X35437001Y19152000D01*
X35432001Y19156000D01*
X35428001Y19161000D01*
X35424001Y19167000D01*
X35420001Y19172000D01*
X35417001Y19177000D01*
X35414001Y19183000D01*
X35411001Y19189000D01*
X35408001Y19195000D01*
X35406001Y19201000D01*
X35404001Y19208000D01*
X35403001Y19214000D01*
X35402001Y19220000D01*
X35401001Y19227000D01*
X35400001Y19233000D01*
X35400001Y19240000D01*
X35400001Y19680000D01*
X35400001Y19687000D01*
X35401001Y19693000D01*
X35402001Y19700000D01*
X35403001Y19706000D01*
X35404001Y19712000D01*
X35406001Y19719000D01*
X35408001Y19725000D01*
X35411001Y19731000D01*
X35414001Y19737000D01*
X35417001Y19743000D01*
X35420001Y19748000D01*
X35424001Y19753000D01*
X35428001Y19759000D01*
X35432001Y19764000D01*
X35437001Y19768000D01*
X35441001Y19773000D01*
X35446001Y19777000D01*
X35452001Y19781000D01*
X35457001Y19785000D01*
X35463001Y19788000D01*
X35468001Y19791000D01*
X35474001Y19794000D01*
X35480001Y19797000D01*
X35486001Y19799000D01*
X35493001Y19801000D01*
X35499001Y19802000D01*
X35505001Y19803000D01*
X35512001Y19804000D01*
X35518001Y19805000D01*
X35525001Y19805000D01*
X35725001Y19805000D01*
X35732001Y19805000D01*
X35738001Y19804000D01*
G37*
X36523001Y21349000D02*
X36530001Y21348000D01*
X36536001Y21347000D01*
X36542001Y21346000D01*
X36549001Y21344000D01*
X36555001Y21342000D01*
X36561001Y21339000D01*
X36567001Y21336000D01*
X36573001Y21333000D01*
X36578001Y21330000D01*
X36583001Y21326000D01*
X36589001Y21322000D01*
X36594001Y21318000D01*
X36598001Y21313000D01*
X36603001Y21309000D01*
X36607001Y21304000D01*
X36611001Y21298000D01*
X36615001Y21293000D01*
X36618001Y21287000D01*
X36621001Y21282000D01*
X36624001Y21276000D01*
X36627001Y21270000D01*
X36629001Y21264000D01*
X36631001Y21257000D01*
X36632001Y21251000D01*
X36633001Y21245000D01*
X36634001Y21238000D01*
X36635001Y21232000D01*
X36635001Y21225000D01*
X36635001Y21025000D01*
X36635001Y21018000D01*
X36634001Y21012000D01*
X36633001Y21005000D01*
X36632001Y20999000D01*
X36631001Y20993000D01*
X36629001Y20986000D01*
X36627001Y20980000D01*
X36624001Y20974000D01*
X36621001Y20968000D01*
X36618001Y20963000D01*
X36615001Y20957000D01*
X36611001Y20952000D01*
X36607001Y20946000D01*
X36603001Y20941000D01*
X36598001Y20937000D01*
X36594001Y20932000D01*
X36589001Y20928000D01*
X36583001Y20924000D01*
X36578001Y20920000D01*
X36573001Y20917000D01*
X36567001Y20914000D01*
X36561001Y20911000D01*
X36555001Y20908000D01*
X36549001Y20906000D01*
X36542001Y20904000D01*
X36536001Y20903000D01*
X36530001Y20902000D01*
X36523001Y20901000D01*
X36517001Y20900000D01*
X36510001Y20900000D01*
X36070001Y20900000D01*
X36063001Y20900000D01*
X36057001Y20901000D01*
X36050001Y20902000D01*
X36044001Y20903000D01*
X36038001Y20904000D01*
X36031001Y20906000D01*
X36025001Y20908000D01*
X36019001Y20911000D01*
X36013001Y20914000D01*
X36007001Y20917000D01*
X36002001Y20920000D01*
X35997001Y20924000D01*
X35991001Y20928000D01*
X35986001Y20932000D01*
X35982001Y20937000D01*
X35977001Y20941000D01*
X35973001Y20946000D01*
X35969001Y20952000D01*
X35965001Y20957000D01*
X35962001Y20963000D01*
X35959001Y20968000D01*
X35956001Y20974000D01*
X35953001Y20980000D01*
X35951001Y20986000D01*
X35949001Y20993000D01*
X35948001Y20999000D01*
X35947001Y21005000D01*
X35946001Y21012000D01*
X35945001Y21018000D01*
X35945001Y21025000D01*
X35945001Y21225000D01*
X35945001Y21232000D01*
X35946001Y21238000D01*
X35947001Y21245000D01*
X35948001Y21251000D01*
X35949001Y21257000D01*
X35951001Y21264000D01*
X35953001Y21270000D01*
X35956001Y21276000D01*
X35959001Y21282000D01*
X35962001Y21287000D01*
X35965001Y21293000D01*
X35969001Y21298000D01*
X35973001Y21304000D01*
X35977001Y21309000D01*
X35982001Y21313000D01*
X35986001Y21318000D01*
X35991001Y21322000D01*
X35997001Y21326000D01*
X36002001Y21330000D01*
X36007001Y21333000D01*
X36013001Y21336000D01*
X36019001Y21339000D01*
X36025001Y21342000D01*
X36031001Y21344000D01*
X36038001Y21346000D01*
X36044001Y21347000D01*
X36050001Y21348000D01*
X36057001Y21349000D01*
X36063001Y21350000D01*
X36070001Y21350000D01*
X36510001Y21350000D01*
X36517001Y21350000D01*
X36523001Y21349000D01*
G36*
X36523001Y21349000D02*
G01*
X36530001Y21348000D01*
X36536001Y21347000D01*
X36542001Y21346000D01*
X36549001Y21344000D01*
X36555001Y21342000D01*
X36561001Y21339000D01*
X36567001Y21336000D01*
X36573001Y21333000D01*
X36578001Y21330000D01*
X36583001Y21326000D01*
X36589001Y21322000D01*
X36594001Y21318000D01*
X36598001Y21313000D01*
X36603001Y21309000D01*
X36607001Y21304000D01*
X36611001Y21298000D01*
X36615001Y21293000D01*
X36618001Y21287000D01*
X36621001Y21282000D01*
X36624001Y21276000D01*
X36627001Y21270000D01*
X36629001Y21264000D01*
X36631001Y21257000D01*
X36632001Y21251000D01*
X36633001Y21245000D01*
X36634001Y21238000D01*
X36635001Y21232000D01*
X36635001Y21225000D01*
X36635001Y21025000D01*
X36635001Y21018000D01*
X36634001Y21012000D01*
X36633001Y21005000D01*
X36632001Y20999000D01*
X36631001Y20993000D01*
X36629001Y20986000D01*
X36627001Y20980000D01*
X36624001Y20974000D01*
X36621001Y20968000D01*
X36618001Y20963000D01*
X36615001Y20957000D01*
X36611001Y20952000D01*
X36607001Y20946000D01*
X36603001Y20941000D01*
X36598001Y20937000D01*
X36594001Y20932000D01*
X36589001Y20928000D01*
X36583001Y20924000D01*
X36578001Y20920000D01*
X36573001Y20917000D01*
X36567001Y20914000D01*
X36561001Y20911000D01*
X36555001Y20908000D01*
X36549001Y20906000D01*
X36542001Y20904000D01*
X36536001Y20903000D01*
X36530001Y20902000D01*
X36523001Y20901000D01*
X36517001Y20900000D01*
X36510001Y20900000D01*
X36070001Y20900000D01*
X36063001Y20900000D01*
X36057001Y20901000D01*
X36050001Y20902000D01*
X36044001Y20903000D01*
X36038001Y20904000D01*
X36031001Y20906000D01*
X36025001Y20908000D01*
X36019001Y20911000D01*
X36013001Y20914000D01*
X36007001Y20917000D01*
X36002001Y20920000D01*
X35997001Y20924000D01*
X35991001Y20928000D01*
X35986001Y20932000D01*
X35982001Y20937000D01*
X35977001Y20941000D01*
X35973001Y20946000D01*
X35969001Y20952000D01*
X35965001Y20957000D01*
X35962001Y20963000D01*
X35959001Y20968000D01*
X35956001Y20974000D01*
X35953001Y20980000D01*
X35951001Y20986000D01*
X35949001Y20993000D01*
X35948001Y20999000D01*
X35947001Y21005000D01*
X35946001Y21012000D01*
X35945001Y21018000D01*
X35945001Y21025000D01*
X35945001Y21225000D01*
X35945001Y21232000D01*
X35946001Y21238000D01*
X35947001Y21245000D01*
X35948001Y21251000D01*
X35949001Y21257000D01*
X35951001Y21264000D01*
X35953001Y21270000D01*
X35956001Y21276000D01*
X35959001Y21282000D01*
X35962001Y21287000D01*
X35965001Y21293000D01*
X35969001Y21298000D01*
X35973001Y21304000D01*
X35977001Y21309000D01*
X35982001Y21313000D01*
X35986001Y21318000D01*
X35991001Y21322000D01*
X35997001Y21326000D01*
X36002001Y21330000D01*
X36007001Y21333000D01*
X36013001Y21336000D01*
X36019001Y21339000D01*
X36025001Y21342000D01*
X36031001Y21344000D01*
X36038001Y21346000D01*
X36044001Y21347000D01*
X36050001Y21348000D01*
X36057001Y21349000D01*
X36063001Y21350000D01*
X36070001Y21350000D01*
X36510001Y21350000D01*
X36517001Y21350000D01*
X36523001Y21349000D01*
G37*
X36523001Y20849000D02*
X36530001Y20848000D01*
X36536001Y20847000D01*
X36542001Y20846000D01*
X36549001Y20844000D01*
X36555001Y20842000D01*
X36561001Y20839000D01*
X36567001Y20836000D01*
X36573001Y20833000D01*
X36578001Y20830000D01*
X36583001Y20826000D01*
X36589001Y20822000D01*
X36594001Y20818000D01*
X36598001Y20813000D01*
X36603001Y20809000D01*
X36607001Y20804000D01*
X36611001Y20798000D01*
X36615001Y20793000D01*
X36618001Y20787000D01*
X36621001Y20782000D01*
X36624001Y20776000D01*
X36627001Y20770000D01*
X36629001Y20764000D01*
X36631001Y20757000D01*
X36632001Y20751000D01*
X36633001Y20745000D01*
X36634001Y20738000D01*
X36635001Y20732000D01*
X36635001Y20725000D01*
X36635001Y20525000D01*
X36635001Y20518000D01*
X36634001Y20512000D01*
X36633001Y20505000D01*
X36632001Y20499000D01*
X36631001Y20493000D01*
X36629001Y20486000D01*
X36627001Y20480000D01*
X36624001Y20474000D01*
X36621001Y20468000D01*
X36618001Y20463000D01*
X36615001Y20457000D01*
X36611001Y20452000D01*
X36607001Y20446000D01*
X36603001Y20441000D01*
X36598001Y20437000D01*
X36594001Y20432000D01*
X36589001Y20428000D01*
X36583001Y20424000D01*
X36578001Y20420000D01*
X36573001Y20417000D01*
X36567001Y20414000D01*
X36561001Y20411000D01*
X36555001Y20408000D01*
X36549001Y20406000D01*
X36542001Y20404000D01*
X36536001Y20403000D01*
X36530001Y20402000D01*
X36523001Y20401000D01*
X36517001Y20400000D01*
X36510001Y20400000D01*
X36070001Y20400000D01*
X36063001Y20400000D01*
X36057001Y20401000D01*
X36050001Y20402000D01*
X36044001Y20403000D01*
X36038001Y20404000D01*
X36031001Y20406000D01*
X36025001Y20408000D01*
X36019001Y20411000D01*
X36013001Y20414000D01*
X36007001Y20417000D01*
X36002001Y20420000D01*
X35997001Y20424000D01*
X35991001Y20428000D01*
X35986001Y20432000D01*
X35982001Y20437000D01*
X35977001Y20441000D01*
X35973001Y20446000D01*
X35969001Y20452000D01*
X35965001Y20457000D01*
X35962001Y20463000D01*
X35959001Y20468000D01*
X35956001Y20474000D01*
X35953001Y20480000D01*
X35951001Y20486000D01*
X35949001Y20493000D01*
X35948001Y20499000D01*
X35947001Y20505000D01*
X35946001Y20512000D01*
X35945001Y20518000D01*
X35945001Y20525000D01*
X35945001Y20725000D01*
X35945001Y20732000D01*
X35946001Y20738000D01*
X35947001Y20745000D01*
X35948001Y20751000D01*
X35949001Y20757000D01*
X35951001Y20764000D01*
X35953001Y20770000D01*
X35956001Y20776000D01*
X35959001Y20782000D01*
X35962001Y20787000D01*
X35965001Y20793000D01*
X35969001Y20798000D01*
X35973001Y20804000D01*
X35977001Y20809000D01*
X35982001Y20813000D01*
X35986001Y20818000D01*
X35991001Y20822000D01*
X35997001Y20826000D01*
X36002001Y20830000D01*
X36007001Y20833000D01*
X36013001Y20836000D01*
X36019001Y20839000D01*
X36025001Y20842000D01*
X36031001Y20844000D01*
X36038001Y20846000D01*
X36044001Y20847000D01*
X36050001Y20848000D01*
X36057001Y20849000D01*
X36063001Y20850000D01*
X36070001Y20850000D01*
X36510001Y20850000D01*
X36517001Y20850000D01*
X36523001Y20849000D01*
G36*
X36523001Y20849000D02*
G01*
X36530001Y20848000D01*
X36536001Y20847000D01*
X36542001Y20846000D01*
X36549001Y20844000D01*
X36555001Y20842000D01*
X36561001Y20839000D01*
X36567001Y20836000D01*
X36573001Y20833000D01*
X36578001Y20830000D01*
X36583001Y20826000D01*
X36589001Y20822000D01*
X36594001Y20818000D01*
X36598001Y20813000D01*
X36603001Y20809000D01*
X36607001Y20804000D01*
X36611001Y20798000D01*
X36615001Y20793000D01*
X36618001Y20787000D01*
X36621001Y20782000D01*
X36624001Y20776000D01*
X36627001Y20770000D01*
X36629001Y20764000D01*
X36631001Y20757000D01*
X36632001Y20751000D01*
X36633001Y20745000D01*
X36634001Y20738000D01*
X36635001Y20732000D01*
X36635001Y20725000D01*
X36635001Y20525000D01*
X36635001Y20518000D01*
X36634001Y20512000D01*
X36633001Y20505000D01*
X36632001Y20499000D01*
X36631001Y20493000D01*
X36629001Y20486000D01*
X36627001Y20480000D01*
X36624001Y20474000D01*
X36621001Y20468000D01*
X36618001Y20463000D01*
X36615001Y20457000D01*
X36611001Y20452000D01*
X36607001Y20446000D01*
X36603001Y20441000D01*
X36598001Y20437000D01*
X36594001Y20432000D01*
X36589001Y20428000D01*
X36583001Y20424000D01*
X36578001Y20420000D01*
X36573001Y20417000D01*
X36567001Y20414000D01*
X36561001Y20411000D01*
X36555001Y20408000D01*
X36549001Y20406000D01*
X36542001Y20404000D01*
X36536001Y20403000D01*
X36530001Y20402000D01*
X36523001Y20401000D01*
X36517001Y20400000D01*
X36510001Y20400000D01*
X36070001Y20400000D01*
X36063001Y20400000D01*
X36057001Y20401000D01*
X36050001Y20402000D01*
X36044001Y20403000D01*
X36038001Y20404000D01*
X36031001Y20406000D01*
X36025001Y20408000D01*
X36019001Y20411000D01*
X36013001Y20414000D01*
X36007001Y20417000D01*
X36002001Y20420000D01*
X35997001Y20424000D01*
X35991001Y20428000D01*
X35986001Y20432000D01*
X35982001Y20437000D01*
X35977001Y20441000D01*
X35973001Y20446000D01*
X35969001Y20452000D01*
X35965001Y20457000D01*
X35962001Y20463000D01*
X35959001Y20468000D01*
X35956001Y20474000D01*
X35953001Y20480000D01*
X35951001Y20486000D01*
X35949001Y20493000D01*
X35948001Y20499000D01*
X35947001Y20505000D01*
X35946001Y20512000D01*
X35945001Y20518000D01*
X35945001Y20525000D01*
X35945001Y20725000D01*
X35945001Y20732000D01*
X35946001Y20738000D01*
X35947001Y20745000D01*
X35948001Y20751000D01*
X35949001Y20757000D01*
X35951001Y20764000D01*
X35953001Y20770000D01*
X35956001Y20776000D01*
X35959001Y20782000D01*
X35962001Y20787000D01*
X35965001Y20793000D01*
X35969001Y20798000D01*
X35973001Y20804000D01*
X35977001Y20809000D01*
X35982001Y20813000D01*
X35986001Y20818000D01*
X35991001Y20822000D01*
X35997001Y20826000D01*
X36002001Y20830000D01*
X36007001Y20833000D01*
X36013001Y20836000D01*
X36019001Y20839000D01*
X36025001Y20842000D01*
X36031001Y20844000D01*
X36038001Y20846000D01*
X36044001Y20847000D01*
X36050001Y20848000D01*
X36057001Y20849000D01*
X36063001Y20850000D01*
X36070001Y20850000D01*
X36510001Y20850000D01*
X36517001Y20850000D01*
X36523001Y20849000D01*
G37*
X36523001Y20349000D02*
X36530001Y20348000D01*
X36536001Y20347000D01*
X36542001Y20346000D01*
X36549001Y20344000D01*
X36555001Y20342000D01*
X36561001Y20339000D01*
X36567001Y20336000D01*
X36573001Y20333000D01*
X36578001Y20330000D01*
X36583001Y20326000D01*
X36589001Y20322000D01*
X36594001Y20318000D01*
X36598001Y20313000D01*
X36603001Y20309000D01*
X36607001Y20304000D01*
X36611001Y20298000D01*
X36615001Y20293000D01*
X36618001Y20287000D01*
X36621001Y20282000D01*
X36624001Y20276000D01*
X36627001Y20270000D01*
X36629001Y20264000D01*
X36631001Y20257000D01*
X36632001Y20251000D01*
X36633001Y20245000D01*
X36634001Y20238000D01*
X36635001Y20232000D01*
X36635001Y20225000D01*
X36635001Y20025000D01*
X36635001Y20018000D01*
X36634001Y20012000D01*
X36633001Y20005000D01*
X36632001Y19999000D01*
X36631001Y19993000D01*
X36629001Y19986000D01*
X36627001Y19980000D01*
X36624001Y19974000D01*
X36621001Y19968000D01*
X36618001Y19963000D01*
X36615001Y19957000D01*
X36611001Y19952000D01*
X36607001Y19946000D01*
X36603001Y19941000D01*
X36598001Y19937000D01*
X36594001Y19932000D01*
X36589001Y19928000D01*
X36583001Y19924000D01*
X36578001Y19920000D01*
X36573001Y19917000D01*
X36567001Y19914000D01*
X36561001Y19911000D01*
X36555001Y19908000D01*
X36549001Y19906000D01*
X36542001Y19904000D01*
X36536001Y19903000D01*
X36530001Y19902000D01*
X36523001Y19901000D01*
X36517001Y19900000D01*
X36510001Y19900000D01*
X36070001Y19900000D01*
X36063001Y19900000D01*
X36057001Y19901000D01*
X36050001Y19902000D01*
X36044001Y19903000D01*
X36038001Y19904000D01*
X36031001Y19906000D01*
X36025001Y19908000D01*
X36019001Y19911000D01*
X36013001Y19914000D01*
X36007001Y19917000D01*
X36002001Y19920000D01*
X35997001Y19924000D01*
X35991001Y19928000D01*
X35986001Y19932000D01*
X35982001Y19937000D01*
X35977001Y19941000D01*
X35973001Y19946000D01*
X35969001Y19952000D01*
X35965001Y19957000D01*
X35962001Y19963000D01*
X35959001Y19968000D01*
X35956001Y19974000D01*
X35953001Y19980000D01*
X35951001Y19986000D01*
X35949001Y19993000D01*
X35948001Y19999000D01*
X35947001Y20005000D01*
X35946001Y20012000D01*
X35945001Y20018000D01*
X35945001Y20025000D01*
X35945001Y20225000D01*
X35945001Y20232000D01*
X35946001Y20238000D01*
X35947001Y20245000D01*
X35948001Y20251000D01*
X35949001Y20257000D01*
X35951001Y20264000D01*
X35953001Y20270000D01*
X35956001Y20276000D01*
X35959001Y20282000D01*
X35962001Y20287000D01*
X35965001Y20293000D01*
X35969001Y20298000D01*
X35973001Y20304000D01*
X35977001Y20309000D01*
X35982001Y20313000D01*
X35986001Y20318000D01*
X35991001Y20322000D01*
X35997001Y20326000D01*
X36002001Y20330000D01*
X36007001Y20333000D01*
X36013001Y20336000D01*
X36019001Y20339000D01*
X36025001Y20342000D01*
X36031001Y20344000D01*
X36038001Y20346000D01*
X36044001Y20347000D01*
X36050001Y20348000D01*
X36057001Y20349000D01*
X36063001Y20350000D01*
X36070001Y20350000D01*
X36510001Y20350000D01*
X36517001Y20350000D01*
X36523001Y20349000D01*
G36*
X36523001Y20349000D02*
G01*
X36530001Y20348000D01*
X36536001Y20347000D01*
X36542001Y20346000D01*
X36549001Y20344000D01*
X36555001Y20342000D01*
X36561001Y20339000D01*
X36567001Y20336000D01*
X36573001Y20333000D01*
X36578001Y20330000D01*
X36583001Y20326000D01*
X36589001Y20322000D01*
X36594001Y20318000D01*
X36598001Y20313000D01*
X36603001Y20309000D01*
X36607001Y20304000D01*
X36611001Y20298000D01*
X36615001Y20293000D01*
X36618001Y20287000D01*
X36621001Y20282000D01*
X36624001Y20276000D01*
X36627001Y20270000D01*
X36629001Y20264000D01*
X36631001Y20257000D01*
X36632001Y20251000D01*
X36633001Y20245000D01*
X36634001Y20238000D01*
X36635001Y20232000D01*
X36635001Y20225000D01*
X36635001Y20025000D01*
X36635001Y20018000D01*
X36634001Y20012000D01*
X36633001Y20005000D01*
X36632001Y19999000D01*
X36631001Y19993000D01*
X36629001Y19986000D01*
X36627001Y19980000D01*
X36624001Y19974000D01*
X36621001Y19968000D01*
X36618001Y19963000D01*
X36615001Y19957000D01*
X36611001Y19952000D01*
X36607001Y19946000D01*
X36603001Y19941000D01*
X36598001Y19937000D01*
X36594001Y19932000D01*
X36589001Y19928000D01*
X36583001Y19924000D01*
X36578001Y19920000D01*
X36573001Y19917000D01*
X36567001Y19914000D01*
X36561001Y19911000D01*
X36555001Y19908000D01*
X36549001Y19906000D01*
X36542001Y19904000D01*
X36536001Y19903000D01*
X36530001Y19902000D01*
X36523001Y19901000D01*
X36517001Y19900000D01*
X36510001Y19900000D01*
X36070001Y19900000D01*
X36063001Y19900000D01*
X36057001Y19901000D01*
X36050001Y19902000D01*
X36044001Y19903000D01*
X36038001Y19904000D01*
X36031001Y19906000D01*
X36025001Y19908000D01*
X36019001Y19911000D01*
X36013001Y19914000D01*
X36007001Y19917000D01*
X36002001Y19920000D01*
X35997001Y19924000D01*
X35991001Y19928000D01*
X35986001Y19932000D01*
X35982001Y19937000D01*
X35977001Y19941000D01*
X35973001Y19946000D01*
X35969001Y19952000D01*
X35965001Y19957000D01*
X35962001Y19963000D01*
X35959001Y19968000D01*
X35956001Y19974000D01*
X35953001Y19980000D01*
X35951001Y19986000D01*
X35949001Y19993000D01*
X35948001Y19999000D01*
X35947001Y20005000D01*
X35946001Y20012000D01*
X35945001Y20018000D01*
X35945001Y20025000D01*
X35945001Y20225000D01*
X35945001Y20232000D01*
X35946001Y20238000D01*
X35947001Y20245000D01*
X35948001Y20251000D01*
X35949001Y20257000D01*
X35951001Y20264000D01*
X35953001Y20270000D01*
X35956001Y20276000D01*
X35959001Y20282000D01*
X35962001Y20287000D01*
X35965001Y20293000D01*
X35969001Y20298000D01*
X35973001Y20304000D01*
X35977001Y20309000D01*
X35982001Y20313000D01*
X35986001Y20318000D01*
X35991001Y20322000D01*
X35997001Y20326000D01*
X36002001Y20330000D01*
X36007001Y20333000D01*
X36013001Y20336000D01*
X36019001Y20339000D01*
X36025001Y20342000D01*
X36031001Y20344000D01*
X36038001Y20346000D01*
X36044001Y20347000D01*
X36050001Y20348000D01*
X36057001Y20349000D01*
X36063001Y20350000D01*
X36070001Y20350000D01*
X36510001Y20350000D01*
X36517001Y20350000D01*
X36523001Y20349000D01*
G37*
X36523001Y19849000D02*
X36530001Y19848000D01*
X36536001Y19847000D01*
X36542001Y19846000D01*
X36549001Y19844000D01*
X36555001Y19842000D01*
X36561001Y19839000D01*
X36567001Y19836000D01*
X36573001Y19833000D01*
X36578001Y19830000D01*
X36583001Y19826000D01*
X36589001Y19822000D01*
X36594001Y19818000D01*
X36598001Y19813000D01*
X36603001Y19809000D01*
X36607001Y19804000D01*
X36611001Y19798000D01*
X36615001Y19793000D01*
X36618001Y19787000D01*
X36621001Y19782000D01*
X36624001Y19776000D01*
X36627001Y19770000D01*
X36629001Y19764000D01*
X36631001Y19757000D01*
X36632001Y19751000D01*
X36633001Y19745000D01*
X36634001Y19738000D01*
X36635001Y19732000D01*
X36635001Y19725000D01*
X36635001Y19525000D01*
X36635001Y19518000D01*
X36634001Y19512000D01*
X36633001Y19505000D01*
X36632001Y19499000D01*
X36631001Y19493000D01*
X36629001Y19486000D01*
X36627001Y19480000D01*
X36624001Y19474000D01*
X36621001Y19468000D01*
X36618001Y19463000D01*
X36615001Y19457000D01*
X36611001Y19452000D01*
X36607001Y19446000D01*
X36603001Y19441000D01*
X36598001Y19437000D01*
X36594001Y19432000D01*
X36589001Y19428000D01*
X36583001Y19424000D01*
X36578001Y19420000D01*
X36573001Y19417000D01*
X36567001Y19414000D01*
X36561001Y19411000D01*
X36555001Y19408000D01*
X36549001Y19406000D01*
X36542001Y19404000D01*
X36536001Y19403000D01*
X36530001Y19402000D01*
X36523001Y19401000D01*
X36517001Y19400000D01*
X36510001Y19400000D01*
X36070001Y19400000D01*
X36063001Y19400000D01*
X36057001Y19401000D01*
X36050001Y19402000D01*
X36044001Y19403000D01*
X36038001Y19404000D01*
X36031001Y19406000D01*
X36025001Y19408000D01*
X36019001Y19411000D01*
X36013001Y19414000D01*
X36007001Y19417000D01*
X36002001Y19420000D01*
X35997001Y19424000D01*
X35991001Y19428000D01*
X35986001Y19432000D01*
X35982001Y19437000D01*
X35977001Y19441000D01*
X35973001Y19446000D01*
X35969001Y19452000D01*
X35965001Y19457000D01*
X35962001Y19463000D01*
X35959001Y19468000D01*
X35956001Y19474000D01*
X35953001Y19480000D01*
X35951001Y19486000D01*
X35949001Y19493000D01*
X35948001Y19499000D01*
X35947001Y19505000D01*
X35946001Y19512000D01*
X35945001Y19518000D01*
X35945001Y19525000D01*
X35945001Y19725000D01*
X35945001Y19732000D01*
X35946001Y19738000D01*
X35947001Y19745000D01*
X35948001Y19751000D01*
X35949001Y19757000D01*
X35951001Y19764000D01*
X35953001Y19770000D01*
X35956001Y19776000D01*
X35959001Y19782000D01*
X35962001Y19787000D01*
X35965001Y19793000D01*
X35969001Y19798000D01*
X35973001Y19804000D01*
X35977001Y19809000D01*
X35982001Y19813000D01*
X35986001Y19818000D01*
X35991001Y19822000D01*
X35997001Y19826000D01*
X36002001Y19830000D01*
X36007001Y19833000D01*
X36013001Y19836000D01*
X36019001Y19839000D01*
X36025001Y19842000D01*
X36031001Y19844000D01*
X36038001Y19846000D01*
X36044001Y19847000D01*
X36050001Y19848000D01*
X36057001Y19849000D01*
X36063001Y19850000D01*
X36070001Y19850000D01*
X36510001Y19850000D01*
X36517001Y19850000D01*
X36523001Y19849000D01*
G36*
X36523001Y19849000D02*
G01*
X36530001Y19848000D01*
X36536001Y19847000D01*
X36542001Y19846000D01*
X36549001Y19844000D01*
X36555001Y19842000D01*
X36561001Y19839000D01*
X36567001Y19836000D01*
X36573001Y19833000D01*
X36578001Y19830000D01*
X36583001Y19826000D01*
X36589001Y19822000D01*
X36594001Y19818000D01*
X36598001Y19813000D01*
X36603001Y19809000D01*
X36607001Y19804000D01*
X36611001Y19798000D01*
X36615001Y19793000D01*
X36618001Y19787000D01*
X36621001Y19782000D01*
X36624001Y19776000D01*
X36627001Y19770000D01*
X36629001Y19764000D01*
X36631001Y19757000D01*
X36632001Y19751000D01*
X36633001Y19745000D01*
X36634001Y19738000D01*
X36635001Y19732000D01*
X36635001Y19725000D01*
X36635001Y19525000D01*
X36635001Y19518000D01*
X36634001Y19512000D01*
X36633001Y19505000D01*
X36632001Y19499000D01*
X36631001Y19493000D01*
X36629001Y19486000D01*
X36627001Y19480000D01*
X36624001Y19474000D01*
X36621001Y19468000D01*
X36618001Y19463000D01*
X36615001Y19457000D01*
X36611001Y19452000D01*
X36607001Y19446000D01*
X36603001Y19441000D01*
X36598001Y19437000D01*
X36594001Y19432000D01*
X36589001Y19428000D01*
X36583001Y19424000D01*
X36578001Y19420000D01*
X36573001Y19417000D01*
X36567001Y19414000D01*
X36561001Y19411000D01*
X36555001Y19408000D01*
X36549001Y19406000D01*
X36542001Y19404000D01*
X36536001Y19403000D01*
X36530001Y19402000D01*
X36523001Y19401000D01*
X36517001Y19400000D01*
X36510001Y19400000D01*
X36070001Y19400000D01*
X36063001Y19400000D01*
X36057001Y19401000D01*
X36050001Y19402000D01*
X36044001Y19403000D01*
X36038001Y19404000D01*
X36031001Y19406000D01*
X36025001Y19408000D01*
X36019001Y19411000D01*
X36013001Y19414000D01*
X36007001Y19417000D01*
X36002001Y19420000D01*
X35997001Y19424000D01*
X35991001Y19428000D01*
X35986001Y19432000D01*
X35982001Y19437000D01*
X35977001Y19441000D01*
X35973001Y19446000D01*
X35969001Y19452000D01*
X35965001Y19457000D01*
X35962001Y19463000D01*
X35959001Y19468000D01*
X35956001Y19474000D01*
X35953001Y19480000D01*
X35951001Y19486000D01*
X35949001Y19493000D01*
X35948001Y19499000D01*
X35947001Y19505000D01*
X35946001Y19512000D01*
X35945001Y19518000D01*
X35945001Y19525000D01*
X35945001Y19725000D01*
X35945001Y19732000D01*
X35946001Y19738000D01*
X35947001Y19745000D01*
X35948001Y19751000D01*
X35949001Y19757000D01*
X35951001Y19764000D01*
X35953001Y19770000D01*
X35956001Y19776000D01*
X35959001Y19782000D01*
X35962001Y19787000D01*
X35965001Y19793000D01*
X35969001Y19798000D01*
X35973001Y19804000D01*
X35977001Y19809000D01*
X35982001Y19813000D01*
X35986001Y19818000D01*
X35991001Y19822000D01*
X35997001Y19826000D01*
X36002001Y19830000D01*
X36007001Y19833000D01*
X36013001Y19836000D01*
X36019001Y19839000D01*
X36025001Y19842000D01*
X36031001Y19844000D01*
X36038001Y19846000D01*
X36044001Y19847000D01*
X36050001Y19848000D01*
X36057001Y19849000D01*
X36063001Y19850000D01*
X36070001Y19850000D01*
X36510001Y19850000D01*
X36517001Y19850000D01*
X36523001Y19849000D01*
G37*
G04 #@! TO.C,U11*
X22708001Y47249000D02*
X22710001Y47249000D01*
X22713001Y47248000D01*
X22715001Y47248000D01*
X22718001Y47247000D01*
X22720001Y47246000D01*
X22723001Y47245000D01*
X22725001Y47243000D01*
X22727001Y47242000D01*
X22729001Y47240000D01*
X22731001Y47239000D01*
X22733001Y47237000D01*
X22735001Y47235000D01*
X22737001Y47233000D01*
X22739001Y47231000D01*
X22740001Y47229000D01*
X22742001Y47227000D01*
X22743001Y47225000D01*
X22745001Y47223000D01*
X22746001Y47220000D01*
X22747001Y47218000D01*
X22748001Y47215000D01*
X22748001Y47213000D01*
X22749001Y47210000D01*
X22749001Y47208000D01*
X22750001Y47205000D01*
X22750001Y47203000D01*
X22750001Y47200000D01*
X22750001Y47050000D01*
X22750001Y47047000D01*
X22750001Y47045000D01*
X22749001Y47042000D01*
X22749001Y47040000D01*
X22748001Y47037000D01*
X22748001Y47035000D01*
X22747001Y47032000D01*
X22746001Y47030000D01*
X22745001Y47027000D01*
X22743001Y47025000D01*
X22742001Y47023000D01*
X22740001Y47021000D01*
X22739001Y47019000D01*
X22737001Y47017000D01*
X22735001Y47015000D01*
X22733001Y47013000D01*
X22731001Y47011000D01*
X22729001Y47010000D01*
X22727001Y47008000D01*
X22725001Y47007000D01*
X22723001Y47005000D01*
X22720001Y47004000D01*
X22718001Y47003000D01*
X22715001Y47002000D01*
X22713001Y47002000D01*
X22710001Y47001000D01*
X22708001Y47001000D01*
X22705001Y47000000D01*
X22703001Y47000000D01*
X22700001Y47000000D01*
X21450001Y47000000D01*
X21447001Y47000000D01*
X21445001Y47000000D01*
X21442001Y47001000D01*
X21440001Y47001000D01*
X21437001Y47002000D01*
X21435001Y47002000D01*
X21432001Y47003000D01*
X21430001Y47004000D01*
X21427001Y47005000D01*
X21425001Y47007000D01*
X21423001Y47008000D01*
X21421001Y47010000D01*
X21419001Y47011000D01*
X21417001Y47013000D01*
X21415001Y47015000D01*
X21413001Y47017000D01*
X21411001Y47019000D01*
X21410001Y47021000D01*
X21408001Y47023000D01*
X21407001Y47025000D01*
X21405001Y47027000D01*
X21404001Y47030000D01*
X21403001Y47032000D01*
X21402001Y47035000D01*
X21402001Y47037000D01*
X21401001Y47040000D01*
X21401001Y47042000D01*
X21400001Y47045000D01*
X21400001Y47047000D01*
X21400001Y47050000D01*
X21400001Y47200000D01*
X21400001Y47203000D01*
X21400001Y47205000D01*
X21401001Y47208000D01*
X21401001Y47210000D01*
X21402001Y47213000D01*
X21402001Y47215000D01*
X21403001Y47218000D01*
X21404001Y47220000D01*
X21405001Y47223000D01*
X21407001Y47225000D01*
X21408001Y47227000D01*
X21410001Y47229000D01*
X21411001Y47231000D01*
X21413001Y47233000D01*
X21415001Y47235000D01*
X21417001Y47237000D01*
X21419001Y47239000D01*
X21421001Y47240000D01*
X21423001Y47242000D01*
X21425001Y47243000D01*
X21427001Y47245000D01*
X21430001Y47246000D01*
X21432001Y47247000D01*
X21435001Y47248000D01*
X21437001Y47248000D01*
X21440001Y47249000D01*
X21442001Y47249000D01*
X21445001Y47250000D01*
X21447001Y47250000D01*
X21450001Y47250000D01*
X22700001Y47250000D01*
X22703001Y47250000D01*
X22705001Y47250000D01*
X22708001Y47249000D01*
G36*
X22708001Y47249000D02*
G01*
X22710001Y47249000D01*
X22713001Y47248000D01*
X22715001Y47248000D01*
X22718001Y47247000D01*
X22720001Y47246000D01*
X22723001Y47245000D01*
X22725001Y47243000D01*
X22727001Y47242000D01*
X22729001Y47240000D01*
X22731001Y47239000D01*
X22733001Y47237000D01*
X22735001Y47235000D01*
X22737001Y47233000D01*
X22739001Y47231000D01*
X22740001Y47229000D01*
X22742001Y47227000D01*
X22743001Y47225000D01*
X22745001Y47223000D01*
X22746001Y47220000D01*
X22747001Y47218000D01*
X22748001Y47215000D01*
X22748001Y47213000D01*
X22749001Y47210000D01*
X22749001Y47208000D01*
X22750001Y47205000D01*
X22750001Y47203000D01*
X22750001Y47200000D01*
X22750001Y47050000D01*
X22750001Y47047000D01*
X22750001Y47045000D01*
X22749001Y47042000D01*
X22749001Y47040000D01*
X22748001Y47037000D01*
X22748001Y47035000D01*
X22747001Y47032000D01*
X22746001Y47030000D01*
X22745001Y47027000D01*
X22743001Y47025000D01*
X22742001Y47023000D01*
X22740001Y47021000D01*
X22739001Y47019000D01*
X22737001Y47017000D01*
X22735001Y47015000D01*
X22733001Y47013000D01*
X22731001Y47011000D01*
X22729001Y47010000D01*
X22727001Y47008000D01*
X22725001Y47007000D01*
X22723001Y47005000D01*
X22720001Y47004000D01*
X22718001Y47003000D01*
X22715001Y47002000D01*
X22713001Y47002000D01*
X22710001Y47001000D01*
X22708001Y47001000D01*
X22705001Y47000000D01*
X22703001Y47000000D01*
X22700001Y47000000D01*
X21450001Y47000000D01*
X21447001Y47000000D01*
X21445001Y47000000D01*
X21442001Y47001000D01*
X21440001Y47001000D01*
X21437001Y47002000D01*
X21435001Y47002000D01*
X21432001Y47003000D01*
X21430001Y47004000D01*
X21427001Y47005000D01*
X21425001Y47007000D01*
X21423001Y47008000D01*
X21421001Y47010000D01*
X21419001Y47011000D01*
X21417001Y47013000D01*
X21415001Y47015000D01*
X21413001Y47017000D01*
X21411001Y47019000D01*
X21410001Y47021000D01*
X21408001Y47023000D01*
X21407001Y47025000D01*
X21405001Y47027000D01*
X21404001Y47030000D01*
X21403001Y47032000D01*
X21402001Y47035000D01*
X21402001Y47037000D01*
X21401001Y47040000D01*
X21401001Y47042000D01*
X21400001Y47045000D01*
X21400001Y47047000D01*
X21400001Y47050000D01*
X21400001Y47200000D01*
X21400001Y47203000D01*
X21400001Y47205000D01*
X21401001Y47208000D01*
X21401001Y47210000D01*
X21402001Y47213000D01*
X21402001Y47215000D01*
X21403001Y47218000D01*
X21404001Y47220000D01*
X21405001Y47223000D01*
X21407001Y47225000D01*
X21408001Y47227000D01*
X21410001Y47229000D01*
X21411001Y47231000D01*
X21413001Y47233000D01*
X21415001Y47235000D01*
X21417001Y47237000D01*
X21419001Y47239000D01*
X21421001Y47240000D01*
X21423001Y47242000D01*
X21425001Y47243000D01*
X21427001Y47245000D01*
X21430001Y47246000D01*
X21432001Y47247000D01*
X21435001Y47248000D01*
X21437001Y47248000D01*
X21440001Y47249000D01*
X21442001Y47249000D01*
X21445001Y47250000D01*
X21447001Y47250000D01*
X21450001Y47250000D01*
X22700001Y47250000D01*
X22703001Y47250000D01*
X22705001Y47250000D01*
X22708001Y47249000D01*
G37*
X22708001Y46249000D02*
X22710001Y46249000D01*
X22713001Y46248000D01*
X22715001Y46248000D01*
X22718001Y46247000D01*
X22720001Y46246000D01*
X22723001Y46245000D01*
X22725001Y46243000D01*
X22727001Y46242000D01*
X22729001Y46240000D01*
X22731001Y46239000D01*
X22733001Y46237000D01*
X22735001Y46235000D01*
X22737001Y46233000D01*
X22739001Y46231000D01*
X22740001Y46229000D01*
X22742001Y46227000D01*
X22743001Y46225000D01*
X22745001Y46223000D01*
X22746001Y46220000D01*
X22747001Y46218000D01*
X22748001Y46215000D01*
X22748001Y46213000D01*
X22749001Y46210000D01*
X22749001Y46208000D01*
X22750001Y46205000D01*
X22750001Y46203000D01*
X22750001Y46200000D01*
X22750001Y46050000D01*
X22750001Y46047000D01*
X22750001Y46045000D01*
X22749001Y46042000D01*
X22749001Y46040000D01*
X22748001Y46037000D01*
X22748001Y46035000D01*
X22747001Y46032000D01*
X22746001Y46030000D01*
X22745001Y46027000D01*
X22743001Y46025000D01*
X22742001Y46023000D01*
X22740001Y46021000D01*
X22739001Y46019000D01*
X22737001Y46017000D01*
X22735001Y46015000D01*
X22733001Y46013000D01*
X22731001Y46011000D01*
X22729001Y46010000D01*
X22727001Y46008000D01*
X22725001Y46007000D01*
X22723001Y46005000D01*
X22720001Y46004000D01*
X22718001Y46003000D01*
X22715001Y46002000D01*
X22713001Y46002000D01*
X22710001Y46001000D01*
X22708001Y46001000D01*
X22705001Y46000000D01*
X22703001Y46000000D01*
X22700001Y46000000D01*
X21450001Y46000000D01*
X21447001Y46000000D01*
X21445001Y46000000D01*
X21442001Y46001000D01*
X21440001Y46001000D01*
X21437001Y46002000D01*
X21435001Y46002000D01*
X21432001Y46003000D01*
X21430001Y46004000D01*
X21427001Y46005000D01*
X21425001Y46007000D01*
X21423001Y46008000D01*
X21421001Y46010000D01*
X21419001Y46011000D01*
X21417001Y46013000D01*
X21415001Y46015000D01*
X21413001Y46017000D01*
X21411001Y46019000D01*
X21410001Y46021000D01*
X21408001Y46023000D01*
X21407001Y46025000D01*
X21405001Y46027000D01*
X21404001Y46030000D01*
X21403001Y46032000D01*
X21402001Y46035000D01*
X21402001Y46037000D01*
X21401001Y46040000D01*
X21401001Y46042000D01*
X21400001Y46045000D01*
X21400001Y46047000D01*
X21400001Y46050000D01*
X21400001Y46200000D01*
X21400001Y46203000D01*
X21400001Y46205000D01*
X21401001Y46208000D01*
X21401001Y46210000D01*
X21402001Y46213000D01*
X21402001Y46215000D01*
X21403001Y46218000D01*
X21404001Y46220000D01*
X21405001Y46223000D01*
X21407001Y46225000D01*
X21408001Y46227000D01*
X21410001Y46229000D01*
X21411001Y46231000D01*
X21413001Y46233000D01*
X21415001Y46235000D01*
X21417001Y46237000D01*
X21419001Y46239000D01*
X21421001Y46240000D01*
X21423001Y46242000D01*
X21425001Y46243000D01*
X21427001Y46245000D01*
X21430001Y46246000D01*
X21432001Y46247000D01*
X21435001Y46248000D01*
X21437001Y46248000D01*
X21440001Y46249000D01*
X21442001Y46249000D01*
X21445001Y46250000D01*
X21447001Y46250000D01*
X21450001Y46250000D01*
X22700001Y46250000D01*
X22703001Y46250000D01*
X22705001Y46250000D01*
X22708001Y46249000D01*
G36*
X22708001Y46249000D02*
G01*
X22710001Y46249000D01*
X22713001Y46248000D01*
X22715001Y46248000D01*
X22718001Y46247000D01*
X22720001Y46246000D01*
X22723001Y46245000D01*
X22725001Y46243000D01*
X22727001Y46242000D01*
X22729001Y46240000D01*
X22731001Y46239000D01*
X22733001Y46237000D01*
X22735001Y46235000D01*
X22737001Y46233000D01*
X22739001Y46231000D01*
X22740001Y46229000D01*
X22742001Y46227000D01*
X22743001Y46225000D01*
X22745001Y46223000D01*
X22746001Y46220000D01*
X22747001Y46218000D01*
X22748001Y46215000D01*
X22748001Y46213000D01*
X22749001Y46210000D01*
X22749001Y46208000D01*
X22750001Y46205000D01*
X22750001Y46203000D01*
X22750001Y46200000D01*
X22750001Y46050000D01*
X22750001Y46047000D01*
X22750001Y46045000D01*
X22749001Y46042000D01*
X22749001Y46040000D01*
X22748001Y46037000D01*
X22748001Y46035000D01*
X22747001Y46032000D01*
X22746001Y46030000D01*
X22745001Y46027000D01*
X22743001Y46025000D01*
X22742001Y46023000D01*
X22740001Y46021000D01*
X22739001Y46019000D01*
X22737001Y46017000D01*
X22735001Y46015000D01*
X22733001Y46013000D01*
X22731001Y46011000D01*
X22729001Y46010000D01*
X22727001Y46008000D01*
X22725001Y46007000D01*
X22723001Y46005000D01*
X22720001Y46004000D01*
X22718001Y46003000D01*
X22715001Y46002000D01*
X22713001Y46002000D01*
X22710001Y46001000D01*
X22708001Y46001000D01*
X22705001Y46000000D01*
X22703001Y46000000D01*
X22700001Y46000000D01*
X21450001Y46000000D01*
X21447001Y46000000D01*
X21445001Y46000000D01*
X21442001Y46001000D01*
X21440001Y46001000D01*
X21437001Y46002000D01*
X21435001Y46002000D01*
X21432001Y46003000D01*
X21430001Y46004000D01*
X21427001Y46005000D01*
X21425001Y46007000D01*
X21423001Y46008000D01*
X21421001Y46010000D01*
X21419001Y46011000D01*
X21417001Y46013000D01*
X21415001Y46015000D01*
X21413001Y46017000D01*
X21411001Y46019000D01*
X21410001Y46021000D01*
X21408001Y46023000D01*
X21407001Y46025000D01*
X21405001Y46027000D01*
X21404001Y46030000D01*
X21403001Y46032000D01*
X21402001Y46035000D01*
X21402001Y46037000D01*
X21401001Y46040000D01*
X21401001Y46042000D01*
X21400001Y46045000D01*
X21400001Y46047000D01*
X21400001Y46050000D01*
X21400001Y46200000D01*
X21400001Y46203000D01*
X21400001Y46205000D01*
X21401001Y46208000D01*
X21401001Y46210000D01*
X21402001Y46213000D01*
X21402001Y46215000D01*
X21403001Y46218000D01*
X21404001Y46220000D01*
X21405001Y46223000D01*
X21407001Y46225000D01*
X21408001Y46227000D01*
X21410001Y46229000D01*
X21411001Y46231000D01*
X21413001Y46233000D01*
X21415001Y46235000D01*
X21417001Y46237000D01*
X21419001Y46239000D01*
X21421001Y46240000D01*
X21423001Y46242000D01*
X21425001Y46243000D01*
X21427001Y46245000D01*
X21430001Y46246000D01*
X21432001Y46247000D01*
X21435001Y46248000D01*
X21437001Y46248000D01*
X21440001Y46249000D01*
X21442001Y46249000D01*
X21445001Y46250000D01*
X21447001Y46250000D01*
X21450001Y46250000D01*
X22700001Y46250000D01*
X22703001Y46250000D01*
X22705001Y46250000D01*
X22708001Y46249000D01*
G37*
X23058001Y46749000D02*
X23060001Y46749000D01*
X23063001Y46748000D01*
X23065001Y46748000D01*
X23068001Y46747000D01*
X23070001Y46746000D01*
X23073001Y46745000D01*
X23075001Y46743000D01*
X23077001Y46742000D01*
X23079001Y46740000D01*
X23081001Y46739000D01*
X23083001Y46737000D01*
X23085001Y46735000D01*
X23087001Y46733000D01*
X23089001Y46731000D01*
X23090001Y46729000D01*
X23092001Y46727000D01*
X23093001Y46725000D01*
X23095001Y46723000D01*
X23096001Y46720000D01*
X23097001Y46718000D01*
X23098001Y46715000D01*
X23098001Y46713000D01*
X23099001Y46710000D01*
X23099001Y46708000D01*
X23100001Y46705000D01*
X23100001Y46703000D01*
X23100001Y46700000D01*
X23100001Y46550000D01*
X23100001Y46547000D01*
X23100001Y46545000D01*
X23099001Y46542000D01*
X23099001Y46540000D01*
X23098001Y46537000D01*
X23098001Y46535000D01*
X23097001Y46532000D01*
X23096001Y46530000D01*
X23095001Y46527000D01*
X23093001Y46525000D01*
X23092001Y46523000D01*
X23090001Y46521000D01*
X23089001Y46519000D01*
X23087001Y46517000D01*
X23085001Y46515000D01*
X23083001Y46513000D01*
X23081001Y46511000D01*
X23079001Y46510000D01*
X23077001Y46508000D01*
X23075001Y46507000D01*
X23073001Y46505000D01*
X23070001Y46504000D01*
X23068001Y46503000D01*
X23065001Y46502000D01*
X23063001Y46502000D01*
X23060001Y46501000D01*
X23058001Y46501000D01*
X23055001Y46500000D01*
X23053001Y46500000D01*
X23050001Y46500000D01*
X21450001Y46500000D01*
X21447001Y46500000D01*
X21445001Y46500000D01*
X21442001Y46501000D01*
X21440001Y46501000D01*
X21437001Y46502000D01*
X21435001Y46502000D01*
X21432001Y46503000D01*
X21430001Y46504000D01*
X21427001Y46505000D01*
X21425001Y46507000D01*
X21423001Y46508000D01*
X21421001Y46510000D01*
X21419001Y46511000D01*
X21417001Y46513000D01*
X21415001Y46515000D01*
X21413001Y46517000D01*
X21411001Y46519000D01*
X21410001Y46521000D01*
X21408001Y46523000D01*
X21407001Y46525000D01*
X21405001Y46527000D01*
X21404001Y46530000D01*
X21403001Y46532000D01*
X21402001Y46535000D01*
X21402001Y46537000D01*
X21401001Y46540000D01*
X21401001Y46542000D01*
X21400001Y46545000D01*
X21400001Y46547000D01*
X21400001Y46550000D01*
X21400001Y46700000D01*
X21400001Y46703000D01*
X21400001Y46705000D01*
X21401001Y46708000D01*
X21401001Y46710000D01*
X21402001Y46713000D01*
X21402001Y46715000D01*
X21403001Y46718000D01*
X21404001Y46720000D01*
X21405001Y46723000D01*
X21407001Y46725000D01*
X21408001Y46727000D01*
X21410001Y46729000D01*
X21411001Y46731000D01*
X21413001Y46733000D01*
X21415001Y46735000D01*
X21417001Y46737000D01*
X21419001Y46739000D01*
X21421001Y46740000D01*
X21423001Y46742000D01*
X21425001Y46743000D01*
X21427001Y46745000D01*
X21430001Y46746000D01*
X21432001Y46747000D01*
X21435001Y46748000D01*
X21437001Y46748000D01*
X21440001Y46749000D01*
X21442001Y46749000D01*
X21445001Y46750000D01*
X21447001Y46750000D01*
X21450001Y46750000D01*
X23050001Y46750000D01*
X23053001Y46750000D01*
X23055001Y46750000D01*
X23058001Y46749000D01*
G36*
X23058001Y46749000D02*
G01*
X23060001Y46749000D01*
X23063001Y46748000D01*
X23065001Y46748000D01*
X23068001Y46747000D01*
X23070001Y46746000D01*
X23073001Y46745000D01*
X23075001Y46743000D01*
X23077001Y46742000D01*
X23079001Y46740000D01*
X23081001Y46739000D01*
X23083001Y46737000D01*
X23085001Y46735000D01*
X23087001Y46733000D01*
X23089001Y46731000D01*
X23090001Y46729000D01*
X23092001Y46727000D01*
X23093001Y46725000D01*
X23095001Y46723000D01*
X23096001Y46720000D01*
X23097001Y46718000D01*
X23098001Y46715000D01*
X23098001Y46713000D01*
X23099001Y46710000D01*
X23099001Y46708000D01*
X23100001Y46705000D01*
X23100001Y46703000D01*
X23100001Y46700000D01*
X23100001Y46550000D01*
X23100001Y46547000D01*
X23100001Y46545000D01*
X23099001Y46542000D01*
X23099001Y46540000D01*
X23098001Y46537000D01*
X23098001Y46535000D01*
X23097001Y46532000D01*
X23096001Y46530000D01*
X23095001Y46527000D01*
X23093001Y46525000D01*
X23092001Y46523000D01*
X23090001Y46521000D01*
X23089001Y46519000D01*
X23087001Y46517000D01*
X23085001Y46515000D01*
X23083001Y46513000D01*
X23081001Y46511000D01*
X23079001Y46510000D01*
X23077001Y46508000D01*
X23075001Y46507000D01*
X23073001Y46505000D01*
X23070001Y46504000D01*
X23068001Y46503000D01*
X23065001Y46502000D01*
X23063001Y46502000D01*
X23060001Y46501000D01*
X23058001Y46501000D01*
X23055001Y46500000D01*
X23053001Y46500000D01*
X23050001Y46500000D01*
X21450001Y46500000D01*
X21447001Y46500000D01*
X21445001Y46500000D01*
X21442001Y46501000D01*
X21440001Y46501000D01*
X21437001Y46502000D01*
X21435001Y46502000D01*
X21432001Y46503000D01*
X21430001Y46504000D01*
X21427001Y46505000D01*
X21425001Y46507000D01*
X21423001Y46508000D01*
X21421001Y46510000D01*
X21419001Y46511000D01*
X21417001Y46513000D01*
X21415001Y46515000D01*
X21413001Y46517000D01*
X21411001Y46519000D01*
X21410001Y46521000D01*
X21408001Y46523000D01*
X21407001Y46525000D01*
X21405001Y46527000D01*
X21404001Y46530000D01*
X21403001Y46532000D01*
X21402001Y46535000D01*
X21402001Y46537000D01*
X21401001Y46540000D01*
X21401001Y46542000D01*
X21400001Y46545000D01*
X21400001Y46547000D01*
X21400001Y46550000D01*
X21400001Y46700000D01*
X21400001Y46703000D01*
X21400001Y46705000D01*
X21401001Y46708000D01*
X21401001Y46710000D01*
X21402001Y46713000D01*
X21402001Y46715000D01*
X21403001Y46718000D01*
X21404001Y46720000D01*
X21405001Y46723000D01*
X21407001Y46725000D01*
X21408001Y46727000D01*
X21410001Y46729000D01*
X21411001Y46731000D01*
X21413001Y46733000D01*
X21415001Y46735000D01*
X21417001Y46737000D01*
X21419001Y46739000D01*
X21421001Y46740000D01*
X21423001Y46742000D01*
X21425001Y46743000D01*
X21427001Y46745000D01*
X21430001Y46746000D01*
X21432001Y46747000D01*
X21435001Y46748000D01*
X21437001Y46748000D01*
X21440001Y46749000D01*
X21442001Y46749000D01*
X21445001Y46750000D01*
X21447001Y46750000D01*
X21450001Y46750000D01*
X23050001Y46750000D01*
X23053001Y46750000D01*
X23055001Y46750000D01*
X23058001Y46749000D01*
G37*
X23160001Y48374000D02*
X23166001Y48374000D01*
X23171001Y48373000D01*
X23176001Y48372000D01*
X23181001Y48370000D01*
X23186001Y48368000D01*
X23191001Y48366000D01*
X23195001Y48364000D01*
X23200001Y48362000D01*
X23204001Y48359000D01*
X23209001Y48356000D01*
X23213001Y48353000D01*
X23217001Y48349000D01*
X23221001Y48346000D01*
X23224001Y48342000D01*
X23228001Y48338000D01*
X23231001Y48334000D01*
X23234001Y48329000D01*
X23237001Y48325000D01*
X23239001Y48320000D01*
X23241001Y48316000D01*
X23243001Y48311000D01*
X23245001Y48306000D01*
X23247001Y48301000D01*
X23248001Y48296000D01*
X23249001Y48291000D01*
X23249001Y48285000D01*
X23250001Y48280000D01*
X23250001Y48275000D01*
X23250001Y47775000D01*
X23250001Y47770000D01*
X23249001Y47765000D01*
X23249001Y47759000D01*
X23248001Y47754000D01*
X23247001Y47749000D01*
X23245001Y47744000D01*
X23243001Y47739000D01*
X23241001Y47734000D01*
X23239001Y47730000D01*
X23237001Y47725000D01*
X23234001Y47721000D01*
X23231001Y47716000D01*
X23228001Y47712000D01*
X23224001Y47708000D01*
X23221001Y47704000D01*
X23217001Y47701000D01*
X23213001Y47697000D01*
X23209001Y47694000D01*
X23204001Y47691000D01*
X23200001Y47688000D01*
X23195001Y47686000D01*
X23191001Y47684000D01*
X23186001Y47682000D01*
X23181001Y47680000D01*
X23176001Y47678000D01*
X23171001Y47677000D01*
X23166001Y47676000D01*
X23160001Y47676000D01*
X23155001Y47675000D01*
X23150001Y47675000D01*
X23000001Y47675000D01*
X22995001Y47675000D01*
X22990001Y47676000D01*
X22984001Y47676000D01*
X22979001Y47677000D01*
X22974001Y47678000D01*
X22969001Y47680000D01*
X22964001Y47682000D01*
X22959001Y47684000D01*
X22955001Y47686000D01*
X22950001Y47688000D01*
X22946001Y47691000D01*
X22941001Y47694000D01*
X22937001Y47697000D01*
X22933001Y47701000D01*
X22929001Y47704000D01*
X22926001Y47708000D01*
X22922001Y47712000D01*
X22919001Y47716000D01*
X22916001Y47721000D01*
X22913001Y47725000D01*
X22911001Y47730000D01*
X22909001Y47734000D01*
X22907001Y47739000D01*
X22905001Y47744000D01*
X22903001Y47749000D01*
X22902001Y47754000D01*
X22901001Y47759000D01*
X22901001Y47765000D01*
X22900001Y47770000D01*
X22900001Y47775000D01*
X22900001Y48275000D01*
X22900001Y48280000D01*
X22901001Y48285000D01*
X22901001Y48291000D01*
X22902001Y48296000D01*
X22903001Y48301000D01*
X22905001Y48306000D01*
X22907001Y48311000D01*
X22909001Y48316000D01*
X22911001Y48320000D01*
X22913001Y48325000D01*
X22916001Y48329000D01*
X22919001Y48334000D01*
X22922001Y48338000D01*
X22926001Y48342000D01*
X22929001Y48346000D01*
X22933001Y48349000D01*
X22937001Y48353000D01*
X22941001Y48356000D01*
X22946001Y48359000D01*
X22950001Y48362000D01*
X22955001Y48364000D01*
X22959001Y48366000D01*
X22964001Y48368000D01*
X22969001Y48370000D01*
X22974001Y48372000D01*
X22979001Y48373000D01*
X22984001Y48374000D01*
X22990001Y48374000D01*
X22995001Y48375000D01*
X23000001Y48375000D01*
X23150001Y48375000D01*
X23155001Y48375000D01*
X23160001Y48374000D01*
G36*
X23160001Y48374000D02*
G01*
X23166001Y48374000D01*
X23171001Y48373000D01*
X23176001Y48372000D01*
X23181001Y48370000D01*
X23186001Y48368000D01*
X23191001Y48366000D01*
X23195001Y48364000D01*
X23200001Y48362000D01*
X23204001Y48359000D01*
X23209001Y48356000D01*
X23213001Y48353000D01*
X23217001Y48349000D01*
X23221001Y48346000D01*
X23224001Y48342000D01*
X23228001Y48338000D01*
X23231001Y48334000D01*
X23234001Y48329000D01*
X23237001Y48325000D01*
X23239001Y48320000D01*
X23241001Y48316000D01*
X23243001Y48311000D01*
X23245001Y48306000D01*
X23247001Y48301000D01*
X23248001Y48296000D01*
X23249001Y48291000D01*
X23249001Y48285000D01*
X23250001Y48280000D01*
X23250001Y48275000D01*
X23250001Y47775000D01*
X23250001Y47770000D01*
X23249001Y47765000D01*
X23249001Y47759000D01*
X23248001Y47754000D01*
X23247001Y47749000D01*
X23245001Y47744000D01*
X23243001Y47739000D01*
X23241001Y47734000D01*
X23239001Y47730000D01*
X23237001Y47725000D01*
X23234001Y47721000D01*
X23231001Y47716000D01*
X23228001Y47712000D01*
X23224001Y47708000D01*
X23221001Y47704000D01*
X23217001Y47701000D01*
X23213001Y47697000D01*
X23209001Y47694000D01*
X23204001Y47691000D01*
X23200001Y47688000D01*
X23195001Y47686000D01*
X23191001Y47684000D01*
X23186001Y47682000D01*
X23181001Y47680000D01*
X23176001Y47678000D01*
X23171001Y47677000D01*
X23166001Y47676000D01*
X23160001Y47676000D01*
X23155001Y47675000D01*
X23150001Y47675000D01*
X23000001Y47675000D01*
X22995001Y47675000D01*
X22990001Y47676000D01*
X22984001Y47676000D01*
X22979001Y47677000D01*
X22974001Y47678000D01*
X22969001Y47680000D01*
X22964001Y47682000D01*
X22959001Y47684000D01*
X22955001Y47686000D01*
X22950001Y47688000D01*
X22946001Y47691000D01*
X22941001Y47694000D01*
X22937001Y47697000D01*
X22933001Y47701000D01*
X22929001Y47704000D01*
X22926001Y47708000D01*
X22922001Y47712000D01*
X22919001Y47716000D01*
X22916001Y47721000D01*
X22913001Y47725000D01*
X22911001Y47730000D01*
X22909001Y47734000D01*
X22907001Y47739000D01*
X22905001Y47744000D01*
X22903001Y47749000D01*
X22902001Y47754000D01*
X22901001Y47759000D01*
X22901001Y47765000D01*
X22900001Y47770000D01*
X22900001Y47775000D01*
X22900001Y48275000D01*
X22900001Y48280000D01*
X22901001Y48285000D01*
X22901001Y48291000D01*
X22902001Y48296000D01*
X22903001Y48301000D01*
X22905001Y48306000D01*
X22907001Y48311000D01*
X22909001Y48316000D01*
X22911001Y48320000D01*
X22913001Y48325000D01*
X22916001Y48329000D01*
X22919001Y48334000D01*
X22922001Y48338000D01*
X22926001Y48342000D01*
X22929001Y48346000D01*
X22933001Y48349000D01*
X22937001Y48353000D01*
X22941001Y48356000D01*
X22946001Y48359000D01*
X22950001Y48362000D01*
X22955001Y48364000D01*
X22959001Y48366000D01*
X22964001Y48368000D01*
X22969001Y48370000D01*
X22974001Y48372000D01*
X22979001Y48373000D01*
X22984001Y48374000D01*
X22990001Y48374000D01*
X22995001Y48375000D01*
X23000001Y48375000D01*
X23150001Y48375000D01*
X23155001Y48375000D01*
X23160001Y48374000D01*
G37*
X23160001Y45574000D02*
X23166001Y45574000D01*
X23171001Y45573000D01*
X23176001Y45572000D01*
X23181001Y45570000D01*
X23186001Y45568000D01*
X23191001Y45566000D01*
X23195001Y45564000D01*
X23200001Y45562000D01*
X23204001Y45559000D01*
X23209001Y45556000D01*
X23213001Y45553000D01*
X23217001Y45549000D01*
X23221001Y45546000D01*
X23224001Y45542000D01*
X23228001Y45538000D01*
X23231001Y45534000D01*
X23234001Y45529000D01*
X23237001Y45525000D01*
X23239001Y45520000D01*
X23241001Y45516000D01*
X23243001Y45511000D01*
X23245001Y45506000D01*
X23247001Y45501000D01*
X23248001Y45496000D01*
X23249001Y45491000D01*
X23249001Y45485000D01*
X23250001Y45480000D01*
X23250001Y45475000D01*
X23250001Y44975000D01*
X23250001Y44970000D01*
X23249001Y44965000D01*
X23249001Y44959000D01*
X23248001Y44954000D01*
X23247001Y44949000D01*
X23245001Y44944000D01*
X23243001Y44939000D01*
X23241001Y44934000D01*
X23239001Y44930000D01*
X23237001Y44925000D01*
X23234001Y44921000D01*
X23231001Y44916000D01*
X23228001Y44912000D01*
X23224001Y44908000D01*
X23221001Y44904000D01*
X23217001Y44901000D01*
X23213001Y44897000D01*
X23209001Y44894000D01*
X23204001Y44891000D01*
X23200001Y44888000D01*
X23195001Y44886000D01*
X23191001Y44884000D01*
X23186001Y44882000D01*
X23181001Y44880000D01*
X23176001Y44878000D01*
X23171001Y44877000D01*
X23166001Y44876000D01*
X23160001Y44876000D01*
X23155001Y44875000D01*
X23150001Y44875000D01*
X23000001Y44875000D01*
X22995001Y44875000D01*
X22990001Y44876000D01*
X22984001Y44876000D01*
X22979001Y44877000D01*
X22974001Y44878000D01*
X22969001Y44880000D01*
X22964001Y44882000D01*
X22959001Y44884000D01*
X22955001Y44886000D01*
X22950001Y44888000D01*
X22946001Y44891000D01*
X22941001Y44894000D01*
X22937001Y44897000D01*
X22933001Y44901000D01*
X22929001Y44904000D01*
X22926001Y44908000D01*
X22922001Y44912000D01*
X22919001Y44916000D01*
X22916001Y44921000D01*
X22913001Y44925000D01*
X22911001Y44930000D01*
X22909001Y44934000D01*
X22907001Y44939000D01*
X22905001Y44944000D01*
X22903001Y44949000D01*
X22902001Y44954000D01*
X22901001Y44959000D01*
X22901001Y44965000D01*
X22900001Y44970000D01*
X22900001Y44975000D01*
X22900001Y45475000D01*
X22900001Y45480000D01*
X22901001Y45485000D01*
X22901001Y45491000D01*
X22902001Y45496000D01*
X22903001Y45501000D01*
X22905001Y45506000D01*
X22907001Y45511000D01*
X22909001Y45516000D01*
X22911001Y45520000D01*
X22913001Y45525000D01*
X22916001Y45529000D01*
X22919001Y45534000D01*
X22922001Y45538000D01*
X22926001Y45542000D01*
X22929001Y45546000D01*
X22933001Y45549000D01*
X22937001Y45553000D01*
X22941001Y45556000D01*
X22946001Y45559000D01*
X22950001Y45562000D01*
X22955001Y45564000D01*
X22959001Y45566000D01*
X22964001Y45568000D01*
X22969001Y45570000D01*
X22974001Y45572000D01*
X22979001Y45573000D01*
X22984001Y45574000D01*
X22990001Y45574000D01*
X22995001Y45575000D01*
X23000001Y45575000D01*
X23150001Y45575000D01*
X23155001Y45575000D01*
X23160001Y45574000D01*
G36*
X23160001Y45574000D02*
G01*
X23166001Y45574000D01*
X23171001Y45573000D01*
X23176001Y45572000D01*
X23181001Y45570000D01*
X23186001Y45568000D01*
X23191001Y45566000D01*
X23195001Y45564000D01*
X23200001Y45562000D01*
X23204001Y45559000D01*
X23209001Y45556000D01*
X23213001Y45553000D01*
X23217001Y45549000D01*
X23221001Y45546000D01*
X23224001Y45542000D01*
X23228001Y45538000D01*
X23231001Y45534000D01*
X23234001Y45529000D01*
X23237001Y45525000D01*
X23239001Y45520000D01*
X23241001Y45516000D01*
X23243001Y45511000D01*
X23245001Y45506000D01*
X23247001Y45501000D01*
X23248001Y45496000D01*
X23249001Y45491000D01*
X23249001Y45485000D01*
X23250001Y45480000D01*
X23250001Y45475000D01*
X23250001Y44975000D01*
X23250001Y44970000D01*
X23249001Y44965000D01*
X23249001Y44959000D01*
X23248001Y44954000D01*
X23247001Y44949000D01*
X23245001Y44944000D01*
X23243001Y44939000D01*
X23241001Y44934000D01*
X23239001Y44930000D01*
X23237001Y44925000D01*
X23234001Y44921000D01*
X23231001Y44916000D01*
X23228001Y44912000D01*
X23224001Y44908000D01*
X23221001Y44904000D01*
X23217001Y44901000D01*
X23213001Y44897000D01*
X23209001Y44894000D01*
X23204001Y44891000D01*
X23200001Y44888000D01*
X23195001Y44886000D01*
X23191001Y44884000D01*
X23186001Y44882000D01*
X23181001Y44880000D01*
X23176001Y44878000D01*
X23171001Y44877000D01*
X23166001Y44876000D01*
X23160001Y44876000D01*
X23155001Y44875000D01*
X23150001Y44875000D01*
X23000001Y44875000D01*
X22995001Y44875000D01*
X22990001Y44876000D01*
X22984001Y44876000D01*
X22979001Y44877000D01*
X22974001Y44878000D01*
X22969001Y44880000D01*
X22964001Y44882000D01*
X22959001Y44884000D01*
X22955001Y44886000D01*
X22950001Y44888000D01*
X22946001Y44891000D01*
X22941001Y44894000D01*
X22937001Y44897000D01*
X22933001Y44901000D01*
X22929001Y44904000D01*
X22926001Y44908000D01*
X22922001Y44912000D01*
X22919001Y44916000D01*
X22916001Y44921000D01*
X22913001Y44925000D01*
X22911001Y44930000D01*
X22909001Y44934000D01*
X22907001Y44939000D01*
X22905001Y44944000D01*
X22903001Y44949000D01*
X22902001Y44954000D01*
X22901001Y44959000D01*
X22901001Y44965000D01*
X22900001Y44970000D01*
X22900001Y44975000D01*
X22900001Y45475000D01*
X22900001Y45480000D01*
X22901001Y45485000D01*
X22901001Y45491000D01*
X22902001Y45496000D01*
X22903001Y45501000D01*
X22905001Y45506000D01*
X22907001Y45511000D01*
X22909001Y45516000D01*
X22911001Y45520000D01*
X22913001Y45525000D01*
X22916001Y45529000D01*
X22919001Y45534000D01*
X22922001Y45538000D01*
X22926001Y45542000D01*
X22929001Y45546000D01*
X22933001Y45549000D01*
X22937001Y45553000D01*
X22941001Y45556000D01*
X22946001Y45559000D01*
X22950001Y45562000D01*
X22955001Y45564000D01*
X22959001Y45566000D01*
X22964001Y45568000D01*
X22969001Y45570000D01*
X22974001Y45572000D01*
X22979001Y45573000D01*
X22984001Y45574000D01*
X22990001Y45574000D01*
X22995001Y45575000D01*
X23000001Y45575000D01*
X23150001Y45575000D01*
X23155001Y45575000D01*
X23160001Y45574000D01*
G37*
X23660001Y48374000D02*
X23666001Y48374000D01*
X23671001Y48373000D01*
X23676001Y48372000D01*
X23681001Y48370000D01*
X23686001Y48368000D01*
X23691001Y48366000D01*
X23695001Y48364000D01*
X23700001Y48362000D01*
X23704001Y48359000D01*
X23709001Y48356000D01*
X23713001Y48353000D01*
X23717001Y48349000D01*
X23721001Y48346000D01*
X23724001Y48342000D01*
X23728001Y48338000D01*
X23731001Y48334000D01*
X23734001Y48329000D01*
X23737001Y48325000D01*
X23739001Y48320000D01*
X23741001Y48316000D01*
X23743001Y48311000D01*
X23745001Y48306000D01*
X23747001Y48301000D01*
X23748001Y48296000D01*
X23749001Y48291000D01*
X23749001Y48285000D01*
X23750001Y48280000D01*
X23750001Y48275000D01*
X23750001Y47775000D01*
X23750001Y47770000D01*
X23749001Y47765000D01*
X23749001Y47759000D01*
X23748001Y47754000D01*
X23747001Y47749000D01*
X23745001Y47744000D01*
X23743001Y47739000D01*
X23741001Y47734000D01*
X23739001Y47730000D01*
X23737001Y47725000D01*
X23734001Y47721000D01*
X23731001Y47716000D01*
X23728001Y47712000D01*
X23724001Y47708000D01*
X23721001Y47704000D01*
X23717001Y47701000D01*
X23713001Y47697000D01*
X23709001Y47694000D01*
X23704001Y47691000D01*
X23700001Y47688000D01*
X23695001Y47686000D01*
X23691001Y47684000D01*
X23686001Y47682000D01*
X23681001Y47680000D01*
X23676001Y47678000D01*
X23671001Y47677000D01*
X23666001Y47676000D01*
X23660001Y47676000D01*
X23655001Y47675000D01*
X23650001Y47675000D01*
X23500001Y47675000D01*
X23495001Y47675000D01*
X23490001Y47676000D01*
X23484001Y47676000D01*
X23479001Y47677000D01*
X23474001Y47678000D01*
X23469001Y47680000D01*
X23464001Y47682000D01*
X23459001Y47684000D01*
X23455001Y47686000D01*
X23450001Y47688000D01*
X23446001Y47691000D01*
X23441001Y47694000D01*
X23437001Y47697000D01*
X23433001Y47701000D01*
X23429001Y47704000D01*
X23426001Y47708000D01*
X23422001Y47712000D01*
X23419001Y47716000D01*
X23416001Y47721000D01*
X23413001Y47725000D01*
X23411001Y47730000D01*
X23409001Y47734000D01*
X23407001Y47739000D01*
X23405001Y47744000D01*
X23403001Y47749000D01*
X23402001Y47754000D01*
X23401001Y47759000D01*
X23401001Y47765000D01*
X23400001Y47770000D01*
X23400001Y47775000D01*
X23400001Y48275000D01*
X23400001Y48280000D01*
X23401001Y48285000D01*
X23401001Y48291000D01*
X23402001Y48296000D01*
X23403001Y48301000D01*
X23405001Y48306000D01*
X23407001Y48311000D01*
X23409001Y48316000D01*
X23411001Y48320000D01*
X23413001Y48325000D01*
X23416001Y48329000D01*
X23419001Y48334000D01*
X23422001Y48338000D01*
X23426001Y48342000D01*
X23429001Y48346000D01*
X23433001Y48349000D01*
X23437001Y48353000D01*
X23441001Y48356000D01*
X23446001Y48359000D01*
X23450001Y48362000D01*
X23455001Y48364000D01*
X23459001Y48366000D01*
X23464001Y48368000D01*
X23469001Y48370000D01*
X23474001Y48372000D01*
X23479001Y48373000D01*
X23484001Y48374000D01*
X23490001Y48374000D01*
X23495001Y48375000D01*
X23500001Y48375000D01*
X23650001Y48375000D01*
X23655001Y48375000D01*
X23660001Y48374000D01*
G36*
X23660001Y48374000D02*
G01*
X23666001Y48374000D01*
X23671001Y48373000D01*
X23676001Y48372000D01*
X23681001Y48370000D01*
X23686001Y48368000D01*
X23691001Y48366000D01*
X23695001Y48364000D01*
X23700001Y48362000D01*
X23704001Y48359000D01*
X23709001Y48356000D01*
X23713001Y48353000D01*
X23717001Y48349000D01*
X23721001Y48346000D01*
X23724001Y48342000D01*
X23728001Y48338000D01*
X23731001Y48334000D01*
X23734001Y48329000D01*
X23737001Y48325000D01*
X23739001Y48320000D01*
X23741001Y48316000D01*
X23743001Y48311000D01*
X23745001Y48306000D01*
X23747001Y48301000D01*
X23748001Y48296000D01*
X23749001Y48291000D01*
X23749001Y48285000D01*
X23750001Y48280000D01*
X23750001Y48275000D01*
X23750001Y47775000D01*
X23750001Y47770000D01*
X23749001Y47765000D01*
X23749001Y47759000D01*
X23748001Y47754000D01*
X23747001Y47749000D01*
X23745001Y47744000D01*
X23743001Y47739000D01*
X23741001Y47734000D01*
X23739001Y47730000D01*
X23737001Y47725000D01*
X23734001Y47721000D01*
X23731001Y47716000D01*
X23728001Y47712000D01*
X23724001Y47708000D01*
X23721001Y47704000D01*
X23717001Y47701000D01*
X23713001Y47697000D01*
X23709001Y47694000D01*
X23704001Y47691000D01*
X23700001Y47688000D01*
X23695001Y47686000D01*
X23691001Y47684000D01*
X23686001Y47682000D01*
X23681001Y47680000D01*
X23676001Y47678000D01*
X23671001Y47677000D01*
X23666001Y47676000D01*
X23660001Y47676000D01*
X23655001Y47675000D01*
X23650001Y47675000D01*
X23500001Y47675000D01*
X23495001Y47675000D01*
X23490001Y47676000D01*
X23484001Y47676000D01*
X23479001Y47677000D01*
X23474001Y47678000D01*
X23469001Y47680000D01*
X23464001Y47682000D01*
X23459001Y47684000D01*
X23455001Y47686000D01*
X23450001Y47688000D01*
X23446001Y47691000D01*
X23441001Y47694000D01*
X23437001Y47697000D01*
X23433001Y47701000D01*
X23429001Y47704000D01*
X23426001Y47708000D01*
X23422001Y47712000D01*
X23419001Y47716000D01*
X23416001Y47721000D01*
X23413001Y47725000D01*
X23411001Y47730000D01*
X23409001Y47734000D01*
X23407001Y47739000D01*
X23405001Y47744000D01*
X23403001Y47749000D01*
X23402001Y47754000D01*
X23401001Y47759000D01*
X23401001Y47765000D01*
X23400001Y47770000D01*
X23400001Y47775000D01*
X23400001Y48275000D01*
X23400001Y48280000D01*
X23401001Y48285000D01*
X23401001Y48291000D01*
X23402001Y48296000D01*
X23403001Y48301000D01*
X23405001Y48306000D01*
X23407001Y48311000D01*
X23409001Y48316000D01*
X23411001Y48320000D01*
X23413001Y48325000D01*
X23416001Y48329000D01*
X23419001Y48334000D01*
X23422001Y48338000D01*
X23426001Y48342000D01*
X23429001Y48346000D01*
X23433001Y48349000D01*
X23437001Y48353000D01*
X23441001Y48356000D01*
X23446001Y48359000D01*
X23450001Y48362000D01*
X23455001Y48364000D01*
X23459001Y48366000D01*
X23464001Y48368000D01*
X23469001Y48370000D01*
X23474001Y48372000D01*
X23479001Y48373000D01*
X23484001Y48374000D01*
X23490001Y48374000D01*
X23495001Y48375000D01*
X23500001Y48375000D01*
X23650001Y48375000D01*
X23655001Y48375000D01*
X23660001Y48374000D01*
G37*
X24260001Y47549000D02*
X24266001Y47549000D01*
X24271001Y47548000D01*
X24276001Y47547000D01*
X24281001Y47545000D01*
X24286001Y47543000D01*
X24291001Y47541000D01*
X24295001Y47539000D01*
X24300001Y47537000D01*
X24304001Y47534000D01*
X24309001Y47531000D01*
X24313001Y47528000D01*
X24317001Y47524000D01*
X24321001Y47521000D01*
X24324001Y47517000D01*
X24328001Y47513000D01*
X24331001Y47509000D01*
X24334001Y47504000D01*
X24337001Y47500000D01*
X24339001Y47495000D01*
X24341001Y47491000D01*
X24343001Y47486000D01*
X24345001Y47481000D01*
X24347001Y47476000D01*
X24348001Y47471000D01*
X24349001Y47466000D01*
X24349001Y47460000D01*
X24350001Y47455000D01*
X24350001Y47450000D01*
X24350001Y47300000D01*
X24350001Y47295000D01*
X24349001Y47290000D01*
X24349001Y47284000D01*
X24348001Y47279000D01*
X24347001Y47274000D01*
X24345001Y47269000D01*
X24343001Y47264000D01*
X24341001Y47259000D01*
X24339001Y47255000D01*
X24337001Y47250000D01*
X24334001Y47246000D01*
X24331001Y47241000D01*
X24328001Y47237000D01*
X24324001Y47233000D01*
X24321001Y47229000D01*
X24317001Y47226000D01*
X24313001Y47222000D01*
X24309001Y47219000D01*
X24304001Y47216000D01*
X24300001Y47213000D01*
X24295001Y47211000D01*
X24291001Y47209000D01*
X24286001Y47207000D01*
X24281001Y47205000D01*
X24276001Y47203000D01*
X24271001Y47202000D01*
X24266001Y47201000D01*
X24260001Y47201000D01*
X24255001Y47200000D01*
X24250001Y47200000D01*
X23750001Y47200000D01*
X23745001Y47200000D01*
X23740001Y47201000D01*
X23734001Y47201000D01*
X23729001Y47202000D01*
X23724001Y47203000D01*
X23719001Y47205000D01*
X23714001Y47207000D01*
X23709001Y47209000D01*
X23705001Y47211000D01*
X23700001Y47213000D01*
X23696001Y47216000D01*
X23691001Y47219000D01*
X23687001Y47222000D01*
X23683001Y47226000D01*
X23679001Y47229000D01*
X23676001Y47233000D01*
X23672001Y47237000D01*
X23669001Y47241000D01*
X23666001Y47246000D01*
X23663001Y47250000D01*
X23661001Y47255000D01*
X23659001Y47259000D01*
X23657001Y47264000D01*
X23655001Y47269000D01*
X23653001Y47274000D01*
X23652001Y47279000D01*
X23651001Y47284000D01*
X23651001Y47290000D01*
X23650001Y47295000D01*
X23650001Y47300000D01*
X23650001Y47450000D01*
X23650001Y47455000D01*
X23651001Y47460000D01*
X23651001Y47466000D01*
X23652001Y47471000D01*
X23653001Y47476000D01*
X23655001Y47481000D01*
X23657001Y47486000D01*
X23659001Y47491000D01*
X23661001Y47495000D01*
X23663001Y47500000D01*
X23666001Y47504000D01*
X23669001Y47509000D01*
X23672001Y47513000D01*
X23676001Y47517000D01*
X23679001Y47521000D01*
X23683001Y47524000D01*
X23687001Y47528000D01*
X23691001Y47531000D01*
X23696001Y47534000D01*
X23700001Y47537000D01*
X23705001Y47539000D01*
X23709001Y47541000D01*
X23714001Y47543000D01*
X23719001Y47545000D01*
X23724001Y47547000D01*
X23729001Y47548000D01*
X23734001Y47549000D01*
X23740001Y47549000D01*
X23745001Y47550000D01*
X23750001Y47550000D01*
X24250001Y47550000D01*
X24255001Y47550000D01*
X24260001Y47549000D01*
G36*
X24260001Y47549000D02*
G01*
X24266001Y47549000D01*
X24271001Y47548000D01*
X24276001Y47547000D01*
X24281001Y47545000D01*
X24286001Y47543000D01*
X24291001Y47541000D01*
X24295001Y47539000D01*
X24300001Y47537000D01*
X24304001Y47534000D01*
X24309001Y47531000D01*
X24313001Y47528000D01*
X24317001Y47524000D01*
X24321001Y47521000D01*
X24324001Y47517000D01*
X24328001Y47513000D01*
X24331001Y47509000D01*
X24334001Y47504000D01*
X24337001Y47500000D01*
X24339001Y47495000D01*
X24341001Y47491000D01*
X24343001Y47486000D01*
X24345001Y47481000D01*
X24347001Y47476000D01*
X24348001Y47471000D01*
X24349001Y47466000D01*
X24349001Y47460000D01*
X24350001Y47455000D01*
X24350001Y47450000D01*
X24350001Y47300000D01*
X24350001Y47295000D01*
X24349001Y47290000D01*
X24349001Y47284000D01*
X24348001Y47279000D01*
X24347001Y47274000D01*
X24345001Y47269000D01*
X24343001Y47264000D01*
X24341001Y47259000D01*
X24339001Y47255000D01*
X24337001Y47250000D01*
X24334001Y47246000D01*
X24331001Y47241000D01*
X24328001Y47237000D01*
X24324001Y47233000D01*
X24321001Y47229000D01*
X24317001Y47226000D01*
X24313001Y47222000D01*
X24309001Y47219000D01*
X24304001Y47216000D01*
X24300001Y47213000D01*
X24295001Y47211000D01*
X24291001Y47209000D01*
X24286001Y47207000D01*
X24281001Y47205000D01*
X24276001Y47203000D01*
X24271001Y47202000D01*
X24266001Y47201000D01*
X24260001Y47201000D01*
X24255001Y47200000D01*
X24250001Y47200000D01*
X23750001Y47200000D01*
X23745001Y47200000D01*
X23740001Y47201000D01*
X23734001Y47201000D01*
X23729001Y47202000D01*
X23724001Y47203000D01*
X23719001Y47205000D01*
X23714001Y47207000D01*
X23709001Y47209000D01*
X23705001Y47211000D01*
X23700001Y47213000D01*
X23696001Y47216000D01*
X23691001Y47219000D01*
X23687001Y47222000D01*
X23683001Y47226000D01*
X23679001Y47229000D01*
X23676001Y47233000D01*
X23672001Y47237000D01*
X23669001Y47241000D01*
X23666001Y47246000D01*
X23663001Y47250000D01*
X23661001Y47255000D01*
X23659001Y47259000D01*
X23657001Y47264000D01*
X23655001Y47269000D01*
X23653001Y47274000D01*
X23652001Y47279000D01*
X23651001Y47284000D01*
X23651001Y47290000D01*
X23650001Y47295000D01*
X23650001Y47300000D01*
X23650001Y47450000D01*
X23650001Y47455000D01*
X23651001Y47460000D01*
X23651001Y47466000D01*
X23652001Y47471000D01*
X23653001Y47476000D01*
X23655001Y47481000D01*
X23657001Y47486000D01*
X23659001Y47491000D01*
X23661001Y47495000D01*
X23663001Y47500000D01*
X23666001Y47504000D01*
X23669001Y47509000D01*
X23672001Y47513000D01*
X23676001Y47517000D01*
X23679001Y47521000D01*
X23683001Y47524000D01*
X23687001Y47528000D01*
X23691001Y47531000D01*
X23696001Y47534000D01*
X23700001Y47537000D01*
X23705001Y47539000D01*
X23709001Y47541000D01*
X23714001Y47543000D01*
X23719001Y47545000D01*
X23724001Y47547000D01*
X23729001Y47548000D01*
X23734001Y47549000D01*
X23740001Y47549000D01*
X23745001Y47550000D01*
X23750001Y47550000D01*
X24250001Y47550000D01*
X24255001Y47550000D01*
X24260001Y47549000D01*
G37*
X24260001Y47049000D02*
X24266001Y47049000D01*
X24271001Y47048000D01*
X24276001Y47047000D01*
X24281001Y47045000D01*
X24286001Y47043000D01*
X24291001Y47041000D01*
X24295001Y47039000D01*
X24300001Y47037000D01*
X24304001Y47034000D01*
X24309001Y47031000D01*
X24313001Y47028000D01*
X24317001Y47024000D01*
X24321001Y47021000D01*
X24324001Y47017000D01*
X24328001Y47013000D01*
X24331001Y47009000D01*
X24334001Y47004000D01*
X24337001Y47000000D01*
X24339001Y46995000D01*
X24341001Y46991000D01*
X24343001Y46986000D01*
X24345001Y46981000D01*
X24347001Y46976000D01*
X24348001Y46971000D01*
X24349001Y46966000D01*
X24349001Y46960000D01*
X24350001Y46955000D01*
X24350001Y46950000D01*
X24350001Y46800000D01*
X24350001Y46795000D01*
X24349001Y46790000D01*
X24349001Y46784000D01*
X24348001Y46779000D01*
X24347001Y46774000D01*
X24345001Y46769000D01*
X24343001Y46764000D01*
X24341001Y46759000D01*
X24339001Y46755000D01*
X24337001Y46750000D01*
X24334001Y46746000D01*
X24331001Y46741000D01*
X24328001Y46737000D01*
X24324001Y46733000D01*
X24321001Y46729000D01*
X24317001Y46726000D01*
X24313001Y46722000D01*
X24309001Y46719000D01*
X24304001Y46716000D01*
X24300001Y46713000D01*
X24295001Y46711000D01*
X24291001Y46709000D01*
X24286001Y46707000D01*
X24281001Y46705000D01*
X24276001Y46703000D01*
X24271001Y46702000D01*
X24266001Y46701000D01*
X24260001Y46701000D01*
X24255001Y46700000D01*
X24250001Y46700000D01*
X23750001Y46700000D01*
X23745001Y46700000D01*
X23740001Y46701000D01*
X23734001Y46701000D01*
X23729001Y46702000D01*
X23724001Y46703000D01*
X23719001Y46705000D01*
X23714001Y46707000D01*
X23709001Y46709000D01*
X23705001Y46711000D01*
X23700001Y46713000D01*
X23696001Y46716000D01*
X23691001Y46719000D01*
X23687001Y46722000D01*
X23683001Y46726000D01*
X23679001Y46729000D01*
X23676001Y46733000D01*
X23672001Y46737000D01*
X23669001Y46741000D01*
X23666001Y46746000D01*
X23663001Y46750000D01*
X23661001Y46755000D01*
X23659001Y46759000D01*
X23657001Y46764000D01*
X23655001Y46769000D01*
X23653001Y46774000D01*
X23652001Y46779000D01*
X23651001Y46784000D01*
X23651001Y46790000D01*
X23650001Y46795000D01*
X23650001Y46800000D01*
X23650001Y46950000D01*
X23650001Y46955000D01*
X23651001Y46960000D01*
X23651001Y46966000D01*
X23652001Y46971000D01*
X23653001Y46976000D01*
X23655001Y46981000D01*
X23657001Y46986000D01*
X23659001Y46991000D01*
X23661001Y46995000D01*
X23663001Y47000000D01*
X23666001Y47004000D01*
X23669001Y47009000D01*
X23672001Y47013000D01*
X23676001Y47017000D01*
X23679001Y47021000D01*
X23683001Y47024000D01*
X23687001Y47028000D01*
X23691001Y47031000D01*
X23696001Y47034000D01*
X23700001Y47037000D01*
X23705001Y47039000D01*
X23709001Y47041000D01*
X23714001Y47043000D01*
X23719001Y47045000D01*
X23724001Y47047000D01*
X23729001Y47048000D01*
X23734001Y47049000D01*
X23740001Y47049000D01*
X23745001Y47050000D01*
X23750001Y47050000D01*
X24250001Y47050000D01*
X24255001Y47050000D01*
X24260001Y47049000D01*
G36*
X24260001Y47049000D02*
G01*
X24266001Y47049000D01*
X24271001Y47048000D01*
X24276001Y47047000D01*
X24281001Y47045000D01*
X24286001Y47043000D01*
X24291001Y47041000D01*
X24295001Y47039000D01*
X24300001Y47037000D01*
X24304001Y47034000D01*
X24309001Y47031000D01*
X24313001Y47028000D01*
X24317001Y47024000D01*
X24321001Y47021000D01*
X24324001Y47017000D01*
X24328001Y47013000D01*
X24331001Y47009000D01*
X24334001Y47004000D01*
X24337001Y47000000D01*
X24339001Y46995000D01*
X24341001Y46991000D01*
X24343001Y46986000D01*
X24345001Y46981000D01*
X24347001Y46976000D01*
X24348001Y46971000D01*
X24349001Y46966000D01*
X24349001Y46960000D01*
X24350001Y46955000D01*
X24350001Y46950000D01*
X24350001Y46800000D01*
X24350001Y46795000D01*
X24349001Y46790000D01*
X24349001Y46784000D01*
X24348001Y46779000D01*
X24347001Y46774000D01*
X24345001Y46769000D01*
X24343001Y46764000D01*
X24341001Y46759000D01*
X24339001Y46755000D01*
X24337001Y46750000D01*
X24334001Y46746000D01*
X24331001Y46741000D01*
X24328001Y46737000D01*
X24324001Y46733000D01*
X24321001Y46729000D01*
X24317001Y46726000D01*
X24313001Y46722000D01*
X24309001Y46719000D01*
X24304001Y46716000D01*
X24300001Y46713000D01*
X24295001Y46711000D01*
X24291001Y46709000D01*
X24286001Y46707000D01*
X24281001Y46705000D01*
X24276001Y46703000D01*
X24271001Y46702000D01*
X24266001Y46701000D01*
X24260001Y46701000D01*
X24255001Y46700000D01*
X24250001Y46700000D01*
X23750001Y46700000D01*
X23745001Y46700000D01*
X23740001Y46701000D01*
X23734001Y46701000D01*
X23729001Y46702000D01*
X23724001Y46703000D01*
X23719001Y46705000D01*
X23714001Y46707000D01*
X23709001Y46709000D01*
X23705001Y46711000D01*
X23700001Y46713000D01*
X23696001Y46716000D01*
X23691001Y46719000D01*
X23687001Y46722000D01*
X23683001Y46726000D01*
X23679001Y46729000D01*
X23676001Y46733000D01*
X23672001Y46737000D01*
X23669001Y46741000D01*
X23666001Y46746000D01*
X23663001Y46750000D01*
X23661001Y46755000D01*
X23659001Y46759000D01*
X23657001Y46764000D01*
X23655001Y46769000D01*
X23653001Y46774000D01*
X23652001Y46779000D01*
X23651001Y46784000D01*
X23651001Y46790000D01*
X23650001Y46795000D01*
X23650001Y46800000D01*
X23650001Y46950000D01*
X23650001Y46955000D01*
X23651001Y46960000D01*
X23651001Y46966000D01*
X23652001Y46971000D01*
X23653001Y46976000D01*
X23655001Y46981000D01*
X23657001Y46986000D01*
X23659001Y46991000D01*
X23661001Y46995000D01*
X23663001Y47000000D01*
X23666001Y47004000D01*
X23669001Y47009000D01*
X23672001Y47013000D01*
X23676001Y47017000D01*
X23679001Y47021000D01*
X23683001Y47024000D01*
X23687001Y47028000D01*
X23691001Y47031000D01*
X23696001Y47034000D01*
X23700001Y47037000D01*
X23705001Y47039000D01*
X23709001Y47041000D01*
X23714001Y47043000D01*
X23719001Y47045000D01*
X23724001Y47047000D01*
X23729001Y47048000D01*
X23734001Y47049000D01*
X23740001Y47049000D01*
X23745001Y47050000D01*
X23750001Y47050000D01*
X24250001Y47050000D01*
X24255001Y47050000D01*
X24260001Y47049000D01*
G37*
X24260001Y46549000D02*
X24266001Y46549000D01*
X24271001Y46548000D01*
X24276001Y46547000D01*
X24281001Y46545000D01*
X24286001Y46543000D01*
X24291001Y46541000D01*
X24295001Y46539000D01*
X24300001Y46537000D01*
X24304001Y46534000D01*
X24309001Y46531000D01*
X24313001Y46528000D01*
X24317001Y46524000D01*
X24321001Y46521000D01*
X24324001Y46517000D01*
X24328001Y46513000D01*
X24331001Y46509000D01*
X24334001Y46504000D01*
X24337001Y46500000D01*
X24339001Y46495000D01*
X24341001Y46491000D01*
X24343001Y46486000D01*
X24345001Y46481000D01*
X24347001Y46476000D01*
X24348001Y46471000D01*
X24349001Y46466000D01*
X24349001Y46460000D01*
X24350001Y46455000D01*
X24350001Y46450000D01*
X24350001Y46300000D01*
X24350001Y46295000D01*
X24349001Y46290000D01*
X24349001Y46284000D01*
X24348001Y46279000D01*
X24347001Y46274000D01*
X24345001Y46269000D01*
X24343001Y46264000D01*
X24341001Y46259000D01*
X24339001Y46255000D01*
X24337001Y46250000D01*
X24334001Y46246000D01*
X24331001Y46241000D01*
X24328001Y46237000D01*
X24324001Y46233000D01*
X24321001Y46229000D01*
X24317001Y46226000D01*
X24313001Y46222000D01*
X24309001Y46219000D01*
X24304001Y46216000D01*
X24300001Y46213000D01*
X24295001Y46211000D01*
X24291001Y46209000D01*
X24286001Y46207000D01*
X24281001Y46205000D01*
X24276001Y46203000D01*
X24271001Y46202000D01*
X24266001Y46201000D01*
X24260001Y46201000D01*
X24255001Y46200000D01*
X24250001Y46200000D01*
X23750001Y46200000D01*
X23745001Y46200000D01*
X23740001Y46201000D01*
X23734001Y46201000D01*
X23729001Y46202000D01*
X23724001Y46203000D01*
X23719001Y46205000D01*
X23714001Y46207000D01*
X23709001Y46209000D01*
X23705001Y46211000D01*
X23700001Y46213000D01*
X23696001Y46216000D01*
X23691001Y46219000D01*
X23687001Y46222000D01*
X23683001Y46226000D01*
X23679001Y46229000D01*
X23676001Y46233000D01*
X23672001Y46237000D01*
X23669001Y46241000D01*
X23666001Y46246000D01*
X23663001Y46250000D01*
X23661001Y46255000D01*
X23659001Y46259000D01*
X23657001Y46264000D01*
X23655001Y46269000D01*
X23653001Y46274000D01*
X23652001Y46279000D01*
X23651001Y46284000D01*
X23651001Y46290000D01*
X23650001Y46295000D01*
X23650001Y46300000D01*
X23650001Y46450000D01*
X23650001Y46455000D01*
X23651001Y46460000D01*
X23651001Y46466000D01*
X23652001Y46471000D01*
X23653001Y46476000D01*
X23655001Y46481000D01*
X23657001Y46486000D01*
X23659001Y46491000D01*
X23661001Y46495000D01*
X23663001Y46500000D01*
X23666001Y46504000D01*
X23669001Y46509000D01*
X23672001Y46513000D01*
X23676001Y46517000D01*
X23679001Y46521000D01*
X23683001Y46524000D01*
X23687001Y46528000D01*
X23691001Y46531000D01*
X23696001Y46534000D01*
X23700001Y46537000D01*
X23705001Y46539000D01*
X23709001Y46541000D01*
X23714001Y46543000D01*
X23719001Y46545000D01*
X23724001Y46547000D01*
X23729001Y46548000D01*
X23734001Y46549000D01*
X23740001Y46549000D01*
X23745001Y46550000D01*
X23750001Y46550000D01*
X24250001Y46550000D01*
X24255001Y46550000D01*
X24260001Y46549000D01*
G36*
X24260001Y46549000D02*
G01*
X24266001Y46549000D01*
X24271001Y46548000D01*
X24276001Y46547000D01*
X24281001Y46545000D01*
X24286001Y46543000D01*
X24291001Y46541000D01*
X24295001Y46539000D01*
X24300001Y46537000D01*
X24304001Y46534000D01*
X24309001Y46531000D01*
X24313001Y46528000D01*
X24317001Y46524000D01*
X24321001Y46521000D01*
X24324001Y46517000D01*
X24328001Y46513000D01*
X24331001Y46509000D01*
X24334001Y46504000D01*
X24337001Y46500000D01*
X24339001Y46495000D01*
X24341001Y46491000D01*
X24343001Y46486000D01*
X24345001Y46481000D01*
X24347001Y46476000D01*
X24348001Y46471000D01*
X24349001Y46466000D01*
X24349001Y46460000D01*
X24350001Y46455000D01*
X24350001Y46450000D01*
X24350001Y46300000D01*
X24350001Y46295000D01*
X24349001Y46290000D01*
X24349001Y46284000D01*
X24348001Y46279000D01*
X24347001Y46274000D01*
X24345001Y46269000D01*
X24343001Y46264000D01*
X24341001Y46259000D01*
X24339001Y46255000D01*
X24337001Y46250000D01*
X24334001Y46246000D01*
X24331001Y46241000D01*
X24328001Y46237000D01*
X24324001Y46233000D01*
X24321001Y46229000D01*
X24317001Y46226000D01*
X24313001Y46222000D01*
X24309001Y46219000D01*
X24304001Y46216000D01*
X24300001Y46213000D01*
X24295001Y46211000D01*
X24291001Y46209000D01*
X24286001Y46207000D01*
X24281001Y46205000D01*
X24276001Y46203000D01*
X24271001Y46202000D01*
X24266001Y46201000D01*
X24260001Y46201000D01*
X24255001Y46200000D01*
X24250001Y46200000D01*
X23750001Y46200000D01*
X23745001Y46200000D01*
X23740001Y46201000D01*
X23734001Y46201000D01*
X23729001Y46202000D01*
X23724001Y46203000D01*
X23719001Y46205000D01*
X23714001Y46207000D01*
X23709001Y46209000D01*
X23705001Y46211000D01*
X23700001Y46213000D01*
X23696001Y46216000D01*
X23691001Y46219000D01*
X23687001Y46222000D01*
X23683001Y46226000D01*
X23679001Y46229000D01*
X23676001Y46233000D01*
X23672001Y46237000D01*
X23669001Y46241000D01*
X23666001Y46246000D01*
X23663001Y46250000D01*
X23661001Y46255000D01*
X23659001Y46259000D01*
X23657001Y46264000D01*
X23655001Y46269000D01*
X23653001Y46274000D01*
X23652001Y46279000D01*
X23651001Y46284000D01*
X23651001Y46290000D01*
X23650001Y46295000D01*
X23650001Y46300000D01*
X23650001Y46450000D01*
X23650001Y46455000D01*
X23651001Y46460000D01*
X23651001Y46466000D01*
X23652001Y46471000D01*
X23653001Y46476000D01*
X23655001Y46481000D01*
X23657001Y46486000D01*
X23659001Y46491000D01*
X23661001Y46495000D01*
X23663001Y46500000D01*
X23666001Y46504000D01*
X23669001Y46509000D01*
X23672001Y46513000D01*
X23676001Y46517000D01*
X23679001Y46521000D01*
X23683001Y46524000D01*
X23687001Y46528000D01*
X23691001Y46531000D01*
X23696001Y46534000D01*
X23700001Y46537000D01*
X23705001Y46539000D01*
X23709001Y46541000D01*
X23714001Y46543000D01*
X23719001Y46545000D01*
X23724001Y46547000D01*
X23729001Y46548000D01*
X23734001Y46549000D01*
X23740001Y46549000D01*
X23745001Y46550000D01*
X23750001Y46550000D01*
X24250001Y46550000D01*
X24255001Y46550000D01*
X24260001Y46549000D01*
G37*
X24260001Y46049000D02*
X24266001Y46049000D01*
X24271001Y46048000D01*
X24276001Y46047000D01*
X24281001Y46045000D01*
X24286001Y46043000D01*
X24291001Y46041000D01*
X24295001Y46039000D01*
X24300001Y46037000D01*
X24304001Y46034000D01*
X24309001Y46031000D01*
X24313001Y46028000D01*
X24317001Y46024000D01*
X24321001Y46021000D01*
X24324001Y46017000D01*
X24328001Y46013000D01*
X24331001Y46009000D01*
X24334001Y46004000D01*
X24337001Y46000000D01*
X24339001Y45995000D01*
X24341001Y45991000D01*
X24343001Y45986000D01*
X24345001Y45981000D01*
X24347001Y45976000D01*
X24348001Y45971000D01*
X24349001Y45966000D01*
X24349001Y45960000D01*
X24350001Y45955000D01*
X24350001Y45950000D01*
X24350001Y45800000D01*
X24350001Y45795000D01*
X24349001Y45790000D01*
X24349001Y45784000D01*
X24348001Y45779000D01*
X24347001Y45774000D01*
X24345001Y45769000D01*
X24343001Y45764000D01*
X24341001Y45759000D01*
X24339001Y45755000D01*
X24337001Y45750000D01*
X24334001Y45746000D01*
X24331001Y45741000D01*
X24328001Y45737000D01*
X24324001Y45733000D01*
X24321001Y45729000D01*
X24317001Y45726000D01*
X24313001Y45722000D01*
X24309001Y45719000D01*
X24304001Y45716000D01*
X24300001Y45713000D01*
X24295001Y45711000D01*
X24291001Y45709000D01*
X24286001Y45707000D01*
X24281001Y45705000D01*
X24276001Y45703000D01*
X24271001Y45702000D01*
X24266001Y45701000D01*
X24260001Y45701000D01*
X24255001Y45700000D01*
X24250001Y45700000D01*
X23750001Y45700000D01*
X23745001Y45700000D01*
X23740001Y45701000D01*
X23734001Y45701000D01*
X23729001Y45702000D01*
X23724001Y45703000D01*
X23719001Y45705000D01*
X23714001Y45707000D01*
X23709001Y45709000D01*
X23705001Y45711000D01*
X23700001Y45713000D01*
X23696001Y45716000D01*
X23691001Y45719000D01*
X23687001Y45722000D01*
X23683001Y45726000D01*
X23679001Y45729000D01*
X23676001Y45733000D01*
X23672001Y45737000D01*
X23669001Y45741000D01*
X23666001Y45746000D01*
X23663001Y45750000D01*
X23661001Y45755000D01*
X23659001Y45759000D01*
X23657001Y45764000D01*
X23655001Y45769000D01*
X23653001Y45774000D01*
X23652001Y45779000D01*
X23651001Y45784000D01*
X23651001Y45790000D01*
X23650001Y45795000D01*
X23650001Y45800000D01*
X23650001Y45950000D01*
X23650001Y45955000D01*
X23651001Y45960000D01*
X23651001Y45966000D01*
X23652001Y45971000D01*
X23653001Y45976000D01*
X23655001Y45981000D01*
X23657001Y45986000D01*
X23659001Y45991000D01*
X23661001Y45995000D01*
X23663001Y46000000D01*
X23666001Y46004000D01*
X23669001Y46009000D01*
X23672001Y46013000D01*
X23676001Y46017000D01*
X23679001Y46021000D01*
X23683001Y46024000D01*
X23687001Y46028000D01*
X23691001Y46031000D01*
X23696001Y46034000D01*
X23700001Y46037000D01*
X23705001Y46039000D01*
X23709001Y46041000D01*
X23714001Y46043000D01*
X23719001Y46045000D01*
X23724001Y46047000D01*
X23729001Y46048000D01*
X23734001Y46049000D01*
X23740001Y46049000D01*
X23745001Y46050000D01*
X23750001Y46050000D01*
X24250001Y46050000D01*
X24255001Y46050000D01*
X24260001Y46049000D01*
G36*
X24260001Y46049000D02*
G01*
X24266001Y46049000D01*
X24271001Y46048000D01*
X24276001Y46047000D01*
X24281001Y46045000D01*
X24286001Y46043000D01*
X24291001Y46041000D01*
X24295001Y46039000D01*
X24300001Y46037000D01*
X24304001Y46034000D01*
X24309001Y46031000D01*
X24313001Y46028000D01*
X24317001Y46024000D01*
X24321001Y46021000D01*
X24324001Y46017000D01*
X24328001Y46013000D01*
X24331001Y46009000D01*
X24334001Y46004000D01*
X24337001Y46000000D01*
X24339001Y45995000D01*
X24341001Y45991000D01*
X24343001Y45986000D01*
X24345001Y45981000D01*
X24347001Y45976000D01*
X24348001Y45971000D01*
X24349001Y45966000D01*
X24349001Y45960000D01*
X24350001Y45955000D01*
X24350001Y45950000D01*
X24350001Y45800000D01*
X24350001Y45795000D01*
X24349001Y45790000D01*
X24349001Y45784000D01*
X24348001Y45779000D01*
X24347001Y45774000D01*
X24345001Y45769000D01*
X24343001Y45764000D01*
X24341001Y45759000D01*
X24339001Y45755000D01*
X24337001Y45750000D01*
X24334001Y45746000D01*
X24331001Y45741000D01*
X24328001Y45737000D01*
X24324001Y45733000D01*
X24321001Y45729000D01*
X24317001Y45726000D01*
X24313001Y45722000D01*
X24309001Y45719000D01*
X24304001Y45716000D01*
X24300001Y45713000D01*
X24295001Y45711000D01*
X24291001Y45709000D01*
X24286001Y45707000D01*
X24281001Y45705000D01*
X24276001Y45703000D01*
X24271001Y45702000D01*
X24266001Y45701000D01*
X24260001Y45701000D01*
X24255001Y45700000D01*
X24250001Y45700000D01*
X23750001Y45700000D01*
X23745001Y45700000D01*
X23740001Y45701000D01*
X23734001Y45701000D01*
X23729001Y45702000D01*
X23724001Y45703000D01*
X23719001Y45705000D01*
X23714001Y45707000D01*
X23709001Y45709000D01*
X23705001Y45711000D01*
X23700001Y45713000D01*
X23696001Y45716000D01*
X23691001Y45719000D01*
X23687001Y45722000D01*
X23683001Y45726000D01*
X23679001Y45729000D01*
X23676001Y45733000D01*
X23672001Y45737000D01*
X23669001Y45741000D01*
X23666001Y45746000D01*
X23663001Y45750000D01*
X23661001Y45755000D01*
X23659001Y45759000D01*
X23657001Y45764000D01*
X23655001Y45769000D01*
X23653001Y45774000D01*
X23652001Y45779000D01*
X23651001Y45784000D01*
X23651001Y45790000D01*
X23650001Y45795000D01*
X23650001Y45800000D01*
X23650001Y45950000D01*
X23650001Y45955000D01*
X23651001Y45960000D01*
X23651001Y45966000D01*
X23652001Y45971000D01*
X23653001Y45976000D01*
X23655001Y45981000D01*
X23657001Y45986000D01*
X23659001Y45991000D01*
X23661001Y45995000D01*
X23663001Y46000000D01*
X23666001Y46004000D01*
X23669001Y46009000D01*
X23672001Y46013000D01*
X23676001Y46017000D01*
X23679001Y46021000D01*
X23683001Y46024000D01*
X23687001Y46028000D01*
X23691001Y46031000D01*
X23696001Y46034000D01*
X23700001Y46037000D01*
X23705001Y46039000D01*
X23709001Y46041000D01*
X23714001Y46043000D01*
X23719001Y46045000D01*
X23724001Y46047000D01*
X23729001Y46048000D01*
X23734001Y46049000D01*
X23740001Y46049000D01*
X23745001Y46050000D01*
X23750001Y46050000D01*
X24250001Y46050000D01*
X24255001Y46050000D01*
X24260001Y46049000D01*
G37*
X23660001Y45574000D02*
X23666001Y45574000D01*
X23671001Y45573000D01*
X23676001Y45572000D01*
X23681001Y45570000D01*
X23686001Y45568000D01*
X23691001Y45566000D01*
X23695001Y45564000D01*
X23700001Y45562000D01*
X23704001Y45559000D01*
X23709001Y45556000D01*
X23713001Y45553000D01*
X23717001Y45549000D01*
X23721001Y45546000D01*
X23724001Y45542000D01*
X23728001Y45538000D01*
X23731001Y45534000D01*
X23734001Y45529000D01*
X23737001Y45525000D01*
X23739001Y45520000D01*
X23741001Y45516000D01*
X23743001Y45511000D01*
X23745001Y45506000D01*
X23747001Y45501000D01*
X23748001Y45496000D01*
X23749001Y45491000D01*
X23749001Y45485000D01*
X23750001Y45480000D01*
X23750001Y45475000D01*
X23750001Y44975000D01*
X23750001Y44970000D01*
X23749001Y44965000D01*
X23749001Y44959000D01*
X23748001Y44954000D01*
X23747001Y44949000D01*
X23745001Y44944000D01*
X23743001Y44939000D01*
X23741001Y44934000D01*
X23739001Y44930000D01*
X23737001Y44925000D01*
X23734001Y44921000D01*
X23731001Y44916000D01*
X23728001Y44912000D01*
X23724001Y44908000D01*
X23721001Y44904000D01*
X23717001Y44901000D01*
X23713001Y44897000D01*
X23709001Y44894000D01*
X23704001Y44891000D01*
X23700001Y44888000D01*
X23695001Y44886000D01*
X23691001Y44884000D01*
X23686001Y44882000D01*
X23681001Y44880000D01*
X23676001Y44878000D01*
X23671001Y44877000D01*
X23666001Y44876000D01*
X23660001Y44876000D01*
X23655001Y44875000D01*
X23650001Y44875000D01*
X23500001Y44875000D01*
X23495001Y44875000D01*
X23490001Y44876000D01*
X23484001Y44876000D01*
X23479001Y44877000D01*
X23474001Y44878000D01*
X23469001Y44880000D01*
X23464001Y44882000D01*
X23459001Y44884000D01*
X23455001Y44886000D01*
X23450001Y44888000D01*
X23446001Y44891000D01*
X23441001Y44894000D01*
X23437001Y44897000D01*
X23433001Y44901000D01*
X23429001Y44904000D01*
X23426001Y44908000D01*
X23422001Y44912000D01*
X23419001Y44916000D01*
X23416001Y44921000D01*
X23413001Y44925000D01*
X23411001Y44930000D01*
X23409001Y44934000D01*
X23407001Y44939000D01*
X23405001Y44944000D01*
X23403001Y44949000D01*
X23402001Y44954000D01*
X23401001Y44959000D01*
X23401001Y44965000D01*
X23400001Y44970000D01*
X23400001Y44975000D01*
X23400001Y45475000D01*
X23400001Y45480000D01*
X23401001Y45485000D01*
X23401001Y45491000D01*
X23402001Y45496000D01*
X23403001Y45501000D01*
X23405001Y45506000D01*
X23407001Y45511000D01*
X23409001Y45516000D01*
X23411001Y45520000D01*
X23413001Y45525000D01*
X23416001Y45529000D01*
X23419001Y45534000D01*
X23422001Y45538000D01*
X23426001Y45542000D01*
X23429001Y45546000D01*
X23433001Y45549000D01*
X23437001Y45553000D01*
X23441001Y45556000D01*
X23446001Y45559000D01*
X23450001Y45562000D01*
X23455001Y45564000D01*
X23459001Y45566000D01*
X23464001Y45568000D01*
X23469001Y45570000D01*
X23474001Y45572000D01*
X23479001Y45573000D01*
X23484001Y45574000D01*
X23490001Y45574000D01*
X23495001Y45575000D01*
X23500001Y45575000D01*
X23650001Y45575000D01*
X23655001Y45575000D01*
X23660001Y45574000D01*
G36*
X23660001Y45574000D02*
G01*
X23666001Y45574000D01*
X23671001Y45573000D01*
X23676001Y45572000D01*
X23681001Y45570000D01*
X23686001Y45568000D01*
X23691001Y45566000D01*
X23695001Y45564000D01*
X23700001Y45562000D01*
X23704001Y45559000D01*
X23709001Y45556000D01*
X23713001Y45553000D01*
X23717001Y45549000D01*
X23721001Y45546000D01*
X23724001Y45542000D01*
X23728001Y45538000D01*
X23731001Y45534000D01*
X23734001Y45529000D01*
X23737001Y45525000D01*
X23739001Y45520000D01*
X23741001Y45516000D01*
X23743001Y45511000D01*
X23745001Y45506000D01*
X23747001Y45501000D01*
X23748001Y45496000D01*
X23749001Y45491000D01*
X23749001Y45485000D01*
X23750001Y45480000D01*
X23750001Y45475000D01*
X23750001Y44975000D01*
X23750001Y44970000D01*
X23749001Y44965000D01*
X23749001Y44959000D01*
X23748001Y44954000D01*
X23747001Y44949000D01*
X23745001Y44944000D01*
X23743001Y44939000D01*
X23741001Y44934000D01*
X23739001Y44930000D01*
X23737001Y44925000D01*
X23734001Y44921000D01*
X23731001Y44916000D01*
X23728001Y44912000D01*
X23724001Y44908000D01*
X23721001Y44904000D01*
X23717001Y44901000D01*
X23713001Y44897000D01*
X23709001Y44894000D01*
X23704001Y44891000D01*
X23700001Y44888000D01*
X23695001Y44886000D01*
X23691001Y44884000D01*
X23686001Y44882000D01*
X23681001Y44880000D01*
X23676001Y44878000D01*
X23671001Y44877000D01*
X23666001Y44876000D01*
X23660001Y44876000D01*
X23655001Y44875000D01*
X23650001Y44875000D01*
X23500001Y44875000D01*
X23495001Y44875000D01*
X23490001Y44876000D01*
X23484001Y44876000D01*
X23479001Y44877000D01*
X23474001Y44878000D01*
X23469001Y44880000D01*
X23464001Y44882000D01*
X23459001Y44884000D01*
X23455001Y44886000D01*
X23450001Y44888000D01*
X23446001Y44891000D01*
X23441001Y44894000D01*
X23437001Y44897000D01*
X23433001Y44901000D01*
X23429001Y44904000D01*
X23426001Y44908000D01*
X23422001Y44912000D01*
X23419001Y44916000D01*
X23416001Y44921000D01*
X23413001Y44925000D01*
X23411001Y44930000D01*
X23409001Y44934000D01*
X23407001Y44939000D01*
X23405001Y44944000D01*
X23403001Y44949000D01*
X23402001Y44954000D01*
X23401001Y44959000D01*
X23401001Y44965000D01*
X23400001Y44970000D01*
X23400001Y44975000D01*
X23400001Y45475000D01*
X23400001Y45480000D01*
X23401001Y45485000D01*
X23401001Y45491000D01*
X23402001Y45496000D01*
X23403001Y45501000D01*
X23405001Y45506000D01*
X23407001Y45511000D01*
X23409001Y45516000D01*
X23411001Y45520000D01*
X23413001Y45525000D01*
X23416001Y45529000D01*
X23419001Y45534000D01*
X23422001Y45538000D01*
X23426001Y45542000D01*
X23429001Y45546000D01*
X23433001Y45549000D01*
X23437001Y45553000D01*
X23441001Y45556000D01*
X23446001Y45559000D01*
X23450001Y45562000D01*
X23455001Y45564000D01*
X23459001Y45566000D01*
X23464001Y45568000D01*
X23469001Y45570000D01*
X23474001Y45572000D01*
X23479001Y45573000D01*
X23484001Y45574000D01*
X23490001Y45574000D01*
X23495001Y45575000D01*
X23500001Y45575000D01*
X23650001Y45575000D01*
X23655001Y45575000D01*
X23660001Y45574000D01*
G37*
X22158001Y48324000D02*
X22160001Y48324000D01*
X22163001Y48323000D01*
X22165001Y48323000D01*
X22168001Y48322000D01*
X22170001Y48321000D01*
X22173001Y48320000D01*
X22175001Y48318000D01*
X22177001Y48317000D01*
X22179001Y48315000D01*
X22181001Y48314000D01*
X22183001Y48312000D01*
X22185001Y48310000D01*
X22187001Y48308000D01*
X22189001Y48306000D01*
X22190001Y48304000D01*
X22192001Y48302000D01*
X22193001Y48300000D01*
X22195001Y48298000D01*
X22196001Y48295000D01*
X22197001Y48293000D01*
X22198001Y48290000D01*
X22198001Y48288000D01*
X22199001Y48285000D01*
X22199001Y48283000D01*
X22200001Y48280000D01*
X22200001Y48278000D01*
X22200001Y48275000D01*
X22200001Y47975000D01*
X22450001Y47975000D01*
X22450001Y48275000D01*
X22450001Y48278000D01*
X22450001Y48280000D01*
X22451001Y48283000D01*
X22451001Y48285000D01*
X22452001Y48288000D01*
X22452001Y48290000D01*
X22453001Y48293000D01*
X22454001Y48295000D01*
X22455001Y48298000D01*
X22457001Y48300000D01*
X22458001Y48302000D01*
X22460001Y48304000D01*
X22461001Y48306000D01*
X22463001Y48308000D01*
X22465001Y48310000D01*
X22467001Y48312000D01*
X22469001Y48314000D01*
X22471001Y48315000D01*
X22473001Y48317000D01*
X22475001Y48318000D01*
X22477001Y48320000D01*
X22480001Y48321000D01*
X22482001Y48322000D01*
X22485001Y48323000D01*
X22487001Y48323000D01*
X22490001Y48324000D01*
X22492001Y48324000D01*
X22495001Y48325000D01*
X22497001Y48325000D01*
X22500001Y48325000D01*
X22650001Y48325000D01*
X22653001Y48325000D01*
X22655001Y48325000D01*
X22658001Y48324000D01*
X22660001Y48324000D01*
X22663001Y48323000D01*
X22665001Y48323000D01*
X22668001Y48322000D01*
X22670001Y48321000D01*
X22673001Y48320000D01*
X22675001Y48318000D01*
X22677001Y48317000D01*
X22679001Y48315000D01*
X22681001Y48314000D01*
X22683001Y48312000D01*
X22685001Y48310000D01*
X22687001Y48308000D01*
X22689001Y48306000D01*
X22690001Y48304000D01*
X22692001Y48302000D01*
X22693001Y48300000D01*
X22695001Y48298000D01*
X22696001Y48295000D01*
X22697001Y48293000D01*
X22698001Y48290000D01*
X22698001Y48288000D01*
X22699001Y48285000D01*
X22699001Y48283000D01*
X22700001Y48280000D01*
X22700001Y48278000D01*
X22700001Y48275000D01*
X22700001Y47775000D01*
X22700001Y47772000D01*
X22700001Y47770000D01*
X22699001Y47767000D01*
X22699001Y47765000D01*
X22698001Y47762000D01*
X22698001Y47760000D01*
X22697001Y47757000D01*
X22696001Y47755000D01*
X22695001Y47752000D01*
X22693001Y47750000D01*
X22692001Y47748000D01*
X22690001Y47746000D01*
X22689001Y47744000D01*
X22687001Y47742000D01*
X22685001Y47740000D01*
X22683001Y47738000D01*
X22681001Y47736000D01*
X22679001Y47735000D01*
X22677001Y47733000D01*
X22675001Y47732000D01*
X22673001Y47730000D01*
X22670001Y47729000D01*
X22668001Y47728000D01*
X22665001Y47727000D01*
X22663001Y47727000D01*
X22660001Y47726000D01*
X22658001Y47726000D01*
X22655001Y47725000D01*
X22653001Y47725000D01*
X22650001Y47725000D01*
X22000001Y47725000D01*
X21997001Y47725000D01*
X21995001Y47725000D01*
X21992001Y47726000D01*
X21990001Y47726000D01*
X21987001Y47727000D01*
X21985001Y47727000D01*
X21982001Y47728000D01*
X21980001Y47729000D01*
X21977001Y47730000D01*
X21975001Y47732000D01*
X21973001Y47733000D01*
X21971001Y47735000D01*
X21969001Y47736000D01*
X21967001Y47738000D01*
X21965001Y47740000D01*
X21963001Y47742000D01*
X21961001Y47744000D01*
X21960001Y47746000D01*
X21958001Y47748000D01*
X21957001Y47750000D01*
X21955001Y47752000D01*
X21954001Y47755000D01*
X21953001Y47757000D01*
X21952001Y47760000D01*
X21952001Y47762000D01*
X21951001Y47765000D01*
X21951001Y47767000D01*
X21950001Y47770000D01*
X21950001Y47772000D01*
X21950001Y47775000D01*
X21950001Y48275000D01*
X21950001Y48278000D01*
X21950001Y48280000D01*
X21951001Y48283000D01*
X21951001Y48285000D01*
X21952001Y48288000D01*
X21952001Y48290000D01*
X21953001Y48293000D01*
X21954001Y48295000D01*
X21955001Y48298000D01*
X21957001Y48300000D01*
X21958001Y48302000D01*
X21960001Y48304000D01*
X21961001Y48306000D01*
X21963001Y48308000D01*
X21965001Y48310000D01*
X21967001Y48312000D01*
X21969001Y48314000D01*
X21971001Y48315000D01*
X21973001Y48317000D01*
X21975001Y48318000D01*
X21977001Y48320000D01*
X21980001Y48321000D01*
X21982001Y48322000D01*
X21985001Y48323000D01*
X21987001Y48323000D01*
X21990001Y48324000D01*
X21992001Y48324000D01*
X21995001Y48325000D01*
X21997001Y48325000D01*
X22000001Y48325000D01*
X22150001Y48325000D01*
X22153001Y48325000D01*
X22155001Y48325000D01*
X22158001Y48324000D01*
G36*
X22158001Y48324000D02*
G01*
X22160001Y48324000D01*
X22163001Y48323000D01*
X22165001Y48323000D01*
X22168001Y48322000D01*
X22170001Y48321000D01*
X22173001Y48320000D01*
X22175001Y48318000D01*
X22177001Y48317000D01*
X22179001Y48315000D01*
X22181001Y48314000D01*
X22183001Y48312000D01*
X22185001Y48310000D01*
X22187001Y48308000D01*
X22189001Y48306000D01*
X22190001Y48304000D01*
X22192001Y48302000D01*
X22193001Y48300000D01*
X22195001Y48298000D01*
X22196001Y48295000D01*
X22197001Y48293000D01*
X22198001Y48290000D01*
X22198001Y48288000D01*
X22199001Y48285000D01*
X22199001Y48283000D01*
X22200001Y48280000D01*
X22200001Y48278000D01*
X22200001Y48275000D01*
X22200001Y47975000D01*
X22450001Y47975000D01*
X22450001Y48275000D01*
X22450001Y48278000D01*
X22450001Y48280000D01*
X22451001Y48283000D01*
X22451001Y48285000D01*
X22452001Y48288000D01*
X22452001Y48290000D01*
X22453001Y48293000D01*
X22454001Y48295000D01*
X22455001Y48298000D01*
X22457001Y48300000D01*
X22458001Y48302000D01*
X22460001Y48304000D01*
X22461001Y48306000D01*
X22463001Y48308000D01*
X22465001Y48310000D01*
X22467001Y48312000D01*
X22469001Y48314000D01*
X22471001Y48315000D01*
X22473001Y48317000D01*
X22475001Y48318000D01*
X22477001Y48320000D01*
X22480001Y48321000D01*
X22482001Y48322000D01*
X22485001Y48323000D01*
X22487001Y48323000D01*
X22490001Y48324000D01*
X22492001Y48324000D01*
X22495001Y48325000D01*
X22497001Y48325000D01*
X22500001Y48325000D01*
X22650001Y48325000D01*
X22653001Y48325000D01*
X22655001Y48325000D01*
X22658001Y48324000D01*
X22660001Y48324000D01*
X22663001Y48323000D01*
X22665001Y48323000D01*
X22668001Y48322000D01*
X22670001Y48321000D01*
X22673001Y48320000D01*
X22675001Y48318000D01*
X22677001Y48317000D01*
X22679001Y48315000D01*
X22681001Y48314000D01*
X22683001Y48312000D01*
X22685001Y48310000D01*
X22687001Y48308000D01*
X22689001Y48306000D01*
X22690001Y48304000D01*
X22692001Y48302000D01*
X22693001Y48300000D01*
X22695001Y48298000D01*
X22696001Y48295000D01*
X22697001Y48293000D01*
X22698001Y48290000D01*
X22698001Y48288000D01*
X22699001Y48285000D01*
X22699001Y48283000D01*
X22700001Y48280000D01*
X22700001Y48278000D01*
X22700001Y48275000D01*
X22700001Y47775000D01*
X22700001Y47772000D01*
X22700001Y47770000D01*
X22699001Y47767000D01*
X22699001Y47765000D01*
X22698001Y47762000D01*
X22698001Y47760000D01*
X22697001Y47757000D01*
X22696001Y47755000D01*
X22695001Y47752000D01*
X22693001Y47750000D01*
X22692001Y47748000D01*
X22690001Y47746000D01*
X22689001Y47744000D01*
X22687001Y47742000D01*
X22685001Y47740000D01*
X22683001Y47738000D01*
X22681001Y47736000D01*
X22679001Y47735000D01*
X22677001Y47733000D01*
X22675001Y47732000D01*
X22673001Y47730000D01*
X22670001Y47729000D01*
X22668001Y47728000D01*
X22665001Y47727000D01*
X22663001Y47727000D01*
X22660001Y47726000D01*
X22658001Y47726000D01*
X22655001Y47725000D01*
X22653001Y47725000D01*
X22650001Y47725000D01*
X22000001Y47725000D01*
X21997001Y47725000D01*
X21995001Y47725000D01*
X21992001Y47726000D01*
X21990001Y47726000D01*
X21987001Y47727000D01*
X21985001Y47727000D01*
X21982001Y47728000D01*
X21980001Y47729000D01*
X21977001Y47730000D01*
X21975001Y47732000D01*
X21973001Y47733000D01*
X21971001Y47735000D01*
X21969001Y47736000D01*
X21967001Y47738000D01*
X21965001Y47740000D01*
X21963001Y47742000D01*
X21961001Y47744000D01*
X21960001Y47746000D01*
X21958001Y47748000D01*
X21957001Y47750000D01*
X21955001Y47752000D01*
X21954001Y47755000D01*
X21953001Y47757000D01*
X21952001Y47760000D01*
X21952001Y47762000D01*
X21951001Y47765000D01*
X21951001Y47767000D01*
X21950001Y47770000D01*
X21950001Y47772000D01*
X21950001Y47775000D01*
X21950001Y48275000D01*
X21950001Y48278000D01*
X21950001Y48280000D01*
X21951001Y48283000D01*
X21951001Y48285000D01*
X21952001Y48288000D01*
X21952001Y48290000D01*
X21953001Y48293000D01*
X21954001Y48295000D01*
X21955001Y48298000D01*
X21957001Y48300000D01*
X21958001Y48302000D01*
X21960001Y48304000D01*
X21961001Y48306000D01*
X21963001Y48308000D01*
X21965001Y48310000D01*
X21967001Y48312000D01*
X21969001Y48314000D01*
X21971001Y48315000D01*
X21973001Y48317000D01*
X21975001Y48318000D01*
X21977001Y48320000D01*
X21980001Y48321000D01*
X21982001Y48322000D01*
X21985001Y48323000D01*
X21987001Y48323000D01*
X21990001Y48324000D01*
X21992001Y48324000D01*
X21995001Y48325000D01*
X21997001Y48325000D01*
X22000001Y48325000D01*
X22150001Y48325000D01*
X22153001Y48325000D01*
X22155001Y48325000D01*
X22158001Y48324000D01*
G37*
X22658001Y45524000D02*
X22660001Y45524000D01*
X22663001Y45523000D01*
X22665001Y45523000D01*
X22668001Y45522000D01*
X22670001Y45521000D01*
X22673001Y45520000D01*
X22675001Y45518000D01*
X22677001Y45517000D01*
X22679001Y45515000D01*
X22681001Y45514000D01*
X22683001Y45512000D01*
X22685001Y45510000D01*
X22687001Y45508000D01*
X22689001Y45506000D01*
X22690001Y45504000D01*
X22692001Y45502000D01*
X22693001Y45500000D01*
X22695001Y45498000D01*
X22696001Y45495000D01*
X22697001Y45493000D01*
X22698001Y45490000D01*
X22698001Y45488000D01*
X22699001Y45485000D01*
X22699001Y45483000D01*
X22700001Y45480000D01*
X22700001Y45478000D01*
X22700001Y45475000D01*
X22700001Y44975000D01*
X22700001Y44972000D01*
X22700001Y44970000D01*
X22699001Y44967000D01*
X22699001Y44965000D01*
X22698001Y44962000D01*
X22698001Y44960000D01*
X22697001Y44957000D01*
X22696001Y44955000D01*
X22695001Y44952000D01*
X22693001Y44950000D01*
X22692001Y44948000D01*
X22690001Y44946000D01*
X22689001Y44944000D01*
X22687001Y44942000D01*
X22685001Y44940000D01*
X22683001Y44938000D01*
X22681001Y44936000D01*
X22679001Y44935000D01*
X22677001Y44933000D01*
X22675001Y44932000D01*
X22673001Y44930000D01*
X22670001Y44929000D01*
X22668001Y44928000D01*
X22665001Y44927000D01*
X22663001Y44927000D01*
X22660001Y44926000D01*
X22658001Y44926000D01*
X22655001Y44925000D01*
X22653001Y44925000D01*
X22650001Y44925000D01*
X22500001Y44925000D01*
X22497001Y44925000D01*
X22495001Y44925000D01*
X22492001Y44926000D01*
X22490001Y44926000D01*
X22487001Y44927000D01*
X22485001Y44927000D01*
X22482001Y44928000D01*
X22480001Y44929000D01*
X22477001Y44930000D01*
X22475001Y44932000D01*
X22473001Y44933000D01*
X22471001Y44935000D01*
X22469001Y44936000D01*
X22467001Y44938000D01*
X22465001Y44940000D01*
X22463001Y44942000D01*
X22461001Y44944000D01*
X22460001Y44946000D01*
X22458001Y44948000D01*
X22457001Y44950000D01*
X22455001Y44952000D01*
X22454001Y44955000D01*
X22453001Y44957000D01*
X22452001Y44960000D01*
X22452001Y44962000D01*
X22451001Y44965000D01*
X22451001Y44967000D01*
X22450001Y44970000D01*
X22450001Y44972000D01*
X22450001Y44975000D01*
X22450001Y45275000D01*
X22200001Y45275000D01*
X22200001Y44975000D01*
X22200001Y44972000D01*
X22200001Y44970000D01*
X22199001Y44967000D01*
X22199001Y44965000D01*
X22198001Y44962000D01*
X22198001Y44960000D01*
X22197001Y44957000D01*
X22196001Y44955000D01*
X22195001Y44952000D01*
X22193001Y44950000D01*
X22192001Y44948000D01*
X22190001Y44946000D01*
X22189001Y44944000D01*
X22187001Y44942000D01*
X22185001Y44940000D01*
X22183001Y44938000D01*
X22181001Y44936000D01*
X22179001Y44935000D01*
X22177001Y44933000D01*
X22175001Y44932000D01*
X22173001Y44930000D01*
X22170001Y44929000D01*
X22168001Y44928000D01*
X22165001Y44927000D01*
X22163001Y44927000D01*
X22160001Y44926000D01*
X22158001Y44926000D01*
X22155001Y44925000D01*
X22153001Y44925000D01*
X22150001Y44925000D01*
X22000001Y44925000D01*
X21997001Y44925000D01*
X21995001Y44925000D01*
X21992001Y44926000D01*
X21990001Y44926000D01*
X21987001Y44927000D01*
X21985001Y44927000D01*
X21982001Y44928000D01*
X21980001Y44929000D01*
X21977001Y44930000D01*
X21975001Y44932000D01*
X21973001Y44933000D01*
X21971001Y44935000D01*
X21969001Y44936000D01*
X21967001Y44938000D01*
X21965001Y44940000D01*
X21963001Y44942000D01*
X21961001Y44944000D01*
X21960001Y44946000D01*
X21958001Y44948000D01*
X21957001Y44950000D01*
X21955001Y44952000D01*
X21954001Y44955000D01*
X21953001Y44957000D01*
X21952001Y44960000D01*
X21952001Y44962000D01*
X21951001Y44965000D01*
X21951001Y44967000D01*
X21950001Y44970000D01*
X21950001Y44972000D01*
X21950001Y44975000D01*
X21950001Y45475000D01*
X21950001Y45478000D01*
X21950001Y45480000D01*
X21951001Y45483000D01*
X21951001Y45485000D01*
X21952001Y45488000D01*
X21952001Y45490000D01*
X21953001Y45493000D01*
X21954001Y45495000D01*
X21955001Y45498000D01*
X21957001Y45500000D01*
X21958001Y45502000D01*
X21960001Y45504000D01*
X21961001Y45506000D01*
X21963001Y45508000D01*
X21965001Y45510000D01*
X21967001Y45512000D01*
X21969001Y45514000D01*
X21971001Y45515000D01*
X21973001Y45517000D01*
X21975001Y45518000D01*
X21977001Y45520000D01*
X21980001Y45521000D01*
X21982001Y45522000D01*
X21985001Y45523000D01*
X21987001Y45523000D01*
X21990001Y45524000D01*
X21992001Y45524000D01*
X21995001Y45525000D01*
X21997001Y45525000D01*
X22000001Y45525000D01*
X22650001Y45525000D01*
X22653001Y45525000D01*
X22655001Y45525000D01*
X22658001Y45524000D01*
G36*
X22658001Y45524000D02*
G01*
X22660001Y45524000D01*
X22663001Y45523000D01*
X22665001Y45523000D01*
X22668001Y45522000D01*
X22670001Y45521000D01*
X22673001Y45520000D01*
X22675001Y45518000D01*
X22677001Y45517000D01*
X22679001Y45515000D01*
X22681001Y45514000D01*
X22683001Y45512000D01*
X22685001Y45510000D01*
X22687001Y45508000D01*
X22689001Y45506000D01*
X22690001Y45504000D01*
X22692001Y45502000D01*
X22693001Y45500000D01*
X22695001Y45498000D01*
X22696001Y45495000D01*
X22697001Y45493000D01*
X22698001Y45490000D01*
X22698001Y45488000D01*
X22699001Y45485000D01*
X22699001Y45483000D01*
X22700001Y45480000D01*
X22700001Y45478000D01*
X22700001Y45475000D01*
X22700001Y44975000D01*
X22700001Y44972000D01*
X22700001Y44970000D01*
X22699001Y44967000D01*
X22699001Y44965000D01*
X22698001Y44962000D01*
X22698001Y44960000D01*
X22697001Y44957000D01*
X22696001Y44955000D01*
X22695001Y44952000D01*
X22693001Y44950000D01*
X22692001Y44948000D01*
X22690001Y44946000D01*
X22689001Y44944000D01*
X22687001Y44942000D01*
X22685001Y44940000D01*
X22683001Y44938000D01*
X22681001Y44936000D01*
X22679001Y44935000D01*
X22677001Y44933000D01*
X22675001Y44932000D01*
X22673001Y44930000D01*
X22670001Y44929000D01*
X22668001Y44928000D01*
X22665001Y44927000D01*
X22663001Y44927000D01*
X22660001Y44926000D01*
X22658001Y44926000D01*
X22655001Y44925000D01*
X22653001Y44925000D01*
X22650001Y44925000D01*
X22500001Y44925000D01*
X22497001Y44925000D01*
X22495001Y44925000D01*
X22492001Y44926000D01*
X22490001Y44926000D01*
X22487001Y44927000D01*
X22485001Y44927000D01*
X22482001Y44928000D01*
X22480001Y44929000D01*
X22477001Y44930000D01*
X22475001Y44932000D01*
X22473001Y44933000D01*
X22471001Y44935000D01*
X22469001Y44936000D01*
X22467001Y44938000D01*
X22465001Y44940000D01*
X22463001Y44942000D01*
X22461001Y44944000D01*
X22460001Y44946000D01*
X22458001Y44948000D01*
X22457001Y44950000D01*
X22455001Y44952000D01*
X22454001Y44955000D01*
X22453001Y44957000D01*
X22452001Y44960000D01*
X22452001Y44962000D01*
X22451001Y44965000D01*
X22451001Y44967000D01*
X22450001Y44970000D01*
X22450001Y44972000D01*
X22450001Y44975000D01*
X22450001Y45275000D01*
X22200001Y45275000D01*
X22200001Y44975000D01*
X22200001Y44972000D01*
X22200001Y44970000D01*
X22199001Y44967000D01*
X22199001Y44965000D01*
X22198001Y44962000D01*
X22198001Y44960000D01*
X22197001Y44957000D01*
X22196001Y44955000D01*
X22195001Y44952000D01*
X22193001Y44950000D01*
X22192001Y44948000D01*
X22190001Y44946000D01*
X22189001Y44944000D01*
X22187001Y44942000D01*
X22185001Y44940000D01*
X22183001Y44938000D01*
X22181001Y44936000D01*
X22179001Y44935000D01*
X22177001Y44933000D01*
X22175001Y44932000D01*
X22173001Y44930000D01*
X22170001Y44929000D01*
X22168001Y44928000D01*
X22165001Y44927000D01*
X22163001Y44927000D01*
X22160001Y44926000D01*
X22158001Y44926000D01*
X22155001Y44925000D01*
X22153001Y44925000D01*
X22150001Y44925000D01*
X22000001Y44925000D01*
X21997001Y44925000D01*
X21995001Y44925000D01*
X21992001Y44926000D01*
X21990001Y44926000D01*
X21987001Y44927000D01*
X21985001Y44927000D01*
X21982001Y44928000D01*
X21980001Y44929000D01*
X21977001Y44930000D01*
X21975001Y44932000D01*
X21973001Y44933000D01*
X21971001Y44935000D01*
X21969001Y44936000D01*
X21967001Y44938000D01*
X21965001Y44940000D01*
X21963001Y44942000D01*
X21961001Y44944000D01*
X21960001Y44946000D01*
X21958001Y44948000D01*
X21957001Y44950000D01*
X21955001Y44952000D01*
X21954001Y44955000D01*
X21953001Y44957000D01*
X21952001Y44960000D01*
X21952001Y44962000D01*
X21951001Y44965000D01*
X21951001Y44967000D01*
X21950001Y44970000D01*
X21950001Y44972000D01*
X21950001Y44975000D01*
X21950001Y45475000D01*
X21950001Y45478000D01*
X21950001Y45480000D01*
X21951001Y45483000D01*
X21951001Y45485000D01*
X21952001Y45488000D01*
X21952001Y45490000D01*
X21953001Y45493000D01*
X21954001Y45495000D01*
X21955001Y45498000D01*
X21957001Y45500000D01*
X21958001Y45502000D01*
X21960001Y45504000D01*
X21961001Y45506000D01*
X21963001Y45508000D01*
X21965001Y45510000D01*
X21967001Y45512000D01*
X21969001Y45514000D01*
X21971001Y45515000D01*
X21973001Y45517000D01*
X21975001Y45518000D01*
X21977001Y45520000D01*
X21980001Y45521000D01*
X21982001Y45522000D01*
X21985001Y45523000D01*
X21987001Y45523000D01*
X21990001Y45524000D01*
X21992001Y45524000D01*
X21995001Y45525000D01*
X21997001Y45525000D01*
X22000001Y45525000D01*
X22650001Y45525000D01*
X22653001Y45525000D01*
X22655001Y45525000D01*
X22658001Y45524000D01*
G37*
G04 #@! TD*
D11*
G04 #@! TO.C,C30*
X28400001Y27625000D03*
X26850001Y27625000D03*
G04 #@! TD*
D12*
G04 #@! TO.C,R5*
X26300001Y50690000D03*
X27950001Y50690000D03*
G04 #@! TD*
D13*
G04 #@! TO.C,TP24*
X32250001Y51500000D03*
G04 #@! TD*
D14*
G04 #@! TO.C,R18*
X36825001Y44350000D03*
X36825001Y46000000D03*
G04 #@! TD*
D15*
G04 #@! TO.C,D2*
X10875001Y35525000D03*
X10875001Y32225000D03*
G04 #@! TD*
D14*
G04 #@! TO.C,R2*
X27125001Y43365000D03*
X27125001Y45015000D03*
G04 #@! TD*
D16*
G04 #@! TO.C,C24*
X29675001Y37300000D03*
X29675001Y38850000D03*
G04 #@! TD*
D17*
G04 #@! TO.C,U3*
X13532501Y46430000D03*
X12582501Y46430000D03*
X11632501Y46430000D03*
X11632501Y44060000D03*
X13532501Y44060000D03*
G04 #@! TD*
D18*
G04 #@! TO.C,M1*
X4504690Y58000000D03*
G04 #@! TD*
D19*
G04 #@! TO.C,U7*
X30937501Y35225000D03*
X30937501Y34725000D03*
X30937501Y34225000D03*
X30937501Y33725000D03*
X30937501Y33225000D03*
X30937501Y32725000D03*
X30937501Y32225000D03*
X30937501Y31725000D03*
X30937501Y31225000D03*
X30937501Y30725000D03*
X30937501Y30225000D03*
X30937501Y29725000D03*
D20*
X31625001Y29037500D03*
X32125001Y29037500D03*
X32625001Y29037500D03*
X33125001Y29037500D03*
X33625001Y29037500D03*
X34125001Y29037500D03*
X34625001Y29037500D03*
X35125001Y29037500D03*
X35625001Y29037500D03*
X36125001Y29037500D03*
X36625001Y29037500D03*
X37125001Y29037500D03*
D19*
X37812501Y29725000D03*
X37812501Y30225000D03*
X37812501Y30725000D03*
X37812501Y31225000D03*
X37812501Y31725000D03*
X37812501Y32225000D03*
X37812501Y32725000D03*
X37812501Y33225000D03*
X37812501Y33725000D03*
X37812501Y34225000D03*
X37812501Y34725000D03*
X37812501Y35225000D03*
D20*
X37125001Y35912500D03*
X36625001Y35912500D03*
X36125001Y35912500D03*
X35625001Y35912500D03*
X35125001Y35912500D03*
X34625001Y35912500D03*
X34125001Y35912500D03*
X33625001Y35912500D03*
X33125001Y35912500D03*
X32625001Y35912500D03*
X32125001Y35912500D03*
X31625001Y35912500D03*
D21*
X34375001Y32475000D03*
G04 #@! TD*
D22*
G04 #@! TO.C,C25*
X38875001Y26650000D03*
X38875001Y25100000D03*
G04 #@! TD*
D13*
G04 #@! TO.C,TP15*
X46000001Y6000000D03*
G04 #@! TD*
G04 #@! TO.C,TP10*
X9500001Y24500000D03*
G04 #@! TD*
D12*
G04 #@! TO.C,R3*
X25800001Y52875000D03*
X27450001Y52875000D03*
G04 #@! TD*
D23*
G04 #@! TO.C,R27*
X13000001Y59825000D03*
X13000001Y58175000D03*
G04 #@! TD*
D24*
G04 #@! TO.C,C27*
X36825001Y27125000D03*
X36825001Y25225000D03*
G04 #@! TD*
D25*
G04 #@! TO.C,U1*
X55375001Y32975000D03*
X57375001Y32975000D03*
X59375001Y32975000D03*
X61375001Y32975000D03*
X63375001Y32975000D03*
X65375001Y32975000D03*
X67375001Y32975000D03*
X69375001Y32975000D03*
X69375001Y48375000D03*
X67375001Y48375000D03*
X65375001Y48375000D03*
X63375001Y48375000D03*
X61375001Y48375000D03*
X59375001Y48375000D03*
X57375001Y48375000D03*
X55375001Y48375000D03*
G04 #@! TD*
D14*
G04 #@! TO.C,R21*
X44125001Y13315000D03*
X44125001Y14965000D03*
G04 #@! TD*
D24*
G04 #@! TO.C,C3*
X19125001Y53140000D03*
X19125001Y51240000D03*
G04 #@! TD*
D26*
G04 #@! TO.C,U8*
X67775001Y20125000D03*
D27*
X66675001Y20125000D03*
X65575001Y20125000D03*
X64475001Y20125000D03*
X63375001Y20125000D03*
X62275001Y20125000D03*
X61175001Y20125000D03*
X60075001Y20125000D03*
D26*
X58975001Y20125000D03*
X58975001Y10625000D03*
D27*
X60075001Y10625000D03*
X61175001Y10625000D03*
X62275001Y10625000D03*
X63375001Y10625000D03*
X64475001Y10625000D03*
X65575001Y10625000D03*
X66675001Y10625000D03*
D26*
X67775001Y10625000D03*
G04 #@! TD*
D11*
G04 #@! TO.C,C47*
X28375001Y25625000D03*
X26825001Y25625000D03*
G04 #@! TD*
D28*
G04 #@! TO.C,Q2*
X10790001Y29375000D03*
X8960001Y29375000D03*
X9875001Y27325000D03*
G04 #@! TD*
D13*
G04 #@! TO.C,TP25*
X69500001Y28000000D03*
G04 #@! TD*
G04 #@! TO.C,TP5*
X49000001Y37000000D03*
G04 #@! TD*
G04 #@! TO.C,TP14*
X37500001Y6000000D03*
G04 #@! TD*
D24*
G04 #@! TO.C,C39*
X57875001Y25275000D03*
X57875001Y23375000D03*
G04 #@! TD*
D13*
G04 #@! TO.C,TP6*
X53000001Y6000000D03*
G04 #@! TD*
G04 #@! TO.C,TP2*
X6500001Y31500000D03*
G04 #@! TD*
D16*
G04 #@! TO.C,C43*
X49375001Y17600000D03*
X49375001Y19150000D03*
G04 #@! TD*
D29*
G04 #@! TO.C,J2*
X4975001Y36750000D03*
D30*
X4975001Y39250000D03*
G04 #@! TD*
D31*
G04 #@! TO.C,SW1*
X22450001Y35375000D03*
X18200001Y35375000D03*
D32*
X21550001Y34475000D03*
X19100001Y34475000D03*
D33*
X20325001Y34475000D03*
D34*
X22175001Y36425000D03*
X18475001Y36425000D03*
G04 #@! TD*
D12*
G04 #@! TO.C,R13*
X26375001Y31425000D03*
X28025001Y31425000D03*
G04 #@! TD*
D16*
G04 #@! TO.C,C44*
X47375001Y17600000D03*
X47375001Y19150000D03*
G04 #@! TD*
G04 #@! TO.C,C34*
X38500001Y56725000D03*
X38500001Y58275000D03*
G04 #@! TD*
D35*
G04 #@! TO.C,J10*
X11625001Y14125000D03*
D36*
X14125001Y14125000D03*
X16625001Y14125000D03*
X19125001Y14125000D03*
X21625001Y14125000D03*
X24125001Y14125000D03*
X26625001Y14125000D03*
X29125001Y14125000D03*
G04 #@! TD*
D29*
G04 #@! TO.C,J1*
X4850001Y45475000D03*
D30*
X4850001Y47975000D03*
G04 #@! TD*
D13*
G04 #@! TO.C,TP20*
X40500001Y16000000D03*
G04 #@! TD*
D37*
G04 #@! TO.C,R6*
X63200001Y29975000D03*
X61550001Y29975000D03*
G04 #@! TD*
D38*
G04 #@! TO.C,C9*
X9882501Y48680000D03*
X11432501Y48680000D03*
G04 #@! TD*
D39*
G04 #@! TO.C,F1*
X2500001Y31475000D03*
X2500001Y27275000D03*
G04 #@! TD*
D40*
G04 #@! TO.C,U10*
X44575001Y24000000D03*
X44575001Y25250000D03*
X44575001Y26500000D03*
X44575001Y27750000D03*
X42175001Y27750000D03*
X42175001Y26500000D03*
X42175001Y25250000D03*
X42175001Y24000000D03*
G04 #@! TD*
D41*
G04 #@! TO.C,C8*
X23125001Y41425000D03*
X23125001Y43325000D03*
G04 #@! TD*
D13*
G04 #@! TO.C,TP8*
X49000001Y41000000D03*
G04 #@! TD*
D22*
G04 #@! TO.C,C40*
X61875001Y25150000D03*
X61875001Y23600000D03*
G04 #@! TD*
D13*
G04 #@! TO.C,TP7*
X28000001Y22500000D03*
G04 #@! TD*
D14*
G04 #@! TO.C,R15*
X24375001Y25050000D03*
X24375001Y26700000D03*
G04 #@! TD*
D24*
G04 #@! TO.C,C4*
X21625001Y53140000D03*
X21625001Y51240000D03*
G04 #@! TD*
D22*
G04 #@! TO.C,C5*
X23625001Y51965000D03*
X23625001Y50415000D03*
G04 #@! TD*
D42*
G04 #@! TO.C,J9*
X34500001Y58000000D03*
D36*
X32000001Y58000000D03*
X29500001Y58000000D03*
X27000001Y58000000D03*
X24500001Y58000000D03*
X22000001Y58000000D03*
X19500001Y58000000D03*
X17000001Y58000000D03*
G04 #@! TD*
D43*
G04 #@! TO.C,J6*
X42395001Y55021500D03*
X43495001Y55021500D03*
X44595001Y55021500D03*
X45695001Y55021500D03*
X46795001Y55021500D03*
X47895001Y55021500D03*
X48995001Y55021500D03*
X50095001Y55021500D03*
D44*
X39760001Y48871500D03*
X39760001Y45171500D03*
D45*
X39935001Y54896500D03*
D46*
X51255001Y54671500D03*
D47*
X49229991Y44196500D03*
X43259991Y44196500D03*
G04 #@! TD*
D22*
G04 #@! TO.C,C13*
X59875001Y53450000D03*
X59875001Y51900000D03*
G04 #@! TD*
D38*
G04 #@! TO.C,C26*
X40375001Y36575000D03*
X41925001Y36575000D03*
G04 #@! TD*
D13*
G04 #@! TO.C,TP11*
X44500001Y19500000D03*
G04 #@! TD*
D16*
G04 #@! TO.C,C12*
X36125001Y16350000D03*
X36125001Y17900000D03*
G04 #@! TD*
D11*
G04 #@! TO.C,C11*
X39400001Y18875000D03*
X37850001Y18875000D03*
G04 #@! TD*
D18*
G04 #@! TO.C,M3*
X4004690Y4500000D03*
G04 #@! TD*
D22*
G04 #@! TO.C,C33*
X24175001Y31350000D03*
X24175001Y29800000D03*
G04 #@! TD*
D38*
G04 #@! TO.C,C31*
X26500001Y36925000D03*
X28050001Y36925000D03*
G04 #@! TD*
D48*
G04 #@! TO.C,J8*
X39125001Y10500000D03*
D49*
X37125001Y10500000D03*
X35125001Y10500000D03*
G04 #@! TD*
D16*
G04 #@! TO.C,C6*
X21125001Y41915000D03*
X21125001Y43465000D03*
G04 #@! TD*
D22*
G04 #@! TO.C,C42*
X33875001Y17900000D03*
X33875001Y16350000D03*
G04 #@! TD*
D37*
G04 #@! TO.C,R25*
X48200001Y27875000D03*
X46550001Y27875000D03*
G04 #@! TD*
D13*
G04 #@! TO.C,TP22*
X48500001Y25000000D03*
G04 #@! TD*
D14*
G04 #@! TO.C,R22*
X44090001Y9815000D03*
X44090001Y11465000D03*
G04 #@! TD*
D37*
G04 #@! TO.C,R26*
X38129991Y52696500D03*
X36479991Y52696500D03*
G04 #@! TD*
D50*
G04 #@! TO.C,U9*
X46255001Y14875000D03*
X46255001Y14225000D03*
X46255001Y13575000D03*
X46255001Y12925000D03*
X46255001Y12275000D03*
D51*
X47390001Y11140000D03*
X48040001Y11140000D03*
X48690001Y11140000D03*
X49340001Y11140000D03*
X49990001Y11140000D03*
D50*
X51125001Y12275000D03*
X51125001Y12925000D03*
X51125001Y13575000D03*
X51125001Y14225000D03*
X51125001Y14875000D03*
D51*
X49990001Y16010000D03*
X49340001Y16010000D03*
X48690001Y16010000D03*
X48040001Y16010000D03*
X47390001Y16010000D03*
D52*
X48690001Y13575000D03*
G04 #@! TD*
D53*
G04 #@! TO.C,Y1*
X28775001Y34925000D03*
X26575001Y34925000D03*
X26575001Y33225000D03*
X28775001Y33225000D03*
G04 #@! TD*
D14*
G04 #@! TO.C,R1*
X13375001Y28050000D03*
X13375001Y29700000D03*
G04 #@! TD*
D22*
G04 #@! TO.C,C38*
X59875001Y25150000D03*
X59875001Y23600000D03*
G04 #@! TD*
D41*
G04 #@! TO.C,C7*
X19125001Y41740000D03*
X19125001Y43640000D03*
G04 #@! TD*
D24*
G04 #@! TO.C,C14*
X62375001Y53625000D03*
X62375001Y51725000D03*
G04 #@! TD*
D13*
G04 #@! TO.C,TP23*
X69500001Y24000000D03*
G04 #@! TD*
D37*
G04 #@! TO.C,R11*
X24700001Y22875000D03*
X23050001Y22875000D03*
G04 #@! TD*
D13*
G04 #@! TO.C,J4*
X30000001Y47000000D03*
D54*
X32540001Y47000000D03*
G04 #@! TD*
D23*
G04 #@! TO.C,R30*
X30175001Y27725000D03*
X30175001Y26075000D03*
G04 #@! TD*
D22*
G04 #@! TO.C,C32*
X24275001Y34850000D03*
X24275001Y33300000D03*
G04 #@! TD*
D16*
G04 #@! TO.C,C29*
X31675001Y37800000D03*
X31675001Y39350000D03*
G04 #@! TD*
D11*
G04 #@! TO.C,C46*
X47775001Y22500000D03*
X46225001Y22500000D03*
G04 #@! TD*
D16*
G04 #@! TO.C,C10*
X13625001Y40600000D03*
X13625001Y42150000D03*
G04 #@! TD*
D12*
G04 #@! TO.C,R14*
X20525001Y31575000D03*
X22175001Y31575000D03*
G04 #@! TD*
D13*
G04 #@! TO.C,TP4*
X8750001Y52750000D03*
G04 #@! TD*
D22*
G04 #@! TO.C,C41*
X63875001Y24925000D03*
X63875001Y23375000D03*
G04 #@! TD*
D16*
G04 #@! TO.C,C1*
X25625001Y46690000D03*
X25625001Y48240000D03*
G04 #@! TD*
D55*
G04 #@! TO.C,C2*
X15225001Y50690000D03*
X17125001Y50690000D03*
G04 #@! TD*
D38*
G04 #@! TO.C,C45*
X47840001Y8640000D03*
X49390001Y8640000D03*
G04 #@! TD*
D18*
G04 #@! TO.C,M4*
X76004690Y4500000D03*
G04 #@! TD*
D13*
G04 #@! TO.C,TP12*
X56000001Y53000000D03*
G04 #@! TD*
G04 #@! TO.C,TP13*
X43000001Y40000000D03*
G04 #@! TD*
D12*
G04 #@! TO.C,R28*
X30050001Y43125000D03*
X31700001Y43125000D03*
G04 #@! TD*
D18*
G04 #@! TO.C,M2*
X75504690Y58000000D03*
G04 #@! TD*
D56*
G04 #@! TO.C,D1*
X37000001Y49612500D03*
X37000001Y47737500D03*
G04 #@! TD*
D11*
G04 #@! TO.C,C49*
X28875001Y29375000D03*
X27325001Y29375000D03*
G04 #@! TD*
D13*
G04 #@! TO.C,J11*
X64330001Y58500000D03*
D54*
X61790001Y58500000D03*
X59250001Y58500000D03*
G04 #@! TD*
D37*
G04 #@! TO.C,R12*
X27700001Y19625000D03*
X26050001Y19625000D03*
G04 #@! TD*
D13*
G04 #@! TO.C,TP3*
X39000001Y40000000D03*
G04 #@! TD*
G04 #@! TO.C,TP1*
X12500001Y52750000D03*
G04 #@! TD*
G04 #@! TO.C,J5*
X4625001Y22625000D03*
D54*
X4625001Y20085000D03*
X4625001Y17545000D03*
X4625001Y15005000D03*
X4625001Y12465000D03*
G04 #@! TD*
D31*
G04 #@! TO.C,SW2*
X22500001Y26125000D03*
X18250001Y26125000D03*
D32*
X21600001Y25225000D03*
X19150001Y25225000D03*
D33*
X20375001Y25225000D03*
D34*
X22225001Y27175000D03*
X18525001Y27175000D03*
G04 #@! TD*
D23*
G04 #@! TO.C,R23*
X53875001Y15200000D03*
X53875001Y13550000D03*
G04 #@! TD*
D55*
G04 #@! TO.C,C28*
X40350001Y34625000D03*
X42250001Y34625000D03*
G04 #@! TD*
D16*
G04 #@! TO.C,C35*
X52500001Y56725000D03*
X52500001Y58275000D03*
G04 #@! TD*
D12*
G04 #@! TO.C,R29*
X30050001Y41375000D03*
X31700001Y41375000D03*
G04 #@! TD*
D14*
G04 #@! TO.C,R24*
X42000001Y18800000D03*
X42000001Y20450000D03*
G04 #@! TD*
D57*
G04 #@! TO.C,L1*
X17625001Y45690000D03*
X17625001Y48060000D03*
G04 #@! TD*
D13*
G04 #@! TO.C,TP21*
X54000001Y10500000D03*
G04 #@! TD*
D37*
G04 #@! TO.C,R31*
X39825001Y20500000D03*
X38175001Y20500000D03*
G04 #@! TD*
D58*
G04 #@! TO.C,J7*
X60000001Y4500000D03*
D59*
X62540001Y7040000D03*
X57460001Y7040000D03*
X62540001Y1960000D03*
X57460001Y1960000D03*
G04 #@! TD*
D58*
G04 #@! TO.C,J3*
X75460001Y48460000D03*
D59*
X78000001Y45920000D03*
X78000001Y51000000D03*
X72920001Y45920000D03*
X72920001Y51000000D03*
G04 #@! TD*
M02*
