M48
; DRILL file KiCad 10.0.0 date 2026-07-26T19:32:53
; FORMAT={-:-/ absolute / metric / decimal}
; #@! TF.CreationDate,2026-07-26T19:32:53-07:00
; #@! TF.GenerationSoftware,Kicad,Pcbnew,10.0.0
; #@! TF.FileFunction,Plated,1,4,PTH
FMAT,2
METRIC
; #@! TA.AperFunction,Plated,PTH,ViaDrill
T1C0.300
; #@! TA.AperFunction,Plated,PTH,ViaDrill
T2C0.500
; #@! TA.AperFunction,Plated,PTH,ComponentDrill
T3C0.750
; #@! TA.AperFunction,Plated,PTH,ComponentDrill
T4C0.950
; #@! TA.AperFunction,Plated,PTH,ComponentDrill
T5C1.000
; #@! TA.AperFunction,Plated,PTH,ComponentDrill
T6C1.500
; #@! TA.AperFunction,Plated,PTH,ComponentDrill
T7C1.700
%
G90
G05
T1
X7.375Y22.875
X10.125Y45.375
X12.2Y26.875
X12.375Y41.875
X12.44Y40.175
X12.475Y48.125
X15.375Y34.625
X18.875Y32.875
X19.111Y30.639
X19.875Y23.625
X20.506Y47.041
X20.514Y28.986
X21.125Y32.625
X21.625Y23.375
X22.125Y28.875
X23.0Y15.5
X24.0Y27.5
X24.375Y35.875
X24.375Y28.375
X24.875Y20.375
X24.975Y44.625
X25.375Y30.375
X25.5Y37.5
X25.625Y28.125
X25.746Y35.754
X26.0Y26.0
X26.375Y28.9
X26.625Y21.125
X27.033Y48.06
X27.746Y33.754
X28.0Y30.375
X28.625Y38.125
X28.875Y42.375
X28.875Y40.625
X29.004Y50.996
X29.125Y19.125
X29.38Y30.12
X29.496Y31.254
X29.65Y24.375
X29.875Y39.875
X30.425Y28.625
X30.625Y38.075
X30.875Y24.875
X31.375Y40.375
X32.345Y18.155
X32.575Y27.625
X32.875Y37.6
X32.875Y33.875
X32.875Y32.375
X32.875Y30.875
X32.875Y17.0
X33.125Y25.25
X33.525Y37.0
X33.675Y23.375
X34.075Y40.5
X34.125Y15.375
X34.375Y33.875
X34.375Y32.375
X34.375Y30.875
X34.625Y22.625
X35.0Y17.5
X35.23Y53.197
X35.25Y27.0
X35.297Y18.648
X35.375Y27.875
X35.5Y49.5
X35.625Y15.375
X35.75Y26.25
X35.875Y33.875
X35.875Y32.375
X35.875Y30.875
X36.652Y28.4
X37.375Y22.625
X37.375Y17.625
X38.0Y55.5
X38.0Y17.028
X38.098Y36.433
X38.375Y23.375
X38.416Y28.436
X38.59Y44.794
X38.625Y17.625
X38.825Y34.428
X39.0Y36.5
X39.5Y58.0
X39.5Y27.875
X39.787Y24.741
X39.875Y33.325
X39.875Y26.125
X40.125Y30.375
X40.5Y20.0
X40.5Y19.0
X40.875Y31.125
X40.95Y21.1
X41.125Y32.425
X41.155Y17.845
X42.875Y36.0
X43.25Y35.125
X43.375Y32.425
X43.625Y29.831
X44.595Y53.5
X45.875Y26.375
X45.875Y25.375
X46.1Y17.6
X46.5Y24.0
X46.795Y50.5
X47.375Y30.875
X47.375Y20.375
X48.0Y14.5
X48.0Y12.5
X48.498Y56.008
X48.69Y13.575
X49.0Y22.5
X49.375Y27.875
X49.375Y20.375
X49.5Y14.5
X49.5Y12.5
X50.338Y52.338
X50.375Y16.875
X50.375Y9.875
X50.825Y18.0
X51.375Y20.875
X51.5Y58.0
X52.0Y35.5
X52.375Y15.5
X52.5Y14.5
X52.541Y13.394
X52.75Y25.5
X53.0Y55.5
X53.625Y33.625
X53.875Y16.36
X54.625Y26.125
X54.625Y23.625
X55.25Y28.0
X55.5Y2.0
X55.75Y26.25
X56.125Y27.625
X56.5Y8.5
X57.014Y26.736
X57.175Y22.0
X57.875Y26.625
X58.5Y52.0
X58.75Y28.472
X58.875Y9.125
X59.875Y54.475
X59.875Y26.125
X59.875Y22.5
X60.625Y30.375
X61.175Y22.175
X61.175Y9.125
X61.875Y26.125
X62.375Y54.975
X63.875Y26.875
X64.0Y51.725
X64.0Y8.0
X64.5Y26.0
X64.5Y2.0
X64.85Y29.875
X65.0Y23.5
X65.625Y22.125
X65.875Y28.875
X66.625Y22.125
X66.875Y50.875
X67.875Y22.0
X69.875Y30.375
X71.5Y52.0
X72.0Y44.5
X78.0Y44.0
X78.5Y52.5
T2
X4.5Y50.5
X6.0Y50.5
X10.125Y50.125
X10.125Y47.375
X14.25Y50.5
X15.375Y16.375
X16.033Y52.56
X17.533Y40.56
X17.875Y16.375
X18.033Y54.56
X19.033Y40.06
X19.533Y54.56
X20.533Y40.06
X21.033Y55.06
X21.533Y40.56
X22.033Y54.56
X22.533Y40.06
X23.625Y54.21
X24.033Y53.06
X24.033Y40.06
X25.0Y56.0
T3
X35.125Y10.5
X37.125Y10.5
X39.125Y10.5
T4
X11.625Y14.125
X14.125Y14.125
X16.625Y14.125
X17.0Y58.0
X19.125Y14.125
X19.5Y58.0
X21.625Y14.125
X22.0Y58.0
X24.125Y14.125
X24.5Y58.0
X26.625Y14.125
X27.0Y58.0
X29.125Y14.125
X29.5Y58.0
X32.0Y58.0
X34.5Y58.0
T5
X4.625Y22.625
X4.625Y20.085
X4.625Y17.545
X4.625Y15.005
X4.625Y12.465
X4.85Y47.975
X4.85Y45.475
X4.975Y39.25
X4.975Y36.75
X6.5Y31.5
X8.75Y52.75
X9.5Y24.5
X12.5Y52.75
X28.0Y22.5
X30.0Y47.0
X32.25Y51.5
X32.54Y47.0
X37.5Y6.0
X39.0Y40.0
X40.5Y16.0
X43.0Y40.0
X44.5Y19.5
X46.0Y6.0
X48.5Y25.0
X49.0Y41.0
X49.0Y37.0
X53.0Y6.0
X54.0Y10.5
X56.0Y53.0
X59.25Y58.5
X61.79Y58.5
X64.33Y58.5
X69.5Y28.0
X69.5Y24.0
T6
X60.0Y4.5
X75.46Y48.46
T7
X57.46Y7.04
X57.46Y1.96
X62.54Y7.04
X62.54Y1.96
X72.92Y51.0
X72.92Y45.92
X78.0Y51.0
X78.0Y45.92
M30
