%TF.GenerationSoftware,KiCad,Pcbnew,10.0.0*%
%TF.CreationDate,2026-07-26T19:32:53-07:00*%
%TF.ProjectId,SSI Summer Balloons,53534920-5375-46d6-9d65-722042616c6c,rev?*%
%TF.SameCoordinates,Original*%
%TF.FileFunction,Drillmap*%
%TF.FilePolarity,Positive*%
%FSLAX45Y45*%
G04 Gerber Fmt 4.5, Leading zero omitted, Abs format (unit mm)*
G04 Created by KiCad (PCBNEW 10.0.0) date 2026-07-26 19:32:53*
%MOMM*%
%LPD*%
G01*
G04 APERTURE LIST*
%ADD10C,0.050000*%
%ADD11C,0.200000*%
%ADD12C,0.100000*%
%ADD13C,0.150000*%
%ADD14C,0.170000*%
G04 APERTURE END LIST*
D10*
X0Y5600000D02*
X0Y5600000D01*
G75*
G02*
X600000Y6200000I600000J0D01*
G01*
X7400000Y6200000D01*
G75*
G02*
X8000000Y5600000I0J-600000D01*
G01*
X8000000Y600000D01*
G75*
G02*
X7400000Y0I-600000J0D01*
G01*
X600000Y0D01*
G75*
G02*
X0Y600000I0J600000D01*
G01*
X0Y5600000D01*
D11*
D12*
X722500Y2302500D02*
X752500Y2272500D01*
X752500Y2302500D02*
X722500Y2272500D01*
X997500Y4552500D02*
X1027500Y4522500D01*
X1027500Y4552500D02*
X997500Y4522500D01*
X1205000Y2702500D02*
X1235000Y2672500D01*
X1235000Y2702500D02*
X1205000Y2672500D01*
X1222500Y4202500D02*
X1252500Y4172500D01*
X1252500Y4202500D02*
X1222500Y4172500D01*
X1229000Y4032500D02*
X1259000Y4002500D01*
X1259000Y4032500D02*
X1229000Y4002500D01*
X1232500Y4827500D02*
X1262500Y4797500D01*
X1262500Y4827500D02*
X1232500Y4797500D01*
X1522500Y3477500D02*
X1552500Y3447500D01*
X1552500Y3477500D02*
X1522500Y3447500D01*
X1872500Y3302500D02*
X1902500Y3272500D01*
X1902500Y3302500D02*
X1872500Y3272500D01*
X1896109Y3078891D02*
X1926109Y3048891D01*
X1926109Y3078891D02*
X1896109Y3048891D01*
X1972500Y2377500D02*
X2002500Y2347500D01*
X2002500Y2377500D02*
X1972500Y2347500D01*
X2035582Y4719070D02*
X2065582Y4689070D01*
X2065582Y4719070D02*
X2035582Y4689070D01*
X2036391Y2913609D02*
X2066391Y2883609D01*
X2066391Y2913609D02*
X2036391Y2883609D01*
X2097500Y3277500D02*
X2127500Y3247500D01*
X2127500Y3277500D02*
X2097500Y3247500D01*
X2147500Y2352500D02*
X2177500Y2322500D01*
X2177500Y2352500D02*
X2147500Y2322500D01*
X2197500Y2902500D02*
X2227500Y2872500D01*
X2227500Y2902500D02*
X2197500Y2872500D01*
X2285000Y1565000D02*
X2315000Y1535000D01*
X2315000Y1565000D02*
X2285000Y1535000D01*
X2385000Y2765000D02*
X2415000Y2735000D01*
X2415000Y2765000D02*
X2385000Y2735000D01*
X2422500Y3602500D02*
X2452500Y3572500D01*
X2452500Y3602500D02*
X2422500Y3572500D01*
X2422500Y2852500D02*
X2452500Y2822500D01*
X2452500Y2852500D02*
X2422500Y2822500D01*
X2472500Y2052500D02*
X2502500Y2022500D01*
X2502500Y2052500D02*
X2472500Y2022500D01*
X2482500Y4477500D02*
X2512500Y4447500D01*
X2512500Y4477500D02*
X2482500Y4447500D01*
X2522500Y3052500D02*
X2552500Y3022500D01*
X2552500Y3052500D02*
X2522500Y3022500D01*
X2535000Y3765000D02*
X2565000Y3735000D01*
X2565000Y3765000D02*
X2535000Y3735000D01*
X2547500Y2827500D02*
X2577500Y2797500D01*
X2577500Y2827500D02*
X2547500Y2797500D01*
X2559623Y3590377D02*
X2589623Y3560377D01*
X2589623Y3590377D02*
X2559623Y3560377D01*
X2585000Y2615000D02*
X2615000Y2585000D01*
X2615000Y2615000D02*
X2585000Y2585000D01*
X2622500Y2905000D02*
X2652500Y2875000D01*
X2652500Y2905000D02*
X2622500Y2875000D01*
X2647500Y2127500D02*
X2677500Y2097500D01*
X2677500Y2127500D02*
X2647500Y2097500D01*
X2688250Y4821000D02*
X2718250Y4791000D01*
X2718250Y4821000D02*
X2688250Y4791000D01*
X2759623Y3390377D02*
X2789623Y3360377D01*
X2789623Y3390377D02*
X2759623Y3360377D01*
X2785000Y3052500D02*
X2815000Y3022500D01*
X2815000Y3052500D02*
X2785000Y3022500D01*
X2847500Y3827500D02*
X2877500Y3797500D01*
X2877500Y3827500D02*
X2847500Y3797500D01*
X2872500Y4252500D02*
X2902500Y4222500D01*
X2902500Y4252500D02*
X2872500Y4222500D01*
X2872500Y4077500D02*
X2902500Y4047500D01*
X2902500Y4077500D02*
X2872500Y4047500D01*
X2885377Y5114623D02*
X2915377Y5084623D01*
X2915377Y5114623D02*
X2885377Y5084623D01*
X2897500Y1927500D02*
X2927500Y1897500D01*
X2927500Y1927500D02*
X2897500Y1897500D01*
X2923031Y3026969D02*
X2953031Y2996969D01*
X2953031Y3026969D02*
X2923031Y2996969D01*
X2934623Y3140377D02*
X2964623Y3110377D01*
X2964623Y3140377D02*
X2934623Y3110377D01*
X2950000Y2452500D02*
X2980000Y2422500D01*
X2980000Y2452500D02*
X2950000Y2422500D01*
X2972500Y4002500D02*
X3002500Y3972500D01*
X3002500Y4002500D02*
X2972500Y3972500D01*
X3027500Y2877500D02*
X3057500Y2847500D01*
X3057500Y2877500D02*
X3027500Y2847500D01*
X3047500Y3822500D02*
X3077500Y3792500D01*
X3077500Y3822500D02*
X3047500Y3792500D01*
X3072500Y2502500D02*
X3102500Y2472500D01*
X3102500Y2502500D02*
X3072500Y2472500D01*
X3122500Y4052500D02*
X3152500Y4022500D01*
X3152500Y4052500D02*
X3122500Y4022500D01*
X3219467Y1830533D02*
X3249467Y1800533D01*
X3249467Y1830533D02*
X3219467Y1800533D01*
X3242500Y2777500D02*
X3272500Y2747500D01*
X3272500Y2777500D02*
X3242500Y2747500D01*
X3272500Y3775000D02*
X3302500Y3745000D01*
X3302500Y3775000D02*
X3272500Y3745000D01*
X3272500Y3402500D02*
X3302500Y3372500D01*
X3302500Y3402500D02*
X3272500Y3372500D01*
X3272500Y3252500D02*
X3302500Y3222500D01*
X3302500Y3252500D02*
X3272500Y3222500D01*
X3272500Y3102500D02*
X3302500Y3072500D01*
X3302500Y3102500D02*
X3272500Y3072500D01*
X3272500Y1715000D02*
X3302500Y1685000D01*
X3302500Y1715000D02*
X3272500Y1685000D01*
X3297500Y2540000D02*
X3327500Y2510000D01*
X3327500Y2540000D02*
X3297500Y2510000D01*
X3337500Y3715000D02*
X3367500Y3685000D01*
X3367500Y3715000D02*
X3337500Y3685000D01*
X3352500Y2352500D02*
X3382500Y2322500D01*
X3382500Y2352500D02*
X3352500Y2322500D01*
X3392500Y4065000D02*
X3422500Y4035000D01*
X3422500Y4065000D02*
X3392500Y4035000D01*
X3397500Y1552500D02*
X3427500Y1522500D01*
X3427500Y1552500D02*
X3397500Y1522500D01*
X3422500Y3402500D02*
X3452500Y3372500D01*
X3452500Y3402500D02*
X3422500Y3372500D01*
X3422500Y3252500D02*
X3452500Y3222500D01*
X3452500Y3252500D02*
X3422500Y3222500D01*
X3422500Y3102500D02*
X3452500Y3072500D01*
X3452500Y3102500D02*
X3422500Y3072500D01*
X3447500Y2277500D02*
X3477500Y2247500D01*
X3477500Y2277500D02*
X3447500Y2247500D01*
X3485000Y1765000D02*
X3515000Y1735000D01*
X3515000Y1765000D02*
X3485000Y1735000D01*
X3507999Y5334650D02*
X3537999Y5304650D01*
X3537999Y5334650D02*
X3507999Y5304650D01*
X3510000Y2715000D02*
X3540000Y2685000D01*
X3540000Y2715000D02*
X3510000Y2685000D01*
X3514681Y1879761D02*
X3544681Y1849761D01*
X3544681Y1879761D02*
X3514681Y1849761D01*
X3522500Y2802500D02*
X3552500Y2772500D01*
X3552500Y2802500D02*
X3522500Y2772500D01*
X3535000Y4965000D02*
X3565000Y4935000D01*
X3565000Y4965000D02*
X3535000Y4935000D01*
X3547500Y1552500D02*
X3577500Y1522500D01*
X3577500Y1552500D02*
X3547500Y1522500D01*
X3560000Y2640000D02*
X3590000Y2610000D01*
X3590000Y2640000D02*
X3560000Y2610000D01*
X3572500Y3402500D02*
X3602500Y3372500D01*
X3602500Y3402500D02*
X3572500Y3372500D01*
X3572500Y3252500D02*
X3602500Y3222500D01*
X3602500Y3252500D02*
X3572500Y3222500D01*
X3572500Y3102500D02*
X3602500Y3072500D01*
X3602500Y3102500D02*
X3572500Y3072500D01*
X3650159Y2855000D02*
X3680159Y2825000D01*
X3680159Y2855000D02*
X3650159Y2825000D01*
X3722500Y2277500D02*
X3752500Y2247500D01*
X3752500Y2277500D02*
X3722500Y2247500D01*
X3722500Y1777500D02*
X3752500Y1747500D01*
X3752500Y1777500D02*
X3722500Y1747500D01*
X3785000Y5565000D02*
X3815000Y5535000D01*
X3815000Y5565000D02*
X3785000Y5535000D01*
X3785000Y1717782D02*
X3815000Y1687782D01*
X3815000Y1717782D02*
X3785000Y1687782D01*
X3794752Y3658339D02*
X3824752Y3628339D01*
X3824752Y3658339D02*
X3794752Y3628339D01*
X3822500Y2352500D02*
X3852500Y2322500D01*
X3852500Y2352500D02*
X3822500Y2322500D01*
X3826590Y2858612D02*
X3856590Y2828612D01*
X3856590Y2858612D02*
X3826590Y2828612D01*
X3844050Y4494427D02*
X3874050Y4464427D01*
X3874050Y4494427D02*
X3844050Y4464427D01*
X3847500Y1777500D02*
X3877500Y1747500D01*
X3877500Y1777500D02*
X3847500Y1747500D01*
X3867500Y3457782D02*
X3897500Y3427782D01*
X3897500Y3457782D02*
X3867500Y3427782D01*
X3885000Y3665000D02*
X3915000Y3635000D01*
X3915000Y3665000D02*
X3885000Y3635000D01*
X3935000Y5815000D02*
X3965000Y5785000D01*
X3965000Y5815000D02*
X3935000Y5785000D01*
X3935000Y2802500D02*
X3965000Y2772500D01*
X3965000Y2802500D02*
X3935000Y2772500D01*
X3963650Y2489066D02*
X3993650Y2459066D01*
X3993650Y2489066D02*
X3963650Y2459066D01*
X3972500Y3347500D02*
X4002500Y3317500D01*
X4002500Y3347500D02*
X3972500Y3317500D01*
X3972500Y2627500D02*
X4002500Y2597500D01*
X4002500Y2627500D02*
X3972500Y2597500D01*
X3997500Y3052500D02*
X4027500Y3022500D01*
X4027500Y3052500D02*
X3997500Y3022500D01*
X4035000Y2015000D02*
X4065000Y1985000D01*
X4065000Y2015000D02*
X4035000Y1985000D01*
X4035000Y1915000D02*
X4065000Y1885000D01*
X4065000Y1915000D02*
X4035000Y1885000D01*
X4072500Y3127500D02*
X4102500Y3097500D01*
X4102500Y3127500D02*
X4072500Y3097500D01*
X4080000Y2125000D02*
X4110000Y2095000D01*
X4110000Y2125000D02*
X4080000Y2095000D01*
X4097500Y3257500D02*
X4127500Y3227500D01*
X4127500Y3257500D02*
X4097500Y3227500D01*
X4100533Y1799467D02*
X4130533Y1769467D01*
X4130533Y1799467D02*
X4100533Y1769467D01*
X4272500Y3615000D02*
X4302500Y3585000D01*
X4302500Y3615000D02*
X4272500Y3585000D01*
X4310000Y3527500D02*
X4340000Y3497500D01*
X4340000Y3527500D02*
X4310000Y3497500D01*
X4322500Y3257500D02*
X4352500Y3227500D01*
X4352500Y3257500D02*
X4322500Y3227500D01*
X4347500Y2998131D02*
X4377500Y2968131D01*
X4377500Y2998131D02*
X4347500Y2968131D01*
X4444500Y5365000D02*
X4474500Y5335000D01*
X4474500Y5365000D02*
X4444500Y5335000D01*
X4572500Y2652500D02*
X4602500Y2622500D01*
X4602500Y2652500D02*
X4572500Y2622500D01*
X4572500Y2552500D02*
X4602500Y2522500D01*
X4602500Y2552500D02*
X4572500Y2522500D01*
X4595000Y1775000D02*
X4625000Y1745000D01*
X4625000Y1775000D02*
X4595000Y1745000D01*
X4635000Y2415000D02*
X4665000Y2385000D01*
X4665000Y2415000D02*
X4635000Y2385000D01*
X4664500Y5065000D02*
X4694500Y5035000D01*
X4694500Y5065000D02*
X4664500Y5035000D01*
X4722500Y3102500D02*
X4752500Y3072500D01*
X4752500Y3102500D02*
X4722500Y3072500D01*
X4722500Y2052500D02*
X4752500Y2022500D01*
X4752500Y2052500D02*
X4722500Y2022500D01*
X4785000Y1465000D02*
X4815000Y1435000D01*
X4815000Y1465000D02*
X4785000Y1435000D01*
X4785000Y1265000D02*
X4815000Y1235000D01*
X4815000Y1265000D02*
X4785000Y1235000D01*
X4834820Y5615827D02*
X4864820Y5585828D01*
X4864820Y5615827D02*
X4834820Y5585828D01*
X4854000Y1372500D02*
X4884000Y1342500D01*
X4884000Y1372500D02*
X4854000Y1342500D01*
X4885000Y2265000D02*
X4915000Y2235000D01*
X4915000Y2265000D02*
X4885000Y2235000D01*
X4922500Y2802500D02*
X4952500Y2772500D01*
X4952500Y2802500D02*
X4922500Y2772500D01*
X4922500Y2052500D02*
X4952500Y2022500D01*
X4952500Y2052500D02*
X4922500Y2022500D01*
X4935000Y1465000D02*
X4965000Y1435000D01*
X4965000Y1465000D02*
X4935000Y1435000D01*
X4935000Y1265000D02*
X4965000Y1235000D01*
X4965000Y1265000D02*
X4935000Y1235000D01*
X5018825Y5248825D02*
X5048825Y5218825D01*
X5048825Y5248825D02*
X5018825Y5218825D01*
X5022500Y1702500D02*
X5052500Y1672500D01*
X5052500Y1702500D02*
X5022500Y1672500D01*
X5022500Y1002500D02*
X5052500Y972500D01*
X5052500Y1002500D02*
X5022500Y972500D01*
X5067500Y1815000D02*
X5097500Y1785000D01*
X5097500Y1815000D02*
X5067500Y1785000D01*
X5122500Y2102500D02*
X5152500Y2072500D01*
X5152500Y2102500D02*
X5122500Y2072500D01*
X5135000Y5815000D02*
X5165000Y5785000D01*
X5165000Y5815000D02*
X5135000Y5785000D01*
X5185000Y3565000D02*
X5215000Y3535000D01*
X5215000Y3565000D02*
X5185000Y3535000D01*
X5222500Y1565000D02*
X5252500Y1535000D01*
X5252500Y1565000D02*
X5222500Y1535000D01*
X5235000Y1465000D02*
X5265000Y1435000D01*
X5265000Y1465000D02*
X5235000Y1435000D01*
X5239122Y1354365D02*
X5269122Y1324365D01*
X5269122Y1354365D02*
X5239122Y1324365D01*
X5260000Y2565000D02*
X5290000Y2535000D01*
X5290000Y2565000D02*
X5260000Y2535000D01*
X5285000Y5565000D02*
X5315000Y5535000D01*
X5315000Y5565000D02*
X5285000Y5535000D01*
X5347500Y3377500D02*
X5377500Y3347500D01*
X5377500Y3377500D02*
X5347500Y3347500D01*
X5372500Y1651000D02*
X5402500Y1621000D01*
X5402500Y1651000D02*
X5372500Y1621000D01*
X5447500Y2627500D02*
X5477500Y2597500D01*
X5477500Y2627500D02*
X5447500Y2597500D01*
X5447500Y2377500D02*
X5477500Y2347500D01*
X5477500Y2377500D02*
X5447500Y2347500D01*
X5510000Y2815000D02*
X5540000Y2785000D01*
X5540000Y2815000D02*
X5510000Y2785000D01*
X5535000Y215000D02*
X5565000Y185000D01*
X5565000Y215000D02*
X5535000Y185000D01*
X5560000Y2640000D02*
X5590000Y2610000D01*
X5590000Y2640000D02*
X5560000Y2610000D01*
X5597500Y2777500D02*
X5627500Y2747500D01*
X5627500Y2777500D02*
X5597500Y2747500D01*
X5635000Y865000D02*
X5665000Y835000D01*
X5665000Y865000D02*
X5635000Y835000D01*
X5686391Y2688609D02*
X5716391Y2658609D01*
X5716391Y2688609D02*
X5686391Y2658609D01*
X5702500Y2215000D02*
X5732500Y2185000D01*
X5732500Y2215000D02*
X5702500Y2185000D01*
X5772500Y2677500D02*
X5802500Y2647500D01*
X5802500Y2677500D02*
X5772500Y2647500D01*
X5835000Y5215000D02*
X5865000Y5185000D01*
X5865000Y5215000D02*
X5835000Y5185000D01*
X5860000Y2862218D02*
X5890000Y2832218D01*
X5890000Y2862218D02*
X5860000Y2832218D01*
X5872500Y927500D02*
X5902500Y897500D01*
X5902500Y927500D02*
X5872500Y897500D01*
X5972500Y5462500D02*
X6002500Y5432500D01*
X6002500Y5462500D02*
X5972500Y5432500D01*
X5972500Y2627500D02*
X6002500Y2597500D01*
X6002500Y2627500D02*
X5972500Y2597500D01*
X5972500Y2265000D02*
X6002500Y2235000D01*
X6002500Y2265000D02*
X5972500Y2235000D01*
X6047500Y3052500D02*
X6077500Y3022500D01*
X6077500Y3052500D02*
X6047500Y3022500D01*
X6102500Y2232500D02*
X6132500Y2202500D01*
X6132500Y2232500D02*
X6102500Y2202500D01*
X6102500Y927500D02*
X6132500Y897500D01*
X6132500Y927500D02*
X6102500Y897500D01*
X6172500Y2627500D02*
X6202500Y2597500D01*
X6202500Y2627500D02*
X6172500Y2597500D01*
X6222500Y5512500D02*
X6252500Y5482500D01*
X6252500Y5512500D02*
X6222500Y5482500D01*
X6372500Y2702500D02*
X6402500Y2672500D01*
X6402500Y2702500D02*
X6372500Y2672500D01*
X6385000Y5187500D02*
X6415000Y5157500D01*
X6415000Y5187500D02*
X6385000Y5157500D01*
X6385000Y815000D02*
X6415000Y785000D01*
X6415000Y815000D02*
X6385000Y785000D01*
X6435000Y2615000D02*
X6465000Y2585000D01*
X6465000Y2615000D02*
X6435000Y2585000D01*
X6435000Y215000D02*
X6465000Y185000D01*
X6465000Y215000D02*
X6435000Y185000D01*
X6470000Y3002500D02*
X6500000Y2972500D01*
X6500000Y3002500D02*
X6470000Y2972500D01*
X6485000Y2365000D02*
X6515000Y2335000D01*
X6515000Y2365000D02*
X6485000Y2335000D01*
X6547500Y2227500D02*
X6577500Y2197500D01*
X6577500Y2227500D02*
X6547500Y2197500D01*
X6572500Y2902500D02*
X6602500Y2872500D01*
X6602500Y2902500D02*
X6572500Y2872500D01*
X6647500Y2227500D02*
X6677500Y2197500D01*
X6677500Y2227500D02*
X6647500Y2197500D01*
X6672500Y5102500D02*
X6702500Y5072500D01*
X6702500Y5102500D02*
X6672500Y5072500D01*
X6772500Y2215000D02*
X6802500Y2185000D01*
X6802500Y2215000D02*
X6772500Y2185000D01*
X6972500Y3052500D02*
X7002500Y3022500D01*
X7002500Y3052500D02*
X6972500Y3022500D01*
X7135000Y5215000D02*
X7165000Y5185000D01*
X7165000Y5215000D02*
X7135000Y5185000D01*
X7185000Y4465000D02*
X7215000Y4435000D01*
X7215000Y4465000D02*
X7185000Y4435000D01*
X7785000Y4415000D02*
X7815000Y4385000D01*
X7815000Y4415000D02*
X7785000Y4385000D01*
X7835000Y5265000D02*
X7865000Y5235000D01*
X7865000Y5265000D02*
X7835000Y5235000D01*
X475000Y5050000D02*
G75*
G02*
X425000Y5050000I-25000J0D01*
G01*
X425000Y5050000D02*
G75*
G02*
X475000Y5050000I25000J0D01*
G01*
X625000Y5050000D02*
G75*
G02*
X575000Y5050000I-25000J0D01*
G01*
X575000Y5050000D02*
G75*
G02*
X625000Y5050000I25000J0D01*
G01*
X1037500Y5012500D02*
G75*
G02*
X987500Y5012500I-25000J0D01*
G01*
X987500Y5012500D02*
G75*
G02*
X1037500Y5012500I25000J0D01*
G01*
X1037500Y4737500D02*
G75*
G02*
X987500Y4737500I-25000J0D01*
G01*
X987500Y4737500D02*
G75*
G02*
X1037500Y4737500I25000J0D01*
G01*
X1450000Y5050000D02*
G75*
G02*
X1400000Y5050000I-25000J0D01*
G01*
X1400000Y5050000D02*
G75*
G02*
X1450000Y5050000I25000J0D01*
G01*
X1562500Y1637500D02*
G75*
G02*
X1512500Y1637500I-25000J0D01*
G01*
X1512500Y1637500D02*
G75*
G02*
X1562500Y1637500I25000J0D01*
G01*
X1628250Y5256000D02*
G75*
G02*
X1578250Y5256000I-25000J0D01*
G01*
X1578250Y5256000D02*
G75*
G02*
X1628250Y5256000I25000J0D01*
G01*
X1778250Y4056000D02*
G75*
G02*
X1728250Y4056000I-25000J0D01*
G01*
X1728250Y4056000D02*
G75*
G02*
X1778250Y4056000I25000J0D01*
G01*
X1812500Y1637500D02*
G75*
G02*
X1762500Y1637500I-25000J0D01*
G01*
X1762500Y1637500D02*
G75*
G02*
X1812500Y1637500I25000J0D01*
G01*
X1828250Y5456000D02*
G75*
G02*
X1778250Y5456000I-25000J0D01*
G01*
X1778250Y5456000D02*
G75*
G02*
X1828250Y5456000I25000J0D01*
G01*
X1928250Y4006000D02*
G75*
G02*
X1878250Y4006000I-25000J0D01*
G01*
X1878250Y4006000D02*
G75*
G02*
X1928250Y4006000I25000J0D01*
G01*
X1978250Y5456000D02*
G75*
G02*
X1928250Y5456000I-25000J0D01*
G01*
X1928250Y5456000D02*
G75*
G02*
X1978250Y5456000I25000J0D01*
G01*
X2078250Y4006000D02*
G75*
G02*
X2028250Y4006000I-25000J0D01*
G01*
X2028250Y4006000D02*
G75*
G02*
X2078250Y4006000I25000J0D01*
G01*
X2128250Y5506000D02*
G75*
G02*
X2078250Y5506000I-25000J0D01*
G01*
X2078250Y5506000D02*
G75*
G02*
X2128250Y5506000I25000J0D01*
G01*
X2178250Y4056000D02*
G75*
G02*
X2128250Y4056000I-25000J0D01*
G01*
X2128250Y4056000D02*
G75*
G02*
X2178250Y4056000I25000J0D01*
G01*
X2228250Y5456000D02*
G75*
G02*
X2178250Y5456000I-25000J0D01*
G01*
X2178250Y5456000D02*
G75*
G02*
X2228250Y5456000I25000J0D01*
G01*
X2278250Y4006000D02*
G75*
G02*
X2228250Y4006000I-25000J0D01*
G01*
X2228250Y4006000D02*
G75*
G02*
X2278250Y4006000I25000J0D01*
G01*
X2387500Y5421041D02*
G75*
G02*
X2337500Y5421041I-25000J0D01*
G01*
X2337500Y5421041D02*
G75*
G02*
X2387500Y5421041I25000J0D01*
G01*
X2428250Y5306000D02*
G75*
G02*
X2378250Y5306000I-25000J0D01*
G01*
X2378250Y5306000D02*
G75*
G02*
X2428250Y5306000I25000J0D01*
G01*
X2428250Y4006000D02*
G75*
G02*
X2378250Y4006000I-25000J0D01*
G01*
X2378250Y4006000D02*
G75*
G02*
X2428250Y4006000I25000J0D01*
G01*
X2525000Y5600000D02*
G75*
G02*
X2475000Y5600000I-25000J0D01*
G01*
X2475000Y5600000D02*
G75*
G02*
X2525000Y5600000I25000J0D01*
G01*
X3512500Y1087500D02*
X3512500Y1012500D01*
X3475000Y1050000D02*
X3550000Y1050000D01*
X3712500Y1087500D02*
X3712500Y1012500D01*
X3675000Y1050000D02*
X3750000Y1050000D01*
X3912500Y1087500D02*
X3912500Y1012500D01*
X3875000Y1050000D02*
X3950000Y1050000D01*
X1196088Y1378912D02*
X1196088Y1446088D01*
X1128912Y1446088D01*
X1128912Y1378912D01*
X1196088Y1378912D01*
X1446088Y1378912D02*
X1446088Y1446088D01*
X1378912Y1446088D01*
X1378912Y1378912D01*
X1446088Y1378912D01*
X1696088Y1378912D02*
X1696088Y1446088D01*
X1628912Y1446088D01*
X1628912Y1378912D01*
X1696088Y1378912D01*
X1733588Y5766412D02*
X1733588Y5833588D01*
X1666412Y5833588D01*
X1666412Y5766412D01*
X1733588Y5766412D01*
X1946088Y1378912D02*
X1946088Y1446088D01*
X1878912Y1446088D01*
X1878912Y1378912D01*
X1946088Y1378912D01*
X1983588Y5766412D02*
X1983588Y5833588D01*
X1916412Y5833588D01*
X1916412Y5766412D01*
X1983588Y5766412D01*
X2196088Y1378912D02*
X2196088Y1446088D01*
X2128912Y1446088D01*
X2128912Y1378912D01*
X2196088Y1378912D01*
X2233588Y5766412D02*
X2233588Y5833588D01*
X2166412Y5833588D01*
X2166412Y5766412D01*
X2233588Y5766412D01*
X2446088Y1378912D02*
X2446088Y1446088D01*
X2378912Y1446088D01*
X2378912Y1378912D01*
X2446088Y1378912D01*
X2483588Y5766412D02*
X2483588Y5833588D01*
X2416412Y5833588D01*
X2416412Y5766412D01*
X2483588Y5766412D01*
X2696088Y1378912D02*
X2696088Y1446088D01*
X2628912Y1446088D01*
X2628912Y1378912D01*
X2696088Y1378912D01*
X2733588Y5766412D02*
X2733588Y5833588D01*
X2666412Y5833588D01*
X2666412Y5766412D01*
X2733588Y5766412D01*
X2946088Y1378912D02*
X2946088Y1446088D01*
X2878912Y1446088D01*
X2878912Y1378912D01*
X2946088Y1378912D01*
X2983588Y5766412D02*
X2983588Y5833588D01*
X2916412Y5833588D01*
X2916412Y5766412D01*
X2983588Y5766412D01*
X3233588Y5766412D02*
X3233588Y5833588D01*
X3166412Y5833588D01*
X3166412Y5766412D01*
X3233588Y5766412D01*
X3483588Y5766412D02*
X3483588Y5833588D01*
X3416412Y5833588D01*
X3416412Y5766412D01*
X3483588Y5766412D01*
X462500Y2212500D02*
X512500Y2262500D01*
X462500Y2312500D01*
X412500Y2262500D01*
X462500Y2212500D01*
X462500Y1958500D02*
X512500Y2008500D01*
X462500Y2058500D01*
X412500Y2008500D01*
X462500Y1958500D01*
X462500Y1704500D02*
X512500Y1754500D01*
X462500Y1804500D01*
X412500Y1754500D01*
X462500Y1704500D01*
X462500Y1450500D02*
X512500Y1500500D01*
X462500Y1550500D01*
X412500Y1500500D01*
X462500Y1450500D01*
X462500Y1196500D02*
X512500Y1246500D01*
X462500Y1296500D01*
X412500Y1246500D01*
X462500Y1196500D01*
X485000Y4747500D02*
X535000Y4797500D01*
X485000Y4847500D01*
X435000Y4797500D01*
X485000Y4747500D01*
X485000Y4497500D02*
X535000Y4547500D01*
X485000Y4597500D01*
X435000Y4547500D01*
X485000Y4497500D01*
X497500Y3875000D02*
X547500Y3925000D01*
X497500Y3975000D01*
X447500Y3925000D01*
X497500Y3875000D01*
X497500Y3625000D02*
X547500Y3675000D01*
X497500Y3725000D01*
X447500Y3675000D01*
X497500Y3625000D01*
X650000Y3100000D02*
X700000Y3150000D01*
X650000Y3200000D01*
X600000Y3150000D01*
X650000Y3100000D01*
X875000Y5225000D02*
X925000Y5275000D01*
X875000Y5325000D01*
X825000Y5275000D01*
X875000Y5225000D01*
X950000Y2400000D02*
X1000000Y2450000D01*
X950000Y2500000D01*
X900000Y2450000D01*
X950000Y2400000D01*
X1250000Y5225000D02*
X1300000Y5275000D01*
X1250000Y5325000D01*
X1200000Y5275000D01*
X1250000Y5225000D01*
X2800000Y2200000D02*
X2850000Y2250000D01*
X2800000Y2300000D01*
X2750000Y2250000D01*
X2800000Y2200000D01*
X3000000Y4650000D02*
X3050000Y4700000D01*
X3000000Y4750000D01*
X2950000Y4700000D01*
X3000000Y4650000D01*
X3225000Y5100000D02*
X3275000Y5150000D01*
X3225000Y5200000D01*
X3175000Y5150000D01*
X3225000Y5100000D01*
X3254000Y4650000D02*
X3304000Y4700000D01*
X3254000Y4750000D01*
X3204000Y4700000D01*
X3254000Y4650000D01*
X3750000Y550000D02*
X3800000Y600000D01*
X3750000Y650000D01*
X3700000Y600000D01*
X3750000Y550000D01*
X3900000Y3950000D02*
X3950000Y4000000D01*
X3900000Y4050000D01*
X3850000Y4000000D01*
X3900000Y3950000D01*
X4050000Y1550000D02*
X4100000Y1600000D01*
X4050000Y1650000D01*
X4000000Y1600000D01*
X4050000Y1550000D01*
X4300000Y3950000D02*
X4350000Y4000000D01*
X4300000Y4050000D01*
X4250000Y4000000D01*
X4300000Y3950000D01*
X4450000Y1900000D02*
X4500000Y1950000D01*
X4450000Y2000000D01*
X4400000Y1950000D01*
X4450000Y1900000D01*
X4600000Y550000D02*
X4650000Y600000D01*
X4600000Y650000D01*
X4550000Y600000D01*
X4600000Y550000D01*
X4850000Y2450000D02*
X4900000Y2500000D01*
X4850000Y2550000D01*
X4800000Y2500000D01*
X4850000Y2450000D01*
X4900000Y4050000D02*
X4950000Y4100000D01*
X4900000Y4150000D01*
X4850000Y4100000D01*
X4900000Y4050000D01*
X4900000Y3650000D02*
X4950000Y3700000D01*
X4900000Y3750000D01*
X4850000Y3700000D01*
X4900000Y3650000D01*
X5300000Y550000D02*
X5350000Y600000D01*
X5300000Y650000D01*
X5250000Y600000D01*
X5300000Y550000D01*
X5400000Y1000000D02*
X5450000Y1050000D01*
X5400000Y1100000D01*
X5350000Y1050000D01*
X5400000Y1000000D01*
X5600000Y5250000D02*
X5650000Y5300000D01*
X5600000Y5350000D01*
X5550000Y5300000D01*
X5600000Y5250000D01*
X5925000Y5800000D02*
X5975000Y5850000D01*
X5925000Y5900000D01*
X5875000Y5850000D01*
X5925000Y5800000D01*
X6179000Y5800000D02*
X6229000Y5850000D01*
X6179000Y5900000D01*
X6129000Y5850000D01*
X6179000Y5800000D01*
X6433000Y5800000D02*
X6483000Y5850000D01*
X6433000Y5900000D01*
X6383000Y5850000D01*
X6433000Y5800000D01*
X6950000Y2750000D02*
X7000000Y2800000D01*
X6950000Y2850000D01*
X6900000Y2800000D01*
X6950000Y2750000D01*
X6950000Y2350000D02*
X7000000Y2400000D01*
X6950000Y2450000D01*
X6900000Y2400000D01*
X6950000Y2350000D01*
D13*
X5925000Y525000D02*
X6075000Y375000D01*
X6075000Y525000D02*
X5925000Y375000D01*
X6075000Y450000D02*
G75*
G02*
X5925000Y450000I-75000J0D01*
G01*
X5925000Y450000D02*
G75*
G02*
X6075000Y450000I75000J0D01*
G01*
X7471000Y4921000D02*
X7621000Y4771000D01*
X7621000Y4921000D02*
X7471000Y4771000D01*
X7621000Y4846000D02*
G75*
G02*
X7471000Y4846000I-75000J0D01*
G01*
X7471000Y4846000D02*
G75*
G02*
X7621000Y4846000I75000J0D01*
G01*
D14*
X5661000Y789000D02*
X5831000Y619000D01*
X5831000Y789000D02*
X5661000Y619000D01*
X5746000Y789000D02*
X5746000Y619000D01*
X5661000Y704000D02*
X5831000Y704000D01*
X5661000Y281000D02*
X5831000Y111000D01*
X5831000Y281000D02*
X5661000Y111000D01*
X5746000Y281000D02*
X5746000Y111000D01*
X5661000Y196000D02*
X5831000Y196000D01*
X6169000Y789000D02*
X6339000Y619000D01*
X6339000Y789000D02*
X6169000Y619000D01*
X6254000Y789000D02*
X6254000Y619000D01*
X6169000Y704000D02*
X6339000Y704000D01*
X6169000Y281000D02*
X6339000Y111000D01*
X6339000Y281000D02*
X6169000Y111000D01*
X6254000Y281000D02*
X6254000Y111000D01*
X6169000Y196000D02*
X6339000Y196000D01*
X7207000Y5185000D02*
X7377000Y5015000D01*
X7377000Y5185000D02*
X7207000Y5015000D01*
X7292000Y5185000D02*
X7292000Y5015000D01*
X7207000Y5100000D02*
X7377000Y5100000D01*
X7207000Y4677000D02*
X7377000Y4507000D01*
X7377000Y4677000D02*
X7207000Y4507000D01*
X7292000Y4677000D02*
X7292000Y4507000D01*
X7207000Y4592000D02*
X7377000Y4592000D01*
X7715000Y5185000D02*
X7885000Y5015000D01*
X7885000Y5185000D02*
X7715000Y5015000D01*
X7800000Y5185000D02*
X7800000Y5015000D01*
X7715000Y5100000D02*
X7885000Y5100000D01*
X7715000Y4677000D02*
X7885000Y4507000D01*
X7885000Y4677000D02*
X7715000Y4507000D01*
X7800000Y4677000D02*
X7800000Y4507000D01*
X7715000Y4592000D02*
X7885000Y4592000D01*
D11*
X258277Y-313984D02*
X258277Y-113984D01*
X258277Y-113984D02*
X305896Y-113984D01*
X305896Y-113984D02*
X334467Y-123508D01*
X334467Y-123508D02*
X353515Y-142555D01*
X353515Y-142555D02*
X363039Y-161603D01*
X363039Y-161603D02*
X372562Y-199698D01*
X372562Y-199698D02*
X372562Y-228269D01*
X372562Y-228269D02*
X363039Y-266365D01*
X363039Y-266365D02*
X353515Y-285412D01*
X353515Y-285412D02*
X334467Y-304460D01*
X334467Y-304460D02*
X305896Y-313984D01*
X305896Y-313984D02*
X258277Y-313984D01*
X458277Y-313984D02*
X458277Y-180650D01*
X458277Y-218746D02*
X467801Y-199698D01*
X467801Y-199698D02*
X477324Y-190174D01*
X477324Y-190174D02*
X496372Y-180650D01*
X496372Y-180650D02*
X515420Y-180650D01*
X582086Y-313984D02*
X582086Y-180650D01*
X582086Y-113984D02*
X572563Y-123508D01*
X572563Y-123508D02*
X582086Y-133031D01*
X582086Y-133031D02*
X591610Y-123508D01*
X591610Y-123508D02*
X582086Y-113984D01*
X582086Y-113984D02*
X582086Y-133031D01*
X705896Y-313984D02*
X686848Y-304460D01*
X686848Y-304460D02*
X677324Y-285412D01*
X677324Y-285412D02*
X677324Y-113984D01*
X810658Y-313984D02*
X791610Y-304460D01*
X791610Y-304460D02*
X782086Y-285412D01*
X782086Y-285412D02*
X782086Y-113984D01*
X1039229Y-313984D02*
X1039229Y-113984D01*
X1039229Y-113984D02*
X1105896Y-256841D01*
X1105896Y-256841D02*
X1172563Y-113984D01*
X1172563Y-113984D02*
X1172563Y-313984D01*
X1353515Y-313984D02*
X1353515Y-209222D01*
X1353515Y-209222D02*
X1343991Y-190174D01*
X1343991Y-190174D02*
X1324944Y-180650D01*
X1324944Y-180650D02*
X1286848Y-180650D01*
X1286848Y-180650D02*
X1267801Y-190174D01*
X1353515Y-304460D02*
X1334467Y-313984D01*
X1334467Y-313984D02*
X1286848Y-313984D01*
X1286848Y-313984D02*
X1267801Y-304460D01*
X1267801Y-304460D02*
X1258277Y-285412D01*
X1258277Y-285412D02*
X1258277Y-266365D01*
X1258277Y-266365D02*
X1267801Y-247317D01*
X1267801Y-247317D02*
X1286848Y-237793D01*
X1286848Y-237793D02*
X1334467Y-237793D01*
X1334467Y-237793D02*
X1353515Y-228269D01*
X1448753Y-180650D02*
X1448753Y-380650D01*
X1448753Y-190174D02*
X1467801Y-180650D01*
X1467801Y-180650D02*
X1505896Y-180650D01*
X1505896Y-180650D02*
X1524943Y-190174D01*
X1524943Y-190174D02*
X1534467Y-199698D01*
X1534467Y-199698D02*
X1543991Y-218746D01*
X1543991Y-218746D02*
X1543991Y-275889D01*
X1543991Y-275889D02*
X1534467Y-294936D01*
X1534467Y-294936D02*
X1524943Y-304460D01*
X1524943Y-304460D02*
X1505896Y-313984D01*
X1505896Y-313984D02*
X1467801Y-313984D01*
X1467801Y-313984D02*
X1448753Y-304460D01*
X1629705Y-294936D02*
X1639229Y-304460D01*
X1639229Y-304460D02*
X1629705Y-313984D01*
X1629705Y-313984D02*
X1620182Y-304460D01*
X1620182Y-304460D02*
X1629705Y-294936D01*
X1629705Y-294936D02*
X1629705Y-313984D01*
X1629705Y-190174D02*
X1639229Y-199698D01*
X1639229Y-199698D02*
X1629705Y-209222D01*
X1629705Y-209222D02*
X1620182Y-199698D01*
X1620182Y-199698D02*
X1629705Y-190174D01*
X1629705Y-190174D02*
X1629705Y-209222D01*
D12*
X-32500Y-627500D02*
X-2500Y-657500D01*
X-2500Y-627500D02*
X-32500Y-657500D01*
D11*
X296372Y-533984D02*
X315420Y-533984D01*
X315420Y-533984D02*
X334467Y-543508D01*
X334467Y-543508D02*
X343991Y-553031D01*
X343991Y-553031D02*
X353515Y-572079D01*
X353515Y-572079D02*
X363039Y-610174D01*
X363039Y-610174D02*
X363039Y-657793D01*
X363039Y-657793D02*
X353515Y-695889D01*
X353515Y-695889D02*
X343991Y-714936D01*
X343991Y-714936D02*
X334467Y-724460D01*
X334467Y-724460D02*
X315420Y-733984D01*
X315420Y-733984D02*
X296372Y-733984D01*
X296372Y-733984D02*
X277324Y-724460D01*
X277324Y-724460D02*
X267801Y-714936D01*
X267801Y-714936D02*
X258277Y-695889D01*
X258277Y-695889D02*
X248753Y-657793D01*
X248753Y-657793D02*
X248753Y-610174D01*
X248753Y-610174D02*
X258277Y-572079D01*
X258277Y-572079D02*
X267801Y-553031D01*
X267801Y-553031D02*
X277324Y-543508D01*
X277324Y-543508D02*
X296372Y-533984D01*
X448753Y-714936D02*
X458277Y-724460D01*
X458277Y-724460D02*
X448753Y-733984D01*
X448753Y-733984D02*
X439229Y-724460D01*
X439229Y-724460D02*
X448753Y-714936D01*
X448753Y-714936D02*
X448753Y-733984D01*
X524944Y-533984D02*
X648753Y-533984D01*
X648753Y-533984D02*
X582086Y-610174D01*
X582086Y-610174D02*
X610658Y-610174D01*
X610658Y-610174D02*
X629705Y-619698D01*
X629705Y-619698D02*
X639229Y-629222D01*
X639229Y-629222D02*
X648753Y-648270D01*
X648753Y-648270D02*
X648753Y-695889D01*
X648753Y-695889D02*
X639229Y-714936D01*
X639229Y-714936D02*
X629705Y-724460D01*
X629705Y-724460D02*
X610658Y-733984D01*
X610658Y-733984D02*
X553515Y-733984D01*
X553515Y-733984D02*
X534467Y-724460D01*
X534467Y-724460D02*
X524944Y-714936D01*
X772562Y-533984D02*
X791610Y-533984D01*
X791610Y-533984D02*
X810658Y-543508D01*
X810658Y-543508D02*
X820182Y-553031D01*
X820182Y-553031D02*
X829705Y-572079D01*
X829705Y-572079D02*
X839229Y-610174D01*
X839229Y-610174D02*
X839229Y-657793D01*
X839229Y-657793D02*
X829705Y-695889D01*
X829705Y-695889D02*
X820182Y-714936D01*
X820182Y-714936D02*
X810658Y-724460D01*
X810658Y-724460D02*
X791610Y-733984D01*
X791610Y-733984D02*
X772562Y-733984D01*
X772562Y-733984D02*
X753515Y-724460D01*
X753515Y-724460D02*
X743991Y-714936D01*
X743991Y-714936D02*
X734467Y-695889D01*
X734467Y-695889D02*
X724943Y-657793D01*
X724943Y-657793D02*
X724943Y-610174D01*
X724943Y-610174D02*
X734467Y-572079D01*
X734467Y-572079D02*
X743991Y-553031D01*
X743991Y-553031D02*
X753515Y-543508D01*
X753515Y-543508D02*
X772562Y-533984D01*
X963039Y-533984D02*
X982086Y-533984D01*
X982086Y-533984D02*
X1001134Y-543508D01*
X1001134Y-543508D02*
X1010658Y-553031D01*
X1010658Y-553031D02*
X1020182Y-572079D01*
X1020182Y-572079D02*
X1029705Y-610174D01*
X1029705Y-610174D02*
X1029705Y-657793D01*
X1029705Y-657793D02*
X1020182Y-695889D01*
X1020182Y-695889D02*
X1010658Y-714936D01*
X1010658Y-714936D02*
X1001134Y-724460D01*
X1001134Y-724460D02*
X982086Y-733984D01*
X982086Y-733984D02*
X963039Y-733984D01*
X963039Y-733984D02*
X943991Y-724460D01*
X943991Y-724460D02*
X934467Y-714936D01*
X934467Y-714936D02*
X924943Y-695889D01*
X924943Y-695889D02*
X915420Y-657793D01*
X915420Y-657793D02*
X915420Y-610174D01*
X915420Y-610174D02*
X924943Y-572079D01*
X924943Y-572079D02*
X934467Y-553031D01*
X934467Y-553031D02*
X943991Y-543508D01*
X943991Y-543508D02*
X963039Y-533984D01*
X1115420Y-733984D02*
X1115420Y-600650D01*
X1115420Y-619698D02*
X1124944Y-610174D01*
X1124944Y-610174D02*
X1143991Y-600650D01*
X1143991Y-600650D02*
X1172563Y-600650D01*
X1172563Y-600650D02*
X1191610Y-610174D01*
X1191610Y-610174D02*
X1201134Y-629222D01*
X1201134Y-629222D02*
X1201134Y-733984D01*
X1201134Y-629222D02*
X1210658Y-610174D01*
X1210658Y-610174D02*
X1229705Y-600650D01*
X1229705Y-600650D02*
X1258277Y-600650D01*
X1258277Y-600650D02*
X1277325Y-610174D01*
X1277325Y-610174D02*
X1286848Y-629222D01*
X1286848Y-629222D02*
X1286848Y-733984D01*
X1382086Y-733984D02*
X1382086Y-600650D01*
X1382086Y-619698D02*
X1391610Y-610174D01*
X1391610Y-610174D02*
X1410658Y-600650D01*
X1410658Y-600650D02*
X1439229Y-600650D01*
X1439229Y-600650D02*
X1458277Y-610174D01*
X1458277Y-610174D02*
X1467801Y-629222D01*
X1467801Y-629222D02*
X1467801Y-733984D01*
X1467801Y-629222D02*
X1477324Y-610174D01*
X1477324Y-610174D02*
X1496372Y-600650D01*
X1496372Y-600650D02*
X1524943Y-600650D01*
X1524943Y-600650D02*
X1543991Y-610174D01*
X1543991Y-610174D02*
X1553515Y-629222D01*
X1553515Y-629222D02*
X1553515Y-733984D01*
X1943991Y-524460D02*
X1772563Y-781603D01*
X2201134Y-533984D02*
X2220182Y-533984D01*
X2220182Y-533984D02*
X2239229Y-543508D01*
X2239229Y-543508D02*
X2248753Y-553031D01*
X2248753Y-553031D02*
X2258277Y-572079D01*
X2258277Y-572079D02*
X2267801Y-610174D01*
X2267801Y-610174D02*
X2267801Y-657793D01*
X2267801Y-657793D02*
X2258277Y-695889D01*
X2258277Y-695889D02*
X2248753Y-714936D01*
X2248753Y-714936D02*
X2239229Y-724460D01*
X2239229Y-724460D02*
X2220182Y-733984D01*
X2220182Y-733984D02*
X2201134Y-733984D01*
X2201134Y-733984D02*
X2182087Y-724460D01*
X2182087Y-724460D02*
X2172563Y-714936D01*
X2172563Y-714936D02*
X2163039Y-695889D01*
X2163039Y-695889D02*
X2153515Y-657793D01*
X2153515Y-657793D02*
X2153515Y-610174D01*
X2153515Y-610174D02*
X2163039Y-572079D01*
X2163039Y-572079D02*
X2172563Y-553031D01*
X2172563Y-553031D02*
X2182087Y-543508D01*
X2182087Y-543508D02*
X2201134Y-533984D01*
X2353515Y-714936D02*
X2363039Y-724460D01*
X2363039Y-724460D02*
X2353515Y-733984D01*
X2353515Y-733984D02*
X2343991Y-724460D01*
X2343991Y-724460D02*
X2353515Y-714936D01*
X2353515Y-714936D02*
X2353515Y-733984D01*
X2486848Y-533984D02*
X2505896Y-533984D01*
X2505896Y-533984D02*
X2524944Y-543508D01*
X2524944Y-543508D02*
X2534468Y-553031D01*
X2534468Y-553031D02*
X2543991Y-572079D01*
X2543991Y-572079D02*
X2553515Y-610174D01*
X2553515Y-610174D02*
X2553515Y-657793D01*
X2553515Y-657793D02*
X2543991Y-695889D01*
X2543991Y-695889D02*
X2534468Y-714936D01*
X2534468Y-714936D02*
X2524944Y-724460D01*
X2524944Y-724460D02*
X2505896Y-733984D01*
X2505896Y-733984D02*
X2486848Y-733984D01*
X2486848Y-733984D02*
X2467801Y-724460D01*
X2467801Y-724460D02*
X2458277Y-714936D01*
X2458277Y-714936D02*
X2448753Y-695889D01*
X2448753Y-695889D02*
X2439229Y-657793D01*
X2439229Y-657793D02*
X2439229Y-610174D01*
X2439229Y-610174D02*
X2448753Y-572079D01*
X2448753Y-572079D02*
X2458277Y-553031D01*
X2458277Y-553031D02*
X2467801Y-543508D01*
X2467801Y-543508D02*
X2486848Y-533984D01*
X2743991Y-733984D02*
X2629706Y-733984D01*
X2686848Y-733984D02*
X2686848Y-533984D01*
X2686848Y-533984D02*
X2667801Y-562555D01*
X2667801Y-562555D02*
X2648753Y-581603D01*
X2648753Y-581603D02*
X2629706Y-591127D01*
X2934467Y-733984D02*
X2820182Y-733984D01*
X2877325Y-733984D02*
X2877325Y-533984D01*
X2877325Y-533984D02*
X2858277Y-562555D01*
X2858277Y-562555D02*
X2839229Y-581603D01*
X2839229Y-581603D02*
X2820182Y-591127D01*
X3048753Y-619698D02*
X3029706Y-610174D01*
X3029706Y-610174D02*
X3020182Y-600650D01*
X3020182Y-600650D02*
X3010658Y-581603D01*
X3010658Y-581603D02*
X3010658Y-572079D01*
X3010658Y-572079D02*
X3020182Y-553031D01*
X3020182Y-553031D02*
X3029706Y-543508D01*
X3029706Y-543508D02*
X3048753Y-533984D01*
X3048753Y-533984D02*
X3086848Y-533984D01*
X3086848Y-533984D02*
X3105896Y-543508D01*
X3105896Y-543508D02*
X3115420Y-553031D01*
X3115420Y-553031D02*
X3124944Y-572079D01*
X3124944Y-572079D02*
X3124944Y-581603D01*
X3124944Y-581603D02*
X3115420Y-600650D01*
X3115420Y-600650D02*
X3105896Y-610174D01*
X3105896Y-610174D02*
X3086848Y-619698D01*
X3086848Y-619698D02*
X3048753Y-619698D01*
X3048753Y-619698D02*
X3029706Y-629222D01*
X3029706Y-629222D02*
X3020182Y-638746D01*
X3020182Y-638746D02*
X3010658Y-657793D01*
X3010658Y-657793D02*
X3010658Y-695889D01*
X3010658Y-695889D02*
X3020182Y-714936D01*
X3020182Y-714936D02*
X3029706Y-724460D01*
X3029706Y-724460D02*
X3048753Y-733984D01*
X3048753Y-733984D02*
X3086848Y-733984D01*
X3086848Y-733984D02*
X3105896Y-724460D01*
X3105896Y-724460D02*
X3115420Y-714936D01*
X3115420Y-714936D02*
X3124944Y-695889D01*
X3124944Y-695889D02*
X3124944Y-657793D01*
X3124944Y-657793D02*
X3115420Y-638746D01*
X3115420Y-638746D02*
X3105896Y-629222D01*
X3105896Y-629222D02*
X3086848Y-619698D01*
X3201134Y-533984D02*
X3201134Y-572079D01*
X3277325Y-533984D02*
X3277325Y-572079D01*
X3572563Y-810174D02*
X3563039Y-800650D01*
X3563039Y-800650D02*
X3543991Y-772079D01*
X3543991Y-772079D02*
X3534468Y-753031D01*
X3534468Y-753031D02*
X3524944Y-724460D01*
X3524944Y-724460D02*
X3515420Y-676841D01*
X3515420Y-676841D02*
X3515420Y-638746D01*
X3515420Y-638746D02*
X3524944Y-591127D01*
X3524944Y-591127D02*
X3534468Y-562555D01*
X3534468Y-562555D02*
X3543991Y-543508D01*
X3543991Y-543508D02*
X3563039Y-514936D01*
X3563039Y-514936D02*
X3572563Y-505412D01*
X3753515Y-733984D02*
X3639229Y-733984D01*
X3696372Y-733984D02*
X3696372Y-533984D01*
X3696372Y-533984D02*
X3677325Y-562555D01*
X3677325Y-562555D02*
X3658277Y-581603D01*
X3658277Y-581603D02*
X3639229Y-591127D01*
X3924944Y-533984D02*
X3886848Y-533984D01*
X3886848Y-533984D02*
X3867801Y-543508D01*
X3867801Y-543508D02*
X3858277Y-553031D01*
X3858277Y-553031D02*
X3839229Y-581603D01*
X3839229Y-581603D02*
X3829706Y-619698D01*
X3829706Y-619698D02*
X3829706Y-695889D01*
X3829706Y-695889D02*
X3839229Y-714936D01*
X3839229Y-714936D02*
X3848753Y-724460D01*
X3848753Y-724460D02*
X3867801Y-733984D01*
X3867801Y-733984D02*
X3905896Y-733984D01*
X3905896Y-733984D02*
X3924944Y-724460D01*
X3924944Y-724460D02*
X3934468Y-714936D01*
X3934468Y-714936D02*
X3943991Y-695889D01*
X3943991Y-695889D02*
X3943991Y-648270D01*
X3943991Y-648270D02*
X3934468Y-629222D01*
X3934468Y-629222D02*
X3924944Y-619698D01*
X3924944Y-619698D02*
X3905896Y-610174D01*
X3905896Y-610174D02*
X3867801Y-610174D01*
X3867801Y-610174D02*
X3848753Y-619698D01*
X3848753Y-619698D02*
X3839229Y-629222D01*
X3839229Y-629222D02*
X3829706Y-648270D01*
X4058277Y-619698D02*
X4039229Y-610174D01*
X4039229Y-610174D02*
X4029706Y-600650D01*
X4029706Y-600650D02*
X4020182Y-581603D01*
X4020182Y-581603D02*
X4020182Y-572079D01*
X4020182Y-572079D02*
X4029706Y-553031D01*
X4029706Y-553031D02*
X4039229Y-543508D01*
X4039229Y-543508D02*
X4058277Y-533984D01*
X4058277Y-533984D02*
X4096372Y-533984D01*
X4096372Y-533984D02*
X4115420Y-543508D01*
X4115420Y-543508D02*
X4124944Y-553031D01*
X4124944Y-553031D02*
X4134468Y-572079D01*
X4134468Y-572079D02*
X4134468Y-581603D01*
X4134468Y-581603D02*
X4124944Y-600650D01*
X4124944Y-600650D02*
X4115420Y-610174D01*
X4115420Y-610174D02*
X4096372Y-619698D01*
X4096372Y-619698D02*
X4058277Y-619698D01*
X4058277Y-619698D02*
X4039229Y-629222D01*
X4039229Y-629222D02*
X4029706Y-638746D01*
X4029706Y-638746D02*
X4020182Y-657793D01*
X4020182Y-657793D02*
X4020182Y-695889D01*
X4020182Y-695889D02*
X4029706Y-714936D01*
X4029706Y-714936D02*
X4039229Y-724460D01*
X4039229Y-724460D02*
X4058277Y-733984D01*
X4058277Y-733984D02*
X4096372Y-733984D01*
X4096372Y-733984D02*
X4115420Y-724460D01*
X4115420Y-724460D02*
X4124944Y-714936D01*
X4124944Y-714936D02*
X4134468Y-695889D01*
X4134468Y-695889D02*
X4134468Y-657793D01*
X4134468Y-657793D02*
X4124944Y-638746D01*
X4124944Y-638746D02*
X4115420Y-629222D01*
X4115420Y-629222D02*
X4096372Y-619698D01*
X4372563Y-733984D02*
X4372563Y-533984D01*
X4458277Y-733984D02*
X4458277Y-629222D01*
X4458277Y-629222D02*
X4448753Y-610174D01*
X4448753Y-610174D02*
X4429706Y-600650D01*
X4429706Y-600650D02*
X4401134Y-600650D01*
X4401134Y-600650D02*
X4382087Y-610174D01*
X4382087Y-610174D02*
X4372563Y-619698D01*
X4582087Y-733984D02*
X4563039Y-724460D01*
X4563039Y-724460D02*
X4553515Y-714936D01*
X4553515Y-714936D02*
X4543992Y-695889D01*
X4543992Y-695889D02*
X4543992Y-638746D01*
X4543992Y-638746D02*
X4553515Y-619698D01*
X4553515Y-619698D02*
X4563039Y-610174D01*
X4563039Y-610174D02*
X4582087Y-600650D01*
X4582087Y-600650D02*
X4610658Y-600650D01*
X4610658Y-600650D02*
X4629706Y-610174D01*
X4629706Y-610174D02*
X4639230Y-619698D01*
X4639230Y-619698D02*
X4648753Y-638746D01*
X4648753Y-638746D02*
X4648753Y-695889D01*
X4648753Y-695889D02*
X4639230Y-714936D01*
X4639230Y-714936D02*
X4629706Y-724460D01*
X4629706Y-724460D02*
X4610658Y-733984D01*
X4610658Y-733984D02*
X4582087Y-733984D01*
X4763039Y-733984D02*
X4743992Y-724460D01*
X4743992Y-724460D02*
X4734468Y-705412D01*
X4734468Y-705412D02*
X4734468Y-533984D01*
X4915420Y-724460D02*
X4896373Y-733984D01*
X4896373Y-733984D02*
X4858277Y-733984D01*
X4858277Y-733984D02*
X4839230Y-724460D01*
X4839230Y-724460D02*
X4829706Y-705412D01*
X4829706Y-705412D02*
X4829706Y-629222D01*
X4829706Y-629222D02*
X4839230Y-610174D01*
X4839230Y-610174D02*
X4858277Y-600650D01*
X4858277Y-600650D02*
X4896373Y-600650D01*
X4896373Y-600650D02*
X4915420Y-610174D01*
X4915420Y-610174D02*
X4924944Y-629222D01*
X4924944Y-629222D02*
X4924944Y-648270D01*
X4924944Y-648270D02*
X4829706Y-667317D01*
X5001134Y-724460D02*
X5020182Y-733984D01*
X5020182Y-733984D02*
X5058277Y-733984D01*
X5058277Y-733984D02*
X5077325Y-724460D01*
X5077325Y-724460D02*
X5086849Y-705412D01*
X5086849Y-705412D02*
X5086849Y-695889D01*
X5086849Y-695889D02*
X5077325Y-676841D01*
X5077325Y-676841D02*
X5058277Y-667317D01*
X5058277Y-667317D02*
X5029706Y-667317D01*
X5029706Y-667317D02*
X5010658Y-657793D01*
X5010658Y-657793D02*
X5001134Y-638746D01*
X5001134Y-638746D02*
X5001134Y-629222D01*
X5001134Y-629222D02*
X5010658Y-610174D01*
X5010658Y-610174D02*
X5029706Y-600650D01*
X5029706Y-600650D02*
X5058277Y-600650D01*
X5058277Y-600650D02*
X5077325Y-610174D01*
X5153515Y-810174D02*
X5163039Y-800650D01*
X5163039Y-800650D02*
X5182087Y-772079D01*
X5182087Y-772079D02*
X5191611Y-753031D01*
X5191611Y-753031D02*
X5201134Y-724460D01*
X5201134Y-724460D02*
X5210658Y-676841D01*
X5210658Y-676841D02*
X5210658Y-638746D01*
X5210658Y-638746D02*
X5201134Y-591127D01*
X5201134Y-591127D02*
X5191611Y-562555D01*
X5191611Y-562555D02*
X5182087Y-543508D01*
X5182087Y-543508D02*
X5163039Y-514936D01*
X5163039Y-514936D02*
X5153515Y-505412D01*
D12*
X-2500Y-906500D02*
G75*
G02*
X-52500Y-906500I-25000J0D01*
G01*
X-52500Y-906500D02*
G75*
G02*
X-2500Y-906500I25000J0D01*
G01*
D11*
X296372Y-797984D02*
X315420Y-797984D01*
X315420Y-797984D02*
X334467Y-807508D01*
X334467Y-807508D02*
X343991Y-817031D01*
X343991Y-817031D02*
X353515Y-836079D01*
X353515Y-836079D02*
X363039Y-874174D01*
X363039Y-874174D02*
X363039Y-921793D01*
X363039Y-921793D02*
X353515Y-959888D01*
X353515Y-959888D02*
X343991Y-978936D01*
X343991Y-978936D02*
X334467Y-988460D01*
X334467Y-988460D02*
X315420Y-997984D01*
X315420Y-997984D02*
X296372Y-997984D01*
X296372Y-997984D02*
X277324Y-988460D01*
X277324Y-988460D02*
X267801Y-978936D01*
X267801Y-978936D02*
X258277Y-959888D01*
X258277Y-959888D02*
X248753Y-921793D01*
X248753Y-921793D02*
X248753Y-874174D01*
X248753Y-874174D02*
X258277Y-836079D01*
X258277Y-836079D02*
X267801Y-817031D01*
X267801Y-817031D02*
X277324Y-807508D01*
X277324Y-807508D02*
X296372Y-797984D01*
X448753Y-978936D02*
X458277Y-988460D01*
X458277Y-988460D02*
X448753Y-997984D01*
X448753Y-997984D02*
X439229Y-988460D01*
X439229Y-988460D02*
X448753Y-978936D01*
X448753Y-978936D02*
X448753Y-997984D01*
X639229Y-797984D02*
X543991Y-797984D01*
X543991Y-797984D02*
X534467Y-893222D01*
X534467Y-893222D02*
X543991Y-883698D01*
X543991Y-883698D02*
X563039Y-874174D01*
X563039Y-874174D02*
X610658Y-874174D01*
X610658Y-874174D02*
X629705Y-883698D01*
X629705Y-883698D02*
X639229Y-893222D01*
X639229Y-893222D02*
X648753Y-912269D01*
X648753Y-912269D02*
X648753Y-959888D01*
X648753Y-959888D02*
X639229Y-978936D01*
X639229Y-978936D02*
X629705Y-988460D01*
X629705Y-988460D02*
X610658Y-997984D01*
X610658Y-997984D02*
X563039Y-997984D01*
X563039Y-997984D02*
X543991Y-988460D01*
X543991Y-988460D02*
X534467Y-978936D01*
X772562Y-797984D02*
X791610Y-797984D01*
X791610Y-797984D02*
X810658Y-807508D01*
X810658Y-807508D02*
X820182Y-817031D01*
X820182Y-817031D02*
X829705Y-836079D01*
X829705Y-836079D02*
X839229Y-874174D01*
X839229Y-874174D02*
X839229Y-921793D01*
X839229Y-921793D02*
X829705Y-959888D01*
X829705Y-959888D02*
X820182Y-978936D01*
X820182Y-978936D02*
X810658Y-988460D01*
X810658Y-988460D02*
X791610Y-997984D01*
X791610Y-997984D02*
X772562Y-997984D01*
X772562Y-997984D02*
X753515Y-988460D01*
X753515Y-988460D02*
X743991Y-978936D01*
X743991Y-978936D02*
X734467Y-959888D01*
X734467Y-959888D02*
X724943Y-921793D01*
X724943Y-921793D02*
X724943Y-874174D01*
X724943Y-874174D02*
X734467Y-836079D01*
X734467Y-836079D02*
X743991Y-817031D01*
X743991Y-817031D02*
X753515Y-807508D01*
X753515Y-807508D02*
X772562Y-797984D01*
X963039Y-797984D02*
X982086Y-797984D01*
X982086Y-797984D02*
X1001134Y-807508D01*
X1001134Y-807508D02*
X1010658Y-817031D01*
X1010658Y-817031D02*
X1020182Y-836079D01*
X1020182Y-836079D02*
X1029705Y-874174D01*
X1029705Y-874174D02*
X1029705Y-921793D01*
X1029705Y-921793D02*
X1020182Y-959888D01*
X1020182Y-959888D02*
X1010658Y-978936D01*
X1010658Y-978936D02*
X1001134Y-988460D01*
X1001134Y-988460D02*
X982086Y-997984D01*
X982086Y-997984D02*
X963039Y-997984D01*
X963039Y-997984D02*
X943991Y-988460D01*
X943991Y-988460D02*
X934467Y-978936D01*
X934467Y-978936D02*
X924943Y-959888D01*
X924943Y-959888D02*
X915420Y-921793D01*
X915420Y-921793D02*
X915420Y-874174D01*
X915420Y-874174D02*
X924943Y-836079D01*
X924943Y-836079D02*
X934467Y-817031D01*
X934467Y-817031D02*
X943991Y-807508D01*
X943991Y-807508D02*
X963039Y-797984D01*
X1115420Y-997984D02*
X1115420Y-864650D01*
X1115420Y-883698D02*
X1124944Y-874174D01*
X1124944Y-874174D02*
X1143991Y-864650D01*
X1143991Y-864650D02*
X1172563Y-864650D01*
X1172563Y-864650D02*
X1191610Y-874174D01*
X1191610Y-874174D02*
X1201134Y-893222D01*
X1201134Y-893222D02*
X1201134Y-997984D01*
X1201134Y-893222D02*
X1210658Y-874174D01*
X1210658Y-874174D02*
X1229705Y-864650D01*
X1229705Y-864650D02*
X1258277Y-864650D01*
X1258277Y-864650D02*
X1277325Y-874174D01*
X1277325Y-874174D02*
X1286848Y-893222D01*
X1286848Y-893222D02*
X1286848Y-997984D01*
X1382086Y-997984D02*
X1382086Y-864650D01*
X1382086Y-883698D02*
X1391610Y-874174D01*
X1391610Y-874174D02*
X1410658Y-864650D01*
X1410658Y-864650D02*
X1439229Y-864650D01*
X1439229Y-864650D02*
X1458277Y-874174D01*
X1458277Y-874174D02*
X1467801Y-893222D01*
X1467801Y-893222D02*
X1467801Y-997984D01*
X1467801Y-893222D02*
X1477324Y-874174D01*
X1477324Y-874174D02*
X1496372Y-864650D01*
X1496372Y-864650D02*
X1524943Y-864650D01*
X1524943Y-864650D02*
X1543991Y-874174D01*
X1543991Y-874174D02*
X1553515Y-893222D01*
X1553515Y-893222D02*
X1553515Y-997984D01*
X1943991Y-788460D02*
X1772563Y-1045603D01*
X2201134Y-797984D02*
X2220182Y-797984D01*
X2220182Y-797984D02*
X2239229Y-807508D01*
X2239229Y-807508D02*
X2248753Y-817031D01*
X2248753Y-817031D02*
X2258277Y-836079D01*
X2258277Y-836079D02*
X2267801Y-874174D01*
X2267801Y-874174D02*
X2267801Y-921793D01*
X2267801Y-921793D02*
X2258277Y-959888D01*
X2258277Y-959888D02*
X2248753Y-978936D01*
X2248753Y-978936D02*
X2239229Y-988460D01*
X2239229Y-988460D02*
X2220182Y-997984D01*
X2220182Y-997984D02*
X2201134Y-997984D01*
X2201134Y-997984D02*
X2182087Y-988460D01*
X2182087Y-988460D02*
X2172563Y-978936D01*
X2172563Y-978936D02*
X2163039Y-959888D01*
X2163039Y-959888D02*
X2153515Y-921793D01*
X2153515Y-921793D02*
X2153515Y-874174D01*
X2153515Y-874174D02*
X2163039Y-836079D01*
X2163039Y-836079D02*
X2172563Y-817031D01*
X2172563Y-817031D02*
X2182087Y-807508D01*
X2182087Y-807508D02*
X2201134Y-797984D01*
X2353515Y-978936D02*
X2363039Y-988460D01*
X2363039Y-988460D02*
X2353515Y-997984D01*
X2353515Y-997984D02*
X2343991Y-988460D01*
X2343991Y-988460D02*
X2353515Y-978936D01*
X2353515Y-978936D02*
X2353515Y-997984D01*
X2486848Y-797984D02*
X2505896Y-797984D01*
X2505896Y-797984D02*
X2524944Y-807508D01*
X2524944Y-807508D02*
X2534468Y-817031D01*
X2534468Y-817031D02*
X2543991Y-836079D01*
X2543991Y-836079D02*
X2553515Y-874174D01*
X2553515Y-874174D02*
X2553515Y-921793D01*
X2553515Y-921793D02*
X2543991Y-959888D01*
X2543991Y-959888D02*
X2534468Y-978936D01*
X2534468Y-978936D02*
X2524944Y-988460D01*
X2524944Y-988460D02*
X2505896Y-997984D01*
X2505896Y-997984D02*
X2486848Y-997984D01*
X2486848Y-997984D02*
X2467801Y-988460D01*
X2467801Y-988460D02*
X2458277Y-978936D01*
X2458277Y-978936D02*
X2448753Y-959888D01*
X2448753Y-959888D02*
X2439229Y-921793D01*
X2439229Y-921793D02*
X2439229Y-874174D01*
X2439229Y-874174D02*
X2448753Y-836079D01*
X2448753Y-836079D02*
X2458277Y-817031D01*
X2458277Y-817031D02*
X2467801Y-807508D01*
X2467801Y-807508D02*
X2486848Y-797984D01*
X2743991Y-997984D02*
X2629706Y-997984D01*
X2686848Y-997984D02*
X2686848Y-797984D01*
X2686848Y-797984D02*
X2667801Y-826555D01*
X2667801Y-826555D02*
X2648753Y-845603D01*
X2648753Y-845603D02*
X2629706Y-855127D01*
X2839229Y-997984D02*
X2877325Y-997984D01*
X2877325Y-997984D02*
X2896372Y-988460D01*
X2896372Y-988460D02*
X2905896Y-978936D01*
X2905896Y-978936D02*
X2924944Y-950365D01*
X2924944Y-950365D02*
X2934467Y-912269D01*
X2934467Y-912269D02*
X2934467Y-836079D01*
X2934467Y-836079D02*
X2924944Y-817031D01*
X2924944Y-817031D02*
X2915420Y-807508D01*
X2915420Y-807508D02*
X2896372Y-797984D01*
X2896372Y-797984D02*
X2858277Y-797984D01*
X2858277Y-797984D02*
X2839229Y-807508D01*
X2839229Y-807508D02*
X2829706Y-817031D01*
X2829706Y-817031D02*
X2820182Y-836079D01*
X2820182Y-836079D02*
X2820182Y-883698D01*
X2820182Y-883698D02*
X2829706Y-902746D01*
X2829706Y-902746D02*
X2839229Y-912269D01*
X2839229Y-912269D02*
X2858277Y-921793D01*
X2858277Y-921793D02*
X2896372Y-921793D01*
X2896372Y-921793D02*
X2915420Y-912269D01*
X2915420Y-912269D02*
X2924944Y-902746D01*
X2924944Y-902746D02*
X2934467Y-883698D01*
X3001134Y-797984D02*
X3134467Y-797984D01*
X3134467Y-797984D02*
X3048753Y-997984D01*
X3201134Y-797984D02*
X3201134Y-836079D01*
X3277325Y-797984D02*
X3277325Y-836079D01*
X3572563Y-1074174D02*
X3563039Y-1064650D01*
X3563039Y-1064650D02*
X3543991Y-1036079D01*
X3543991Y-1036079D02*
X3534468Y-1017031D01*
X3534468Y-1017031D02*
X3524944Y-988460D01*
X3524944Y-988460D02*
X3515420Y-940841D01*
X3515420Y-940841D02*
X3515420Y-902746D01*
X3515420Y-902746D02*
X3524944Y-855127D01*
X3524944Y-855127D02*
X3534468Y-826555D01*
X3534468Y-826555D02*
X3543991Y-807508D01*
X3543991Y-807508D02*
X3563039Y-778936D01*
X3563039Y-778936D02*
X3572563Y-769412D01*
X3639229Y-817031D02*
X3648753Y-807508D01*
X3648753Y-807508D02*
X3667801Y-797984D01*
X3667801Y-797984D02*
X3715420Y-797984D01*
X3715420Y-797984D02*
X3734468Y-807508D01*
X3734468Y-807508D02*
X3743991Y-817031D01*
X3743991Y-817031D02*
X3753515Y-836079D01*
X3753515Y-836079D02*
X3753515Y-855127D01*
X3753515Y-855127D02*
X3743991Y-883698D01*
X3743991Y-883698D02*
X3629706Y-997984D01*
X3629706Y-997984D02*
X3753515Y-997984D01*
X3943991Y-997984D02*
X3829706Y-997984D01*
X3886848Y-997984D02*
X3886848Y-797984D01*
X3886848Y-797984D02*
X3867801Y-826555D01*
X3867801Y-826555D02*
X3848753Y-845603D01*
X3848753Y-845603D02*
X3829706Y-855127D01*
X4182087Y-997984D02*
X4182087Y-797984D01*
X4267801Y-997984D02*
X4267801Y-893222D01*
X4267801Y-893222D02*
X4258277Y-874174D01*
X4258277Y-874174D02*
X4239230Y-864650D01*
X4239230Y-864650D02*
X4210658Y-864650D01*
X4210658Y-864650D02*
X4191610Y-874174D01*
X4191610Y-874174D02*
X4182087Y-883698D01*
X4391611Y-997984D02*
X4372563Y-988460D01*
X4372563Y-988460D02*
X4363039Y-978936D01*
X4363039Y-978936D02*
X4353515Y-959888D01*
X4353515Y-959888D02*
X4353515Y-902746D01*
X4353515Y-902746D02*
X4363039Y-883698D01*
X4363039Y-883698D02*
X4372563Y-874174D01*
X4372563Y-874174D02*
X4391611Y-864650D01*
X4391611Y-864650D02*
X4420182Y-864650D01*
X4420182Y-864650D02*
X4439230Y-874174D01*
X4439230Y-874174D02*
X4448753Y-883698D01*
X4448753Y-883698D02*
X4458277Y-902746D01*
X4458277Y-902746D02*
X4458277Y-959888D01*
X4458277Y-959888D02*
X4448753Y-978936D01*
X4448753Y-978936D02*
X4439230Y-988460D01*
X4439230Y-988460D02*
X4420182Y-997984D01*
X4420182Y-997984D02*
X4391611Y-997984D01*
X4572563Y-997984D02*
X4553515Y-988460D01*
X4553515Y-988460D02*
X4543992Y-969412D01*
X4543992Y-969412D02*
X4543992Y-797984D01*
X4724944Y-988460D02*
X4705896Y-997984D01*
X4705896Y-997984D02*
X4667801Y-997984D01*
X4667801Y-997984D02*
X4648753Y-988460D01*
X4648753Y-988460D02*
X4639230Y-969412D01*
X4639230Y-969412D02*
X4639230Y-893222D01*
X4639230Y-893222D02*
X4648753Y-874174D01*
X4648753Y-874174D02*
X4667801Y-864650D01*
X4667801Y-864650D02*
X4705896Y-864650D01*
X4705896Y-864650D02*
X4724944Y-874174D01*
X4724944Y-874174D02*
X4734468Y-893222D01*
X4734468Y-893222D02*
X4734468Y-912269D01*
X4734468Y-912269D02*
X4639230Y-931317D01*
X4810658Y-988460D02*
X4829706Y-997984D01*
X4829706Y-997984D02*
X4867801Y-997984D01*
X4867801Y-997984D02*
X4886849Y-988460D01*
X4886849Y-988460D02*
X4896373Y-969412D01*
X4896373Y-969412D02*
X4896373Y-959888D01*
X4896373Y-959888D02*
X4886849Y-940841D01*
X4886849Y-940841D02*
X4867801Y-931317D01*
X4867801Y-931317D02*
X4839230Y-931317D01*
X4839230Y-931317D02*
X4820182Y-921793D01*
X4820182Y-921793D02*
X4810658Y-902746D01*
X4810658Y-902746D02*
X4810658Y-893222D01*
X4810658Y-893222D02*
X4820182Y-874174D01*
X4820182Y-874174D02*
X4839230Y-864650D01*
X4839230Y-864650D02*
X4867801Y-864650D01*
X4867801Y-864650D02*
X4886849Y-874174D01*
X4963039Y-1074174D02*
X4972563Y-1064650D01*
X4972563Y-1064650D02*
X4991611Y-1036079D01*
X4991611Y-1036079D02*
X5001134Y-1017031D01*
X5001134Y-1017031D02*
X5010658Y-988460D01*
X5010658Y-988460D02*
X5020182Y-940841D01*
X5020182Y-940841D02*
X5020182Y-902746D01*
X5020182Y-902746D02*
X5010658Y-855127D01*
X5010658Y-855127D02*
X5001134Y-826555D01*
X5001134Y-826555D02*
X4991611Y-807508D01*
X4991611Y-807508D02*
X4972563Y-778936D01*
X4972563Y-778936D02*
X4963039Y-769412D01*
D12*
X-40000Y-1133000D02*
X-40000Y-1208000D01*
X-77500Y-1170500D02*
X-2500Y-1170500D01*
D11*
X296372Y-1061984D02*
X315420Y-1061984D01*
X315420Y-1061984D02*
X334467Y-1071508D01*
X334467Y-1071508D02*
X343991Y-1081031D01*
X343991Y-1081031D02*
X353515Y-1100079D01*
X353515Y-1100079D02*
X363039Y-1138174D01*
X363039Y-1138174D02*
X363039Y-1185793D01*
X363039Y-1185793D02*
X353515Y-1223889D01*
X353515Y-1223889D02*
X343991Y-1242936D01*
X343991Y-1242936D02*
X334467Y-1252460D01*
X334467Y-1252460D02*
X315420Y-1261984D01*
X315420Y-1261984D02*
X296372Y-1261984D01*
X296372Y-1261984D02*
X277324Y-1252460D01*
X277324Y-1252460D02*
X267801Y-1242936D01*
X267801Y-1242936D02*
X258277Y-1223889D01*
X258277Y-1223889D02*
X248753Y-1185793D01*
X248753Y-1185793D02*
X248753Y-1138174D01*
X248753Y-1138174D02*
X258277Y-1100079D01*
X258277Y-1100079D02*
X267801Y-1081031D01*
X267801Y-1081031D02*
X277324Y-1071508D01*
X277324Y-1071508D02*
X296372Y-1061984D01*
X448753Y-1242936D02*
X458277Y-1252460D01*
X458277Y-1252460D02*
X448753Y-1261984D01*
X448753Y-1261984D02*
X439229Y-1252460D01*
X439229Y-1252460D02*
X448753Y-1242936D01*
X448753Y-1242936D02*
X448753Y-1261984D01*
X524944Y-1061984D02*
X658277Y-1061984D01*
X658277Y-1061984D02*
X572563Y-1261984D01*
X829705Y-1061984D02*
X734467Y-1061984D01*
X734467Y-1061984D02*
X724943Y-1157222D01*
X724943Y-1157222D02*
X734467Y-1147698D01*
X734467Y-1147698D02*
X753515Y-1138174D01*
X753515Y-1138174D02*
X801134Y-1138174D01*
X801134Y-1138174D02*
X820182Y-1147698D01*
X820182Y-1147698D02*
X829705Y-1157222D01*
X829705Y-1157222D02*
X839229Y-1176270D01*
X839229Y-1176270D02*
X839229Y-1223889D01*
X839229Y-1223889D02*
X829705Y-1242936D01*
X829705Y-1242936D02*
X820182Y-1252460D01*
X820182Y-1252460D02*
X801134Y-1261984D01*
X801134Y-1261984D02*
X753515Y-1261984D01*
X753515Y-1261984D02*
X734467Y-1252460D01*
X734467Y-1252460D02*
X724943Y-1242936D01*
X963039Y-1061984D02*
X982086Y-1061984D01*
X982086Y-1061984D02*
X1001134Y-1071508D01*
X1001134Y-1071508D02*
X1010658Y-1081031D01*
X1010658Y-1081031D02*
X1020182Y-1100079D01*
X1020182Y-1100079D02*
X1029705Y-1138174D01*
X1029705Y-1138174D02*
X1029705Y-1185793D01*
X1029705Y-1185793D02*
X1020182Y-1223889D01*
X1020182Y-1223889D02*
X1010658Y-1242936D01*
X1010658Y-1242936D02*
X1001134Y-1252460D01*
X1001134Y-1252460D02*
X982086Y-1261984D01*
X982086Y-1261984D02*
X963039Y-1261984D01*
X963039Y-1261984D02*
X943991Y-1252460D01*
X943991Y-1252460D02*
X934467Y-1242936D01*
X934467Y-1242936D02*
X924943Y-1223889D01*
X924943Y-1223889D02*
X915420Y-1185793D01*
X915420Y-1185793D02*
X915420Y-1138174D01*
X915420Y-1138174D02*
X924943Y-1100079D01*
X924943Y-1100079D02*
X934467Y-1081031D01*
X934467Y-1081031D02*
X943991Y-1071508D01*
X943991Y-1071508D02*
X963039Y-1061984D01*
X1115420Y-1261984D02*
X1115420Y-1128650D01*
X1115420Y-1147698D02*
X1124944Y-1138174D01*
X1124944Y-1138174D02*
X1143991Y-1128650D01*
X1143991Y-1128650D02*
X1172563Y-1128650D01*
X1172563Y-1128650D02*
X1191610Y-1138174D01*
X1191610Y-1138174D02*
X1201134Y-1157222D01*
X1201134Y-1157222D02*
X1201134Y-1261984D01*
X1201134Y-1157222D02*
X1210658Y-1138174D01*
X1210658Y-1138174D02*
X1229705Y-1128650D01*
X1229705Y-1128650D02*
X1258277Y-1128650D01*
X1258277Y-1128650D02*
X1277325Y-1138174D01*
X1277325Y-1138174D02*
X1286848Y-1157222D01*
X1286848Y-1157222D02*
X1286848Y-1261984D01*
X1382086Y-1261984D02*
X1382086Y-1128650D01*
X1382086Y-1147698D02*
X1391610Y-1138174D01*
X1391610Y-1138174D02*
X1410658Y-1128650D01*
X1410658Y-1128650D02*
X1439229Y-1128650D01*
X1439229Y-1128650D02*
X1458277Y-1138174D01*
X1458277Y-1138174D02*
X1467801Y-1157222D01*
X1467801Y-1157222D02*
X1467801Y-1261984D01*
X1467801Y-1157222D02*
X1477324Y-1138174D01*
X1477324Y-1138174D02*
X1496372Y-1128650D01*
X1496372Y-1128650D02*
X1524943Y-1128650D01*
X1524943Y-1128650D02*
X1543991Y-1138174D01*
X1543991Y-1138174D02*
X1553515Y-1157222D01*
X1553515Y-1157222D02*
X1553515Y-1261984D01*
X1943991Y-1052460D02*
X1772563Y-1309603D01*
X2201134Y-1061984D02*
X2220182Y-1061984D01*
X2220182Y-1061984D02*
X2239229Y-1071508D01*
X2239229Y-1071508D02*
X2248753Y-1081031D01*
X2248753Y-1081031D02*
X2258277Y-1100079D01*
X2258277Y-1100079D02*
X2267801Y-1138174D01*
X2267801Y-1138174D02*
X2267801Y-1185793D01*
X2267801Y-1185793D02*
X2258277Y-1223889D01*
X2258277Y-1223889D02*
X2248753Y-1242936D01*
X2248753Y-1242936D02*
X2239229Y-1252460D01*
X2239229Y-1252460D02*
X2220182Y-1261984D01*
X2220182Y-1261984D02*
X2201134Y-1261984D01*
X2201134Y-1261984D02*
X2182087Y-1252460D01*
X2182087Y-1252460D02*
X2172563Y-1242936D01*
X2172563Y-1242936D02*
X2163039Y-1223889D01*
X2163039Y-1223889D02*
X2153515Y-1185793D01*
X2153515Y-1185793D02*
X2153515Y-1138174D01*
X2153515Y-1138174D02*
X2163039Y-1100079D01*
X2163039Y-1100079D02*
X2172563Y-1081031D01*
X2172563Y-1081031D02*
X2182087Y-1071508D01*
X2182087Y-1071508D02*
X2201134Y-1061984D01*
X2353515Y-1242936D02*
X2363039Y-1252460D01*
X2363039Y-1252460D02*
X2353515Y-1261984D01*
X2353515Y-1261984D02*
X2343991Y-1252460D01*
X2343991Y-1252460D02*
X2353515Y-1242936D01*
X2353515Y-1242936D02*
X2353515Y-1261984D01*
X2486848Y-1061984D02*
X2505896Y-1061984D01*
X2505896Y-1061984D02*
X2524944Y-1071508D01*
X2524944Y-1071508D02*
X2534468Y-1081031D01*
X2534468Y-1081031D02*
X2543991Y-1100079D01*
X2543991Y-1100079D02*
X2553515Y-1138174D01*
X2553515Y-1138174D02*
X2553515Y-1185793D01*
X2553515Y-1185793D02*
X2543991Y-1223889D01*
X2543991Y-1223889D02*
X2534468Y-1242936D01*
X2534468Y-1242936D02*
X2524944Y-1252460D01*
X2524944Y-1252460D02*
X2505896Y-1261984D01*
X2505896Y-1261984D02*
X2486848Y-1261984D01*
X2486848Y-1261984D02*
X2467801Y-1252460D01*
X2467801Y-1252460D02*
X2458277Y-1242936D01*
X2458277Y-1242936D02*
X2448753Y-1223889D01*
X2448753Y-1223889D02*
X2439229Y-1185793D01*
X2439229Y-1185793D02*
X2439229Y-1138174D01*
X2439229Y-1138174D02*
X2448753Y-1100079D01*
X2448753Y-1100079D02*
X2458277Y-1081031D01*
X2458277Y-1081031D02*
X2467801Y-1071508D01*
X2467801Y-1071508D02*
X2486848Y-1061984D01*
X2629706Y-1081031D02*
X2639229Y-1071508D01*
X2639229Y-1071508D02*
X2658277Y-1061984D01*
X2658277Y-1061984D02*
X2705896Y-1061984D01*
X2705896Y-1061984D02*
X2724944Y-1071508D01*
X2724944Y-1071508D02*
X2734468Y-1081031D01*
X2734468Y-1081031D02*
X2743991Y-1100079D01*
X2743991Y-1100079D02*
X2743991Y-1119127D01*
X2743991Y-1119127D02*
X2734468Y-1147698D01*
X2734468Y-1147698D02*
X2620182Y-1261984D01*
X2620182Y-1261984D02*
X2743991Y-1261984D01*
X2839229Y-1261984D02*
X2877325Y-1261984D01*
X2877325Y-1261984D02*
X2896372Y-1252460D01*
X2896372Y-1252460D02*
X2905896Y-1242936D01*
X2905896Y-1242936D02*
X2924944Y-1214365D01*
X2924944Y-1214365D02*
X2934467Y-1176270D01*
X2934467Y-1176270D02*
X2934467Y-1100079D01*
X2934467Y-1100079D02*
X2924944Y-1081031D01*
X2924944Y-1081031D02*
X2915420Y-1071508D01*
X2915420Y-1071508D02*
X2896372Y-1061984D01*
X2896372Y-1061984D02*
X2858277Y-1061984D01*
X2858277Y-1061984D02*
X2839229Y-1071508D01*
X2839229Y-1071508D02*
X2829706Y-1081031D01*
X2829706Y-1081031D02*
X2820182Y-1100079D01*
X2820182Y-1100079D02*
X2820182Y-1147698D01*
X2820182Y-1147698D02*
X2829706Y-1166746D01*
X2829706Y-1166746D02*
X2839229Y-1176270D01*
X2839229Y-1176270D02*
X2858277Y-1185793D01*
X2858277Y-1185793D02*
X2896372Y-1185793D01*
X2896372Y-1185793D02*
X2915420Y-1176270D01*
X2915420Y-1176270D02*
X2924944Y-1166746D01*
X2924944Y-1166746D02*
X2934467Y-1147698D01*
X3115420Y-1061984D02*
X3020182Y-1061984D01*
X3020182Y-1061984D02*
X3010658Y-1157222D01*
X3010658Y-1157222D02*
X3020182Y-1147698D01*
X3020182Y-1147698D02*
X3039229Y-1138174D01*
X3039229Y-1138174D02*
X3086848Y-1138174D01*
X3086848Y-1138174D02*
X3105896Y-1147698D01*
X3105896Y-1147698D02*
X3115420Y-1157222D01*
X3115420Y-1157222D02*
X3124944Y-1176270D01*
X3124944Y-1176270D02*
X3124944Y-1223889D01*
X3124944Y-1223889D02*
X3115420Y-1242936D01*
X3115420Y-1242936D02*
X3105896Y-1252460D01*
X3105896Y-1252460D02*
X3086848Y-1261984D01*
X3086848Y-1261984D02*
X3039229Y-1261984D01*
X3039229Y-1261984D02*
X3020182Y-1252460D01*
X3020182Y-1252460D02*
X3010658Y-1242936D01*
X3201134Y-1061984D02*
X3201134Y-1100079D01*
X3277325Y-1061984D02*
X3277325Y-1100079D01*
X3572563Y-1338174D02*
X3563039Y-1328650D01*
X3563039Y-1328650D02*
X3543991Y-1300079D01*
X3543991Y-1300079D02*
X3534468Y-1281031D01*
X3534468Y-1281031D02*
X3524944Y-1252460D01*
X3524944Y-1252460D02*
X3515420Y-1204841D01*
X3515420Y-1204841D02*
X3515420Y-1166746D01*
X3515420Y-1166746D02*
X3524944Y-1119127D01*
X3524944Y-1119127D02*
X3534468Y-1090555D01*
X3534468Y-1090555D02*
X3543991Y-1071508D01*
X3543991Y-1071508D02*
X3563039Y-1042936D01*
X3563039Y-1042936D02*
X3572563Y-1033412D01*
X3629706Y-1061984D02*
X3753515Y-1061984D01*
X3753515Y-1061984D02*
X3686848Y-1138174D01*
X3686848Y-1138174D02*
X3715420Y-1138174D01*
X3715420Y-1138174D02*
X3734468Y-1147698D01*
X3734468Y-1147698D02*
X3743991Y-1157222D01*
X3743991Y-1157222D02*
X3753515Y-1176270D01*
X3753515Y-1176270D02*
X3753515Y-1223889D01*
X3753515Y-1223889D02*
X3743991Y-1242936D01*
X3743991Y-1242936D02*
X3734468Y-1252460D01*
X3734468Y-1252460D02*
X3715420Y-1261984D01*
X3715420Y-1261984D02*
X3658277Y-1261984D01*
X3658277Y-1261984D02*
X3639229Y-1252460D01*
X3639229Y-1252460D02*
X3629706Y-1242936D01*
X3991610Y-1261984D02*
X3991610Y-1061984D01*
X4077325Y-1261984D02*
X4077325Y-1157222D01*
X4077325Y-1157222D02*
X4067801Y-1138174D01*
X4067801Y-1138174D02*
X4048753Y-1128650D01*
X4048753Y-1128650D02*
X4020182Y-1128650D01*
X4020182Y-1128650D02*
X4001134Y-1138174D01*
X4001134Y-1138174D02*
X3991610Y-1147698D01*
X4201134Y-1261984D02*
X4182087Y-1252460D01*
X4182087Y-1252460D02*
X4172563Y-1242936D01*
X4172563Y-1242936D02*
X4163039Y-1223889D01*
X4163039Y-1223889D02*
X4163039Y-1166746D01*
X4163039Y-1166746D02*
X4172563Y-1147698D01*
X4172563Y-1147698D02*
X4182087Y-1138174D01*
X4182087Y-1138174D02*
X4201134Y-1128650D01*
X4201134Y-1128650D02*
X4229706Y-1128650D01*
X4229706Y-1128650D02*
X4248753Y-1138174D01*
X4248753Y-1138174D02*
X4258277Y-1147698D01*
X4258277Y-1147698D02*
X4267801Y-1166746D01*
X4267801Y-1166746D02*
X4267801Y-1223889D01*
X4267801Y-1223889D02*
X4258277Y-1242936D01*
X4258277Y-1242936D02*
X4248753Y-1252460D01*
X4248753Y-1252460D02*
X4229706Y-1261984D01*
X4229706Y-1261984D02*
X4201134Y-1261984D01*
X4382087Y-1261984D02*
X4363039Y-1252460D01*
X4363039Y-1252460D02*
X4353515Y-1233412D01*
X4353515Y-1233412D02*
X4353515Y-1061984D01*
X4534468Y-1252460D02*
X4515420Y-1261984D01*
X4515420Y-1261984D02*
X4477325Y-1261984D01*
X4477325Y-1261984D02*
X4458277Y-1252460D01*
X4458277Y-1252460D02*
X4448753Y-1233412D01*
X4448753Y-1233412D02*
X4448753Y-1157222D01*
X4448753Y-1157222D02*
X4458277Y-1138174D01*
X4458277Y-1138174D02*
X4477325Y-1128650D01*
X4477325Y-1128650D02*
X4515420Y-1128650D01*
X4515420Y-1128650D02*
X4534468Y-1138174D01*
X4534468Y-1138174D02*
X4543992Y-1157222D01*
X4543992Y-1157222D02*
X4543992Y-1176270D01*
X4543992Y-1176270D02*
X4448753Y-1195317D01*
X4620182Y-1252460D02*
X4639230Y-1261984D01*
X4639230Y-1261984D02*
X4677325Y-1261984D01*
X4677325Y-1261984D02*
X4696373Y-1252460D01*
X4696373Y-1252460D02*
X4705896Y-1233412D01*
X4705896Y-1233412D02*
X4705896Y-1223889D01*
X4705896Y-1223889D02*
X4696373Y-1204841D01*
X4696373Y-1204841D02*
X4677325Y-1195317D01*
X4677325Y-1195317D02*
X4648753Y-1195317D01*
X4648753Y-1195317D02*
X4629706Y-1185793D01*
X4629706Y-1185793D02*
X4620182Y-1166746D01*
X4620182Y-1166746D02*
X4620182Y-1157222D01*
X4620182Y-1157222D02*
X4629706Y-1138174D01*
X4629706Y-1138174D02*
X4648753Y-1128650D01*
X4648753Y-1128650D02*
X4677325Y-1128650D01*
X4677325Y-1128650D02*
X4696373Y-1138174D01*
X4772563Y-1338174D02*
X4782087Y-1328650D01*
X4782087Y-1328650D02*
X4801134Y-1300079D01*
X4801134Y-1300079D02*
X4810658Y-1281031D01*
X4810658Y-1281031D02*
X4820182Y-1252460D01*
X4820182Y-1252460D02*
X4829706Y-1204841D01*
X4829706Y-1204841D02*
X4829706Y-1166746D01*
X4829706Y-1166746D02*
X4820182Y-1119127D01*
X4820182Y-1119127D02*
X4810658Y-1090555D01*
X4810658Y-1090555D02*
X4801134Y-1071508D01*
X4801134Y-1071508D02*
X4782087Y-1042936D01*
X4782087Y-1042936D02*
X4772563Y-1033412D01*
D12*
X-16412Y-1468088D02*
X-16412Y-1400912D01*
X-83588Y-1400912D01*
X-83588Y-1468088D01*
X-16412Y-1468088D01*
D11*
X296372Y-1325984D02*
X315420Y-1325984D01*
X315420Y-1325984D02*
X334467Y-1335508D01*
X334467Y-1335508D02*
X343991Y-1345031D01*
X343991Y-1345031D02*
X353515Y-1364079D01*
X353515Y-1364079D02*
X363039Y-1402174D01*
X363039Y-1402174D02*
X363039Y-1449793D01*
X363039Y-1449793D02*
X353515Y-1487888D01*
X353515Y-1487888D02*
X343991Y-1506936D01*
X343991Y-1506936D02*
X334467Y-1516460D01*
X334467Y-1516460D02*
X315420Y-1525984D01*
X315420Y-1525984D02*
X296372Y-1525984D01*
X296372Y-1525984D02*
X277324Y-1516460D01*
X277324Y-1516460D02*
X267801Y-1506936D01*
X267801Y-1506936D02*
X258277Y-1487888D01*
X258277Y-1487888D02*
X248753Y-1449793D01*
X248753Y-1449793D02*
X248753Y-1402174D01*
X248753Y-1402174D02*
X258277Y-1364079D01*
X258277Y-1364079D02*
X267801Y-1345031D01*
X267801Y-1345031D02*
X277324Y-1335508D01*
X277324Y-1335508D02*
X296372Y-1325984D01*
X448753Y-1506936D02*
X458277Y-1516460D01*
X458277Y-1516460D02*
X448753Y-1525984D01*
X448753Y-1525984D02*
X439229Y-1516460D01*
X439229Y-1516460D02*
X448753Y-1506936D01*
X448753Y-1506936D02*
X448753Y-1525984D01*
X553515Y-1525984D02*
X591610Y-1525984D01*
X591610Y-1525984D02*
X610658Y-1516460D01*
X610658Y-1516460D02*
X620182Y-1506936D01*
X620182Y-1506936D02*
X639229Y-1478365D01*
X639229Y-1478365D02*
X648753Y-1440269D01*
X648753Y-1440269D02*
X648753Y-1364079D01*
X648753Y-1364079D02*
X639229Y-1345031D01*
X639229Y-1345031D02*
X629705Y-1335508D01*
X629705Y-1335508D02*
X610658Y-1325984D01*
X610658Y-1325984D02*
X572563Y-1325984D01*
X572563Y-1325984D02*
X553515Y-1335508D01*
X553515Y-1335508D02*
X543991Y-1345031D01*
X543991Y-1345031D02*
X534467Y-1364079D01*
X534467Y-1364079D02*
X534467Y-1411698D01*
X534467Y-1411698D02*
X543991Y-1430746D01*
X543991Y-1430746D02*
X553515Y-1440269D01*
X553515Y-1440269D02*
X572563Y-1449793D01*
X572563Y-1449793D02*
X610658Y-1449793D01*
X610658Y-1449793D02*
X629705Y-1440269D01*
X629705Y-1440269D02*
X639229Y-1430746D01*
X639229Y-1430746D02*
X648753Y-1411698D01*
X829705Y-1325984D02*
X734467Y-1325984D01*
X734467Y-1325984D02*
X724943Y-1421222D01*
X724943Y-1421222D02*
X734467Y-1411698D01*
X734467Y-1411698D02*
X753515Y-1402174D01*
X753515Y-1402174D02*
X801134Y-1402174D01*
X801134Y-1402174D02*
X820182Y-1411698D01*
X820182Y-1411698D02*
X829705Y-1421222D01*
X829705Y-1421222D02*
X839229Y-1440269D01*
X839229Y-1440269D02*
X839229Y-1487888D01*
X839229Y-1487888D02*
X829705Y-1506936D01*
X829705Y-1506936D02*
X820182Y-1516460D01*
X820182Y-1516460D02*
X801134Y-1525984D01*
X801134Y-1525984D02*
X753515Y-1525984D01*
X753515Y-1525984D02*
X734467Y-1516460D01*
X734467Y-1516460D02*
X724943Y-1506936D01*
X963039Y-1325984D02*
X982086Y-1325984D01*
X982086Y-1325984D02*
X1001134Y-1335508D01*
X1001134Y-1335508D02*
X1010658Y-1345031D01*
X1010658Y-1345031D02*
X1020182Y-1364079D01*
X1020182Y-1364079D02*
X1029705Y-1402174D01*
X1029705Y-1402174D02*
X1029705Y-1449793D01*
X1029705Y-1449793D02*
X1020182Y-1487888D01*
X1020182Y-1487888D02*
X1010658Y-1506936D01*
X1010658Y-1506936D02*
X1001134Y-1516460D01*
X1001134Y-1516460D02*
X982086Y-1525984D01*
X982086Y-1525984D02*
X963039Y-1525984D01*
X963039Y-1525984D02*
X943991Y-1516460D01*
X943991Y-1516460D02*
X934467Y-1506936D01*
X934467Y-1506936D02*
X924943Y-1487888D01*
X924943Y-1487888D02*
X915420Y-1449793D01*
X915420Y-1449793D02*
X915420Y-1402174D01*
X915420Y-1402174D02*
X924943Y-1364079D01*
X924943Y-1364079D02*
X934467Y-1345031D01*
X934467Y-1345031D02*
X943991Y-1335508D01*
X943991Y-1335508D02*
X963039Y-1325984D01*
X1115420Y-1525984D02*
X1115420Y-1392650D01*
X1115420Y-1411698D02*
X1124944Y-1402174D01*
X1124944Y-1402174D02*
X1143991Y-1392650D01*
X1143991Y-1392650D02*
X1172563Y-1392650D01*
X1172563Y-1392650D02*
X1191610Y-1402174D01*
X1191610Y-1402174D02*
X1201134Y-1421222D01*
X1201134Y-1421222D02*
X1201134Y-1525984D01*
X1201134Y-1421222D02*
X1210658Y-1402174D01*
X1210658Y-1402174D02*
X1229705Y-1392650D01*
X1229705Y-1392650D02*
X1258277Y-1392650D01*
X1258277Y-1392650D02*
X1277325Y-1402174D01*
X1277325Y-1402174D02*
X1286848Y-1421222D01*
X1286848Y-1421222D02*
X1286848Y-1525984D01*
X1382086Y-1525984D02*
X1382086Y-1392650D01*
X1382086Y-1411698D02*
X1391610Y-1402174D01*
X1391610Y-1402174D02*
X1410658Y-1392650D01*
X1410658Y-1392650D02*
X1439229Y-1392650D01*
X1439229Y-1392650D02*
X1458277Y-1402174D01*
X1458277Y-1402174D02*
X1467801Y-1421222D01*
X1467801Y-1421222D02*
X1467801Y-1525984D01*
X1467801Y-1421222D02*
X1477324Y-1402174D01*
X1477324Y-1402174D02*
X1496372Y-1392650D01*
X1496372Y-1392650D02*
X1524943Y-1392650D01*
X1524943Y-1392650D02*
X1543991Y-1402174D01*
X1543991Y-1402174D02*
X1553515Y-1421222D01*
X1553515Y-1421222D02*
X1553515Y-1525984D01*
X1943991Y-1316460D02*
X1772563Y-1573603D01*
X2201134Y-1325984D02*
X2220182Y-1325984D01*
X2220182Y-1325984D02*
X2239229Y-1335508D01*
X2239229Y-1335508D02*
X2248753Y-1345031D01*
X2248753Y-1345031D02*
X2258277Y-1364079D01*
X2258277Y-1364079D02*
X2267801Y-1402174D01*
X2267801Y-1402174D02*
X2267801Y-1449793D01*
X2267801Y-1449793D02*
X2258277Y-1487888D01*
X2258277Y-1487888D02*
X2248753Y-1506936D01*
X2248753Y-1506936D02*
X2239229Y-1516460D01*
X2239229Y-1516460D02*
X2220182Y-1525984D01*
X2220182Y-1525984D02*
X2201134Y-1525984D01*
X2201134Y-1525984D02*
X2182087Y-1516460D01*
X2182087Y-1516460D02*
X2172563Y-1506936D01*
X2172563Y-1506936D02*
X2163039Y-1487888D01*
X2163039Y-1487888D02*
X2153515Y-1449793D01*
X2153515Y-1449793D02*
X2153515Y-1402174D01*
X2153515Y-1402174D02*
X2163039Y-1364079D01*
X2163039Y-1364079D02*
X2172563Y-1345031D01*
X2172563Y-1345031D02*
X2182087Y-1335508D01*
X2182087Y-1335508D02*
X2201134Y-1325984D01*
X2353515Y-1506936D02*
X2363039Y-1516460D01*
X2363039Y-1516460D02*
X2353515Y-1525984D01*
X2353515Y-1525984D02*
X2343991Y-1516460D01*
X2343991Y-1516460D02*
X2353515Y-1506936D01*
X2353515Y-1506936D02*
X2353515Y-1525984D01*
X2486848Y-1325984D02*
X2505896Y-1325984D01*
X2505896Y-1325984D02*
X2524944Y-1335508D01*
X2524944Y-1335508D02*
X2534468Y-1345031D01*
X2534468Y-1345031D02*
X2543991Y-1364079D01*
X2543991Y-1364079D02*
X2553515Y-1402174D01*
X2553515Y-1402174D02*
X2553515Y-1449793D01*
X2553515Y-1449793D02*
X2543991Y-1487888D01*
X2543991Y-1487888D02*
X2534468Y-1506936D01*
X2534468Y-1506936D02*
X2524944Y-1516460D01*
X2524944Y-1516460D02*
X2505896Y-1525984D01*
X2505896Y-1525984D02*
X2486848Y-1525984D01*
X2486848Y-1525984D02*
X2467801Y-1516460D01*
X2467801Y-1516460D02*
X2458277Y-1506936D01*
X2458277Y-1506936D02*
X2448753Y-1487888D01*
X2448753Y-1487888D02*
X2439229Y-1449793D01*
X2439229Y-1449793D02*
X2439229Y-1402174D01*
X2439229Y-1402174D02*
X2448753Y-1364079D01*
X2448753Y-1364079D02*
X2458277Y-1345031D01*
X2458277Y-1345031D02*
X2467801Y-1335508D01*
X2467801Y-1335508D02*
X2486848Y-1325984D01*
X2620182Y-1325984D02*
X2743991Y-1325984D01*
X2743991Y-1325984D02*
X2677325Y-1402174D01*
X2677325Y-1402174D02*
X2705896Y-1402174D01*
X2705896Y-1402174D02*
X2724944Y-1411698D01*
X2724944Y-1411698D02*
X2734468Y-1421222D01*
X2734468Y-1421222D02*
X2743991Y-1440269D01*
X2743991Y-1440269D02*
X2743991Y-1487888D01*
X2743991Y-1487888D02*
X2734468Y-1506936D01*
X2734468Y-1506936D02*
X2724944Y-1516460D01*
X2724944Y-1516460D02*
X2705896Y-1525984D01*
X2705896Y-1525984D02*
X2648753Y-1525984D01*
X2648753Y-1525984D02*
X2629706Y-1516460D01*
X2629706Y-1516460D02*
X2620182Y-1506936D01*
X2810658Y-1325984D02*
X2943991Y-1325984D01*
X2943991Y-1325984D02*
X2858277Y-1525984D01*
X3105896Y-1392650D02*
X3105896Y-1525984D01*
X3058277Y-1316460D02*
X3010658Y-1459317D01*
X3010658Y-1459317D02*
X3134467Y-1459317D01*
X3201134Y-1325984D02*
X3201134Y-1364079D01*
X3277325Y-1325984D02*
X3277325Y-1364079D01*
X3572563Y-1602174D02*
X3563039Y-1592650D01*
X3563039Y-1592650D02*
X3543991Y-1564079D01*
X3543991Y-1564079D02*
X3534468Y-1545031D01*
X3534468Y-1545031D02*
X3524944Y-1516460D01*
X3524944Y-1516460D02*
X3515420Y-1468841D01*
X3515420Y-1468841D02*
X3515420Y-1430746D01*
X3515420Y-1430746D02*
X3524944Y-1383127D01*
X3524944Y-1383127D02*
X3534468Y-1354555D01*
X3534468Y-1354555D02*
X3543991Y-1335508D01*
X3543991Y-1335508D02*
X3563039Y-1306936D01*
X3563039Y-1306936D02*
X3572563Y-1297412D01*
X3753515Y-1525984D02*
X3639229Y-1525984D01*
X3696372Y-1525984D02*
X3696372Y-1325984D01*
X3696372Y-1325984D02*
X3677325Y-1354555D01*
X3677325Y-1354555D02*
X3658277Y-1373603D01*
X3658277Y-1373603D02*
X3639229Y-1383127D01*
X3924944Y-1325984D02*
X3886848Y-1325984D01*
X3886848Y-1325984D02*
X3867801Y-1335508D01*
X3867801Y-1335508D02*
X3858277Y-1345031D01*
X3858277Y-1345031D02*
X3839229Y-1373603D01*
X3839229Y-1373603D02*
X3829706Y-1411698D01*
X3829706Y-1411698D02*
X3829706Y-1487888D01*
X3829706Y-1487888D02*
X3839229Y-1506936D01*
X3839229Y-1506936D02*
X3848753Y-1516460D01*
X3848753Y-1516460D02*
X3867801Y-1525984D01*
X3867801Y-1525984D02*
X3905896Y-1525984D01*
X3905896Y-1525984D02*
X3924944Y-1516460D01*
X3924944Y-1516460D02*
X3934468Y-1506936D01*
X3934468Y-1506936D02*
X3943991Y-1487888D01*
X3943991Y-1487888D02*
X3943991Y-1440269D01*
X3943991Y-1440269D02*
X3934468Y-1421222D01*
X3934468Y-1421222D02*
X3924944Y-1411698D01*
X3924944Y-1411698D02*
X3905896Y-1402174D01*
X3905896Y-1402174D02*
X3867801Y-1402174D01*
X3867801Y-1402174D02*
X3848753Y-1411698D01*
X3848753Y-1411698D02*
X3839229Y-1421222D01*
X3839229Y-1421222D02*
X3829706Y-1440269D01*
X4182087Y-1525984D02*
X4182087Y-1325984D01*
X4267801Y-1525984D02*
X4267801Y-1421222D01*
X4267801Y-1421222D02*
X4258277Y-1402174D01*
X4258277Y-1402174D02*
X4239230Y-1392650D01*
X4239230Y-1392650D02*
X4210658Y-1392650D01*
X4210658Y-1392650D02*
X4191610Y-1402174D01*
X4191610Y-1402174D02*
X4182087Y-1411698D01*
X4391611Y-1525984D02*
X4372563Y-1516460D01*
X4372563Y-1516460D02*
X4363039Y-1506936D01*
X4363039Y-1506936D02*
X4353515Y-1487888D01*
X4353515Y-1487888D02*
X4353515Y-1430746D01*
X4353515Y-1430746D02*
X4363039Y-1411698D01*
X4363039Y-1411698D02*
X4372563Y-1402174D01*
X4372563Y-1402174D02*
X4391611Y-1392650D01*
X4391611Y-1392650D02*
X4420182Y-1392650D01*
X4420182Y-1392650D02*
X4439230Y-1402174D01*
X4439230Y-1402174D02*
X4448753Y-1411698D01*
X4448753Y-1411698D02*
X4458277Y-1430746D01*
X4458277Y-1430746D02*
X4458277Y-1487888D01*
X4458277Y-1487888D02*
X4448753Y-1506936D01*
X4448753Y-1506936D02*
X4439230Y-1516460D01*
X4439230Y-1516460D02*
X4420182Y-1525984D01*
X4420182Y-1525984D02*
X4391611Y-1525984D01*
X4572563Y-1525984D02*
X4553515Y-1516460D01*
X4553515Y-1516460D02*
X4543992Y-1497412D01*
X4543992Y-1497412D02*
X4543992Y-1325984D01*
X4724944Y-1516460D02*
X4705896Y-1525984D01*
X4705896Y-1525984D02*
X4667801Y-1525984D01*
X4667801Y-1525984D02*
X4648753Y-1516460D01*
X4648753Y-1516460D02*
X4639230Y-1497412D01*
X4639230Y-1497412D02*
X4639230Y-1421222D01*
X4639230Y-1421222D02*
X4648753Y-1402174D01*
X4648753Y-1402174D02*
X4667801Y-1392650D01*
X4667801Y-1392650D02*
X4705896Y-1392650D01*
X4705896Y-1392650D02*
X4724944Y-1402174D01*
X4724944Y-1402174D02*
X4734468Y-1421222D01*
X4734468Y-1421222D02*
X4734468Y-1440269D01*
X4734468Y-1440269D02*
X4639230Y-1459317D01*
X4810658Y-1516460D02*
X4829706Y-1525984D01*
X4829706Y-1525984D02*
X4867801Y-1525984D01*
X4867801Y-1525984D02*
X4886849Y-1516460D01*
X4886849Y-1516460D02*
X4896373Y-1497412D01*
X4896373Y-1497412D02*
X4896373Y-1487888D01*
X4896373Y-1487888D02*
X4886849Y-1468841D01*
X4886849Y-1468841D02*
X4867801Y-1459317D01*
X4867801Y-1459317D02*
X4839230Y-1459317D01*
X4839230Y-1459317D02*
X4820182Y-1449793D01*
X4820182Y-1449793D02*
X4810658Y-1430746D01*
X4810658Y-1430746D02*
X4810658Y-1421222D01*
X4810658Y-1421222D02*
X4820182Y-1402174D01*
X4820182Y-1402174D02*
X4839230Y-1392650D01*
X4839230Y-1392650D02*
X4867801Y-1392650D01*
X4867801Y-1392650D02*
X4886849Y-1402174D01*
X4963039Y-1602174D02*
X4972563Y-1592650D01*
X4972563Y-1592650D02*
X4991611Y-1564079D01*
X4991611Y-1564079D02*
X5001134Y-1545031D01*
X5001134Y-1545031D02*
X5010658Y-1516460D01*
X5010658Y-1516460D02*
X5020182Y-1468841D01*
X5020182Y-1468841D02*
X5020182Y-1430746D01*
X5020182Y-1430746D02*
X5010658Y-1383127D01*
X5010658Y-1383127D02*
X5001134Y-1354555D01*
X5001134Y-1354555D02*
X4991611Y-1335508D01*
X4991611Y-1335508D02*
X4972563Y-1306936D01*
X4972563Y-1306936D02*
X4963039Y-1297412D01*
D12*
X-52500Y-1748500D02*
X-2500Y-1698500D01*
X-52500Y-1648500D01*
X-102500Y-1698500D01*
X-52500Y-1748500D01*
D11*
X363039Y-1789984D02*
X248753Y-1789984D01*
X305896Y-1789984D02*
X305896Y-1589984D01*
X305896Y-1589984D02*
X286848Y-1618555D01*
X286848Y-1618555D02*
X267801Y-1637603D01*
X267801Y-1637603D02*
X248753Y-1647127D01*
X448753Y-1770936D02*
X458277Y-1780460D01*
X458277Y-1780460D02*
X448753Y-1789984D01*
X448753Y-1789984D02*
X439229Y-1780460D01*
X439229Y-1780460D02*
X448753Y-1770936D01*
X448753Y-1770936D02*
X448753Y-1789984D01*
X582086Y-1589984D02*
X601134Y-1589984D01*
X601134Y-1589984D02*
X620182Y-1599508D01*
X620182Y-1599508D02*
X629705Y-1609031D01*
X629705Y-1609031D02*
X639229Y-1628079D01*
X639229Y-1628079D02*
X648753Y-1666174D01*
X648753Y-1666174D02*
X648753Y-1713793D01*
X648753Y-1713793D02*
X639229Y-1751888D01*
X639229Y-1751888D02*
X629705Y-1770936D01*
X629705Y-1770936D02*
X620182Y-1780460D01*
X620182Y-1780460D02*
X601134Y-1789984D01*
X601134Y-1789984D02*
X582086Y-1789984D01*
X582086Y-1789984D02*
X563039Y-1780460D01*
X563039Y-1780460D02*
X553515Y-1770936D01*
X553515Y-1770936D02*
X543991Y-1751888D01*
X543991Y-1751888D02*
X534467Y-1713793D01*
X534467Y-1713793D02*
X534467Y-1666174D01*
X534467Y-1666174D02*
X543991Y-1628079D01*
X543991Y-1628079D02*
X553515Y-1609031D01*
X553515Y-1609031D02*
X563039Y-1599508D01*
X563039Y-1599508D02*
X582086Y-1589984D01*
X772562Y-1589984D02*
X791610Y-1589984D01*
X791610Y-1589984D02*
X810658Y-1599508D01*
X810658Y-1599508D02*
X820182Y-1609031D01*
X820182Y-1609031D02*
X829705Y-1628079D01*
X829705Y-1628079D02*
X839229Y-1666174D01*
X839229Y-1666174D02*
X839229Y-1713793D01*
X839229Y-1713793D02*
X829705Y-1751888D01*
X829705Y-1751888D02*
X820182Y-1770936D01*
X820182Y-1770936D02*
X810658Y-1780460D01*
X810658Y-1780460D02*
X791610Y-1789984D01*
X791610Y-1789984D02*
X772562Y-1789984D01*
X772562Y-1789984D02*
X753515Y-1780460D01*
X753515Y-1780460D02*
X743991Y-1770936D01*
X743991Y-1770936D02*
X734467Y-1751888D01*
X734467Y-1751888D02*
X724943Y-1713793D01*
X724943Y-1713793D02*
X724943Y-1666174D01*
X724943Y-1666174D02*
X734467Y-1628079D01*
X734467Y-1628079D02*
X743991Y-1609031D01*
X743991Y-1609031D02*
X753515Y-1599508D01*
X753515Y-1599508D02*
X772562Y-1589984D01*
X963039Y-1589984D02*
X982086Y-1589984D01*
X982086Y-1589984D02*
X1001134Y-1599508D01*
X1001134Y-1599508D02*
X1010658Y-1609031D01*
X1010658Y-1609031D02*
X1020182Y-1628079D01*
X1020182Y-1628079D02*
X1029705Y-1666174D01*
X1029705Y-1666174D02*
X1029705Y-1713793D01*
X1029705Y-1713793D02*
X1020182Y-1751888D01*
X1020182Y-1751888D02*
X1010658Y-1770936D01*
X1010658Y-1770936D02*
X1001134Y-1780460D01*
X1001134Y-1780460D02*
X982086Y-1789984D01*
X982086Y-1789984D02*
X963039Y-1789984D01*
X963039Y-1789984D02*
X943991Y-1780460D01*
X943991Y-1780460D02*
X934467Y-1770936D01*
X934467Y-1770936D02*
X924943Y-1751888D01*
X924943Y-1751888D02*
X915420Y-1713793D01*
X915420Y-1713793D02*
X915420Y-1666174D01*
X915420Y-1666174D02*
X924943Y-1628079D01*
X924943Y-1628079D02*
X934467Y-1609031D01*
X934467Y-1609031D02*
X943991Y-1599508D01*
X943991Y-1599508D02*
X963039Y-1589984D01*
X1115420Y-1789984D02*
X1115420Y-1656650D01*
X1115420Y-1675698D02*
X1124944Y-1666174D01*
X1124944Y-1666174D02*
X1143991Y-1656650D01*
X1143991Y-1656650D02*
X1172563Y-1656650D01*
X1172563Y-1656650D02*
X1191610Y-1666174D01*
X1191610Y-1666174D02*
X1201134Y-1685222D01*
X1201134Y-1685222D02*
X1201134Y-1789984D01*
X1201134Y-1685222D02*
X1210658Y-1666174D01*
X1210658Y-1666174D02*
X1229705Y-1656650D01*
X1229705Y-1656650D02*
X1258277Y-1656650D01*
X1258277Y-1656650D02*
X1277325Y-1666174D01*
X1277325Y-1666174D02*
X1286848Y-1685222D01*
X1286848Y-1685222D02*
X1286848Y-1789984D01*
X1382086Y-1789984D02*
X1382086Y-1656650D01*
X1382086Y-1675698D02*
X1391610Y-1666174D01*
X1391610Y-1666174D02*
X1410658Y-1656650D01*
X1410658Y-1656650D02*
X1439229Y-1656650D01*
X1439229Y-1656650D02*
X1458277Y-1666174D01*
X1458277Y-1666174D02*
X1467801Y-1685222D01*
X1467801Y-1685222D02*
X1467801Y-1789984D01*
X1467801Y-1685222D02*
X1477324Y-1666174D01*
X1477324Y-1666174D02*
X1496372Y-1656650D01*
X1496372Y-1656650D02*
X1524943Y-1656650D01*
X1524943Y-1656650D02*
X1543991Y-1666174D01*
X1543991Y-1666174D02*
X1553515Y-1685222D01*
X1553515Y-1685222D02*
X1553515Y-1789984D01*
X1943991Y-1580460D02*
X1772563Y-1837603D01*
X2201134Y-1589984D02*
X2220182Y-1589984D01*
X2220182Y-1589984D02*
X2239229Y-1599508D01*
X2239229Y-1599508D02*
X2248753Y-1609031D01*
X2248753Y-1609031D02*
X2258277Y-1628079D01*
X2258277Y-1628079D02*
X2267801Y-1666174D01*
X2267801Y-1666174D02*
X2267801Y-1713793D01*
X2267801Y-1713793D02*
X2258277Y-1751888D01*
X2258277Y-1751888D02*
X2248753Y-1770936D01*
X2248753Y-1770936D02*
X2239229Y-1780460D01*
X2239229Y-1780460D02*
X2220182Y-1789984D01*
X2220182Y-1789984D02*
X2201134Y-1789984D01*
X2201134Y-1789984D02*
X2182087Y-1780460D01*
X2182087Y-1780460D02*
X2172563Y-1770936D01*
X2172563Y-1770936D02*
X2163039Y-1751888D01*
X2163039Y-1751888D02*
X2153515Y-1713793D01*
X2153515Y-1713793D02*
X2153515Y-1666174D01*
X2153515Y-1666174D02*
X2163039Y-1628079D01*
X2163039Y-1628079D02*
X2172563Y-1609031D01*
X2172563Y-1609031D02*
X2182087Y-1599508D01*
X2182087Y-1599508D02*
X2201134Y-1589984D01*
X2353515Y-1770936D02*
X2363039Y-1780460D01*
X2363039Y-1780460D02*
X2353515Y-1789984D01*
X2353515Y-1789984D02*
X2343991Y-1780460D01*
X2343991Y-1780460D02*
X2353515Y-1770936D01*
X2353515Y-1770936D02*
X2353515Y-1789984D01*
X2486848Y-1589984D02*
X2505896Y-1589984D01*
X2505896Y-1589984D02*
X2524944Y-1599508D01*
X2524944Y-1599508D02*
X2534468Y-1609031D01*
X2534468Y-1609031D02*
X2543991Y-1628079D01*
X2543991Y-1628079D02*
X2553515Y-1666174D01*
X2553515Y-1666174D02*
X2553515Y-1713793D01*
X2553515Y-1713793D02*
X2543991Y-1751888D01*
X2543991Y-1751888D02*
X2534468Y-1770936D01*
X2534468Y-1770936D02*
X2524944Y-1780460D01*
X2524944Y-1780460D02*
X2505896Y-1789984D01*
X2505896Y-1789984D02*
X2486848Y-1789984D01*
X2486848Y-1789984D02*
X2467801Y-1780460D01*
X2467801Y-1780460D02*
X2458277Y-1770936D01*
X2458277Y-1770936D02*
X2448753Y-1751888D01*
X2448753Y-1751888D02*
X2439229Y-1713793D01*
X2439229Y-1713793D02*
X2439229Y-1666174D01*
X2439229Y-1666174D02*
X2448753Y-1628079D01*
X2448753Y-1628079D02*
X2458277Y-1609031D01*
X2458277Y-1609031D02*
X2467801Y-1599508D01*
X2467801Y-1599508D02*
X2486848Y-1589984D01*
X2620182Y-1589984D02*
X2743991Y-1589984D01*
X2743991Y-1589984D02*
X2677325Y-1666174D01*
X2677325Y-1666174D02*
X2705896Y-1666174D01*
X2705896Y-1666174D02*
X2724944Y-1675698D01*
X2724944Y-1675698D02*
X2734468Y-1685222D01*
X2734468Y-1685222D02*
X2743991Y-1704269D01*
X2743991Y-1704269D02*
X2743991Y-1751888D01*
X2743991Y-1751888D02*
X2734468Y-1770936D01*
X2734468Y-1770936D02*
X2724944Y-1780460D01*
X2724944Y-1780460D02*
X2705896Y-1789984D01*
X2705896Y-1789984D02*
X2648753Y-1789984D01*
X2648753Y-1789984D02*
X2629706Y-1780460D01*
X2629706Y-1780460D02*
X2620182Y-1770936D01*
X2839229Y-1789984D02*
X2877325Y-1789984D01*
X2877325Y-1789984D02*
X2896372Y-1780460D01*
X2896372Y-1780460D02*
X2905896Y-1770936D01*
X2905896Y-1770936D02*
X2924944Y-1742365D01*
X2924944Y-1742365D02*
X2934467Y-1704269D01*
X2934467Y-1704269D02*
X2934467Y-1628079D01*
X2934467Y-1628079D02*
X2924944Y-1609031D01*
X2924944Y-1609031D02*
X2915420Y-1599508D01*
X2915420Y-1599508D02*
X2896372Y-1589984D01*
X2896372Y-1589984D02*
X2858277Y-1589984D01*
X2858277Y-1589984D02*
X2839229Y-1599508D01*
X2839229Y-1599508D02*
X2829706Y-1609031D01*
X2829706Y-1609031D02*
X2820182Y-1628079D01*
X2820182Y-1628079D02*
X2820182Y-1675698D01*
X2820182Y-1675698D02*
X2829706Y-1694746D01*
X2829706Y-1694746D02*
X2839229Y-1704269D01*
X2839229Y-1704269D02*
X2858277Y-1713793D01*
X2858277Y-1713793D02*
X2896372Y-1713793D01*
X2896372Y-1713793D02*
X2915420Y-1704269D01*
X2915420Y-1704269D02*
X2924944Y-1694746D01*
X2924944Y-1694746D02*
X2934467Y-1675698D01*
X3105896Y-1656650D02*
X3105896Y-1789984D01*
X3058277Y-1580460D02*
X3010658Y-1723317D01*
X3010658Y-1723317D02*
X3134467Y-1723317D01*
X3201134Y-1589984D02*
X3201134Y-1628079D01*
X3277325Y-1589984D02*
X3277325Y-1628079D01*
X3572563Y-1866174D02*
X3563039Y-1856650D01*
X3563039Y-1856650D02*
X3543991Y-1828079D01*
X3543991Y-1828079D02*
X3534468Y-1809031D01*
X3534468Y-1809031D02*
X3524944Y-1780460D01*
X3524944Y-1780460D02*
X3515420Y-1732841D01*
X3515420Y-1732841D02*
X3515420Y-1694746D01*
X3515420Y-1694746D02*
X3524944Y-1647127D01*
X3524944Y-1647127D02*
X3534468Y-1618555D01*
X3534468Y-1618555D02*
X3543991Y-1599508D01*
X3543991Y-1599508D02*
X3563039Y-1570936D01*
X3563039Y-1570936D02*
X3572563Y-1561412D01*
X3629706Y-1589984D02*
X3753515Y-1589984D01*
X3753515Y-1589984D02*
X3686848Y-1666174D01*
X3686848Y-1666174D02*
X3715420Y-1666174D01*
X3715420Y-1666174D02*
X3734468Y-1675698D01*
X3734468Y-1675698D02*
X3743991Y-1685222D01*
X3743991Y-1685222D02*
X3753515Y-1704269D01*
X3753515Y-1704269D02*
X3753515Y-1751888D01*
X3753515Y-1751888D02*
X3743991Y-1770936D01*
X3743991Y-1770936D02*
X3734468Y-1780460D01*
X3734468Y-1780460D02*
X3715420Y-1789984D01*
X3715420Y-1789984D02*
X3658277Y-1789984D01*
X3658277Y-1789984D02*
X3639229Y-1780460D01*
X3639229Y-1780460D02*
X3629706Y-1770936D01*
X3924944Y-1656650D02*
X3924944Y-1789984D01*
X3877325Y-1580460D02*
X3829706Y-1723317D01*
X3829706Y-1723317D02*
X3953515Y-1723317D01*
X4182087Y-1789984D02*
X4182087Y-1589984D01*
X4267801Y-1789984D02*
X4267801Y-1685222D01*
X4267801Y-1685222D02*
X4258277Y-1666174D01*
X4258277Y-1666174D02*
X4239230Y-1656650D01*
X4239230Y-1656650D02*
X4210658Y-1656650D01*
X4210658Y-1656650D02*
X4191610Y-1666174D01*
X4191610Y-1666174D02*
X4182087Y-1675698D01*
X4391611Y-1789984D02*
X4372563Y-1780460D01*
X4372563Y-1780460D02*
X4363039Y-1770936D01*
X4363039Y-1770936D02*
X4353515Y-1751888D01*
X4353515Y-1751888D02*
X4353515Y-1694746D01*
X4353515Y-1694746D02*
X4363039Y-1675698D01*
X4363039Y-1675698D02*
X4372563Y-1666174D01*
X4372563Y-1666174D02*
X4391611Y-1656650D01*
X4391611Y-1656650D02*
X4420182Y-1656650D01*
X4420182Y-1656650D02*
X4439230Y-1666174D01*
X4439230Y-1666174D02*
X4448753Y-1675698D01*
X4448753Y-1675698D02*
X4458277Y-1694746D01*
X4458277Y-1694746D02*
X4458277Y-1751888D01*
X4458277Y-1751888D02*
X4448753Y-1770936D01*
X4448753Y-1770936D02*
X4439230Y-1780460D01*
X4439230Y-1780460D02*
X4420182Y-1789984D01*
X4420182Y-1789984D02*
X4391611Y-1789984D01*
X4572563Y-1789984D02*
X4553515Y-1780460D01*
X4553515Y-1780460D02*
X4543992Y-1761412D01*
X4543992Y-1761412D02*
X4543992Y-1589984D01*
X4724944Y-1780460D02*
X4705896Y-1789984D01*
X4705896Y-1789984D02*
X4667801Y-1789984D01*
X4667801Y-1789984D02*
X4648753Y-1780460D01*
X4648753Y-1780460D02*
X4639230Y-1761412D01*
X4639230Y-1761412D02*
X4639230Y-1685222D01*
X4639230Y-1685222D02*
X4648753Y-1666174D01*
X4648753Y-1666174D02*
X4667801Y-1656650D01*
X4667801Y-1656650D02*
X4705896Y-1656650D01*
X4705896Y-1656650D02*
X4724944Y-1666174D01*
X4724944Y-1666174D02*
X4734468Y-1685222D01*
X4734468Y-1685222D02*
X4734468Y-1704269D01*
X4734468Y-1704269D02*
X4639230Y-1723317D01*
X4810658Y-1780460D02*
X4829706Y-1789984D01*
X4829706Y-1789984D02*
X4867801Y-1789984D01*
X4867801Y-1789984D02*
X4886849Y-1780460D01*
X4886849Y-1780460D02*
X4896373Y-1761412D01*
X4896373Y-1761412D02*
X4896373Y-1751888D01*
X4896373Y-1751888D02*
X4886849Y-1732841D01*
X4886849Y-1732841D02*
X4867801Y-1723317D01*
X4867801Y-1723317D02*
X4839230Y-1723317D01*
X4839230Y-1723317D02*
X4820182Y-1713793D01*
X4820182Y-1713793D02*
X4810658Y-1694746D01*
X4810658Y-1694746D02*
X4810658Y-1685222D01*
X4810658Y-1685222D02*
X4820182Y-1666174D01*
X4820182Y-1666174D02*
X4839230Y-1656650D01*
X4839230Y-1656650D02*
X4867801Y-1656650D01*
X4867801Y-1656650D02*
X4886849Y-1666174D01*
X4963039Y-1866174D02*
X4972563Y-1856650D01*
X4972563Y-1856650D02*
X4991611Y-1828079D01*
X4991611Y-1828079D02*
X5001134Y-1809031D01*
X5001134Y-1809031D02*
X5010658Y-1780460D01*
X5010658Y-1780460D02*
X5020182Y-1732841D01*
X5020182Y-1732841D02*
X5020182Y-1694746D01*
X5020182Y-1694746D02*
X5010658Y-1647127D01*
X5010658Y-1647127D02*
X5001134Y-1618555D01*
X5001134Y-1618555D02*
X4991611Y-1599508D01*
X4991611Y-1599508D02*
X4972563Y-1570936D01*
X4972563Y-1570936D02*
X4963039Y-1561412D01*
D13*
X-152500Y-1887500D02*
X-2500Y-2037500D01*
X-2500Y-1887500D02*
X-152500Y-2037500D01*
X-2500Y-1962500D02*
G75*
G02*
X-152500Y-1962500I-75000J0D01*
G01*
X-152500Y-1962500D02*
G75*
G02*
X-2500Y-1962500I75000J0D01*
G01*
D11*
X363039Y-2053984D02*
X248753Y-2053984D01*
X305896Y-2053984D02*
X305896Y-1853984D01*
X305896Y-1853984D02*
X286848Y-1882555D01*
X286848Y-1882555D02*
X267801Y-1901603D01*
X267801Y-1901603D02*
X248753Y-1911127D01*
X448753Y-2034936D02*
X458277Y-2044460D01*
X458277Y-2044460D02*
X448753Y-2053984D01*
X448753Y-2053984D02*
X439229Y-2044460D01*
X439229Y-2044460D02*
X448753Y-2034936D01*
X448753Y-2034936D02*
X448753Y-2053984D01*
X639229Y-1853984D02*
X543991Y-1853984D01*
X543991Y-1853984D02*
X534467Y-1949222D01*
X534467Y-1949222D02*
X543991Y-1939698D01*
X543991Y-1939698D02*
X563039Y-1930174D01*
X563039Y-1930174D02*
X610658Y-1930174D01*
X610658Y-1930174D02*
X629705Y-1939698D01*
X629705Y-1939698D02*
X639229Y-1949222D01*
X639229Y-1949222D02*
X648753Y-1968269D01*
X648753Y-1968269D02*
X648753Y-2015888D01*
X648753Y-2015888D02*
X639229Y-2034936D01*
X639229Y-2034936D02*
X629705Y-2044460D01*
X629705Y-2044460D02*
X610658Y-2053984D01*
X610658Y-2053984D02*
X563039Y-2053984D01*
X563039Y-2053984D02*
X543991Y-2044460D01*
X543991Y-2044460D02*
X534467Y-2034936D01*
X772562Y-1853984D02*
X791610Y-1853984D01*
X791610Y-1853984D02*
X810658Y-1863508D01*
X810658Y-1863508D02*
X820182Y-1873031D01*
X820182Y-1873031D02*
X829705Y-1892079D01*
X829705Y-1892079D02*
X839229Y-1930174D01*
X839229Y-1930174D02*
X839229Y-1977793D01*
X839229Y-1977793D02*
X829705Y-2015888D01*
X829705Y-2015888D02*
X820182Y-2034936D01*
X820182Y-2034936D02*
X810658Y-2044460D01*
X810658Y-2044460D02*
X791610Y-2053984D01*
X791610Y-2053984D02*
X772562Y-2053984D01*
X772562Y-2053984D02*
X753515Y-2044460D01*
X753515Y-2044460D02*
X743991Y-2034936D01*
X743991Y-2034936D02*
X734467Y-2015888D01*
X734467Y-2015888D02*
X724943Y-1977793D01*
X724943Y-1977793D02*
X724943Y-1930174D01*
X724943Y-1930174D02*
X734467Y-1892079D01*
X734467Y-1892079D02*
X743991Y-1873031D01*
X743991Y-1873031D02*
X753515Y-1863508D01*
X753515Y-1863508D02*
X772562Y-1853984D01*
X963039Y-1853984D02*
X982086Y-1853984D01*
X982086Y-1853984D02*
X1001134Y-1863508D01*
X1001134Y-1863508D02*
X1010658Y-1873031D01*
X1010658Y-1873031D02*
X1020182Y-1892079D01*
X1020182Y-1892079D02*
X1029705Y-1930174D01*
X1029705Y-1930174D02*
X1029705Y-1977793D01*
X1029705Y-1977793D02*
X1020182Y-2015888D01*
X1020182Y-2015888D02*
X1010658Y-2034936D01*
X1010658Y-2034936D02*
X1001134Y-2044460D01*
X1001134Y-2044460D02*
X982086Y-2053984D01*
X982086Y-2053984D02*
X963039Y-2053984D01*
X963039Y-2053984D02*
X943991Y-2044460D01*
X943991Y-2044460D02*
X934467Y-2034936D01*
X934467Y-2034936D02*
X924943Y-2015888D01*
X924943Y-2015888D02*
X915420Y-1977793D01*
X915420Y-1977793D02*
X915420Y-1930174D01*
X915420Y-1930174D02*
X924943Y-1892079D01*
X924943Y-1892079D02*
X934467Y-1873031D01*
X934467Y-1873031D02*
X943991Y-1863508D01*
X943991Y-1863508D02*
X963039Y-1853984D01*
X1115420Y-2053984D02*
X1115420Y-1920650D01*
X1115420Y-1939698D02*
X1124944Y-1930174D01*
X1124944Y-1930174D02*
X1143991Y-1920650D01*
X1143991Y-1920650D02*
X1172563Y-1920650D01*
X1172563Y-1920650D02*
X1191610Y-1930174D01*
X1191610Y-1930174D02*
X1201134Y-1949222D01*
X1201134Y-1949222D02*
X1201134Y-2053984D01*
X1201134Y-1949222D02*
X1210658Y-1930174D01*
X1210658Y-1930174D02*
X1229705Y-1920650D01*
X1229705Y-1920650D02*
X1258277Y-1920650D01*
X1258277Y-1920650D02*
X1277325Y-1930174D01*
X1277325Y-1930174D02*
X1286848Y-1949222D01*
X1286848Y-1949222D02*
X1286848Y-2053984D01*
X1382086Y-2053984D02*
X1382086Y-1920650D01*
X1382086Y-1939698D02*
X1391610Y-1930174D01*
X1391610Y-1930174D02*
X1410658Y-1920650D01*
X1410658Y-1920650D02*
X1439229Y-1920650D01*
X1439229Y-1920650D02*
X1458277Y-1930174D01*
X1458277Y-1930174D02*
X1467801Y-1949222D01*
X1467801Y-1949222D02*
X1467801Y-2053984D01*
X1467801Y-1949222D02*
X1477324Y-1930174D01*
X1477324Y-1930174D02*
X1496372Y-1920650D01*
X1496372Y-1920650D02*
X1524943Y-1920650D01*
X1524943Y-1920650D02*
X1543991Y-1930174D01*
X1543991Y-1930174D02*
X1553515Y-1949222D01*
X1553515Y-1949222D02*
X1553515Y-2053984D01*
X1943991Y-1844460D02*
X1772563Y-2101603D01*
X2201134Y-1853984D02*
X2220182Y-1853984D01*
X2220182Y-1853984D02*
X2239229Y-1863508D01*
X2239229Y-1863508D02*
X2248753Y-1873031D01*
X2248753Y-1873031D02*
X2258277Y-1892079D01*
X2258277Y-1892079D02*
X2267801Y-1930174D01*
X2267801Y-1930174D02*
X2267801Y-1977793D01*
X2267801Y-1977793D02*
X2258277Y-2015888D01*
X2258277Y-2015888D02*
X2248753Y-2034936D01*
X2248753Y-2034936D02*
X2239229Y-2044460D01*
X2239229Y-2044460D02*
X2220182Y-2053984D01*
X2220182Y-2053984D02*
X2201134Y-2053984D01*
X2201134Y-2053984D02*
X2182087Y-2044460D01*
X2182087Y-2044460D02*
X2172563Y-2034936D01*
X2172563Y-2034936D02*
X2163039Y-2015888D01*
X2163039Y-2015888D02*
X2153515Y-1977793D01*
X2153515Y-1977793D02*
X2153515Y-1930174D01*
X2153515Y-1930174D02*
X2163039Y-1892079D01*
X2163039Y-1892079D02*
X2172563Y-1873031D01*
X2172563Y-1873031D02*
X2182087Y-1863508D01*
X2182087Y-1863508D02*
X2201134Y-1853984D01*
X2353515Y-2034936D02*
X2363039Y-2044460D01*
X2363039Y-2044460D02*
X2353515Y-2053984D01*
X2353515Y-2053984D02*
X2343991Y-2044460D01*
X2343991Y-2044460D02*
X2353515Y-2034936D01*
X2353515Y-2034936D02*
X2353515Y-2053984D01*
X2486848Y-1853984D02*
X2505896Y-1853984D01*
X2505896Y-1853984D02*
X2524944Y-1863508D01*
X2524944Y-1863508D02*
X2534468Y-1873031D01*
X2534468Y-1873031D02*
X2543991Y-1892079D01*
X2543991Y-1892079D02*
X2553515Y-1930174D01*
X2553515Y-1930174D02*
X2553515Y-1977793D01*
X2553515Y-1977793D02*
X2543991Y-2015888D01*
X2543991Y-2015888D02*
X2534468Y-2034936D01*
X2534468Y-2034936D02*
X2524944Y-2044460D01*
X2524944Y-2044460D02*
X2505896Y-2053984D01*
X2505896Y-2053984D02*
X2486848Y-2053984D01*
X2486848Y-2053984D02*
X2467801Y-2044460D01*
X2467801Y-2044460D02*
X2458277Y-2034936D01*
X2458277Y-2034936D02*
X2448753Y-2015888D01*
X2448753Y-2015888D02*
X2439229Y-1977793D01*
X2439229Y-1977793D02*
X2439229Y-1930174D01*
X2439229Y-1930174D02*
X2448753Y-1892079D01*
X2448753Y-1892079D02*
X2458277Y-1873031D01*
X2458277Y-1873031D02*
X2467801Y-1863508D01*
X2467801Y-1863508D02*
X2486848Y-1853984D01*
X2734468Y-1853984D02*
X2639229Y-1853984D01*
X2639229Y-1853984D02*
X2629706Y-1949222D01*
X2629706Y-1949222D02*
X2639229Y-1939698D01*
X2639229Y-1939698D02*
X2658277Y-1930174D01*
X2658277Y-1930174D02*
X2705896Y-1930174D01*
X2705896Y-1930174D02*
X2724944Y-1939698D01*
X2724944Y-1939698D02*
X2734468Y-1949222D01*
X2734468Y-1949222D02*
X2743991Y-1968269D01*
X2743991Y-1968269D02*
X2743991Y-2015888D01*
X2743991Y-2015888D02*
X2734468Y-2034936D01*
X2734468Y-2034936D02*
X2724944Y-2044460D01*
X2724944Y-2044460D02*
X2705896Y-2053984D01*
X2705896Y-2053984D02*
X2658277Y-2053984D01*
X2658277Y-2053984D02*
X2639229Y-2044460D01*
X2639229Y-2044460D02*
X2629706Y-2034936D01*
X2839229Y-2053984D02*
X2877325Y-2053984D01*
X2877325Y-2053984D02*
X2896372Y-2044460D01*
X2896372Y-2044460D02*
X2905896Y-2034936D01*
X2905896Y-2034936D02*
X2924944Y-2006365D01*
X2924944Y-2006365D02*
X2934467Y-1968269D01*
X2934467Y-1968269D02*
X2934467Y-1892079D01*
X2934467Y-1892079D02*
X2924944Y-1873031D01*
X2924944Y-1873031D02*
X2915420Y-1863508D01*
X2915420Y-1863508D02*
X2896372Y-1853984D01*
X2896372Y-1853984D02*
X2858277Y-1853984D01*
X2858277Y-1853984D02*
X2839229Y-1863508D01*
X2839229Y-1863508D02*
X2829706Y-1873031D01*
X2829706Y-1873031D02*
X2820182Y-1892079D01*
X2820182Y-1892079D02*
X2820182Y-1939698D01*
X2820182Y-1939698D02*
X2829706Y-1958746D01*
X2829706Y-1958746D02*
X2839229Y-1968269D01*
X2839229Y-1968269D02*
X2858277Y-1977793D01*
X2858277Y-1977793D02*
X2896372Y-1977793D01*
X2896372Y-1977793D02*
X2915420Y-1968269D01*
X2915420Y-1968269D02*
X2924944Y-1958746D01*
X2924944Y-1958746D02*
X2934467Y-1939698D01*
X3124944Y-2053984D02*
X3010658Y-2053984D01*
X3067801Y-2053984D02*
X3067801Y-1853984D01*
X3067801Y-1853984D02*
X3048753Y-1882555D01*
X3048753Y-1882555D02*
X3029706Y-1901603D01*
X3029706Y-1901603D02*
X3010658Y-1911127D01*
X3201134Y-1853984D02*
X3201134Y-1892079D01*
X3277325Y-1853984D02*
X3277325Y-1892079D01*
X3572563Y-2130174D02*
X3563039Y-2120650D01*
X3563039Y-2120650D02*
X3543991Y-2092079D01*
X3543991Y-2092079D02*
X3534468Y-2073031D01*
X3534468Y-2073031D02*
X3524944Y-2044460D01*
X3524944Y-2044460D02*
X3515420Y-1996841D01*
X3515420Y-1996841D02*
X3515420Y-1958746D01*
X3515420Y-1958746D02*
X3524944Y-1911127D01*
X3524944Y-1911127D02*
X3534468Y-1882555D01*
X3534468Y-1882555D02*
X3543991Y-1863508D01*
X3543991Y-1863508D02*
X3563039Y-1834936D01*
X3563039Y-1834936D02*
X3572563Y-1825412D01*
X3639229Y-1873031D02*
X3648753Y-1863508D01*
X3648753Y-1863508D02*
X3667801Y-1853984D01*
X3667801Y-1853984D02*
X3715420Y-1853984D01*
X3715420Y-1853984D02*
X3734468Y-1863508D01*
X3734468Y-1863508D02*
X3743991Y-1873031D01*
X3743991Y-1873031D02*
X3753515Y-1892079D01*
X3753515Y-1892079D02*
X3753515Y-1911127D01*
X3753515Y-1911127D02*
X3743991Y-1939698D01*
X3743991Y-1939698D02*
X3629706Y-2053984D01*
X3629706Y-2053984D02*
X3753515Y-2053984D01*
X3991610Y-2053984D02*
X3991610Y-1853984D01*
X4077325Y-2053984D02*
X4077325Y-1949222D01*
X4077325Y-1949222D02*
X4067801Y-1930174D01*
X4067801Y-1930174D02*
X4048753Y-1920650D01*
X4048753Y-1920650D02*
X4020182Y-1920650D01*
X4020182Y-1920650D02*
X4001134Y-1930174D01*
X4001134Y-1930174D02*
X3991610Y-1939698D01*
X4201134Y-2053984D02*
X4182087Y-2044460D01*
X4182087Y-2044460D02*
X4172563Y-2034936D01*
X4172563Y-2034936D02*
X4163039Y-2015888D01*
X4163039Y-2015888D02*
X4163039Y-1958746D01*
X4163039Y-1958746D02*
X4172563Y-1939698D01*
X4172563Y-1939698D02*
X4182087Y-1930174D01*
X4182087Y-1930174D02*
X4201134Y-1920650D01*
X4201134Y-1920650D02*
X4229706Y-1920650D01*
X4229706Y-1920650D02*
X4248753Y-1930174D01*
X4248753Y-1930174D02*
X4258277Y-1939698D01*
X4258277Y-1939698D02*
X4267801Y-1958746D01*
X4267801Y-1958746D02*
X4267801Y-2015888D01*
X4267801Y-2015888D02*
X4258277Y-2034936D01*
X4258277Y-2034936D02*
X4248753Y-2044460D01*
X4248753Y-2044460D02*
X4229706Y-2053984D01*
X4229706Y-2053984D02*
X4201134Y-2053984D01*
X4382087Y-2053984D02*
X4363039Y-2044460D01*
X4363039Y-2044460D02*
X4353515Y-2025412D01*
X4353515Y-2025412D02*
X4353515Y-1853984D01*
X4534468Y-2044460D02*
X4515420Y-2053984D01*
X4515420Y-2053984D02*
X4477325Y-2053984D01*
X4477325Y-2053984D02*
X4458277Y-2044460D01*
X4458277Y-2044460D02*
X4448753Y-2025412D01*
X4448753Y-2025412D02*
X4448753Y-1949222D01*
X4448753Y-1949222D02*
X4458277Y-1930174D01*
X4458277Y-1930174D02*
X4477325Y-1920650D01*
X4477325Y-1920650D02*
X4515420Y-1920650D01*
X4515420Y-1920650D02*
X4534468Y-1930174D01*
X4534468Y-1930174D02*
X4543992Y-1949222D01*
X4543992Y-1949222D02*
X4543992Y-1968269D01*
X4543992Y-1968269D02*
X4448753Y-1987317D01*
X4620182Y-2044460D02*
X4639230Y-2053984D01*
X4639230Y-2053984D02*
X4677325Y-2053984D01*
X4677325Y-2053984D02*
X4696373Y-2044460D01*
X4696373Y-2044460D02*
X4705896Y-2025412D01*
X4705896Y-2025412D02*
X4705896Y-2015888D01*
X4705896Y-2015888D02*
X4696373Y-1996841D01*
X4696373Y-1996841D02*
X4677325Y-1987317D01*
X4677325Y-1987317D02*
X4648753Y-1987317D01*
X4648753Y-1987317D02*
X4629706Y-1977793D01*
X4629706Y-1977793D02*
X4620182Y-1958746D01*
X4620182Y-1958746D02*
X4620182Y-1949222D01*
X4620182Y-1949222D02*
X4629706Y-1930174D01*
X4629706Y-1930174D02*
X4648753Y-1920650D01*
X4648753Y-1920650D02*
X4677325Y-1920650D01*
X4677325Y-1920650D02*
X4696373Y-1930174D01*
X4772563Y-2130174D02*
X4782087Y-2120650D01*
X4782087Y-2120650D02*
X4801134Y-2092079D01*
X4801134Y-2092079D02*
X4810658Y-2073031D01*
X4810658Y-2073031D02*
X4820182Y-2044460D01*
X4820182Y-2044460D02*
X4829706Y-1996841D01*
X4829706Y-1996841D02*
X4829706Y-1958746D01*
X4829706Y-1958746D02*
X4820182Y-1911127D01*
X4820182Y-1911127D02*
X4810658Y-1882555D01*
X4810658Y-1882555D02*
X4801134Y-1863508D01*
X4801134Y-1863508D02*
X4782087Y-1834936D01*
X4782087Y-1834936D02*
X4772563Y-1825412D01*
D14*
X-172500Y-2147500D02*
X-2500Y-2317500D01*
X-2500Y-2147500D02*
X-172500Y-2317500D01*
X-87500Y-2147500D02*
X-87500Y-2317500D01*
X-172500Y-2232500D02*
X-2500Y-2232500D01*
D11*
X363039Y-2323984D02*
X248753Y-2323984D01*
X305896Y-2323984D02*
X305896Y-2123984D01*
X305896Y-2123984D02*
X286848Y-2152555D01*
X286848Y-2152555D02*
X267801Y-2171603D01*
X267801Y-2171603D02*
X248753Y-2181127D01*
X448753Y-2304936D02*
X458277Y-2314460D01*
X458277Y-2314460D02*
X448753Y-2323984D01*
X448753Y-2323984D02*
X439229Y-2314460D01*
X439229Y-2314460D02*
X448753Y-2304936D01*
X448753Y-2304936D02*
X448753Y-2323984D01*
X524944Y-2123984D02*
X658277Y-2123984D01*
X658277Y-2123984D02*
X572563Y-2323984D01*
X772562Y-2123984D02*
X791610Y-2123984D01*
X791610Y-2123984D02*
X810658Y-2133508D01*
X810658Y-2133508D02*
X820182Y-2143031D01*
X820182Y-2143031D02*
X829705Y-2162079D01*
X829705Y-2162079D02*
X839229Y-2200174D01*
X839229Y-2200174D02*
X839229Y-2247793D01*
X839229Y-2247793D02*
X829705Y-2285889D01*
X829705Y-2285889D02*
X820182Y-2304936D01*
X820182Y-2304936D02*
X810658Y-2314460D01*
X810658Y-2314460D02*
X791610Y-2323984D01*
X791610Y-2323984D02*
X772562Y-2323984D01*
X772562Y-2323984D02*
X753515Y-2314460D01*
X753515Y-2314460D02*
X743991Y-2304936D01*
X743991Y-2304936D02*
X734467Y-2285889D01*
X734467Y-2285889D02*
X724943Y-2247793D01*
X724943Y-2247793D02*
X724943Y-2200174D01*
X724943Y-2200174D02*
X734467Y-2162079D01*
X734467Y-2162079D02*
X743991Y-2143031D01*
X743991Y-2143031D02*
X753515Y-2133508D01*
X753515Y-2133508D02*
X772562Y-2123984D01*
X963039Y-2123984D02*
X982086Y-2123984D01*
X982086Y-2123984D02*
X1001134Y-2133508D01*
X1001134Y-2133508D02*
X1010658Y-2143031D01*
X1010658Y-2143031D02*
X1020182Y-2162079D01*
X1020182Y-2162079D02*
X1029705Y-2200174D01*
X1029705Y-2200174D02*
X1029705Y-2247793D01*
X1029705Y-2247793D02*
X1020182Y-2285889D01*
X1020182Y-2285889D02*
X1010658Y-2304936D01*
X1010658Y-2304936D02*
X1001134Y-2314460D01*
X1001134Y-2314460D02*
X982086Y-2323984D01*
X982086Y-2323984D02*
X963039Y-2323984D01*
X963039Y-2323984D02*
X943991Y-2314460D01*
X943991Y-2314460D02*
X934467Y-2304936D01*
X934467Y-2304936D02*
X924943Y-2285889D01*
X924943Y-2285889D02*
X915420Y-2247793D01*
X915420Y-2247793D02*
X915420Y-2200174D01*
X915420Y-2200174D02*
X924943Y-2162079D01*
X924943Y-2162079D02*
X934467Y-2143031D01*
X934467Y-2143031D02*
X943991Y-2133508D01*
X943991Y-2133508D02*
X963039Y-2123984D01*
X1115420Y-2323984D02*
X1115420Y-2190650D01*
X1115420Y-2209698D02*
X1124944Y-2200174D01*
X1124944Y-2200174D02*
X1143991Y-2190650D01*
X1143991Y-2190650D02*
X1172563Y-2190650D01*
X1172563Y-2190650D02*
X1191610Y-2200174D01*
X1191610Y-2200174D02*
X1201134Y-2219222D01*
X1201134Y-2219222D02*
X1201134Y-2323984D01*
X1201134Y-2219222D02*
X1210658Y-2200174D01*
X1210658Y-2200174D02*
X1229705Y-2190650D01*
X1229705Y-2190650D02*
X1258277Y-2190650D01*
X1258277Y-2190650D02*
X1277325Y-2200174D01*
X1277325Y-2200174D02*
X1286848Y-2219222D01*
X1286848Y-2219222D02*
X1286848Y-2323984D01*
X1382086Y-2323984D02*
X1382086Y-2190650D01*
X1382086Y-2209698D02*
X1391610Y-2200174D01*
X1391610Y-2200174D02*
X1410658Y-2190650D01*
X1410658Y-2190650D02*
X1439229Y-2190650D01*
X1439229Y-2190650D02*
X1458277Y-2200174D01*
X1458277Y-2200174D02*
X1467801Y-2219222D01*
X1467801Y-2219222D02*
X1467801Y-2323984D01*
X1467801Y-2219222D02*
X1477324Y-2200174D01*
X1477324Y-2200174D02*
X1496372Y-2190650D01*
X1496372Y-2190650D02*
X1524943Y-2190650D01*
X1524943Y-2190650D02*
X1543991Y-2200174D01*
X1543991Y-2200174D02*
X1553515Y-2219222D01*
X1553515Y-2219222D02*
X1553515Y-2323984D01*
X1943991Y-2114460D02*
X1772563Y-2371603D01*
X2201134Y-2123984D02*
X2220182Y-2123984D01*
X2220182Y-2123984D02*
X2239229Y-2133508D01*
X2239229Y-2133508D02*
X2248753Y-2143031D01*
X2248753Y-2143031D02*
X2258277Y-2162079D01*
X2258277Y-2162079D02*
X2267801Y-2200174D01*
X2267801Y-2200174D02*
X2267801Y-2247793D01*
X2267801Y-2247793D02*
X2258277Y-2285889D01*
X2258277Y-2285889D02*
X2248753Y-2304936D01*
X2248753Y-2304936D02*
X2239229Y-2314460D01*
X2239229Y-2314460D02*
X2220182Y-2323984D01*
X2220182Y-2323984D02*
X2201134Y-2323984D01*
X2201134Y-2323984D02*
X2182087Y-2314460D01*
X2182087Y-2314460D02*
X2172563Y-2304936D01*
X2172563Y-2304936D02*
X2163039Y-2285889D01*
X2163039Y-2285889D02*
X2153515Y-2247793D01*
X2153515Y-2247793D02*
X2153515Y-2200174D01*
X2153515Y-2200174D02*
X2163039Y-2162079D01*
X2163039Y-2162079D02*
X2172563Y-2143031D01*
X2172563Y-2143031D02*
X2182087Y-2133508D01*
X2182087Y-2133508D02*
X2201134Y-2123984D01*
X2353515Y-2304936D02*
X2363039Y-2314460D01*
X2363039Y-2314460D02*
X2353515Y-2323984D01*
X2353515Y-2323984D02*
X2343991Y-2314460D01*
X2343991Y-2314460D02*
X2353515Y-2304936D01*
X2353515Y-2304936D02*
X2353515Y-2323984D01*
X2486848Y-2123984D02*
X2505896Y-2123984D01*
X2505896Y-2123984D02*
X2524944Y-2133508D01*
X2524944Y-2133508D02*
X2534468Y-2143031D01*
X2534468Y-2143031D02*
X2543991Y-2162079D01*
X2543991Y-2162079D02*
X2553515Y-2200174D01*
X2553515Y-2200174D02*
X2553515Y-2247793D01*
X2553515Y-2247793D02*
X2543991Y-2285889D01*
X2543991Y-2285889D02*
X2534468Y-2304936D01*
X2534468Y-2304936D02*
X2524944Y-2314460D01*
X2524944Y-2314460D02*
X2505896Y-2323984D01*
X2505896Y-2323984D02*
X2486848Y-2323984D01*
X2486848Y-2323984D02*
X2467801Y-2314460D01*
X2467801Y-2314460D02*
X2458277Y-2304936D01*
X2458277Y-2304936D02*
X2448753Y-2285889D01*
X2448753Y-2285889D02*
X2439229Y-2247793D01*
X2439229Y-2247793D02*
X2439229Y-2200174D01*
X2439229Y-2200174D02*
X2448753Y-2162079D01*
X2448753Y-2162079D02*
X2458277Y-2143031D01*
X2458277Y-2143031D02*
X2467801Y-2133508D01*
X2467801Y-2133508D02*
X2486848Y-2123984D01*
X2724944Y-2123984D02*
X2686848Y-2123984D01*
X2686848Y-2123984D02*
X2667801Y-2133508D01*
X2667801Y-2133508D02*
X2658277Y-2143031D01*
X2658277Y-2143031D02*
X2639229Y-2171603D01*
X2639229Y-2171603D02*
X2629706Y-2209698D01*
X2629706Y-2209698D02*
X2629706Y-2285889D01*
X2629706Y-2285889D02*
X2639229Y-2304936D01*
X2639229Y-2304936D02*
X2648753Y-2314460D01*
X2648753Y-2314460D02*
X2667801Y-2323984D01*
X2667801Y-2323984D02*
X2705896Y-2323984D01*
X2705896Y-2323984D02*
X2724944Y-2314460D01*
X2724944Y-2314460D02*
X2734468Y-2304936D01*
X2734468Y-2304936D02*
X2743991Y-2285889D01*
X2743991Y-2285889D02*
X2743991Y-2238270D01*
X2743991Y-2238270D02*
X2734468Y-2219222D01*
X2734468Y-2219222D02*
X2724944Y-2209698D01*
X2724944Y-2209698D02*
X2705896Y-2200174D01*
X2705896Y-2200174D02*
X2667801Y-2200174D01*
X2667801Y-2200174D02*
X2648753Y-2209698D01*
X2648753Y-2209698D02*
X2639229Y-2219222D01*
X2639229Y-2219222D02*
X2629706Y-2238270D01*
X2915420Y-2123984D02*
X2877325Y-2123984D01*
X2877325Y-2123984D02*
X2858277Y-2133508D01*
X2858277Y-2133508D02*
X2848753Y-2143031D01*
X2848753Y-2143031D02*
X2829706Y-2171603D01*
X2829706Y-2171603D02*
X2820182Y-2209698D01*
X2820182Y-2209698D02*
X2820182Y-2285889D01*
X2820182Y-2285889D02*
X2829706Y-2304936D01*
X2829706Y-2304936D02*
X2839229Y-2314460D01*
X2839229Y-2314460D02*
X2858277Y-2323984D01*
X2858277Y-2323984D02*
X2896372Y-2323984D01*
X2896372Y-2323984D02*
X2915420Y-2314460D01*
X2915420Y-2314460D02*
X2924944Y-2304936D01*
X2924944Y-2304936D02*
X2934467Y-2285889D01*
X2934467Y-2285889D02*
X2934467Y-2238270D01*
X2934467Y-2238270D02*
X2924944Y-2219222D01*
X2924944Y-2219222D02*
X2915420Y-2209698D01*
X2915420Y-2209698D02*
X2896372Y-2200174D01*
X2896372Y-2200174D02*
X2858277Y-2200174D01*
X2858277Y-2200174D02*
X2839229Y-2209698D01*
X2839229Y-2209698D02*
X2829706Y-2219222D01*
X2829706Y-2219222D02*
X2820182Y-2238270D01*
X3029706Y-2323984D02*
X3067801Y-2323984D01*
X3067801Y-2323984D02*
X3086848Y-2314460D01*
X3086848Y-2314460D02*
X3096372Y-2304936D01*
X3096372Y-2304936D02*
X3115420Y-2276365D01*
X3115420Y-2276365D02*
X3124944Y-2238270D01*
X3124944Y-2238270D02*
X3124944Y-2162079D01*
X3124944Y-2162079D02*
X3115420Y-2143031D01*
X3115420Y-2143031D02*
X3105896Y-2133508D01*
X3105896Y-2133508D02*
X3086848Y-2123984D01*
X3086848Y-2123984D02*
X3048753Y-2123984D01*
X3048753Y-2123984D02*
X3029706Y-2133508D01*
X3029706Y-2133508D02*
X3020182Y-2143031D01*
X3020182Y-2143031D02*
X3010658Y-2162079D01*
X3010658Y-2162079D02*
X3010658Y-2209698D01*
X3010658Y-2209698D02*
X3020182Y-2228746D01*
X3020182Y-2228746D02*
X3029706Y-2238270D01*
X3029706Y-2238270D02*
X3048753Y-2247793D01*
X3048753Y-2247793D02*
X3086848Y-2247793D01*
X3086848Y-2247793D02*
X3105896Y-2238270D01*
X3105896Y-2238270D02*
X3115420Y-2228746D01*
X3115420Y-2228746D02*
X3124944Y-2209698D01*
X3201134Y-2123984D02*
X3201134Y-2162079D01*
X3277325Y-2123984D02*
X3277325Y-2162079D01*
X3572563Y-2400174D02*
X3563039Y-2390650D01*
X3563039Y-2390650D02*
X3543991Y-2362079D01*
X3543991Y-2362079D02*
X3534468Y-2343031D01*
X3534468Y-2343031D02*
X3524944Y-2314460D01*
X3524944Y-2314460D02*
X3515420Y-2266841D01*
X3515420Y-2266841D02*
X3515420Y-2228746D01*
X3515420Y-2228746D02*
X3524944Y-2181127D01*
X3524944Y-2181127D02*
X3534468Y-2152555D01*
X3534468Y-2152555D02*
X3543991Y-2133508D01*
X3543991Y-2133508D02*
X3563039Y-2104936D01*
X3563039Y-2104936D02*
X3572563Y-2095412D01*
X3677325Y-2209698D02*
X3658277Y-2200174D01*
X3658277Y-2200174D02*
X3648753Y-2190650D01*
X3648753Y-2190650D02*
X3639229Y-2171603D01*
X3639229Y-2171603D02*
X3639229Y-2162079D01*
X3639229Y-2162079D02*
X3648753Y-2143031D01*
X3648753Y-2143031D02*
X3658277Y-2133508D01*
X3658277Y-2133508D02*
X3677325Y-2123984D01*
X3677325Y-2123984D02*
X3715420Y-2123984D01*
X3715420Y-2123984D02*
X3734468Y-2133508D01*
X3734468Y-2133508D02*
X3743991Y-2143031D01*
X3743991Y-2143031D02*
X3753515Y-2162079D01*
X3753515Y-2162079D02*
X3753515Y-2171603D01*
X3753515Y-2171603D02*
X3743991Y-2190650D01*
X3743991Y-2190650D02*
X3734468Y-2200174D01*
X3734468Y-2200174D02*
X3715420Y-2209698D01*
X3715420Y-2209698D02*
X3677325Y-2209698D01*
X3677325Y-2209698D02*
X3658277Y-2219222D01*
X3658277Y-2219222D02*
X3648753Y-2228746D01*
X3648753Y-2228746D02*
X3639229Y-2247793D01*
X3639229Y-2247793D02*
X3639229Y-2285889D01*
X3639229Y-2285889D02*
X3648753Y-2304936D01*
X3648753Y-2304936D02*
X3658277Y-2314460D01*
X3658277Y-2314460D02*
X3677325Y-2323984D01*
X3677325Y-2323984D02*
X3715420Y-2323984D01*
X3715420Y-2323984D02*
X3734468Y-2314460D01*
X3734468Y-2314460D02*
X3743991Y-2304936D01*
X3743991Y-2304936D02*
X3753515Y-2285889D01*
X3753515Y-2285889D02*
X3753515Y-2247793D01*
X3753515Y-2247793D02*
X3743991Y-2228746D01*
X3743991Y-2228746D02*
X3734468Y-2219222D01*
X3734468Y-2219222D02*
X3715420Y-2209698D01*
X3991610Y-2323984D02*
X3991610Y-2123984D01*
X4077325Y-2323984D02*
X4077325Y-2219222D01*
X4077325Y-2219222D02*
X4067801Y-2200174D01*
X4067801Y-2200174D02*
X4048753Y-2190650D01*
X4048753Y-2190650D02*
X4020182Y-2190650D01*
X4020182Y-2190650D02*
X4001134Y-2200174D01*
X4001134Y-2200174D02*
X3991610Y-2209698D01*
X4201134Y-2323984D02*
X4182087Y-2314460D01*
X4182087Y-2314460D02*
X4172563Y-2304936D01*
X4172563Y-2304936D02*
X4163039Y-2285889D01*
X4163039Y-2285889D02*
X4163039Y-2228746D01*
X4163039Y-2228746D02*
X4172563Y-2209698D01*
X4172563Y-2209698D02*
X4182087Y-2200174D01*
X4182087Y-2200174D02*
X4201134Y-2190650D01*
X4201134Y-2190650D02*
X4229706Y-2190650D01*
X4229706Y-2190650D02*
X4248753Y-2200174D01*
X4248753Y-2200174D02*
X4258277Y-2209698D01*
X4258277Y-2209698D02*
X4267801Y-2228746D01*
X4267801Y-2228746D02*
X4267801Y-2285889D01*
X4267801Y-2285889D02*
X4258277Y-2304936D01*
X4258277Y-2304936D02*
X4248753Y-2314460D01*
X4248753Y-2314460D02*
X4229706Y-2323984D01*
X4229706Y-2323984D02*
X4201134Y-2323984D01*
X4382087Y-2323984D02*
X4363039Y-2314460D01*
X4363039Y-2314460D02*
X4353515Y-2295412D01*
X4353515Y-2295412D02*
X4353515Y-2123984D01*
X4534468Y-2314460D02*
X4515420Y-2323984D01*
X4515420Y-2323984D02*
X4477325Y-2323984D01*
X4477325Y-2323984D02*
X4458277Y-2314460D01*
X4458277Y-2314460D02*
X4448753Y-2295412D01*
X4448753Y-2295412D02*
X4448753Y-2219222D01*
X4448753Y-2219222D02*
X4458277Y-2200174D01*
X4458277Y-2200174D02*
X4477325Y-2190650D01*
X4477325Y-2190650D02*
X4515420Y-2190650D01*
X4515420Y-2190650D02*
X4534468Y-2200174D01*
X4534468Y-2200174D02*
X4543992Y-2219222D01*
X4543992Y-2219222D02*
X4543992Y-2238270D01*
X4543992Y-2238270D02*
X4448753Y-2257317D01*
X4620182Y-2314460D02*
X4639230Y-2323984D01*
X4639230Y-2323984D02*
X4677325Y-2323984D01*
X4677325Y-2323984D02*
X4696373Y-2314460D01*
X4696373Y-2314460D02*
X4705896Y-2295412D01*
X4705896Y-2295412D02*
X4705896Y-2285889D01*
X4705896Y-2285889D02*
X4696373Y-2266841D01*
X4696373Y-2266841D02*
X4677325Y-2257317D01*
X4677325Y-2257317D02*
X4648753Y-2257317D01*
X4648753Y-2257317D02*
X4629706Y-2247793D01*
X4629706Y-2247793D02*
X4620182Y-2228746D01*
X4620182Y-2228746D02*
X4620182Y-2219222D01*
X4620182Y-2219222D02*
X4629706Y-2200174D01*
X4629706Y-2200174D02*
X4648753Y-2190650D01*
X4648753Y-2190650D02*
X4677325Y-2190650D01*
X4677325Y-2190650D02*
X4696373Y-2200174D01*
X4772563Y-2400174D02*
X4782087Y-2390650D01*
X4782087Y-2390650D02*
X4801134Y-2362079D01*
X4801134Y-2362079D02*
X4810658Y-2343031D01*
X4810658Y-2343031D02*
X4820182Y-2314460D01*
X4820182Y-2314460D02*
X4829706Y-2266841D01*
X4829706Y-2266841D02*
X4829706Y-2228746D01*
X4829706Y-2228746D02*
X4820182Y-2181127D01*
X4820182Y-2181127D02*
X4810658Y-2152555D01*
X4810658Y-2152555D02*
X4801134Y-2133508D01*
X4801134Y-2133508D02*
X4782087Y-2104936D01*
X4782087Y-2104936D02*
X4772563Y-2095412D01*
M02*
